<svg xmlns="http://www.w3.org/2000/svg" viewBox="0 0 112 88"><linearGradient id="a" gradientUnits="userSpaceOnUse" x1="8" x2="120" y1="124" y2="124" gradientTransform="translate(-8 -28)"><stop offset="0" stop-color="#e5a50a"/><stop offset=".036" stop-color="#f6d32d"/><stop offset=".071" stop-color="#e5a50a"/><stop offset=".929" stop-color="#e5a50a"/><stop offset=".964" stop-color="#f6d32d"/><stop offset="1" stop-color="#e5a50a"/></linearGradient><linearGradient id="b" gradientUnits="userSpaceOnUse" x1="46" x2="82" y1="71.4" y2="71.4" gradientTransform="translate(-8 -28)"><stop offset="0" stop-color="#1f8455"/><stop offset=".5" stop-color="#26a269"/><stop offset="1" stop-color="#1f8455" stop-opacity=".976"/></linearGradient><path d="M8 12h96a8 8 0 0 1 8 8v60a8 8 0 0 1-8 8H8a8 8 0 0 1-8-8V20a8 8 0 0 1 8-8zm0 0" fill="url(#a)"/><path d="M8 0h96a8 8 0 0 1 8 8v56a8 8 0 0 1-8 8H8a8 8 0 0 1-8-8V8a8 8 0 0 1 8-8Zm0 0" fill="#f6d32d"/><path d="M18.742 29.254c3.922 0 6.508-3.117 6.508-8.852 0-5.761-2.586-8.718-6.508-8.718-3.918 0-6.504 2.957-6.504 8.718 0 5.735 2.586 8.852 6.504 8.852zm0-3.04c-1.68 0-3.012-1.413-3.012-5.812 0-4.398 1.332-5.68 3.012-5.68s3.016 1.282 3.016 5.68c0 4.399-1.336 5.813-3.016 5.813zm0-3.839c1.121 0 2-.8 2-2.027s-.879-2.028-2-2.028c-1.117 0-2 .801-2 2.028 0 1.226.883 2.027 2 2.027zm16.148 6.559h3.946c.32-6.614.988-9.786 5.281-14.532v-2.398H31.398v3.305h8.504c-3.547 4.453-4.691 7.972-5.011 13.625zm15.4 0h12.722v-3.305h-4.028c-.882 0-2.109.105-3.066.215 3.277-2.883 6.21-5.922 6.21-8.774 0-3.254-2.425-5.386-5.972-5.386-2.613 0-4.293.906-6.054 2.691l2.109 2.105c.96-.906 2.05-1.73 3.414-1.73 1.758 0 2.773.906 2.773 2.559 0 2.425-3.253 5.308-8.109 9.386zm26.6.32c1.813 0 3.84-.613 5.438-1.945l-1.57-2.48c-.961.667-2.11 1.253-3.496 1.253-2.184 0-3.703-1.465-3.703-3.762 0-2.293 1.57-3.757 3.84-3.757.984 0 1.917.32 2.93 1.039l1.816-2.426c-1.122-1.04-2.883-1.785-4.961-1.785-4.082 0-7.653 2.53-7.653 6.93 0 4.402 3.2 6.933 7.36 6.933zm11.4-.32h12.722v-3.305h-4.028c-.882 0-2.109.105-3.066.215 3.277-2.883 6.21-5.922 6.21-8.774 0-3.254-2.425-5.386-5.972-5.386-2.613 0-4.293.906-6.054 2.691l2.109 2.105c.96-.906 2.05-1.73 3.414-1.73 1.758 0 2.773.906 2.773 2.559 0 2.425-3.253 5.308-8.109 9.386zm-71.868 31.07h3.922v-10.16h4.558v-3.067h-4.558v-.375c0-1.601.8-2.32 2.48-2.32 1.012 0 1.946.188 2.774.508l.746-2.883c-1.121-.371-2.48-.719-4-.719-4.133 0-5.922 2.403-5.922 5.442v.347l-3.492.157v2.91h3.492zm19.293.316c1.707 0 3.363-.797 4.695-1.812h.106l.293 1.496h3.203V52.43c0-4.055-2.27-5.973-5.977-5.973-2.265 0-4.37.746-6.183 1.785l1.386 2.559c1.492-.746 2.746-1.227 4.024-1.227 1.789 0 2.695.723 2.828 1.922-6.266.371-8.719 1.867-8.719 4.824 0 2.243 1.68 4 4.344 4zm1.254-3.039c-1.117 0-1.84-.398-1.84-1.254 0-1.144 1.066-1.972 4.96-2.183v2.183c-.933.723-1.944 1.254-3.12 1.254zM56.29 60.32c3.495 0 6.64-2.156 6.64-5.918 0-3.601-2.692-5.254-5.813-5.254-.855 0-1.469.106-2.242.403l.297-3.176h6.984V43.07h-10.37l-.458 8.559 1.734 1.121c1.149-.64 1.735-.855 2.856-.855 1.785 0 3.094.906 3.094 2.613 0 1.734-1.364 2.64-3.282 2.64-1.601 0-2.878-.746-4-1.68l-1.76 2.482c1.386 1.332 3.386 2.371 6.32 2.371zm19 0c3.495 0 6.64-2.156 6.64-5.918 0-3.601-2.692-5.254-5.813-5.254-.855 0-1.469.106-2.242.403l.297-3.176h6.984V43.07h-10.37l-.458 8.559 1.734 1.121c1.149-.64 1.735-.855 2.856-.855 1.785 0 3.094.906 3.094 2.613 0 1.734-1.364 2.64-3.282 2.64-1.601 0-2.878-.746-4-1.68l-1.76 2.482c1.386 1.332 3.386 2.371 6.32 2.371zm19.452 0c3.922 0 6.508-3.117 6.508-8.851 0-5.762-2.586-8.719-6.508-8.719-3.918 0-6.504 2.957-6.504 8.719 0 5.734 2.586 8.851 6.504 8.851zm0-3.039c-1.68 0-3.012-1.414-3.012-5.812 0-4.398 1.332-5.68 3.012-5.68s3.016 1.281 3.016 5.68-1.336 5.812-3.016 5.812zm0-3.84c1.121 0 2-.8 2-2.027s-.879-2.023-2-2.023c-1.117 0-2 .796-2 2.023s.883 2.027 2 2.027zm0 0" fill="#c38d09"/><path d="M74 38c0 9.941-8.059 18-18 18s-18-8.059-18-18 8.059-18 18-18 18 8.059 18 18zm0 0" fill="url(#b)"/><path d="M74 34c0 9.941-8.059 18-18 18s-18-8.059-18-18 8.059-18 18-18 18 8.059 18 18zm0 0" fill="#2ec27e"/><path d="M68.605 21.156 54 35.758l-5.879-5.88-4.242 4.243L54 44.242l18.16-18.16a18.019 18.019 0 0 0-3.555-4.926zm0 0" fill="#fff"/></svg>