<svg version="1.1" id="Capa_1" xmlns="http://www.w3.org/2000/svg" x="0" y="0" viewBox="0 0 438.64 438.64" xml:space="preserve"><path d="M212.47 211.39c.2 2.4 3.31 4.46 6.85 4.46 3.54 0 6.66-2.06 6.85-4.46-.64-1.14-3.69-3.12-6.84-4.52-3.16 1.4-6.22 3.4-6.86 4.52z" fill="#f66"/><path d="M219.32 294.3c9.2-5 44.7-25.86 60.98-57.83 13.8-27.11-.19-50.21-7.34-59.38l-1.7 2.13c1.44 5.71 3.9 18.8-1.5 26.42-1.77 2.5-5.13 5.51-11.14 5.73-.73.02-1.44-.1-2.1-.38-.1-.05-8.2-3.3-21.6-4.4a9.17 9.17 0 0 1 1.26 4.57c0 8.1-7.56 14.69-16.86 14.69s-16.85-6.6-16.85-14.69c0-1.66.47-3.18 1.26-4.56-13.4 1.1-21.5 4.35-21.61 4.4-.66.26-1.38.39-2.1.37-6-.22-9.37-3.23-11.14-5.73-5.4-7.62-2.94-20.7-1.5-26.42l-1.73-2.17c-7.22 9.12-21.25 32.03-7.31 59.42 16.28 31.97 51.79 52.83 60.98 57.83z" fill="#999"/><path d="M219.32 183.53c-4.53 0-8.22 2.9-8.22 6.48 0 3.16 2.9 5.8 6.72 6.36 1.35.24 1.82.22 3 0 3.82-.57 6.72-3.2 6.72-6.36 0-3.57-3.69-6.47-8.22-6.47z" fill="#fc6"/><path d="M219.33 145.04c2.33-.05 26.35-.24 45.84 11.73-6.02-28.29-21.88-95.2-45.85-141.4-23.97 46.21-39.83 113.11-45.85 141.4 19.54-12 43.62-11.78 45.86-11.73z" fill="#f66"/><path d="M221.53 304.44a5.9 5.9 0 0 1-4.42 0c-1.58-.84-33.47-16.72-55.76-44.99-4.3 6.28-11.38 19.06-14.55 38.77 5.63 5.1 27.12 21.36 72.52 21.36 45.77 0 66.99-16.23 72.53-21.34-3.17-19.72-10.25-32.52-14.56-38.79-22.28 28.27-54.16 44.19-55.76 44.99z" fill="#cf6"/><path d="M177.66 179.59c-1.9 6.1-3.34 16.43-.61 20.28.42.59 1.04 1.2 2.45 1.42 2.97-1.07 11.15-3.65 23.16-4.65-1-2.03-1.56-4.27-1.56-6.63 0-9.09 8.17-16.48 18.22-16.48 10.05 0 18.22 7.4 18.22 16.48 0 2.36-.56 4.6-1.55 6.63 12 1 20.19 3.58 23.15 4.65 1.41-.22 2.04-.83 2.45-1.42 2.73-3.85 1.3-14.18-.6-20.29a5 5 0 0 1 .86-4.6l4.19-5.24c-17.69-15.24-46.68-14.71-46.72-14.71-.05 0-29.1-.47-46.71 14.7l4.18 5.25a5 5 0 0 1 .87 4.61zm53.87-18.02c13.3-2.73 26.04 5.92 26.58 6.3a5 5 0 0 1-5.67 8.23 34.7 34.7 0 0 0-6.19-3.14 5 5 0 0 1 1.21 3.22 5.03 5.03 0 0 1-8.54 3.54 5.04 5.04 0 0 1 0-7.07 5.02 5.02 0 0 1 2.05-1.22 19.2 19.2 0 0 0-7.42-.06 5 5 0 0 1-2.02-9.8zm-51 6.3c.54-.38 13.28-9.03 26.58-6.3a5 5 0 0 1-2.02 9.8 19.13 19.13 0 0 0-7.4.07c.75.24 1.46.64 2.03 1.21a5.01 5.01 0 0 1-3.54 8.53 5.03 5.03 0 0 1-5-5 5 5 0 0 1 1.2-3.2 35.01 35.01 0 0 0-6.16 3.11 4.97 4.97 0 0 1-6.96-1.27 5 5 0 0 1 1.27-6.96z" fill="#fc6"/><path d="M219.32 359.13c-43.5 0-67.38-13.91-77.18-21.51l-6.94 14.32c5.77 5.66 27.22 21.82 84.12 21.82 56.82 0 78.34-16.16 84.13-21.82l-6.95-14.32c-9.8 7.6-33.67 21.51-77.18 21.51zM312.04 284.45c-.53-18.3-15.75-34.56-23.67-41.82-1.52 2.84-3.16 5.6-4.9 8.26 5.4 6.92 17.41 25.67 19.64 57.67 6.17-7.58 9.18-15.65 8.93-24.1z" fill="#cf6"/><path d="M293.24 327.3c.33-6.18.28-11.95-.07-17.3-8.8 6.32-25.52 15.2-52.7 18.38v19.47c32.42-4.08 48.54-16.72 52.77-20.56z" fill="#693"/><path d="M258.73 414.02a5 5 0 1 1 0-10h14.1l6.8-28.17c-14.12 4.48-33.64 7.91-60.3 7.91-26.68 0-46.2-3.43-60.32-7.9l6.8 28.16h14.1a5 5 0 1 1 0 10h-18.24c-1.11-.01-10.5.35-14.88 14.62h50.64v-20.6c.34-7.13 5.33-20.63 21.9-20.63 16.55 0 21.54 13.5 21.87 20.63v20.6h50.64c-4.6-14.87-14.75-14.61-14.87-14.63h-18.25z" fill="#c93"/><path d="M155.18 250.89a106 106 0 0 1-4.9-8.26c-7.92 7.26-23.14 23.52-23.68 41.82-.25 8.46 2.76 16.53 8.93 24.11 2.23-32.01 14.25-50.76 19.65-57.67z" fill="#cf6"/><path d="M145.4 327.3c4.23 3.83 20.35 16.47 52.76 20.55v-19.47C171 325.2 154.28 316.32 145.48 310c-.36 5.35-.41 11.12-.08 17.3z" fill="#693"/><path d="M208.16 329.26v19.52a177.81 177.81 0 0 0 22.32 0v-19.52a191.27 191.27 0 0 1-22.32 0z" fill="#999"/><path d="M183.38 176.98c.98 0 1.97-.29 2.83-.89.05-.03 2.55-1.7 6.17-3.11a5 5 0 0 0-1.2 3.2 5.03 5.03 0 0 0 8.54 3.54 5.04 5.04 0 0 0 0-7.07 5.04 5.04 0 0 0-2.04-1.21c2.38-.45 4.92-.59 7.41-.07a5 5 0 0 0 2.02-9.8c-13.3-2.73-26.04 5.92-26.58 6.3a5 5 0 0 0 2.85 9.1zM233.55 171.37a19.2 19.2 0 0 1 7.42.06c-.76.25-1.48.65-2.05 1.22a5.03 5.03 0 0 0 0 7.07 5.04 5.04 0 0 0 7.07 0 5.05 5.05 0 0 0 1.47-3.54 5 5 0 0 0-1.21-3.22 34.7 34.7 0 0 1 6.19 3.14 4.97 4.97 0 0 0 6.94-1.28 5 5 0 0 0-1.27-6.96c-.54-.37-13.28-9.03-26.58-6.29a5 5 0 0 0 2.02 9.8z" fill="#633"/><path d="M322.04 284.12c-.74-24.4-21.54-44.39-29.4-51.1 5.28-14.86 4.68-30.44-1.89-45.52a76.1 76.1 0 0 0-13.31-20.6c-2.53-13.39-21.09-107.35-53.78-164.49-1.37-2.4-4.58-3-6.82-1.85a5.72 5.72 0 0 0-1.86 1.85c-32.68 57.14-51.24 151.1-53.78 164.49a76.14 76.14 0 0 0-13.3 20.6c-6.57 15.08-7.17 30.66-1.9 45.52-7.86 6.7-28.66 26.7-29.4 51.1-.42 14.07 5.85 27.02 18.62 38.52.04 1.92.1 3.87.22 5.86l-10.68 22.04a5 5 0 0 0 .3 4.9c.4.62 5.94 8.76 22.63 16.16l8.06 33.35c-7.66 2.42-17.18 9.94-20.17 27.87a5 5 0 0 0 4.93 5.82h61.92a5 5 0 0 0 5-5v-25.21c.15-2.08 1.41-11.02 11.9-11.02 10.51 0 11.74 9.01 11.88 11.01v25.22a5 5 0 0 0 5 5h61.92a5 5 0 0 0 4.93-5.82c-2.99-17.93-12.51-25.45-20.17-27.87l8.06-33.35c16.7-7.4 22.23-15.53 22.63-16.16a5 5 0 0 0 .3-4.9L303.2 328.5c.11-2 .18-3.94.23-5.86 12.76-11.5 19.03-24.45 18.6-38.52zM219.32 15.36c23.97 46.22 39.83 113.12 45.85 141.4-19.49-11.96-43.51-11.77-45.84-11.72-2.24-.06-26.32-.27-45.86 11.72 6.02-28.28 21.88-95.18 45.85-141.4zm0 139.67c.04 0 29.03-.53 46.72 14.7l-4.19 5.25a5 5 0 0 0-.86 4.6c1.9 6.11 3.33 16.44.6 20.29-.41.59-1.04 1.2-2.45 1.42-2.96-1.07-11.15-3.66-23.15-4.65.99-2.03 1.55-4.27 1.55-6.63 0-9.09-8.17-16.48-18.22-16.48-10.05 0-18.22 7.4-18.22 16.48 0 2.36.56 4.6 1.56 6.63-12 1-20.2 3.58-23.16 4.65-1.41-.22-2.03-.83-2.45-1.42-2.73-3.85-1.29-14.18.6-20.28a5 5 0 0 0-.86-4.61l-4.19-5.24c17.63-15.18 46.67-14.71 46.72-14.71zm1.5 41.33a6.52 6.52 0 0 1-3 0c-3.82-.55-6.72-3.19-6.72-6.35 0-3.57 3.69-6.47 8.22-6.47 4.54 0 8.22 2.9 8.22 6.47 0 3.16-2.9 5.8-6.71 6.35zm5.35 15.03c-.19 2.4-3.3 4.46-6.85 4.46-3.54 0-6.66-2.06-6.85-4.46.64-1.13 3.7-3.11 6.86-4.52 3.15 1.4 6.2 3.38 6.84 4.52zm-60.52-34.33 1.73 2.16c-1.44 5.71-3.9 18.8 1.5 26.42 1.77 2.5 5.13 5.51 11.15 5.73.7.02 1.43-.1 2.09-.38.1-.04 8.2-3.3 21.6-4.4a9.17 9.17 0 0 0-1.26 4.57c0 8.1 7.57 14.69 16.86 14.69 9.3 0 16.85-6.6 16.85-14.69 0-1.66-.47-3.18-1.26-4.56 13.4 1.1 21.5 4.34 21.6 4.39.66.27 1.38.4 2.1.38 6.02-.22 9.38-3.23 11.15-5.73 5.4-7.62 2.94-20.7 1.5-26.42l1.7-2.13c7.15 9.17 21.14 32.27 7.34 59.38-16.28 31.97-51.79 52.83-60.98 57.83-9.2-5-44.7-25.86-60.98-57.83-13.95-27.4.1-50.3 7.31-59.41zm53.67 142.52c-45.4 0-66.9-16.26-72.52-21.36 3.17-19.71 10.24-32.5 14.55-38.77 22.29 28.27 54.18 44.15 55.76 44.99a5.9 5.9 0 0 0 4.42 0c1.6-.8 33.48-16.72 55.76-44.99 4.31 6.28 11.4 19.07 14.56 38.8-5.54 5.1-26.75 21.33-72.53 21.33zm73.85-9.58c.35 5.35.4 11.12.07 17.3-4.23 3.83-20.35 16.47-52.76 20.55v-19.47c27.17-3.18 43.88-12.06 52.69-18.38zm-62.7 19.26v19.52a177.78 177.78 0 0 1-22.3 0v-19.52a191.26 191.26 0 0 0 22.3 0zm-32.3-.88v19.47c-32.42-4.08-48.54-16.72-52.77-20.56-.33-6.17-.28-11.94.08-17.3 8.8 6.33 25.51 15.21 52.68 18.4zm-71.57-43.93c.54-18.3 15.76-34.56 23.68-41.82 1.51 2.84 3.15 5.6 4.9 8.26-5.4 6.9-17.42 25.66-19.65 57.67-6.17-7.58-9.18-15.65-8.93-24.1zm165.24 144.2h-50.63v-20.6c-.33-7.14-5.33-20.64-21.89-20.64-16.56 0-21.55 13.5-21.88 20.63v20.6h-50.65c4.38-14.27 13.77-14.63 14.88-14.63h18.25a5 5 0 1 0 0-10h-14.1L159 375.86c14.12 4.48 33.64 7.91 60.31 7.91s46.2-3.43 60.32-7.9l-6.8 28.16h-14.11a5 5 0 1 0 0 10h18.24c.12 0 10.27-.25 14.87 14.62zm11.6-76.71c-5.78 5.66-27.3 21.82-84.12 21.82-56.9 0-78.35-16.16-84.13-21.82l6.95-14.32c9.8 7.6 33.67 21.51 77.18 21.51 43.51 0 67.38-13.91 77.18-21.51l6.95 14.32zm-.33-43.38c-2.23-32-14.24-50.75-19.64-57.67 1.74-2.66 3.38-5.42 4.9-8.26 7.92 7.26 23.14 23.53 23.67 41.82.25 8.46-2.76 16.53-8.93 24.11z" fill="#633"/></svg>
