<svg xmlns="http://www.w3.org/2000/svg" xmlns:xlink="http://www.w3.org/1999/xlink" id="svg355" width="100" height="100" version="1.1" viewBox="0 0 26.46 26.46"><defs id="defs352"><linearGradient id="Gradient" x1="0" x2="0" y1="0" y2="256" gradientTransform="matrix(.103 0 0 .103 88.6 53.8)" gradientUnits="userSpaceOnUse"><stop id="stop2" offset="0%" stop-color="#1c71d8" stop-opacity="1"/><stop id="stop4" offset="100%" stop-color="#2ec27e" stop-opacity="1"/></linearGradient><filter id="alpha-to-white" width="1" height="1" x="0" y="0"><feColorMatrix id="feColorMatrix7" in="SourceGraphic" type="matrix" values="0 0 0 1 0 0 0 0 1 0 0 0 0 1 0 0 0 0 1 0"/></filter><g id="child-svg"><svg id="svg12" width="16" height="16" version="1.1" viewBox="0 0 16 16"><path id="path10" fill="#222" d="M13.5 1.99a2.5 2.5 0 0 1 2.5 2.5v6a2.5 2.5 0 0 1-2.5 2.5H7.12l-3.12 3v-3H2.5c-1.5 0-2.5-1.31-2.5-2.5v-6a2.5 2.5 0 0 1 2.5-2.5zm0 0"/></svg></g></defs><g id="layer1" transform="translate(-88.6 -53.8)"><rect id="rect17" width="26.46" height="26.46" x="88.61" y="53.8" fill="url(#Gradient)" stroke-width=".1" ry="13.23"/><use xlink:href="#child-svg" id="use19" filter="url(#alpha-to-white)" transform="matrix(.827 0 0 .827 95.22 60.41)"/></g></svg>