<svg version="1.1" preserveAspectRatio="xMidYMid" id="svg10" xmlns:xlink="http://www.w3.org/1999/xlink" xmlns="http://www.w3.org/2000/svg" viewBox="0 0 1000 1000"><defs id="defs14"><linearGradient x1="26.8" y1="19.64" x2="6.49" y2="20.52" id="linearGradient-3" gradientTransform="scale(.85442 1.17038)" gradientUnits="userSpaceOnUse"><stop stop-color="#FF5C34" offset="0%" id="stop971"/><stop stop-color="#EB0256" offset="100%" id="stop973"/></linearGradient><linearGradient x1="18.6" y1="60.09" x2="29.55" y2="34.26" id="linearGradient-4" gradientTransform="matrix(27.63684 23.19006 -15.62755 18.6242 383 -552.83)" gradientUnits="userSpaceOnUse"><stop stop-color="#A63FDB" offset="0%" id="stop976"/><stop stop-color="#FF257E" offset="100%" id="stop978"/></linearGradient><linearGradient x1="31.91" y1="22.86" x2="56.14" y2="28.2" id="linearGradient-5" gradientTransform="matrix(5.10297 4.2819 -5.54672 6.61032 98.05 -141.53)" gradientUnits="userSpaceOnUse"><stop stop-color="#00FFF0" offset="0%" id="stop981"/><stop stop-color="#0087FF" offset="100%" id="stop983"/></linearGradient><linearGradient x1="40.01" y1="3.05" x2="21.61" y2="22.69" id="linearGradient-6" gradientTransform="matrix(6.08671 5.10736 -4.65025 5.54195 98.05 -141.53)" gradientUnits="userSpaceOnUse"><stop stop-color="#17C934" offset="0%" id="stop986"/><stop stop-color="#03FF6E" offset="100%" id="stop988"/></linearGradient><linearGradient x1="50%" y1="111.91%" x2="30.56%" y2="0%" id="linearGradient-7"><stop stop-color="#FFB000" offset="0%" id="stop991"/><stop stop-color="#FF7725" offset="100%" id="stop993"/></linearGradient><linearGradient x1="16.69" y1="19.2" x2="57.87" y2="21.72" id="linearGradient-10" gradientTransform="scale(.85442 1.17038)" gradientUnits="userSpaceOnUse"><stop stop-color="#9EE85D" offset="0%" id="stop998"/><stop stop-color="#0ED061" offset="100%" id="stop1000"/></linearGradient><linearGradient x1="38.66" y1="42.31" x2="29.42" y2="17.77" id="linearGradient-12" gradientTransform="scale(.85442 1.17038)" gradientUnits="userSpaceOnUse"><stop stop-color="#21EFE3" offset="0%" id="stop1004"/><stop stop-color="#2598FF" offset="100%" id="stop1006"/></linearGradient><linearGradient x1="32.78" y1="31.29" x2="-5.74" y2="34.56" id="linearGradient-14" gradientTransform="scale(.85442 1.17038)" gradientUnits="userSpaceOnUse"><stop stop-color="#A63FDB" offset="0%" id="stop1010"/><stop stop-color="#FF257E" offset="100%" id="stop1012"/></linearGradient><linearGradient xlink:href="#linearGradient-3" id="linearGradient1082" x1="30.97" y1="27.51" x2="1.11" y2="28.8" gradientTransform="matrix(18.95625 15.90619 -22.78384 27.15272 383 -552.83)" gradientUnits="userSpaceOnUse"/><linearGradient xlink:href="#linearGradient-5" id="linearGradient3078" gradientUnits="userSpaceOnUse" gradientTransform="matrix(19.93349 16.72618 -21.66686 25.82156 383 -552.83)" x1="31.91" y1="22.86" x2="56.14" y2="28.2"/><linearGradient xlink:href="#linearGradient-6" id="linearGradient3080" gradientUnits="userSpaceOnUse" gradientTransform="matrix(23.77623 19.95063 -18.16504 21.64825 383 -552.83)" x1="40.01" y1="3.05" x2="21.61" y2="22.69"/><linearGradient xlink:href="#linearGradient-7" id="linearGradient3082" gradientUnits="userSpaceOnUse" gradientTransform="matrix(25.84754 21.68866 -16.70937 19.91346 383 -552.83)" x1="15.19" y1="33.22" x2="9.59" y2="1.02"/><path id="path-1" d="M0 .11h50v49.78H0z"/><path d="M25.88 24.66A12.43 12.43 0 0 0 12.76 13 12.39 12.39 0 0 0 .94 25.95l.01.2A24.67 24.67 0 0 1 16 2l.53-.2c6.39-2.56 13.67.5 16.25 6.81s-.5 13.5-6.9 16.05Z" id="path-8"/><path d="m16.34 1.87.19-.07c6.39-2.56 13.67.5 16.25 6.81s-.5 13.5-6.9 16.05c-.05-1-.23-1.98-.5-2.9a10.9 10.9 0 0 0 5.75-9.6A11 11 0 0 0 20.06 1.25c-1.3 0-2.56.22-3.72.63Z" id="path-9"/><path d="m28.38 9.27.19-.07c6.39-2.56 13.67.5 16.25 6.81s-.5 13.5-6.9 16.05c-.05-1-.23-1.98-.5-2.9a10.9 10.9 0 0 0 5.75-9.6A11 11 0 0 0 32.1 8.65c-1.3 0-2.56.22-3.72.63Z" id="path-11"/><path d="m25.14 22.73.18-.07c6.4-2.55 13.67.5 16.25 6.81 2.59 6.32-.5 13.5-6.9 16.06-.05-1.01-.22-1.98-.5-2.9a10.9 10.9 0 0 0 5.75-9.6A11 11 0 0 0 28.86 22.1c-1.3 0-2.56.22-3.72.63Z" id="path-13"/><path d="m10.65 23.76.2-.07c6.38-2.55 13.66.5 16.24 6.81 2.59 6.32-.5 13.5-6.9 16.06-.05-1-.22-1.98-.5-2.9a10.9 10.9 0 0 0 5.75-9.6 11 11 0 0 0-11.06-10.93c-1.31 0-2.56.22-3.73.63Z" id="path-15"/><path d="m5.55 10.7.18-.08c6.4-2.55 13.67.5 16.26 6.82 2.58 6.31-.51 13.5-6.9 16.05-.06-1-.23-1.98-.51-2.9a10.9 10.9 0 0 0 5.75-9.6A11 11 0 0 0 9.27 10.06c-1.3 0-2.56.23-3.72.64Z" id="path-16"/><path d="M35.63 42.37h4.55a7.64 7.64 0 0 0 7.75-7.51 7.64 7.64 0 0 0-7.75-7.51h-6.56a4.4 4.4 0 0 0-4.48 4.33v16.87l6.5-6.18Z" id="path-17"/><filter x="-.19" y="-.17" width="1.38" height="1.39" filterUnits="objectBoundingBox" id="filter-18"><feOffset dx="0" dy="1" in="SourceAlpha" result="shadowOffsetOuter1" id="feOffset1018"/><feGaussianBlur stdDeviation="1.5" in="shadowOffsetOuter1" result="shadowBlurOuter1" id="feGaussianBlur1020"/><feColorMatrix values="0 0 0 0 0 0 0 0 0 0 0 0 0 0 0 0 0 0 0.298686594 0" type="matrix" in="shadowBlurOuter1" id="feColorMatrix1022"/></filter><mask id="mask-2" fill="#fff"><use xlink:href="#path-1" id="use1027" x="0" y="0" width="100%" height="100%"/></mask></defs><g id="g4125" fill-rule="evenodd" stroke="none"><path id="path3454" d="M0 0v405.66c147.94-96.95 344.18-72.45 466.55 53.44h60.3C611.7 308.5 578.13 115.44 443.76 0H0z" fill="url(#linearGradient1082)" stroke-width="29.62"/><path id="path3457" d="M198.97 346.26c-68.83.11-138 19.45-198.97 59.4V1000h289.85a375.55 375.55 0 0 1-14.47-35.38c-61.14-174.48 16.46-362.29 174.84-443.86V459.1h16.33a372.58 372.58 0 0 0-267.58-112.84z" fill="url(#linearGradient-4)" stroke-width="29.62"/><path id="path2178" d="M649.76 794.04A375.76 375.76 0 0 1 544.19 671v108.95c0 6.08-.22 11.96-.66 17.63-.43 5.67-1.09 11.14-1.95 16.4a166.39 166.39 0 0 1-3.2 15.18 144.76 144.76 0 0 1-4.4 13.98 128.63 128.63 0 0 1-5.56 12.79 117.36 117.36 0 0 1-6.67 11.6 110.54 110.54 0 0 1-16.49 19.74c-3.08 2.9-6.33 5.62-9.73 8.15-3.4 2.52-6.96 4.86-10.66 7.02-3.7 2.15-7.55 4.12-11.55 5.9-3.99 1.78-8.12 3.38-12.38 4.8a149.84 149.84 0 0 1-13.18 3.72 169.46 169.46 0 0 1-13.93 2.63c-4.77.7-9.65 1.23-14.64 1.57a219.73 219.73 0 0 1-29.02.08c-4.45-.3-8.79-.74-13-1.32-4.22-.58-8.32-1.3-12.3-2.14a149.65 149.65 0 0 1-32.77-10.9 138.4 138.4 0 0 1-18.57-10.54 135.8 135.8 0 0 1-23.23-19.83 144.69 144.69 0 0 1-12.57-15.37 157.13 157.13 0 0 1-10.39-16.67 172.76 172.76 0 0 1-4.4-8.7l76.52-46.31c1.85 3.27 3.67 6.48 5.52 9.6 1.84 3.1 3.7 6.11 5.62 9a113.1 113.1 0 0 0 5.97 8.2 74.36 74.36 0 0 0 6.55 7.18c2.31 2.2 4.75 4.2 7.37 5.96a48.7 48.7 0 0 0 8.43 4.51 47.97 47.97 0 0 0 9.71 2.87c1.74.33 3.55.58 5.42.75 1.87.17 3.8.25 5.82.25 3.86 0 7.54-.18 11.03-.6a58.18 58.18 0 0 0 9.87-2.02c1.54-.46 3.03-1 4.46-1.61 1.44-.61 2.82-1.3 4.14-2.07a34.55 34.55 0 0 0 7.25-5.6 34.93 34.93 0 0 0 3.1-3.62c.96-1.3 1.87-2.7 2.71-4.2.84-1.5 1.62-3.1 2.33-4.82a55.84 55.84 0 0 0 1.94-5.47 70.31 70.31 0 0 0 1.52-6.15c.44-2.17.8-4.46 1.1-6.87.3-2.41.52-4.95.67-7.62.15-2.67.23-5.47.23-8.4V520.75c-158.38 81.57-235.98 269.38-174.84 443.86a375.55 375.55 0 0 0 14.47 35.38H1000V846.08a364.47 364.47 0 0 1-102.56 21.74c-.37.47-.66 1-1.04 1.46a115.15 115.15 0 0 1-8.77 9.78 120.6 120.6 0 0 1-9.88 8.8 128.85 128.85 0 0 1-10.93 7.81c-3.8 2.44-7.78 4.71-11.9 6.81-4.13 2.1-8.41 4.03-12.83 5.8a168.58 168.58 0 0 1-13.69 4.76c-4.7 1.41-9.52 2.65-14.47 3.72a205.3 205.3 0 0 1-15.2 2.68c-5.18.71-10.47 1.25-15.86 1.61a262.7 262.7 0 0 1-32.46.06c-5.22-.31-10.31-.79-15.28-1.41-4.98-.62-9.83-1.4-14.56-2.3-4.74-.92-9.35-1.97-13.85-3.16a196.81 196.81 0 0 1-25.56-8.68 179.21 179.21 0 0 1-22.74-11.57 169.48 169.48 0 0 1-19.94-14.12 165.97 165.97 0 0 1-31.56-34.53 171.93 171.93 0 0 1-11.68-19.74l54.52-31.56z" fill="url(#linearGradient3078)" stroke-width="29.62"/><path id="path3448" d="m649.76 794.04 22-12.74c2.51 4.11 5.13 8.09 7.86 11.9 2.73 3.8 5.59 7.45 8.6 10.9 3 3.44 6.16 6.69 9.49 9.71a98.14 98.14 0 0 0 10.55 8.36 90.82 90.82 0 0 0 18.18 9.58 91.08 91.08 0 0 0 13.93 4.16c2.45.53 4.98.98 7.57 1.35 2.6.36 5.26.64 8 .82 2.74.19 5.56.28 8.45.28 4.87 0 9.52-.3 13.92-.89a86.1 86.1 0 0 0 12.47-2.57 73.32 73.32 0 0 0 10.9-4.12c1.68-.8 3.29-1.67 4.82-2.59a53.54 53.54 0 0 0 8.3-6.16 44.82 44.82 0 0 0 6.41-7.35 39.88 39.88 0 0 0 4.4-8.4 38.91 38.91 0 0 0 2.26-9.3c.2-1.61.29-3.26.29-4.94 0-2.01-.1-3.95-.3-5.8-.2-1.86-.49-3.65-.88-5.36a40.81 40.81 0 0 0-3.48-9.54 39.91 39.91 0 0 0-2.57-4.27 44.04 44.04 0 0 0-3.1-3.99 51.78 51.78 0 0 0-3.64-3.74 63.95 63.95 0 0 0-4.15-3.55 94.28 94.28 0 0 0-9.8-6.66 175.8 175.8 0 0 0-11.72-6.36c-4.22-2.11-8.74-4.22-13.55-6.4-4.81-2.17-9.9-4.4-15.28-6.75l-23.48-10.08c-8.48-3.6-16.6-7.33-24.32-11.23a297.25 297.25 0 0 1-11.27-6 245 245 0 0 1-10.64-6.31 205.04 205.04 0 0 1-9.98-6.68c-3.2-2.3-6.3-4.66-9.28-7.1a151.65 151.65 0 0 1-8.54-7.55c-2.73-2.6-5.32-5.3-7.79-8.07a117.28 117.28 0 0 1-18.46-27.74 117.8 117.8 0 0 1-4.42-10.6 125 125 0 0 1-3.48-11.34c-1.01-3.9-1.86-7.95-2.54-12.14-.68-4.18-1.2-8.5-1.54-12.99-.35-4.47-.52-9.1-.52-13.88 0-4.4.2-8.74.62-13.01.41-4.26 1.03-8.46 1.85-12.56a122.28 122.28 0 0 1 7.23-23.57 115.7 115.7 0 0 1 5.31-10.9c.11-.2.26-.38.37-.58a367.15 367.15 0 0 1-94.62-6.48V671a375.77 375.77 0 0 0 105.57 123.04z" fill="url(#linearGradient3080)" stroke-width="29.62"/><path id="path3870" d="M945.6 0c37.65 81.03 46.29 175.47 17.14 266.51A359.32 359.32 0 0 1 813.47 460.6a129.44 129.44 0 0 1 25.18 10.33A122.47 122.47 0 0 1 862 487.38c2.43 2.16 4.8 4.44 7.13 6.84 2.33 2.4 4.6 4.92 6.82 7.56 2.23 2.64 4.4 5.4 6.52 8.29 2.13 2.88 4.2 5.9 6.22 9.03 2.03 3.14 4 6.41 5.94 9.8l-73.17 47c-2.02-3.61-4.05-6.95-6.12-10.02a98.63 98.63 0 0 0-6.34-8.45 73.03 73.03 0 0 0-6.66-6.96 58.67 58.67 0 0 0-7.06-5.53 52.74 52.74 0 0 0-15.73-7.08 62.9 62.9 0 0 0-8.86-1.7 81.16 81.16 0 0 0-9.64-.54c-3.44 0-6.72.27-9.83.8a50.3 50.3 0 0 0-8.81 2.29c-2.75 1-5.32 2.21-7.69 3.64a39.62 39.62 0 0 0-6.48 4.85 37.45 37.45 0 0 0-11.36 20.41 42.3 42.3 0 0 0-.8 8.28c0 3.53.27 6.79.82 9.83.28 1.53.63 3 1.05 4.41a37.99 37.99 0 0 0 3.4 7.98c.71 1.24 1.5 2.45 2.37 3.63a45.88 45.88 0 0 0 6.11 6.71 69.89 69.89 0 0 0 8 6.21c3 2.02 6.31 4 9.96 5.98 3.65 1.98 7.63 3.97 11.97 6 4.33 2.05 9 4.13 14.04 6.32l23.5 10.06a579.02 579.02 0 0 1 28.29 12.96c4.44 2.2 8.73 4.4 12.89 6.65 4.15 2.25 8.16 4.54 12.02 6.87a240.4 240.4 0 0 1 11.15 7.13c3.56 2.42 6.98 4.9 10.25 7.46 3.27 2.54 6.39 5.16 9.35 7.85 2.96 2.69 5.77 5.46 8.42 8.3a124.7 124.7 0 0 1 7.5 8.84 115.56 115.56 0 0 1 12.11 19.46c1.7 3.47 3.23 7.05 4.6 10.76 1.36 3.72 2.56 7.56 3.6 11.54 1.02 3.98 1.89 8.1 2.58 12.37.7 4.27 1.21 8.68 1.56 13.26.35 4.58.53 9.32.53 14.23 0 5.28-.26 10.42-.77 15.4-.5 5-1.27 9.82-2.26 14.5-1 4.69-2.23 9.21-3.7 13.59A113.14 113.14 0 0 1 904 858.54a112.3 112.3 0 0 1-6.55 9.28A364.47 364.47 0 0 0 1000 846.08V0h-54.4z" fill="url(#linearGradient3080)" stroke-width="29.62"/><path id="path3867" d="M443.75 0c134.37 115.44 167.94 308.5 83.1 459.1h17.34v51.7a367.15 367.15 0 0 0 94.62 6.5 114.5 114.5 0 0 1 6.03-9.66 114.7 114.7 0 0 1 15.93-18.26 119.38 119.38 0 0 1 19.85-14.95c3.62-2.19 7.4-4.23 11.32-6.1a137.8 137.8 0 0 1 12.2-5.11c4.2-1.54 8.55-2.9 13.04-4.08 4.48-1.17 9.1-2.17 13.85-2.97 4.75-.8 9.63-1.42 14.63-1.83a188 188 0 0 1 15.38-.62c3.73 0 7.4.08 11 .25 3.6.17 7.15.42 10.62.75 3.48.34 6.9.77 10.24 1.28 3.36.52 6.64 1.12 9.87 1.82 3.23.7 6.4 1.5 9.5 2.39.41.12.8.27 1.2.39A359.32 359.32 0 0 0 962.74 266.5C991.89 175.47 983.25 81.03 945.6 0H443.75z" fill="url(#linearGradient3082)" stroke-width="29.62"/></g></svg>
