<svg xml:space="preserve" xmlns="http://www.w3.org/2000/svg" viewBox="0 0 1000 1000"><path d="m45.65 524.79 90.45 335.88c0 .72.37 1.45 1 2.08a6.62 6.62 0 0 0 2.6 1.52l459.67 123.4h43.13l352.4-352.3a4.83 4.83 0 0 0 1.45-2.26c.18-.8 0-1.72-.71-2.8l-30.73-114.72c-29.08.3-59.08-1.1-81.63-6.42-62.2-14.69-113.6-90.54-181.05-90.54-67.45 0-113.6 90.54-181.06 90.54-67.45 0-113.6-90.54-181.04-90.54-67.45 0-113.6 90.54-181.05 90.54-36.94 0-75.26 8.19-113.44 15.63z" fill="#11fff6" fill-opacity=".45"/><path d="M994.92 635.35 635.58 994.57c-1.44 1.44-3.6 2.16-5.03 1.44L139.69 864.28c-2.15-.72-3.59-2.16-3.59-3.6L3.87 369.7c-.71-2.16 0-3.6 1.44-5.04L364.64 5.43c1.44-1.44 3.6-2.16 5.03-1.44l490.86 131.74c2.15.72 3.6 2.16 3.6 3.6l131.5 490.98c1.45 2.16.73 3.6-.7 5.04z" fill="none" stroke="#11fff6" stroke-width="7.19"/><path d="M154.25 427.1c-44.05 0-81.28 32.2-119.12 58.74L136.1 860.67c0 1.44 1.44 2.88 3.6 3.6l490.85 131.75c1.44.72 3.6 0 5.03-1.45l359.34-359.22c1.44-1.44 2.15-2.89.71-5.05l-48.01-179.26c-21.78-13.68-44.4-23.94-69.18-23.94-67.45 0-113.6 90.52-181.04 90.52-67.45 0-113.6-90.52-181.05-90.52-67.45 0-113.6 90.52-181.06 90.52-67.45 0-113.6-90.52-181.04-90.52z" fill="#11fff6"/></svg>