<svg viewBox="0 0 1000 1000" xmlns="http://www.w3.org/2000/svg"><path class="blue" d="M905.93 182.83c-71.63.67-109.66 106.15-179.08 126.15-102.79 33-151.06-89.54-321.38-58.82C286.8 281.95 300.52 410.2 178.85 455.98c-66.7 25.1-132.32 4.43-134.35 14.83-3.35 15.9 121.68 87.86 228.89 50.33 70.76-24.74 96.8-84.4 198.4-109.14 45.18-11.11 61.45-4.42 68.14 4.06 11.36 14.7-.37 41.49-4.43 50.45-35.38 81.04-175.45 125.01-298.2 182.62C87.18 719.65-2.46 813.37.05 817.07c2.4 3.83 120.7-101 304.53-157.4 58.8-18.18 231.4-25.23 356.18-102.33 49.97-30.95 109.96-71.7 162.55-145.57 51.28-71.95 91.8-172 149.05-170.09 13.15.36 25.45 5.98 27.36 2.03 4.3-8.36-42.41-59.04-90.34-60.83-1.15-.05-2.32-.06-3.45-.05z" fill="#21cef5"/></svg>
