<svg xmlns="http://www.w3.org/2000/svg" shape-rendering="crispEdges" viewBox="0 0 200 110"><path d="M196 109v1h1v-1zM188 109v1h1v-1zM180 109v1h1v-1zM172 109v1h1v-1zM164 109v1h1v-1zM148 109v1h1v-1zM140 109v1h1v-1zM132 109v1h1v-1zM116 109v1h1v-1zM108 109v1h1v-1zM100 109v1h1v-1zM84 109v1h1v-1zM76 109v1h1v-1zM68 109v1h1v-1zM52 109v1h1v-1zM44 109v1h1v-1zM36 109v1h1v-1zM20 109v1h1v-1zM12 109v1h1v-1zM4 109v1h1v-1zM196 105v1h1v-1zM192 105v1h1v-1zM188 105v1h1v-1zM184 105v1h1v-1zM180 105v1h1v-1zM176 105v1h1v-1zM172 105v1h1v-1zM168 105v1h1v-1zM164 105v1h1v-1zM160 105v1h1v-1zM156 105v1h1v-1zM152 105v1h1v-1zM148 105v1h1v-1zM144 105v1h1v-1zM140 105v1h1v-1zM136 105v1h1v-1zM132 105v1h1v-1zM128 105v1h1v-1zM124 105v1h1v-1zM120 105v1h1v-1zM116 105v1h1v-1zM112 105v1h1v-1zM108 105v1h1v-1zM104 105v1h1v-1zM100 105v1h1v-1zM96 105v1h1v-1zM92 105v1h1v-1zM88 105v1h1v-1zM84 105v1h1v-1zM80 105v1h1v-1zM76 105v1h1v-1zM72 105v1h1v-1zM68 105v1h1v-1zM64 105v1h1v-1zM60 105v1h1v-1zM56 105v1h1v-1zM52 105v1h1v-1zM48 105v1h1v-1zM44 105v1h1v-1zM40 105v1h1v-1zM36 105v1h1v-1zM32 105v1h1v-1zM28 105v1h1v-1zM24 105v1h1v-1zM20 105v1h1v-1zM16 105v1h1v-1zM12 105v1h1v-1zM8 105v1h1v-1zM4 105v1h1v-1zM0 105v1h1v-1zM196 101v1h1v-1zM192 101v1h1v-1zM188 101v1h1v-1zM184 101v1h1v-1zM180 101v1h1v-1zM176 101v1h1v-1zM172 101v1h1v-1zM168 101v1h1v-1zM164 101v1h1v-1zM160 101v1h1v-1zM156 101v1h1v-1zM152 101v1h1v-1zM148 101v1h1v-1zM144 101v1h1v-1zM140 101v1h1v-1zM136 101v1h1v-1zM132 101v1h1v-1zM128 101v1h1v-1zM124 101v1h1v-1zM120 101v1h1v-1zM116 101v1h1v-1zM112 101v1h1v-1zM108 101v1h1v-1zM104 101v1h1v-1zM100 101v1h1v-1zM96 101v1h1v-1zM92 101v1h1v-1zM88 101v1h1v-1zM84 101v1h1v-1zM80 101v1h1v-1zM76 101v1h1v-1zM72 101v1h1v-1zM68 101v1h1v-1zM64 101v1h1v-1zM60 101v1h1v-1zM56 101v1h1v-1zM52 101v1h1v-1zM48 101v1h1v-1zM44 101v1h1v-1zM40 101v1h1v-1zM36 101v1h1v-1zM32 101v1h1v-1zM28 101v1h1v-1zM24 101v1h1v-1zM20 101v1h1v-1zM16 101v1h1v-1zM12 101v1h1v-1zM8 101v1h1v-1zM4 101v1h1v-1zM0 101v1h1v-1zM198 99v1h1v-1zM194 99v1h1v-1zM190 99v1h1v-1zM186 99v1h1v-1zM182 99v1h1v-1zM178 99v1h1v-1zM174 99v1h1v-1zM170 99v1h1v-1zM166 99v1h1v-1zM162 99v1h1v-1zM158 99v1h1v-1zM154 99v1h1v-1zM150 99v1h1v-1zM146 99v1h1v-1zM142 99v1h1v-1zM138 99v1h1v-1zM134 99v1h1v-1zM130 99v1h1v-1zM126 99v1h1v-1zM122 99v1h1v-1zM118 99v1h1v-1zM114 99v1h1v-1zM110 99v1h1v-1zM106 99v1h1v-1zM102 99v1h1v-1zM98 99v1h1v-1zM94 99v1h1v-1zM90 99v1h1v-1zM86 99v1h1v-1zM82 99v1h1v-1zM78 99v1h1v-1zM74 99v1h1v-1zM70 99v1h1v-1zM66 99v1h1v-1zM62 99v1h1v-1zM58 99v1h1v-1zM54 99v1h1v-1zM50 99v1h1v-1zM46 99v1h1v-1zM42 99v1h1v-1zM38 99v1h1v-1zM34 99v1h1v-1zM30 99v1h1v-1zM26 99v1h1v-1zM18 99v1h1v-1zM14 99v1h1v-1zM10 99v1h1v-1zM6 99v1h1v-1zM2 99v1h1v-1zM196 97v1h1v-1zM192 97v1h1v-1zM188 97v1h1v-1zM184 97v1h1v-1zM180 97v1h1v-1zM176 97v1h1v-1zM172 97v1h1v-1zM168 97v1h1v-1zM164 97v1h1v-1zM160 97v1h1v-1zM156 97v1h1v-1zM152 97v1h1v-1zM148 97v1h1v-1zM144 97v1h1v-1zM140 97v1h1v-1zM136 97v1h1v-1zM132 97v1h1v-1zM128 97v1h1v-1zM124 97v1h1v-1zM120 97v1h1v-1zM116 97v1h1v-1zM112 97v1h1v-1zM108 97v1h1v-1zM104 97v1h1v-1zM100 97v1h1v-1zM96 97v1h1v-1zM92 97v1h1v-1zM88 97v1h1v-1zM84 97v1h1v-1zM80 97v1h1v-1zM76 97v1h1v-1zM72 97v1h1v-1zM68 97v1h1v-1zM64 97v1h1v-1zM60 97v1h1v-1zM56 97v1h1v-1zM52 97v1h1v-1zM48 97v1h1v-1zM44 97v1h1v-1zM40 97v1h1v-1zM36 97v1h1v-1zM32 97v1h1v-1zM28 97v1h1v-1zM24 97v1h1v-1zM20 97v1h1v-1zM16 97v1h1v-1zM12 97v1h1v-1zM8 97v1h1v-1zM4 97v1h1v-1zM0 97v1h1v-1zM198 95v1h1v-1zM194 95v1h1v-1zM190 95v1h1v-1zM186 95v1h1v-1zM182 95v1h1v-1zM178 95v1h1v-1zM174 95v1h1v-1zM170 95v1h1v-1zM166 95v1h1v-1zM162 95v1h1v-1zM158 95v1h1v-1zM154 95v1h1v-1zM150 95v1h1v-1zM146 95v1h1v-1zM142 95v1h1v-1zM138 95v1h1v-1zM134 95v1h1v-1zM130 95v1h1v-1zM126 95v1h1v-1zM122 95v1h1v-1zM118 95v1h1v-1zM114 95v1h1v-1zM110 95v1h1v-1zM106 95v1h1v-1zM102 95v1h1v-1zM98 95v1h1v-1zM94 95v1h1v-1zM90 95v1h1v-1zM86 95v1h1v-1zM82 95v1h1v-1zM78 95v1h1v-1zM74 95v1h1v-1zM70 95v1h1v-1zM66 95v1h1v-1zM62 95v1h1v-1zM58 95v1h1v-1zM54 95v1h1v-1zM50 95v1h1v-1zM46 95v1h1v-1zM42 95v1h1v-1zM38 95v1h1v-1zM34 95v1h1v-1zM30 95v1h1v-1zM26 95v1h1v-1zM22 95v1h1v-1zM18 95v1h1v-1zM14 95v1h1v-1zM10 95v1h1v-1zM6 95v1h1v-1zM2 95v1h1v-1zM198 93v1h1v-1zM196 93v1h1v-1zM192 93v1h1v-1zM190 93v1h1v-1zM188 93v1h1v-1zM184 93v1h1v-1zM182 93v1h1v-1zM180 93v1h1v-1zM176 93v1h1v-1zM174 93v1h1v-1zM172 93v1h1v-1zM168 93v1h1v-1zM166 93v1h1v-1zM164 93v1h1v-1zM160 93v1h1v-1zM158 93v1h1v-1zM156 93v1h1v-1zM152 93v1h1v-1zM150 93v1h1v-1zM148 93v1h1v-1zM144 93v1h1v-1zM142 93v1h1v-1zM140 93v1h1v-1zM136 93v1h1v-1zM134 93v1h1v-1zM132 93v1h1v-1zM128 93v1h1v-1zM126 93v1h1v-1zM124 93v1h1v-1zM120 93v1h1v-1zM118 93v1h1v-1zM116 93v1h1v-1zM112 93v1h1v-1zM110 93v1h1v-1zM108 93v1h1v-1zM104 93v1h1v-1zM102 93v1h1v-1zM100 93v1h1v-1zM96 93v1h1v-1zM94 93v1h1v-1zM92 93v1h1v-1zM88 93v1h1v-1zM86 93v1h1v-1zM84 93v1h1v-1zM80 93v1h1v-1zM78 93v1h1v-1zM76 93v1h1v-1zM72 93v1h1v-1zM70 93v1h1v-1zM68 93v1h1v-1zM64 93v1h1v-1zM62 93v1h1v-1zM60 93v1h1v-1zM56 93v1h1v-1zM54 93v1h1v-1zM52 93v1h1v-1zM48 93v1h1v-1zM46 93v1h1v-1zM44 93v1h1v-1zM40 93v1h1v-1zM38 93v1h1v-1zM36 93v1h1v-1zM32 93v1h1v-1zM30 93v1h1v-1zM28 93v1h1v-1zM24 93v1h1v-1zM22 93v1h1v-1zM20 93v1h1v-1zM16 93v1h1v-1zM14 93v1h1v-1zM12 93v1h1v-1zM8 93v1h1v-1zM6 93v1h1v-1zM4 93v1h1v-1zM0 93v1h1v-1zM198 91v1h1v-1zM194 91v1h1v-1zM190 91v1h1v-1zM186 91v1h1v-1zM182 91v1h1v-1zM178 91v1h1v-1zM174 91v1h1v-1zM170 91v1h1v-1zM166 91v1h1v-1zM162 91v1h1v-1zM158 91v1h1v-1zM154 91v1h1v-1zM150 91v1h1v-1zM146 91v1h1v-1zM142 91v1h1v-1zM138 91v1h1v-1zM134 91v1h1v-1zM130 91v1h1v-1zM126 91v1h1v-1zM122 91v1h1v-1zM118 91v1h1v-1zM114 91v1h1v-1zM110 91v1h1v-1zM106 91v1h1v-1zM102 91v1h1v-1zM98 91v1h1v-1zM94 91v1h1v-1zM90 91v1h1v-1zM86 91v1h1v-1zM82 91v1h1v-1zM78 91v1h1v-1zM74 91v1h1v-1zM70 91v1h1v-1zM66 91v1h1v-1zM62 91v1h1v-1zM58 91v1h1v-1zM54 91v1h1v-1zM50 91v1h1v-1zM46 91v1h1v-1zM42 91v1h1v-1zM38 91v1h1v-1zM34 91v1h1v-1zM30 91v1h1v-1zM26 91v1h1v-1zM22 91v1h1v-1zM18 91v1h1v-1zM14 91v1h1v-1zM10 91v1h1v-1zM6 91v1h1v-1zM2 91v1h1v-1zM198 89v1h1v-1zM196 89v1h1v-1zM194 89v1h1v-1zM192 89v1h1v-1zM190 89v1h1v-1zM188 89v1h1v-1zM186 89v1h1v-1zM184 89v1h1v-1zM182 89v1h1v-1zM180 89v1h1v-1zM178 89v1h1v-1zM176 89v1h1v-1zM174 89v1h1v-1zM172 89v1h1v-1zM170 89v1h1v-1zM168 89v1h1v-1zM166 89v1h1v-1zM164 89v1h1v-1zM162 89v1h1v-1zM160 89v1h1v-1zM158 89v1h1v-1zM156 89v1h1v-1zM154 89v1h1v-1zM152 89v1h1v-1zM150 89v1h1v-1zM148 89v1h1v-1zM146 89v1h1v-1zM144 89v1h1v-1zM142 89v1h1v-1zM140 89v1h1v-1zM138 89v1h1v-1zM136 89v1h1v-1zM134 89v1h1v-1zM132 89v1h1v-1zM130 89v1h1v-1zM128 89v1h1v-1zM126 89v1h1v-1zM124 89v1h1v-1zM122 89v1h1v-1zM120 89v1h1v-1zM118 89v1h1v-1zM116 89v1h1v-1zM114 89v1h1v-1zM112 89v1h1v-1zM110 89v1h1v-1zM108 89v1h1v-1zM106 89v1h1v-1zM104 89v1h1v-1zM102 89v1h1v-1zM100 89v1h1v-1zM98 89v1h1v-1zM96 89v1h1v-1zM94 89v1h1v-1zM92 89v1h1v-1zM90 89v1h1v-1zM88 89v1h1v-1zM86 89v1h1v-1zM84 89v1h1v-1zM82 89v1h1v-1zM80 89v1h1v-1zM78 89v1h1v-1zM76 89v1h1v-1zM74 89v1h1v-1zM72 89v1h1v-1zM70 89v1h1v-1zM68 89v1h1v-1zM66 89v1h1v-1zM64 89v1h1v-1zM62 89v1h1v-1zM60 89v1h1v-1zM58 89v1h1v-1zM56 89v1h1v-1zM54 89v1h1v-1zM52 89v1h1v-1zM50 89v1h1v-1zM48 89v1h1v-1zM46 89v1h1v-1zM44 89v1h1v-1zM42 89v1h1v-1zM40 89v1h1v-1zM38 89v1h1v-1zM36 89v1h1v-1zM34 89v1h1v-1zM32 89v1h1v-1zM30 89v1h1v-1zM28 89v1h1v-1zM26 89v1h1v-1zM24 89v1h1v-1zM22 89v1h1v-1zM20 89v1h1v-1zM18 89v1h1v-1zM16 89v1h1v-1zM14 89v1h1v-1zM12 89v1h1v-1zM10 89v1h1v-1zM8 89v1h1v-1zM6 89v1h1v-1zM4 89v1h1v-1zM2 89v1h1v-1zM0 89v1h1v-1zM198 87v1h1v-1zM194 87v1h1v-1zM190 87v1h1v-1zM188 87v1h1v-1zM186 87v1h1v-1zM182 87v1h1v-1zM178 87v1h1v-1zM174 87v1h1v-1zM172 87v1h1v-1zM170 87v1h1v-1zM166 87v1h1v-1zM162 87v1h1v-1zM158 87v1h1v-1zM156 87v1h1v-1zM154 87v1h1v-1zM150 87v1h1v-1zM146 87v1h1v-1zM142 87v1h1v-1zM140 87v1h1v-1zM138 87v1h1v-1zM134 87v1h1v-1zM130 87v1h1v-1zM126 87v1h1v-1zM124 87v1h1v-1zM122 87v1h1v-1zM118 87v1h1v-1zM114 87v1h1v-1zM110 87v1h1v-1zM108 87v1h1v-1zM106 87v1h1v-1zM102 87v1h1v-1zM98 87v1h1v-1zM94 87v1h1v-1zM92 87v1h1v-1zM90 87v1h1v-1zM86 87v1h1v-1zM82 87v1h1v-1zM78 87v1h1v-1zM76 87v1h1v-1zM74 87v1h1v-1zM70 87v1h1v-1zM66 87v1h1v-1zM62 87v1h1v-1zM60 87v1h1v-1zM58 87v1h1v-1zM54 87v1h1v-1zM50 87v1h1v-1zM46 87v1h1v-1zM44 87v1h1v-1zM42 87v1h1v-1zM38 87v1h1v-1zM34 87v1h1v-1zM30 87v1h1v-1zM28 87v1h1v-1zM26 87v1h1v-1zM22 87v1h1v-1zM18 87v1h1v-1zM14 87v1h1v-1zM12 87v1h1v-1zM10 87v1h1v-1zM6 87v1h1v-1zM4 87v1h1v-1zM2 87v1h1v-1zM198 85v1h1v-1zM196 85v1h1v-1zM194 85v1h1v-1zM192 85v1h1v-1zM190 85v1h1v-1zM188 85v1h1v-1zM186 85v1h1v-1zM184 85v1h1v-1zM182 85v1h1v-1zM180 85v1h1v-1zM178 85v1h1v-1zM176 85v1h1v-1zM174 85v1h1v-1zM172 85v1h1v-1zM170 85v1h1v-1zM168 85v1h1v-1zM166 85v1h1v-1zM164 85v1h1v-1zM162 85v1h1v-1zM160 85v1h1v-1zM158 85v1h1v-1zM156 85v1h1v-1zM154 85v1h1v-1zM152 85v1h1v-1zM150 85v1h1v-1zM148 85v1h1v-1zM146 85v1h1v-1zM144 85v1h1v-1zM142 85v1h1v-1zM140 85v1h1v-1zM138 85v1h1v-1zM136 85v1h1v-1zM134 85v1h1v-1zM132 85v1h1v-1zM130 85v1h1v-1zM128 85v1h1v-1zM126 85v1h1v-1zM124 85v1h1v-1zM122 85v1h1v-1zM120 85v1h1v-1zM118 85v1h1v-1zM116 85v1h1v-1zM114 85v1h1v-1zM112 85v1h1v-1zM110 85v1h1v-1zM108 85v1h1v-1zM106 85v1h1v-1zM104 85v1h1v-1zM102 85v1h1v-1zM100 85v1h1v-1zM98 85v1h1v-1zM96 85v1h1v-1zM94 85v1h1v-1zM92 85v1h1v-1zM90 85v1h1v-1zM88 85v1h1v-1zM86 85v1h1v-1zM84 85v1h1v-1zM82 85v1h1v-1zM80 85v1h1v-1zM78 85v1h1v-1zM76 85v1h1v-1zM74 85v1h1v-1zM72 85v1h1v-1zM70 85v1h1v-1zM68 85v1h1v-1zM66 85v1h1v-1zM64 85v1h1v-1zM62 85v1h1v-1zM60 85v1h1v-1zM58 85v1h1v-1zM56 85v1h1v-1zM54 85v1h1v-1zM52 85v1h1v-1zM50 85v1h1v-1zM48 85v1h1v-1zM46 85v1h1v-1zM44 85v1h1v-1zM42 85v1h1v-1zM40 85v1h1v-1zM38 85v1h1v-1zM36 85v1h1v-1zM34 85v1h1v-1zM32 85v1h1v-1zM30 85v1h1v-1zM28 85v1h1v-1zM26 85v1h1v-1zM24 85v1h1v-1zM22 85v1h1v-1zM20 85v1h1v-1zM18 85v1h1v-1zM16 85v1h1v-1zM14 85v1h1v-1zM12 85v1h1v-1zM10 85v1h1v-1zM8 85v1h1v-1zM6 85v1h1v-1zM4 85v1h1v-1zM2 85v1h1v-1zM0 85v1h1v-1zM198 83v1h1v-1zM196 83v1h1v-1zM194 83v1h1v-1zM192 83v1h1v-1zM190 83v1h1v-1zM188 83v1h1v-1zM182 83v1h1v-1zM180 83v1h1v-1zM178 83v1h1v-1zM176 83v1h1v-1zM174 83v1h1v-1zM172 83v1h1v-1zM166 83v1h1v-1zM164 83v1h1v-1zM162 83v1h1v-1zM160 83v1h1v-1zM158 83v1h1v-1zM156 83v1h1v-1zM154 83v1h1v-1zM152 83v1h1v-1zM150 83v1h1v-1zM148 83v1h1v-1zM146 83v1h1v-1zM144 83v1h1v-1zM142 83v1h1v-1zM140 83v1h1v-1zM134 83v1h1v-1zM132 83v1h1v-1zM130 83v1h1v-1zM128 83v1h1v-1zM126 83v1h1v-1zM124 83v1h1v-1zM118 83v1h1v-1zM116 83v1h1v-1zM114 83v1h1v-1zM112 83v1h1v-1zM110 83v1h1v-1zM108 83v1h1v-1zM102 83v1h1v-1zM100 83v1h1v-1zM98 83v1h1v-1zM96 83v1h1v-1zM94 83v1h1v-1zM92 83v1h1v-1zM86 83v1h1v-1zM84 83v1h1v-1zM82 83v1h1v-1zM80 83v1h1v-1zM78 83v1h1v-1zM76 83v1h1v-1zM70 83v1h1v-1zM68 83v1h1v-1zM66 83v1h1v-1zM64 83v1h1v-1zM62 83v1h1v-1zM60 83v1h1v-1zM54 83v1h1v-1zM52 83v1h1v-1zM50 83v1h1v-1zM48 83v1h1v-1zM46 83v1h1v-1zM44 83v1h1v-1zM38 83v1h1v-1zM36 83v1h1v-1zM34 83v1h1v-1zM32 83v1h1v-1zM30 83v1h1v-1zM28 83v1h1v-1zM26 83v1h1v-1zM24 83v1h1v-1zM22 83v1h1v-1zM20 83v1h1v-1zM18 83v1h1v-1zM16 83v1h1v-1zM14 83v1h1v-1zM12 83v1h1v-1zM10 83v1h1v-1zM8 83v1h1v-1zM6 83v1h1v-1zM4 83v1h1v-1zM2 83v1h1v-1zM0 83v1h1v-1zM198 81v1h1v-1zM196 81v1h1v-1zM194 81v1h1v-1zM192 81v1h1v-1zM190 81v1h1v-1zM188 81v1h1v-1zM185 83h-1v1h1zM186 83v1h1v-1zM186 82h1v-1h-1zM185 82v1h1v-1zM184 81v1h1v-1zM182 81v1h1v-1zM180 81v1h1v-1zM178 81v1h1v-1zM176 81v1h1v-1zM174 81v1h1v-1zM172 81v1h1v-1zM169 83h-1v1h1zM170 83v1h1v-1zM170 82h1v-1h-1zM169 82v1h1v-1zM168 81v1h1v-1zM166 81v1h1v-1zM164 81v1h1v-1zM162 81v1h1v-1zM160 81v1h1v-1zM158 81v1h1v-1zM156 81v1h1v-1zM154 81v1h1v-1zM152 81v1h1v-1zM150 81v1h1v-1zM148 81v1h1v-1zM146 81v1h1v-1zM144 81v1h1v-1zM142 81v1h1v-1zM140 81v1h1v-1zM137 83h-1v1h1zM138 83v1h1v-1zM138 82h1v-1h-1zM137 82v1h1v-1zM136 81v1h1v-1zM134 81v1h1v-1zM132 81v1h1v-1zM130 81v1h1v-1zM128 81v1h1v-1zM126 81v1h1v-1zM124 81v1h1v-1zM121 83h-1v1h1zM122 83v1h1v-1zM122 82h1v-1h-1zM121 82v1h1v-1zM120 81v1h1v-1zM118 81v1h1v-1zM116 81v1h1v-1zM114 81v1h1v-1zM112 81v1h1v-1zM110 81v1h1v-1zM108 81v1h1v-1zM105 83h-1v1h1zM106 83v1h1v-1zM106 82h1v-1h-1zM105 82v1h1v-1zM104 81v1h1v-1zM102 81v1h1v-1zM100 81v1h1v-1zM98 81v1h1v-1zM96 81v1h1v-1zM94 81v1h1v-1zM92 81v1h1v-1zM89 83h-1v1h1zM90 83v1h1v-1zM90 82h1v-1h-1zM89 82v1h1v-1zM88 81v1h1v-1zM86 81v1h1v-1zM84 81v1h1v-1zM82 81v1h1v-1zM80 81v1h1v-1zM78 81v1h1v-1zM76 81v1h1v-1zM73 83h-1v1h1zM74 83v1h1v-1zM74 82h1v-1h-1zM73 82v1h1v-1zM72 81v1h1v-1zM70 81v1h1v-1zM68 81v1h1v-1zM66 81v1h1v-1zM64 81v1h1v-1zM62 81v1h1v-1zM60 81v1h1v-1zM57 83h-1v1h1zM58 83v1h1v-1zM58 82h1v-1h-1zM57 82v1h1v-1zM56 81v1h1v-1zM54 81v1h1v-1zM52 81v1h1v-1zM50 81v1h1v-1zM48 81v1h1v-1zM46 81v1h1v-1zM44 81v1h1v-1zM41 83h-1v1h1zM42 83v1h1v-1zM42 82h1v-1h-1zM41 82v1h1v-1zM40 81v1h1v-1zM38 81v1h1v-1zM36 81v1h1v-1zM34 81v1h1v-1zM32 81v1h1v-1zM30 81v1h1v-1zM28 81v1h1v-1zM26 81v1h1v-1zM24 81v1h1v-1zM22 81v1h1v-1zM20 81v1h1v-1zM18 81v1h1v-1zM16 81v1h1v-1zM14 81v1h1v-1zM12 81v1h1v-1zM10 81v1h1v-1zM8 81v1h1v-1zM6 81v1h1v-1zM4 81v1h1v-1zM2 81v1h1v-1zM0 81v1h1v-1zM194 79v1h1v-1zM192 79v1h1v-1zM186 79v1h1v-1zM184 79v1h1v-1zM178 79v1h1v-1zM176 79v1h1v-1zM170 79v1h1v-1zM168 79v1h1v-1zM162 79v1h1v-1zM160 79v1h1v-1zM154 79v1h1v-1zM152 79v1h1v-1zM146 79v1h1v-1zM144 79v1h1v-1zM138 79v1h1v-1zM136 79v1h1v-1zM130 79v1h1v-1zM128 79v1h1v-1zM122 79v1h1v-1zM120 79v1h1v-1zM114 79v1h1v-1zM112 79v1h1v-1zM106 79v1h1v-1zM104 79v1h1v-1zM98 79v1h1v-1zM96 79v1h1v-1zM90 79v1h1v-1zM88 79v1h1v-1zM82 79v1h1v-1zM80 79v1h1v-1zM74 79v1h1v-1zM72 79v1h1v-1zM66 79v1h1v-1zM64 79v1h1v-1zM58 79v1h1v-1zM56 79v1h1v-1zM50 79v1h1v-1zM48 79v1h1v-1zM42 79v1h1v-1zM40 79v1h1v-1zM34 79v1h1v-1zM32 79v1h1v-1zM26 79v1h1v-1zM24 79v1h1v-1zM18 79v1h1v-1zM16 79v1h1v-1zM10 79v1h1v-1zM8 79v1h1v-1zM2 79v1h1v-1zM0 79v1h1v-1zM197 79h-1v1h1zM198 79v1h1v-1zM198 78h1v-1h-1zM197 78v1h1v-1zM196 77v1h1v-1zM194 77v1h1v-1zM192 77v1h1v-1zM189 79h-1v1h1zM190 79v1h1v-1zM190 78h1v-1h-1zM189 78v1h1v-1zM188 77v1h1v-1zM186 77v1h1v-1zM184 77v1h1v-1zM181 79h-1v1h1zM182 79v1h1v-1zM182 78h1v-1h-1zM181 78v1h1v-1zM180 77v1h1v-1zM178 77v1h1v-1zM176 77v1h1v-1zM173 79h-1v1h1zM174 79v1h1v-1zM174 78h1v-1h-1zM173 78v1h1v-1zM172 77v1h1v-1zM170 77v1h1v-1zM168 77v1h1v-1zM165 79h-1v1h1zM166 79v1h1v-1zM166 78h1v-1h-1zM165 78v1h1v-1zM164 77v1h1v-1zM162 77v1h1v-1zM160 77v1h1v-1zM157 79h-1v1h1zM158 79v1h1v-1zM158 78h1v-1h-1zM157 78v1h1v-1zM156 77v1h1v-1zM154 77v1h1v-1zM152 77v1h1v-1zM149 79h-1v1h1zM150 79v1h1v-1zM150 78h1v-1h-1zM149 78v1h1v-1zM148 77v1h1v-1zM146 77v1h1v-1zM144 77v1h1v-1zM141 79h-1v1h1zM142 79v1h1v-1zM142 78h1v-1h-1zM141 78v1h1v-1zM140 77v1h1v-1zM138 77v1h1v-1zM136 77v1h1v-1zM133 79h-1v1h1zM134 79v1h1v-1zM134 78h1v-1h-1zM133 78v1h1v-1zM132 77v1h1v-1zM130 77v1h1v-1zM128 77v1h1v-1zM125 79h-1v1h1zM126 79v1h1v-1zM126 78h1v-1h-1zM125 78v1h1v-1zM124 77v1h1v-1zM122 77v1h1v-1zM120 77v1h1v-1zM117 79h-1v1h1zM118 79v1h1v-1zM118 78h1v-1h-1zM117 78v1h1v-1zM116 77v1h1v-1zM114 77v1h1v-1zM112 77v1h1v-1zM109 79h-1v1h1zM110 79v1h1v-1zM110 78h1v-1h-1zM109 78v1h1v-1zM108 77v1h1v-1zM106 77v1h1v-1zM104 77v1h1v-1zM101 79h-1v1h1zM102 79v1h1v-1zM102 78h1v-1h-1zM101 78v1h1v-1zM100 77v1h1v-1zM98 77v1h1v-1zM96 77v1h1v-1zM93 79h-1v1h1zM94 79v1h1v-1zM94 78h1v-1h-1zM93 78v1h1v-1zM92 77v1h1v-1zM90 77v1h1v-1zM88 77v1h1v-1zM85 79h-1v1h1zM86 79v1h1v-1zM86 78h1v-1h-1zM85 78v1h1v-1zM84 77v1h1v-1zM82 77v1h1v-1zM80 77v1h1v-1zM77 79h-1v1h1zM78 79v1h1v-1zM78 78h1v-1h-1zM77 78v1h1v-1zM76 77v1h1v-1zM74 77v1h1v-1zM72 77v1h1v-1zM69 79h-1v1h1zM70 79v1h1v-1zM70 78h1v-1h-1zM69 78v1h1v-1zM68 77v1h1v-1zM66 77v1h1v-1zM64 77v1h1v-1zM61 79h-1v1h1zM62 79v1h1v-1zM62 78h1v-1h-1zM61 78v1h1v-1zM60 77v1h1v-1zM58 77v1h1v-1zM56 77v1h1v-1zM53 79h-1v1h1zM54 79v1h1v-1zM54 78h1v-1h-1zM53 78v1h1v-1zM52 77v1h1v-1zM50 77v1h1v-1zM48 77v1h1v-1zM45 79h-1v1h1zM46 79v1h1v-1zM46 78h1v-1h-1zM45 78v1h1v-1zM44 77v1h1v-1zM42 77v1h1v-1zM40 77v1h1v-1zM37 79h-1v1h1zM38 79v1h1v-1zM38 78h1v-1h-1zM37 78v1h1v-1zM36 77v1h1v-1zM34 77v1h1v-1zM32 77v1h1v-1zM29 79h-1v1h1zM30 79v1h1v-1zM30 78h1v-1h-1zM29 78v1h1v-1zM28 77v1h1v-1zM26 77v1h1v-1zM24 77v1h1v-1zM21 79h-1v1h1zM22 79v1h1v-1zM22 78h1v-1h-1zM21 78v1h1v-1zM20 77v1h1v-1zM18 77v1h1v-1zM16 77v1h1v-1zM13 79h-1v1h1zM14 79v1h1v-1zM14 78h1v-1h-1zM13 78v1h1v-1zM12 77v1h1v-1zM10 77v1h1v-1zM8 77v1h1v-1zM5 79H4v1h1zM6 79v1h1v-1zM6 78h1v-1H6ZM5 78v1h1v-1zM4 77v1h1v-1zM2 77v1h1v-1zM0 77v1h1v-1zM197 75h-1v1h1zM198 75v1h1v-1zM198 74h1v-1h-1zM197 74v1h1v-1zM196 73v1h1v-1zM169 75h-1v1h1zM170 75v1h1v-1zM170 74h1v-1h-1zM169 74v1h1v-1zM168 73v1h1v-1zM165 75h-1v1h1zM166 75v1h1v-1zM166 74h1v-1h-1zM165 74v1h1v-1zM164 73v1h1v-1zM153 75h-1v1h1zM154 75v1h1v-1zM154 74h1v-1h-1zM153 74v1h1v-1zM152 73v1h1v-1zM149 75h-1v1h1zM150 75v1h1v-1zM150 74h1v-1h-1zM149 74v1h1v-1zM148 73v1h1v-1zM105 75h-1v1h1zM106 75v1h1v-1zM106 74h1v-1h-1zM105 74v1h1v-1zM104 73v1h1v-1zM101 75h-1v1h1zM102 75v1h1v-1zM102 74h1v-1h-1zM101 74v1h1v-1zM100 73v1h1v-1zM9 75H8v1h1zM10 75v1h1v-1zM10 74h1v-1h-1zM9 74v1h1v-1zM8 73v1h1v-1zM5 75H4v1h1zM6 75v1h1v-1zM6 74h1v-1H6ZM5 74v1h1v-1zM4 73v1h1v-1zM1 75H0v1h1zM2 75v1h1v-1zM2 74h1v-1H2ZM1 74v1h1v-1zM0 73v1h1v-1zM196 4h1v1h-1zM192 4h1v1h-1zM188 4h1v1h-1zM184 4h1v1h-1zM180 4h1v1h-1zM176 4h1v1h-1zM172 4h1v1h-1zM168 4h1v1h-1zM164 4h1v1h-1zM160 4h1v1h-1zM156 4h1v1h-1zM152 4h1v1h-1zM148 4h1v1h-1zM144 4h1v1h-1zM140 4h1v1h-1zM136 4h1v1h-1zM132 4h1v1h-1zM128 4h1v1h-1zM124 4h1v1h-1zM120 4h1v1h-1zM116 4h1v1h-1zM112 4h1v1h-1zM108 4h1v1h-1zM104 4h1v1h-1zM100 4h1v1h-1zM96 4h1v1h-1zM92 4h1v1h-1zM88 4h1v1h-1zM84 4h1v1h-1zM80 4h1v1h-1zM76 4h1v1h-1zM72 4h1v1h-1zM68 4h1v1h-1zM64 4h1v1h-1zM60 4h1v1h-1zM56 4h1v1h-1zM52 4h1v1h-1zM48 4h1v1h-1zM44 4h1v1h-1zM40 4h1v1h-1zM36 4h1v1h-1zM32 4h1v1h-1zM28 4h1v1h-1zM24 4h1v1h-1zM20 4h1v1h-1zM16 4h1v1h-1zM12 4h1v1h-1zM8 4h1v1H8ZM4 4h1v1H4ZM1 32v-1H0v1zM194 66h1v-1h-1zM4 61v1h1v-1zM190 44h1v-1h-1zM16 49v-1h-1v1zM32 49v-1h-1v1zM64 49v-1h-1v1zM80 49v-1h-1v1zM96 49v-1h-1v1zM112 49v-1h-1v1zM128 49v-1h-1v1zM160 49v-1h-1v1zM176 49v-1h-1v1zM20 54h-1v1h1zM21 53h-1v1h1zM23 53h-1v1h1zM23 52v1h1v-1zM22 52h1v-1h-1zM21 52v1h1v-1zM20 52h1v-1h-1zM19 53h1v-1h-1zM18 54h1v-1h-1zM16 54h-1v1h1zM16 53v1h1v-1zM15 53h1v-1h-1zM14 54h1v-1h-1zM12 53v-1h-1v1zM13 54v-1h-1v1zM14 55v-1h-1v1zM15 56v-1h-1v1zM16 57v1h1v-1zM16 56h-1v1h1zM17 55h-1v1h1zM18 55v-1h-1v1zM19 56v-1h-1v1zM19 57h-1v1h1zM20 56h-1v1h1zM21 55h-1v1h1zM22 55v-1h-1v1zM23 55h-1v1h1zM24 54h-1v1h1zM25 53h-1v1h1zM36 54h-1v1h1zM37 53h-1v1h1zM39 53h-1v1h1zM39 52v1h1v-1zM38 52h1v-1h-1zM37 52v1h1v-1zM36 52h1v-1h-1zM35 53h1v-1h-1zM34 54h1v-1h-1zM32 54h-1v1h1zM32 53v1h1v-1zM31 53h1v-1h-1zM30 54h1v-1h-1zM28 53v1h1v-1zM27 53h1v-1h-1zM27 54v-1h-1v1zM28 55v-1h-1v1zM29 55h-1v1h1zM30 55v-1h-1v1zM31 56v-1h-1v1zM32 57v1h1v-1zM32 56h-1v1h1zM33 55h-1v1h1zM34 55v-1h-1v1zM35 56v-1h-1v1zM35 57h-1v1h1zM36 56h-1v1h1zM37 55h-1v1h1zM38 55v-1h-1v1zM39 55h-1v1h1zM40 54h-1v1h1zM41 53h-1v1h1zM68 54h-1v1h1zM69 53h-1v1h1zM71 53h-1v1h1zM71 52v1h1v-1zM70 52h1v-1h-1zM69 52v1h1v-1zM68 52h1v-1h-1zM67 53h1v-1h-1zM66 54h1v-1h-1zM64 54h-1v1h1zM64 53v1h1v-1zM63 53h1v-1h-1zM62 54h1v-1h-1zM60 54h-1v1h1zM60 53v1h1v-1zM59 53h1v-1h-1zM58 54h1v-1h-1zM52 54h-1v1h1zM53 53h-1v1h1zM55 54v-1h-1v1zM56 54h-1v1h1zM56 53v1h1v-1zM55 52v1h1v-1zM54 52h1v-1h-1zM53 52v1h1v-1zM52 52h1v-1h-1zM51 53h1v-1h-1zM50 54h1v-1h-1zM45 53h-1v1h1zM47 54v-1h-1v1zM48 54h-1v1h1zM48 53v1h1v-1zM47 52v1h1v-1zM46 52h1v-1h-1zM45 52v1h1v-1zM44 52h1v-1h-1zM43 53h1v-1h-1zM43 54v-1h-1v1zM44 55v-1h-1v1zM45 55h-1v1h1zM46 55v-1h-1v1zM47 56v-1h-1v1zM48 57v1h1v-1zM48 56h-1v1h1zM49 55h-1v1h1zM50 55v-1h-1v1zM51 56v-1h-1v1zM51 57h-1v1h1zM52 56h-1v1h1zM53 55h-1v1h1zM54 55v-1h-1v1zM55 56v-1h-1v1zM56 57v1h1v-1zM56 56h-1v1h1zM57 55h-1v1h1zM58 55v-1h-1v1zM59 56v-1h-1v1zM59 57h-1v1h1zM60 56h-1v1h1zM61 55h-1v1h1zM62 55v-1h-1v1zM63 56v-1h-1v1zM64 57v1h1v-1zM64 56h-1v1h1zM65 55h-1v1h1zM66 55v-1h-1v1zM67 56v-1h-1v1zM67 57h-1v1h1zM68 56h-1v1h1zM69 55h-1v1h1zM70 55v-1h-1v1zM71 55h-1v1h1zM72 54h-1v1h1zM73 53h-1v1h1zM84 54h-1v1h1zM85 53h-1v1h1zM87 53h-1v1h1zM87 52v1h1v-1zM86 52h1v-1h-1zM85 52v1h1v-1zM84 52h1v-1h-1zM83 53h1v-1h-1zM82 54h1v-1h-1zM80 54h-1v1h1zM80 53v1h1v-1zM79 53h1v-1h-1zM78 54h1v-1h-1zM76 53v1h1v-1zM75 53h1v-1h-1zM75 54v-1h-1v1zM76 55v-1h-1v1zM77 55h-1v1h1zM78 55v-1h-1v1zM79 56v-1h-1v1zM80 57v1h1v-1zM80 56h-1v1h1zM81 55h-1v1h1zM82 55v-1h-1v1zM83 56v-1h-1v1zM83 57h-1v1h1zM84 56h-1v1h1zM85 55h-1v1h1zM86 55v-1h-1v1zM87 55h-1v1h1zM88 54h-1v1h1zM89 53h-1v1h1zM164 54h-1v1h1zM165 53h-1v1h1zM167 53h-1v1h1zM167 52v1h1v-1zM166 52h1v-1h-1zM165 52v1h1v-1zM164 52h1v-1h-1zM163 53h1v-1h-1zM162 54h1v-1h-1zM160 54h-1v1h1zM160 53v1h1v-1zM159 53h1v-1h-1zM158 54h1v-1h-1zM156 54h-1v1h1zM156 53v1h1v-1zM155 53h1v-1h-1zM154 54h1v-1h-1zM148 54h-1v1h1zM149 53h-1v1h1zM151 54v-1h-1v1zM152 54h-1v1h1zM152 53v1h1v-1zM151 52v1h1v-1zM150 52h1v-1h-1zM149 52v1h1v-1zM148 52h1v-1h-1zM147 53h1v-1h-1zM146 54h1v-1h-1zM140 54h-1v1h1zM141 53h-1v1h1zM143 54v-1h-1v1zM144 54h-1v1h1zM144 53v1h1v-1zM143 52v1h1v-1zM142 52h1v-1h-1zM141 52v1h1v-1zM140 52h1v-1h-1zM139 53h1v-1h-1zM138 54h1v-1h-1zM132 54h-1v1h1zM133 53h-1v1h1zM135 54v-1h-1v1zM136 54h-1v1h1zM136 53v1h1v-1zM135 52v1h1v-1zM134 52h1v-1h-1zM133 52v1h1v-1zM132 52h1v-1h-1zM131 53h1v-1h-1zM130 54h1v-1h-1zM128 54h-1v1h1zM128 53v1h1v-1zM127 53h1v-1h-1zM126 54h1v-1h-1zM124 54h-1v1h1zM124 53v1h1v-1zM123 53h1v-1h-1zM122 54h1v-1h-1zM116 54h-1v1h1zM117 53h-1v1h1zM119 54v-1h-1v1zM120 54h-1v1h1zM120 53v1h1v-1zM119 52v1h1v-1zM118 52h1v-1h-1zM117 52v1h1v-1zM116 52h1v-1h-1zM115 53h1v-1h-1zM114 54h1v-1h-1zM112 54h-1v1h1zM112 53v1h1v-1zM111 53h1v-1h-1zM110 54h1v-1h-1zM108 54h-1v1h1zM108 53v1h1v-1zM107 53h1v-1h-1zM106 54h1v-1h-1zM100 54h-1v1h1zM101 53h-1v1h1zM103 54v-1h-1v1zM104 54h-1v1h1zM104 53v1h1v-1zM103 52v1h1v-1zM102 52h1v-1h-1zM101 52v1h1v-1zM100 52h1v-1h-1zM99 53h1v-1h-1zM98 54h1v-1h-1zM96 54h-1v1h1zM96 53v1h1v-1zM95 53h1v-1h-1zM94 54h1v-1h-1zM92 53v1h1v-1zM91 53h1v-1h-1zM91 54v-1h-1v1zM92 55v-1h-1v1zM93 55h-1v1h1zM94 55v-1h-1v1zM95 56v-1h-1v1zM96 57v1h1v-1zM96 56h-1v1h1zM97 55h-1v1h1zM98 55v-1h-1v1zM99 56v-1h-1v1zM99 57h-1v1h1zM100 56h-1v1h1zM101 55h-1v1h1zM102 55v-1h-1v1zM103 56v-1h-1v1zM104 57v1h1v-1zM104 56h-1v1h1zM105 55h-1v1h1zM106 55v-1h-1v1zM107 56v-1h-1v1zM107 57h-1v1h1zM108 56h-1v1h1zM109 55h-1v1h1zM110 55v-1h-1v1zM111 56v-1h-1v1zM112 57v1h1v-1zM112 56h-1v1h1zM113 55h-1v1h1zM114 55v-1h-1v1zM115 56v-1h-1v1zM115 57h-1v1h1zM116 56h-1v1h1zM117 55h-1v1h1zM118 55v-1h-1v1zM119 56v-1h-1v1zM120 57v1h1v-1zM120 56h-1v1h1zM121 55h-1v1h1zM122 55v-1h-1v1zM123 56v-1h-1v1zM123 57h-1v1h1zM124 56h-1v1h1zM125 55h-1v1h1zM126 55v-1h-1v1zM127 56v-1h-1v1zM128 57v1h1v-1zM128 56h-1v1h1zM129 55h-1v1h1zM130 55v-1h-1v1zM131 56v-1h-1v1zM131 57h-1v1h1zM132 56h-1v1h1zM133 55h-1v1h1zM134 55v-1h-1v1zM135 56v-1h-1v1zM136 57v1h1v-1zM136 56h-1v1h1zM137 55h-1v1h1zM138 55v-1h-1v1zM139 56v-1h-1v1zM139 57h-1v1h1zM140 56h-1v1h1zM141 55h-1v1h1zM142 55v-1h-1v1zM143 56v-1h-1v1zM144 57v1h1v-1zM144 56h-1v1h1zM145 55h-1v1h1zM146 55v-1h-1v1zM147 56v-1h-1v1zM147 57h-1v1h1zM148 56h-1v1h1zM149 55h-1v1h1zM150 55v-1h-1v1zM151 56v-1h-1v1zM152 57v1h1v-1zM152 56h-1v1h1zM153 55h-1v1h1zM154 55v-1h-1v1zM155 56v-1h-1v1zM155 57h-1v1h1zM156 56h-1v1h1zM157 55h-1v1h1zM158 55v-1h-1v1zM159 56v-1h-1v1zM160 57v1h1v-1zM160 56h-1v1h1zM161 55h-1v1h1zM162 55v-1h-1v1zM163 56v-1h-1v1zM163 57h-1v1h1zM164 56h-1v1h1zM165 55h-1v1h1zM166 55v-1h-1v1zM167 55h-1v1h1zM168 54h-1v1h1zM169 53h-1v1h1zM180 54h-1v1h1zM181 53h-1v1h1zM183 53h-1v1h1zM183 52v1h1v-1zM182 52h1v-1h-1zM181 52v1h1v-1zM180 52h1v-1h-1zM179 53h1v-1h-1zM178 54h1v-1h-1zM176 54h-1v1h1zM176 53v1h1v-1zM175 53h1v-1h-1zM174 54h1v-1h-1zM172 53v1h1v-1zM171 53h1v-1h-1zM171 54v-1h-1v1zM172 55v-1h-1v1zM173 55h-1v1h1zM174 55v-1h-1v1zM175 56v-1h-1v1zM176 57v1h1v-1zM176 56h-1v1h1zM177 55h-1v1h1zM178 55v-1h-1v1zM179 56v-1h-1v1zM179 57h-1v1h1zM180 56h-1v1h1zM181 55h-1v1h1zM182 55v-1h-1v1zM183 55h-1v1h1zM184 54h-1v1h1zM185 53h-1v1h1zM187 54v-1h-1v1zM188 55v-1h-1v1zM189 55h-1v1h1zM189 54v1h1v-1zM188 53v1h1v-1zM187 52v1h1v-1zM186 52h1v-1h-1zM185 52v1h1v-1zM184 51v1h1v-1zM183 50v1h1v-1zM183 49h1v-1h-1zM182 50h1v-1h-1zM181 50v1h1v-1zM180 50h1v-1h-1zM179 51h1v-1h-1zM178 52h1v-1h-1zM177 52v1h1v-1zM176 51v1h1v-1zM175 51h1v-1h-1zM174 52h1v-1h-1zM173 52v1h1v-1zM172 51v1h1v-1zM171 51h1v-1h-1zM170 52h1v-1h-1zM169 52v1h1v-1zM168 51v1h1v-1zM167 50v1h1v-1zM167 49h1v-1h-1zM166 50h1v-1h-1zM165 50v1h1v-1zM164 50h1v-1h-1zM163 51h1v-1h-1zM162 52h1v-1h-1zM161 52v1h1v-1zM160 51v1h1v-1zM159 51h1v-1h-1zM158 52h1v-1h-1zM157 52v1h1v-1zM156 51v1h1v-1zM155 51h1v-1h-1zM154 52h1v-1h-1zM153 52v1h1v-1zM152 51v1h1v-1zM151 50v1h1v-1zM151 49h1v-1h-1zM150 50h1v-1h-1zM149 50v1h1v-1zM148 50h1v-1h-1zM147 51h1v-1h-1zM146 52h1v-1h-1zM145 52v1h1v-1zM144 51v1h1v-1zM143 50v1h1v-1zM143 49h1v-1h-1zM142 50h1v-1h-1zM141 50v1h1v-1zM140 50h1v-1h-1zM139 51h1v-1h-1zM138 52h1v-1h-1zM137 52v1h1v-1zM136 51v1h1v-1zM135 50v1h1v-1zM134 50h1v-1h-1zM133 50v1h1v-1zM132 50h1v-1h-1zM131 51h1v-1h-1zM130 52h1v-1h-1zM129 52v1h1v-1zM128 51v1h1v-1zM127 51h1v-1h-1zM126 52h1v-1h-1zM125 52v1h1v-1zM124 51v1h1v-1zM123 51h1v-1h-1zM122 52h1v-1h-1zM121 52v1h1v-1zM120 51v1h1v-1zM119 50v1h1v-1zM119 49h1v-1h-1zM118 50h1v-1h-1zM117 50v1h1v-1zM116 50h1v-1h-1zM115 51h1v-1h-1zM114 52h1v-1h-1zM113 52v1h1v-1zM112 51v1h1v-1zM111 51h1v-1h-1zM110 52h1v-1h-1zM109 52v1h1v-1zM108 51v1h1v-1zM107 51h1v-1h-1zM106 52h1v-1h-1zM105 52v1h1v-1zM104 51v1h1v-1zM103 50v1h1v-1zM103 49h1v-1h-1zM102 50h1v-1h-1zM101 50v1h1v-1zM100 49v-1h-1v1zM100 50h1v-1h-1zM99 51h1v-1h-1zM98 52h1v-1h-1zM97 52v1h1v-1zM96 51v1h1v-1zM95 51h1v-1h-1zM94 52h1v-1h-1zM93 52v1h1v-1zM92 51v1h1v-1zM91 51h1v-1h-1zM90 52h1v-1h-1zM89 52v1h1v-1zM88 51v1h1v-1zM87 50v1h1v-1zM87 49h1v-1h-1zM86 50h1v-1h-1zM85 50v1h1v-1zM84 49v-1h-1v1zM84 50h1v-1h-1zM83 51h1v-1h-1zM82 52h1v-1h-1zM81 52v1h1v-1zM80 51v1h1v-1zM79 51h1v-1h-1zM78 52h1v-1h-1zM77 52v1h1v-1zM76 51v1h1v-1zM75 51h1v-1h-1zM74 52h1v-1h-1zM73 52v1h1v-1zM72 51v1h1v-1zM71 50v1h1v-1zM71 49h1v-1h-1zM70 50h1v-1h-1zM69 50v1h1v-1zM68 50h1v-1h-1zM67 51h1v-1h-1zM66 52h1v-1h-1zM65 52v1h1v-1zM64 51v1h1v-1zM63 51h1v-1h-1zM62 52h1v-1h-1zM61 52v1h1v-1zM60 51v1h1v-1zM59 51h1v-1h-1zM58 52h1v-1h-1zM57 52v1h1v-1zM56 51v1h1v-1zM55 50v1h1v-1zM55 49h1v-1h-1zM54 50h1v-1h-1zM53 50v1h1v-1zM52 50h1v-1h-1zM51 51h1v-1h-1zM50 52h1v-1h-1zM49 52v1h1v-1zM48 51v1h1v-1zM47 50v1h1v-1zM47 49h1v-1h-1zM46 50h1v-1h-1zM45 50v1h1v-1zM44 50h1v-1h-1zM43 51h1v-1h-1zM42 52h1v-1h-1zM41 52v1h1v-1zM40 51v1h1v-1zM39 50v1h1v-1zM38 50h1v-1h-1zM37 50v1h1v-1zM36 49v-1h-1v1zM36 50h1v-1h-1zM35 51h1v-1h-1zM34 52h1v-1h-1zM33 52v1h1v-1zM32 51v1h1v-1zM31 51h1v-1h-1zM30 52h1v-1h-1zM29 52v1h1v-1zM28 51v1h1v-1zM27 51h1v-1h-1zM26 52h1v-1h-1zM25 52v1h1v-1zM24 51v1h1v-1zM23 50v1h1v-1zM23 49h1v-1h-1zM22 50h1v-1h-1zM21 50v1h1v-1zM20 49v-1h-1v1zM20 50h1v-1h-1zM19 51h1v-1h-1zM18 52h1v-1h-1zM17 52v1h1v-1zM16 51v1h1v-1zM15 51h1v-1h-1zM14 52h1v-1h-1zM13 52v1h1v-1zM12 51v1h1v-1zM11 51h1v-1h-1zM10 52h1v-1h-1zM9 52v-1H8v1zM9 53H8v1h1zM10 53v-1H9v1zM11 54v-1h-1v1zM12 55v-1h-1v1zM13 56v-1h-1v1zM11 59h-1v1h1zM12 58h-1v1h1zM13 57h-1v1h1zM14 57v-1h-1v1zM15 58v-1h-1v1zM16 59v-1h-1v1zM17 59h-1v1h1zM18 59v-1h-1v1zM19 59h-1v1h1zM20 58h-1v1h1zM21 57h-1v1h1zM22 57v-1h-1v1zM23 58v-1h-1v1zM24 58h-1v1h1zM24 57v1h1v-1zM24 56h-1v1h1zM25 55h-1v1h1zM26 55v-1h-1v1zM27 56v-1h-1v1zM27 57h1v-1h-1zM27 58v-1h-1v1zM28 58h-1v1h1zM29 57h-1v1h1zM30 57v-1h-1v1zM31 58v-1h-1v1zM32 59v-1h-1v1zM33 59h-1v1h1zM34 59v-1h-1v1zM35 59h-1v1h1zM36 58h-1v1h1zM37 57h-1v1h1zM38 57v-1h-1v1zM39 58v-1h-1v1zM40 58h-1v1h1zM40 57v1h1v-1zM40 56h-1v1h1zM41 55h-1v1h1zM42 55v-1h-1v1zM43 56v-1h-1v1zM43 57h1v-1h-1zM43 58v-1h-1v1zM44 58h-1v1h1zM45 57h-1v1h1zM46 57v-1h-1v1zM47 58v-1h-1v1zM48 59v-1h-1v1zM49 59h-1v1h1zM50 59v-1h-1v1zM51 59h-1v1h1zM52 58h-1v1h1zM53 57h-1v1h1zM54 57v-1h-1v1zM55 58v-1h-1v1zM56 59v-1h-1v1zM57 59h-1v1h1zM58 59v-1h-1v1zM59 59h-1v1h1zM60 58h-1v1h1zM61 57h-1v1h1zM62 57v-1h-1v1zM63 58v-1h-1v1zM64 59v-1h-1v1zM65 59h-1v1h1zM66 59v-1h-1v1zM67 59h-1v1h1zM68 58h-1v1h1zM69 57h-1v1h1zM70 57v-1h-1v1zM71 58v-1h-1v1zM72 58h-1v1h1zM72 57v1h1v-1zM72 56h-1v1h1zM73 55h-1v1h1zM74 55v-1h-1v1zM75 56v-1h-1v1zM75 57h1v-1h-1zM75 58v-1h-1v1zM76 58h-1v1h1zM77 57h-1v1h1zM78 57v-1h-1v1zM79 58v-1h-1v1zM80 59v-1h-1v1zM81 59h-1v1h1zM82 59v-1h-1v1zM83 59h-1v1h1zM84 58h-1v1h1zM85 57h-1v1h1zM86 57v-1h-1v1zM87 58v-1h-1v1zM88 58h-1v1h1zM88 57v1h1v-1zM88 56h-1v1h1zM89 55h-1v1h1zM90 55v-1h-1v1zM91 56v-1h-1v1zM91 57h1v-1h-1zM91 58v-1h-1v1zM92 58h-1v1h1zM93 57h-1v1h1zM94 57v-1h-1v1zM95 58v-1h-1v1zM96 59v-1h-1v1zM97 59h-1v1h1zM98 59v-1h-1v1zM99 59h-1v1h1zM100 58h-1v1h1zM101 57h-1v1h1zM102 57v-1h-1v1zM103 58v-1h-1v1zM104 59v-1h-1v1zM105 59h-1v1h1zM106 59v-1h-1v1zM107 59h-1v1h1zM108 58h-1v1h1zM109 57h-1v1h1zM110 57v-1h-1v1zM111 58v-1h-1v1zM112 59v-1h-1v1zM113 59h-1v1h1zM114 59v-1h-1v1zM115 59h-1v1h1zM116 58h-1v1h1zM117 57h-1v1h1zM118 57v-1h-1v1zM119 58v-1h-1v1zM120 59v-1h-1v1zM121 59h-1v1h1zM122 59v-1h-1v1zM123 59h-1v1h1zM124 58h-1v1h1zM125 57h-1v1h1zM126 57v-1h-1v1zM127 58v-1h-1v1zM128 59v-1h-1v1zM129 59h-1v1h1zM130 59v-1h-1v1zM131 59h-1v1h1zM132 58h-1v1h1zM133 57h-1v1h1zM134 57v-1h-1v1zM135 58v-1h-1v1zM136 59v-1h-1v1zM137 59h-1v1h1zM138 59v-1h-1v1zM139 59h-1v1h1zM140 58h-1v1h1zM141 57h-1v1h1zM142 57v-1h-1v1zM143 58v-1h-1v1zM144 59v-1h-1v1zM145 59h-1v1h1zM146 59v-1h-1v1zM147 59h-1v1h1zM148 58h-1v1h1zM149 57h-1v1h1zM150 57v-1h-1v1zM151 58v-1h-1v1zM152 59v-1h-1v1zM153 59h-1v1h1zM154 59v-1h-1v1zM155 59h-1v1h1zM156 58h-1v1h1zM157 57h-1v1h1zM158 57v-1h-1v1zM159 58v-1h-1v1zM160 59v-1h-1v1zM161 59h-1v1h1zM162 59v-1h-1v1zM163 59h-1v1h1zM164 58h-1v1h1zM165 57h-1v1h1zM166 57v-1h-1v1zM167 58v-1h-1v1zM168 58h-1v1h1zM168 57v1h1v-1zM168 56h-1v1h1zM169 55h-1v1h1zM170 55v-1h-1v1zM171 56v-1h-1v1zM171 57h1v-1h-1zM171 58v-1h-1v1zM172 58h-1v1h1zM173 57h-1v1h1zM174 57v-1h-1v1zM175 58v-1h-1v1zM176 59v-1h-1v1zM177 59h-1v1h1zM178 59v-1h-1v1zM179 59h-1v1h1zM180 58h-1v1h1zM181 57h-1v1h1zM182 57v-1h-1v1zM183 58v-1h-1v1zM184 58h-1v1h1zM184 57v1h1v-1zM184 56h-1v1h1zM185 55h-1v1h1zM186 55v-1h-1v1zM187 56v-1h-1v1zM187 57h1v-1h-1zM187 58v-1h-1v1zM188 58h-1v1h1zM189 57h-1v1h1zM191 58v1h1v-1zM190 57v1h1v-1zM190 56h-1v1h1zM191 55h-1v1h1zM191 54v1h1v-1zM191 53h-1v1h1zM191 52v1h1v-1zM190 52h1v-1h-1zM189 52v1h1v-1zM188 51v1h1v-1zM187 50v1h1v-1zM187 48v1h1v-1zM186 48h1v-1h-1zM185 48v1h-1v1h1v1h1v-1h1v-1h-1v-1zM184 47v1h1v-1zM183 47h1v-1h-1zM182 48h1v-1h-1zM181 48v1h1v-1zM180 48h1v-1h-1zM179 48v1h1v-1zM178 48h1v-1h-1zM177 48v1h-1v1h1v1h1v-1h1v-1h-1v-1zM176 47v1h1v-1zM175 47h1v-1h-1zM174 48h1v-1h-1zM173 48v1h-1v1h1v1h1v-1h1v-1h-1v-1zM172 48h1v-1h-1zM171 48v1h1v-1zM170 48h1v-1h-1zM169 48v1h-1v1h1v1h1v-1h1v-1h-1v-1zM168 47v1h1v-1zM167 47h1v-1h-1zM166 48h1v-1h-1zM165 48v1h1v-1zM164 48h1v-1h-1zM163 48v1h1v-1zM162 48h1v-1h-1zM161 48v1h-1v1h1v1h1v-1h1v-1h-1v-1zM160 47v1h1v-1zM159 47h1v-1h-1zM158 48h1v-1h-1zM157 48v1h-1v1h1v1h1v-1h1v-1h-1v-1zM156 48h1v-1h-1zM155 48v1h1v-1zM154 48h1v-1h-1zM153 48v1h-1v1h1v1h1v-1h1v-1h-1v-1zM152 47v1h1v-1zM151 47h1v-1h-1zM150 48h1v-1h-1zM149 48v1h1v-1zM148 48h1v-1h-1zM147 48v1h1v-1zM146 48h1v-1h-1zM145 48v1h-1v1h1v1h1v-1h1v-1h-1v-1zM144 47v1h1v-1zM143 47h1v-1h-1zM142 48h1v-1h-1zM141 48v1h1v-1zM140 48h1v-1h-1zM139 48v1h1v-1zM138 48h1v-1h-1zM137 48v1h-1v1h1v1h1v-1h1v-1h-1v-1zM136 48h1v-1h-1zM135 48v1h1v-1zM134 48h1v-1h-1zM133 48v1h1v-1zM132 48h1v-1h-1zM131 48v1h1v-1zM130 48h1v-1h-1zM129 48v1h-1v1h1v1h1v-1h1v-1h-1v-1zM128 47v1h1v-1zM127 47h1v-1h-1zM126 48h1v-1h-1zM125 48v1h-1v1h1v1h1v-1h1v-1h-1v-1zM124 48h1v-1h-1zM123 48v1h1v-1zM122 48h1v-1h-1zM121 48v1h-1v1h1v1h1v-1h1v-1h-1v-1zM120 47v1h1v-1zM119 47h1v-1h-1zM118 48h1v-1h-1zM117 48v1h1v-1zM116 48h1v-1h-1zM115 48v1h1v-1zM114 48h1v-1h-1zM113 48v1h-1v1h1v1h1v-1h1v-1h-1v-1zM112 47v1h1v-1zM111 47h1v-1h-1zM110 48h1v-1h-1zM109 48v1h-1v1h1v1h1v-1h1v-1h-1v-1zM108 48h1v-1h-1zM107 48v1h1v-1zM106 48h1v-1h-1zM105 48v1h-1v1h1v1h1v-1h1v-1h-1v-1zM104 47v1h1v-1zM103 47h1v-1h-1zM102 48h1v-1h-1zM101 48v1h1v-1zM100 47v1h1v-1zM99 47h1v-1h-1zM98 48h1v-1h-1zM97 48v1h-1v1h1v1h1v-1h1v-1h-1v-1zM96 47v1h1v-1zM95 47h1v-1h-1zM94 48h1v-1h-1zM93 48v1h-1v1h1v1h1v-1h1v-1h-1v-1zM92 48h1v-1h-1zM91 48v1h1v-1zM90 48h1v-1h-1zM89 48v1h-1v1h1v1h1v-1h1v-1h-1v-1zM88 47v1h1v-1zM87 47h1v-1h-1zM86 48h1v-1h-1zM85 48v1h1v-1zM84 47v1h1v-1zM83 47h1v-1h-1zM82 48h1v-1h-1zM81 48v1h-1v1h1v1h1v-1h1v-1h-1v-1zM80 47v1h1v-1zM79 47h1v-1h-1zM78 48h1v-1h-1zM77 48v1h-1v1h1v1h1v-1h1v-1h-1v-1zM76 48h1v-1h-1zM75 48v1h1v-1zM74 48h1v-1h-1zM73 48v1h-1v1h1v1h1v-1h1v-1h-1v-1zM72 47v1h1v-1zM71 47h1v-1h-1zM70 48h1v-1h-1zM69 48v1h1v-1zM68 48h1v-1h-1zM67 48v1h1v-1zM66 48h1v-1h-1zM65 48v1h-1v1h1v1h1v-1h1v-1h-1v-1zM64 47v1h1v-1zM63 47h1v-1h-1zM62 48h1v-1h-1zM61 48v1h-1v1h1v1h1v-1h1v-1h-1v-1zM60 48h1v-1h-1zM59 48v1h1v-1zM58 48h1v-1h-1zM57 48v1h-1v1h1v1h1v-1h1v-1h-1v-1zM56 47v1h1v-1zM55 47h1v-1h-1zM54 48h1v-1h-1zM53 48v1h1v-1zM52 48h1v-1h-1zM51 48v1h1v-1zM50 48h1v-1h-1zM49 48v1h-1v1h1v1h1v-1h1v-1h-1v-1zM48 47v1h1v-1zM47 47h1v-1h-1zM46 48h1v-1h-1zM45 48v1h1v-1zM44 48h1v-1h-1zM43 48v1h1v-1zM42 48h1v-1h-1zM41 48v1h-1v1h1v1h1v-1h1v-1h-1v-1zM40 48h1v-1h-1zM39 48v1h1v-1zM38 48h1v-1h-1zM37 48v1h1v-1zM36 47v1h1v-1zM35 47h1v-1h-1zM34 48h1v-1h-1zM33 48v1h-1v1h1v1h1v-1h1v-1h-1v-1zM32 47v1h1v-1zM31 47h1v-1h-1zM30 48h1v-1h-1zM29 48v1h-1v1h1v1h1v-1h1v-1h-1v-1zM28 48h1v-1h-1zM27 48v1h1v-1zM26 48h1v-1h-1zM25 48v1h-1v1h1v1h1v-1h1v-1h-1v-1zM24 47v1h1v-1zM23 47h1v-1h-1zM22 48h1v-1h-1zM21 48v1h1v-1zM20 47v1h1v-1zM19 47h1v-1h-1zM18 48h1v-1h-1zM17 48v1h-1v1h1v1h1v-1h1v-1h-1v-1zM16 47v1h1v-1zM15 47h1v-1h-1zM14 48h1v-1h-1zM13 48v1h-1v1h1v1h1v-1h1v-1h-1v-1zM12 48h1v-1h-1zM11 48v1h1v-1zM10 48h1v-1h-1zM8 48h1v-1H8ZM8 49v-1H7v1zM8 50h1v1h1v-1h1v-1h-1v-1H9v1H8ZM7 51h1v-1H7ZM7 52v-1H6v1zM7 53h1v-1H7ZM7 54v-1H6v1zM8 55v-1H7v1zM9 55H8v1h1zM10 55v-1H9v1zM11 56v-1h-1v1zM11 57h1v-1h-1zM10 58h1v-1h-1zM9 58v1h1v-1zM8 58h1v-1H8ZM8 59v-1H7v1zM9 60v-1H8v1zM9 61H8v1h1zM10 61v-1H9v1zM11 61h-1v1h1zM12 61v1h1v-1zM12 60h-1v1h1zM13 59h-1v1h1zM14 59v-1h-1v1zM15 60v-1h-1v1zM15 61h1v-1h-1zM15 62v-1h-1v1zM16 62h-1v1h1zM17 61h-1v1h1zM18 61v-1h-1v1zM19 62v-1h-1v1zM20 62h-1v1h1zM20 61v1h1v-1zM20 60h-1v1h1zM21 59h-1v1h1zM22 59v-1h-1v1zM23 60v-1h-1v1zM23 62v-1h-1v1zM24 62h-1v1h1zM24 61v1h1v-1zM24 60h-1v1h1zM25 59h-1v1h1zM26 59v-1h-1v1zM27 60v-1h-1v1zM27 62v-1h-1v1zM28 62h-1v1h1zM28 61v1h1v-1zM28 60h-1v1h1zM29 59h-1v1h1zM30 59v-1h-1v1zM31 60v-1h-1v1zM31 61h1v-1h-1zM31 62v-1h-1v1zM32 62h-1v1h1zM33 61h-1v1h1zM34 61v-1h-1v1zM35 62v-1h-1v1zM36 62h-1v1h1zM36 61v1h1v-1zM36 60h-1v1h1zM37 59h-1v1h1zM38 59v-1h-1v1zM39 60v-1h-1v1zM39 62v-1h-1v1zM40 62h-1v1h1zM40 61v1h1v-1zM40 60h-1v1h1zM41 59h-1v1h1zM42 59v-1h-1v1zM43 60v-1h-1v1zM43 61h-1v1h1zM44 61v1h1v-1zM44 60h-1v1h1zM45 59h-1v1h1zM46 59v-1h-1v1zM47 60v-1h-1v1zM47 61h1v-1h-1zM47 62v-1h-1v1zM48 62h-1v1h1zM49 61h-1v1h1zM50 61v-1h-1v1zM51 62v-1h-1v1zM52 62h-1v1h1zM52 61v1h1v-1zM52 60h-1v1h1zM53 59h-1v1h1zM54 59v-1h-1v1zM55 60v-1h-1v1zM55 61h1v-1h-1zM55 62v-1h-1v1zM56 62h-1v1h1zM57 61h-1v1h1zM58 61v-1h-1v1zM59 61h-1v1h1zM60 61v1h1v-1zM60 60h-1v1h1zM61 59h-1v1h1zM62 59v-1h-1v1zM63 60v-1h-1v1zM63 61h1v-1h-1zM63 62v-1h-1v1zM64 62h-1v1h1zM65 61h-1v1h1zM66 61v-1h-1v1zM67 62v-1h-1v1zM68 62h-1v1h1zM68 61v1h1v-1zM68 60h-1v1h1zM69 59h-1v1h1zM70 59v-1h-1v1zM71 60v-1h-1v1zM71 62v-1h-1v1zM72 62h-1v1h1zM72 61v1h1v-1zM72 60h-1v1h1zM73 59h-1v1h1zM74 59v-1h-1v1zM75 60v-1h-1v1zM75 61h-1v1h1zM76 61v1h1v-1zM76 60h-1v1h1zM77 59h-1v1h1zM78 59v-1h-1v1zM79 60v-1h-1v1zM79 61h1v-1h-1zM79 62v-1h-1v1zM80 62h-1v1h1zM81 61h-1v1h1zM82 61v-1h-1v1zM83 62v-1h-1v1zM84 62h-1v1h1zM84 61v1h1v-1zM84 60h-1v1h1zM85 59h-1v1h1zM86 59v-1h-1v1zM87 60v-1h-1v1zM87 62v-1h-1v1zM88 62h-1v1h1zM88 61v1h1v-1zM88 60h-1v1h1zM89 59h-1v1h1zM90 59v-1h-1v1zM91 60v-1h-1v1zM91 61h-1v1h1zM92 61v1h1v-1zM92 60h-1v1h1zM93 59h-1v1h1zM94 59v-1h-1v1zM95 60v-1h-1v1zM95 61h1v-1h-1zM95 62v-1h-1v1zM96 62h-1v1h1zM97 61h-1v1h1zM98 61v-1h-1v1zM99 62v-1h-1v1zM100 62h-1v1h1zM100 61v1h1v-1zM100 60h-1v1h1zM101 59h-1v1h1zM102 59v-1h-1v1zM103 60v-1h-1v1zM103 61h-1v1h1zM104 61v-1h-1v1zM105 61h-1v1h1zM106 61v-1h-1v1zM107 61h-1v1h1zM108 61v1h1v-1zM108 60h-1v1h1zM109 59h-1v1h1zM110 59v-1h-1v1zM111 60v-1h-1v1zM111 61h1v-1h-1zM111 62v-1h-1v1zM112 62h-1v1h1zM113 61h-1v1h1zM114 61v-1h-1v1zM115 62v-1h-1v1zM116 62h-1v1h1zM116 61v1h1v-1zM116 60h-1v1h1zM117 59h-1v1h1zM118 59v-1h-1v1zM119 60v-1h-1v1zM119 61h1v-1h-1zM119 62v-1h-1v1zM120 62h-1v1h1zM121 61h-1v1h1zM122 61v-1h-1v1zM123 61h-1v1h1zM124 61v1h1v-1zM124 60h-1v1h1zM125 59h-1v1h1zM126 59v-1h-1v1zM127 60v-1h-1v1zM127 61h1v-1h-1zM127 62v-1h-1v1zM128 62h-1v1h1zM129 61h-1v1h1zM130 61v-1h-1v1zM131 62v-1h-1v1zM132 62h-1v1h1zM132 61v1h1v-1zM132 60h-1v1h1zM133 59h-1v1h1zM134 59v-1h-1v1zM135 60v-1h-1v1zM135 61h1v-1h-1zM135 62v-1h-1v1zM136 62h-1v1h1zM137 61h-1v1h1zM138 61v-1h-1v1zM139 61h-1v1h1zM140 61v1h1v-1zM140 60h-1v1h1zM141 59h-1v1h1zM142 59v-1h-1v1zM143 60v-1h-1v1zM143 61h1v-1h-1zM143 62v-1h-1v1zM144 62h-1v1h1zM145 61h-1v1h1zM146 61v-1h-1v1zM147 62v-1h-1v1zM148 62h-1v1h1zM148 61v1h1v-1zM148 60h-1v1h1zM149 59h-1v1h1zM150 59v-1h-1v1zM151 60v-1h-1v1zM151 61h-1v1h1zM152 61v-1h-1v1zM153 61h-1v1h1zM154 61v-1h-1v1zM155 61h-1v1h1zM156 61v1h1v-1zM156 60h-1v1h1zM157 59h-1v1h1zM158 59v-1h-1v1zM159 60v-1h-1v1zM159 61h1v-1h-1zM159 62v-1h-1v1zM160 62h-1v1h1zM161 61h-1v1h1zM162 61v-1h-1v1zM163 62v-1h-1v1zM164 62h-1v1h1zM164 61v1h1v-1zM164 60h-1v1h1zM165 59h-1v1h1zM166 59v-1h-1v1zM167 60v-1h-1v1zM167 61h-1v1h1zM168 61v1h1v-1zM168 60h-1v1h1zM169 59h-1v1h1zM170 59v-1h-1v1zM171 60v-1h-1v1zM171 61h-1v1h1zM172 61v1h1v-1zM172 60h-1v1h1zM173 59h-1v1h1zM174 59v-1h-1v1zM175 60v-1h-1v1zM175 61h1v-1h-1zM175 62v-1h-1v1zM176 62h-1v1h1zM177 61h-1v1h1zM178 61v-1h-1v1zM179 62v-1h-1v1zM180 62h-1v1h1zM180 61v1h1v-1zM180 60h-1v1h1zM181 59h-1v1h1zM182 59v-1h-1v1zM183 60v-1h-1v1zM183 62v-1h-1v1zM184 62h-1v1h1zM184 61v1h1v-1zM184 60h-1v1h1zM185 59h-1v1h1zM186 59v-1h-1v1zM187 60v-1h-1v1zM187 61h-1v1h1zM188 61v1h1v-1zM188 60h-1v1h1zM189 59h-1v1h1zM190 59v-1h-1v1zM191 60v-1h-1v1zM191 62v-1h-1v1zM192 62h-1v1h1zM192 61v1h1v-1zM192 60h-1v1h1zM193 59h-1v1h1zM193 58v1h1v-1zM192 57v1h1v-1zM192 56h-1v1h1zM193 55h-1v1h1zM193 54v1h1v-1zM193 53h-1v1h1zM193 52v1h1v-1zM192 51v1h1v-1zM191 50v1h1v-1zM191 48v1h1v-1zM190 48h1v-1h-1zM189 48v1h-1v1h1v1h1v-1h1v-1h-1v-1zM188 47v1h1v-1zM187 46v1h1v-1zM185 44v1h-1v1h1v1h1v-1h1v-1h-1v-1zM184 44h1v-1h-1zM183 44v1h1v-1zM182 44h1v-1h-1zM180 46h1v1h1v-1h1v-1h-1v-1h-1v1h-1zM179 46v1h1v-1zM177 44v1h-1v1h1v1h1v-1h1v-1h-1v-1zM176 44h1v-1h-1zM175 44v1h1v-1zM174 44h1v-1h-1zM172 46h1v1h1v-1h1v-1h-1v-1h-1v1h-1zM171 46v1h1v-1zM169 44v1h-1v1h1v1h1v-1h1v-1h-1v-1zM168 44h1v-1h-1zM167 44v1h1v-1zM166 44h1v-1h-1zM164 46h1v1h1v-1h1v-1h-1v-1h-1v1h-1zM163 46v1h1v-1zM161 44v1h-1v1h1v1h1v-1h1v-1h-1v-1zM160 44h1v-1h-1zM159 44v1h1v-1zM158 44h1v-1h-1zM156 46h1v1h1v-1h1v-1h-1v-1h-1v1h-1zM155 46v1h1v-1zM153 44v1h-1v1h1v1h1v-1h1v-1h-1v-1zM152 44h1v-1h-1zM151 44v1h1v-1zM150 44h1v-1h-1zM148 46h1v1h1v-1h1v-1h-1v-1h-1v1h-1zM147 46v1h1v-1zM145 44v1h-1v1h1v1h1v-1h1v-1h-1v-1zM144 44h1v-1h-1zM143 44v1h1v-1zM142 44h1v-1h-1zM140 46h1v1h1v-1h1v-1h-1v-1h-1v1h-1zM139 46v1h1v-1zM136 46h1v1h1v-1h1v-1h-1v-1h-1v1h-1zM135 46v1h1v-1zM132 46h1v1h1v-1h1v-1h-1v-1h-1v1h-1zM131 46v1h1v-1zM129 44v1h-1v1h1v1h1v-1h1v-1h-1v-1zM128 44h1v-1h-1zM127 44v1h1v-1zM126 44h1v-1h-1zM124 46h1v1h1v-1h1v-1h-1v-1h-1v1h-1zM123 46v1h1v-1zM121 44v1h-1v1h1v1h1v-1h1v-1h-1v-1zM120 44h1v-1h-1zM119 44v1h1v-1zM118 44h1v-1h-1zM116 46h1v1h1v-1h1v-1h-1v-1h-1v1h-1zM115 46v1h1v-1zM113 44v1h-1v1h1v1h1v-1h1v-1h-1v-1zM112 44h1v-1h-1zM111 44v1h1v-1zM110 44h1v-1h-1zM108 46h1v1h1v-1h1v-1h-1v-1h-1v1h-1zM107 46v1h1v-1zM105 44v1h-1v1h1v1h1v-1h1v-1h-1v-1zM104 44h1v-1h-1zM103 44v1h1v-1zM102 44h1v-1h-1zM101 44v1h-1v1h1v1h1v-1h1v-1h-1v-1z" style="fill:#000"/><path d="M98 44h1v1h1v-1h1v-1h-1v-1h-1v1h-1z" style="fill:#000"/><path d="M97 44v1h-1v1h1v1h1v-1h1v-1h-1v-1zM96 44h1v-1h-1zM95 44v1h1v-1zM94 44h1v-1h-1zM92 46h1v1h1v-1h1v-1h-1v-1h-1v1h-1zM91 46v1h1v-1zM89 44v1h-1v1h1v1h1v-1h1v-1h-1v-1zM88 44h1v-1h-1zM87 44v1h1v-1zM86 44h1v-1h-1zM85 44v1h-1v1h1v1h1v-1h1v-1h-1v-1z" style="fill:#000"/><path d="M82 44h1v1h1v-1h1v-1h-1v-1h-1v1h-1z" style="fill:#000"/><path d="M81 44v1h-1v1h1v1h1v-1h1v-1h-1v-1zM80 44h1v-1h-1zM79 44v1h1v-1zM78 44h1v-1h-1zM76 46h1v1h1v-1h1v-1h-1v-1h-1v1h-1zM75 46v1h1v-1zM73 44v1h-1v1h1v1h1v-1h1v-1h-1v-1zM72 44h1v-1h-1zM71 44v1h1v-1zM70 44h1v-1h-1zM68 46h1v1h1v-1h1v-1h-1v-1h-1v1h-1zM67 46v1h1v-1zM65 44v1h-1v1h1v1h1v-1h1v-1h-1v-1zM64 44h1v-1h-1zM63 44v1h1v-1zM62 44h1v-1h-1zM60 46h1v1h1v-1h1v-1h-1v-1h-1v1h-1zM59 46v1h1v-1zM57 44v1h-1v1h1v1h1v-1h1v-1h-1v-1zM56 44h1v-1h-1zM55 44v1h1v-1zM54 44h1v-1h-1zM52 46h1v1h1v-1h1v-1h-1v-1h-1v1h-1zM51 46v1h1v-1zM49 44v1h-1v1h1v1h1v-1h1v-1h-1v-1zM48 44h1v-1h-1zM47 44v1h1v-1zM46 44h1v-1h-1zM44 46h1v1h1v-1h1v-1h-1v-1h-1v1h-1zM43 46v1h1v-1zM40 46h1v1h1v-1h1v-1h-1v-1h-1v1h-1zM39 46v1h1v-1zM37 44v1h-1v1h1v1h1v-1h1v-1h-1v-1z" style="fill:#000"/><path d="M34 44h1v1h1v-1h1v-1h-1v-1h-1v1h-1z" style="fill:#000"/><path d="M33 44v1h-1v1h1v1h1v-1h1v-1h-1v-1zM32 44h1v-1h-1zM31 44v1h1v-1zM30 44h1v-1h-1zM28 46h1v1h1v-1h1v-1h-1v-1h-1v1h-1zM27 46v1h1v-1zM25 44v1h-1v1h1v1h1v-1h1v-1h-1v-1zM24 44h1v-1h-1zM23 44v1h1v-1zM22 44h1v-1h-1zM21 44v1h-1v1h1v1h1v-1h1v-1h-1v-1z" style="fill:#000"/><path d="M18 44h1v1h1v-1h1v-1h-1v-1h-1v1h-1z" style="fill:#000"/><path d="M17 44v1h-1v1h1v1h1v-1h1v-1h-1v-1zM16 44h1v-1h-1zM15 44v1h1v-1zM14 44h1v-1h-1zM12 46h1v1h1v-1h1v-1h-1v-1h-1v1h-1zM11 46v1h1v-1zM8 46h1v1h1v-1h1v-1h-1v-1H9v1H8ZM7 47h1v-1H7ZM6 48h1v-1H6ZM5 48v-1H4v1zM6 49v-1H5v1zM6 50h1v-1H6ZM5 51h1v-1H5ZM5 52v-1H4v1zM5 53h1v-1H5ZM5 54v-1H4v1zM6 55v-1H5v1zM7 56v-1H6v1zM7 57h1v-1H7ZM6 58h1v-1H6ZM5 59H4v1h1zM6 59v-1H5v1zM7 60v-1H6v1zM7 61h1v-1H7ZM7 62v-1H6v1zM8 63v-1H7v1zM9 63H8v1h1zM10 63v-1H9v1zM11 64v-1h-1v1zM11 65h-1v1h1zM12 65v1h1v-1zM12 64h-1v1h1zM13 63h-1v1h1zM14 63v-1h-1v1zM15 64v-1h-1v1zM15 65h-1v1h1zM16 65v1h1v-1zM16 64h-1v1h1zM17 63h-1v1h1zM18 63v-1h-1v1zM19 64v-1h-1v1zM19 65h-1v1h1zM20 65v1h1v-1zM20 64h-1v1h1zM21 63h-1v1h1zM22 63v-1h-1v1zM23 64v-1h-1v1zM23 65h-1v1h1zM24 65v1h1v-1zM24 64h-1v1h1zM25 63h-1v1h1zM26 63v-1h-1v1zM27 64v-1h-1v1zM27 65h-1v1h1zM28 65v1h1v-1zM28 64h-1v1h1zM29 63h-1v1h1zM30 63v-1h-1v1zM31 64v-1h-1v1zM31 65h-1v1h1zM32 65v1h1v-1zM32 64h-1v1h1zM33 63h-1v1h1zM34 63v-1h-1v1zM35 64v-1h-1v1zM35 65h-1v1h1zM36 65v1h1v-1zM36 64h-1v1h1zM37 63h-1v1h1zM38 63v-1h-1v1zM39 64v-1h-1v1zM39 65h-1v1h1zM40 65v1h1v-1zM40 64h-1v1h1zM41 63h-1v1h1zM42 63v-1h-1v1zM43 64v-1h-1v1zM43 65h-1v1h1zM44 65v1h1v-1zM44 64h-1v1h1zM45 63h-1v1h1zM46 63v-1h-1v1zM47 64v-1h-1v1zM47 65h-1v1h1zM48 65v1h1v-1zM48 64h-1v1h1zM49 63h-1v1h1zM50 63v-1h-1v1zM51 64v-1h-1v1zM51 65h-1v1h1zM52 65v1h1v-1zM52 64h-1v1h1zM53 63h-1v1h1zM54 63v-1h-1v1zM55 64v-1h-1v1zM55 65h-1v1h1zM56 65v1h1v-1zM56 64h-1v1h1zM57 63h-1v1h1zM58 63v-1h-1v1zM59 64v-1h-1v1zM59 65h-1v1h1zM60 65v1h1v-1zM60 64h-1v1h1zM61 63h-1v1h1zM62 63v-1h-1v1zM63 64v-1h-1v1zM63 65h-1v1h1zM64 65v1h1v-1zM64 64h-1v1h1zM65 63h-1v1h1zM66 63v-1h-1v1zM67 64v-1h-1v1zM67 65h-1v1h1zM68 65v1h1v-1zM68 64h-1v1h1zM69 63h-1v1h1zM70 63v-1h-1v1zM71 64v-1h-1v1zM71 65h-1v1h1zM72 65v1h1v-1zM72 64h-1v1h1zM73 63h-1v1h1zM74 63v-1h-1v1zM75 64v-1h-1v1zM75 65h-1v1h1zM76 65v1h1v-1zM76 64h-1v1h1zM77 63h-1v1h1zM78 63v-1h-1v1zM79 64v-1h-1v1zM79 65h-1v1h1zM80 65v1h1v-1zM80 64h-1v1h1zM81 63h-1v1h1zM82 63v-1h-1v1zM83 64v-1h-1v1zM83 65h-1v1h1zM84 65v1h1v-1zM84 64h-1v1h1zM85 63h-1v1h1zM86 63v-1h-1v1zM87 64v-1h-1v1zM87 65h-1v1h1zM88 65v1h1v-1zM88 64h-1v1h1zM89 63h-1v1h1zM90 63v-1h-1v1zM91 64v-1h-1v1zM91 65h-1v1h1zM92 65v1h1v-1zM92 64h-1v1h1zM93 63h-1v1h1zM94 63v-1h-1v1zM95 64v-1h-1v1zM95 65h-1v1h1zM96 65v1h1v-1zM96 64h-1v1h1zM97 63h-1v1h1zM98 63v-1h-1v1zM99 64v-1h-1v1zM99 65h-1v1h1zM100 65v1h1v-1zM100 64h-1v1h1zM101 63h-1v1h1zM102 63v-1h-1v1zM103 63h-1v1h1zM104 63v-1h-1v1zM105 63h-1v1h1zM106 63v-1h-1v1zM107 64v-1h-1v1zM107 65h-1v1h1zM108 65v1h1v-1zM108 64h-1v1h1zM109 63h-1v1h1zM110 63v-1h-1v1zM111 64v-1h-1v1zM111 65h-1v1h1zM112 65v1h1v-1zM112 64h-1v1h1zM113 63h-1v1h1zM114 63v-1h-1v1zM115 64v-1h-1v1zM115 65h-1v1h1zM116 65v1h1v-1zM116 64h-1v1h1zM117 63h-1v1h1zM118 63v-1h-1v1zM119 64v-1h-1v1zM119 65h-1v1h1zM120 65v1h1v-1zM120 64h-1v1h1zM121 63h-1v1h1zM122 63v-1h-1v1zM123 64v-1h-1v1zM123 65h-1v1h1zM124 65v1h1v-1zM124 64h-1v1h1zM125 63h-1v1h1zM126 63v-1h-1v1zM127 64v-1h-1v1zM127 65h-1v1h1zM128 65v1h1v-1zM128 64h-1v1h1zM129 63h-1v1h1zM130 63v-1h-1v1zM131 64v-1h-1v1zM131 65h-1v1h1zM132 65v1h1v-1zM132 64h-1v1h1zM133 63h-1v1h1zM134 63v-1h-1v1zM135 64v-1h-1v1zM135 65h-1v1h1zM136 65v1h1v-1zM136 64h-1v1h1zM137 63h-1v1h1zM138 63v-1h-1v1zM139 64v-1h-1v1zM139 65h-1v1h1zM140 65v1h1v-1zM140 64h-1v1h1zM141 63h-1v1h1zM142 63v-1h-1v1zM143 64v-1h-1v1zM143 65h-1v1h1zM144 65v1h1v-1zM144 64h-1v1h1zM145 63h-1v1h1zM146 63v-1h-1v1zM147 64v-1h-1v1zM147 65h-1v1h1zM148 65v1h1v-1zM148 64h-1v1h1zM149 63h-1v1h1zM150 63v-1h-1v1zM151 63h-1v1h1zM152 63v-1h-1v1zM153 63h-1v1h1zM154 63v-1h-1v1zM155 64v-1h-1v1zM155 65h-1v1h1zM156 65v1h1v-1zM156 64h-1v1h1zM157 63h-1v1h1zM158 63v-1h-1v1zM159 64v-1h-1v1zM159 65h-1v1h1zM160 65v1h1v-1zM160 64h-1v1h1zM161 63h-1v1h1zM162 63v-1h-1v1zM163 64v-1h-1v1zM163 65h-1v1h1zM164 65v1h1v-1zM164 64h-1v1h1zM165 63h-1v1h1zM166 63v-1h-1v1zM167 63h-1v1h1zM168 63v-1h-1v1zM169 63h-1v1h1zM170 63v-1h-1v1zM171 64v-1h-1v1zM171 65h-1v1h1zM172 65v1h1v-1zM172 64h-1v1h1zM173 63h-1v1h1zM174 63v-1h-1v1zM175 64v-1h-1v1zM175 65h-1v1h1zM176 65v1h1v-1zM176 64h-1v1h1zM177 63h-1v1h1zM178 63v-1h-1v1zM179 64v-1h-1v1zM179 65h-1v1h1zM180 65v1h1v-1zM180 64h-1v1h1zM181 63h-1v1h1zM182 63v-1h-1v1zM183 64v-1h-1v1zM183 65h-1v1h1zM184 65v1h1v-1zM184 64h-1v1h1zM185 63h-1v1h1zM186 63v-1h-1v1zM187 64v-1h-1v1zM187 65h-1v1h1zM188 65v1h1v-1zM188 64h-1v1h1zM189 63h-1v1h1zM190 63v-1h-1v1zM191 64v-1h-1v1zM191 65h-1v1h1zM192 65v1h1v-1zM192 64h-1v1h1zM193 63h-1v1h1zM194 63v-1h-1v1zM195 63h-1v1h1zM195 62v1h1v-1zM194 61v1h1v-1zM194 60h-1v1h1zM195 59h-1v1h1zM195 58v1h1v-1zM195 57h-1v1h1zM195 56v1h1v-1zM195 55h-1v1h1zM195 54v1h1v-1zM195 53h-1v1h1zM195 52v1h1v-1zM195 51h-1v1h1zM195 50v1h1v-1zM195 48v1h1v-1zM194 48h1v-1h-1zM193 48v1h-1v1h1v1h1v-1h1v-1h-1v-1zM192 47v1h1v-1zM191 46v1h1v-1zM191 45h-1v-1h-1v1h-1v1h1v1h1v-1h1zM192 44h-1v1h1zM192 43v1h1v-1zM191 42v1h1v-1zM188 42h1v1h1v-1h1v-1h-1v-1h-1v1h-1z" style="fill:#000"/><path d="M187 42v1h-1v1h1v1h1v-1h1v-1h-1v-1z" style="fill:#000"/><path d="M184 42h1v1h1v-1h1v-1h-1v-1h-1v1h-1zM183 42v1h1v-1zM180 42h1v1h1v-1h1v-1h-1v-1h-1v1h-1z" style="fill:#000"/><path d="M179 42v1h-1v1h1v1h1v-1h1v-1h-1v-1z" style="fill:#000"/><path d="M176 42h1v1h1v-1h1v-1h-1v-1h-1v1h-1zM175 42v1h1v-1zM172 42h1v1h1v-1h1v-1h-1v-1h-1v1h-1z" style="fill:#000"/><path d="M171 42v1h-1v1h1v1h1v-1h1v-1h-1v-1z" style="fill:#000"/><path d="M168 42h1v1h1v-1h1v-1h-1v-1h-1v1h-1zM167 42v1h1v-1zM164 42h1v1h1v-1h1v-1h-1v-1h-1v1h-1z" style="fill:#000"/><path d="M163 42v1h-1v1h1v1h1v-1h1v-1h-1v-1z" style="fill:#000"/><path d="M160 42h1v1h1v-1h1v-1h-1v-1h-1v1h-1zM159 42v1h1v-1zM156 42h1v1h1v-1h1v-1h-1v-1h-1v1h-1z" style="fill:#000"/><path d="M155 42v1h-1v1h1v1h1v-1h1v-1h-1v-1z" style="fill:#000"/><path d="M152 42h1v1h1v-1h1v-1h-1v-1h-1v1h-1zM151 42v1h1v-1zM148 42h1v1h1v-1h1v-1h-1v-1h-1v1h-1z" style="fill:#000"/><path d="M147 42v1h-1v1h1v1h1v-1h1v-1h-1v-1z" style="fill:#000"/><path d="M144 42h1v1h1v-1h1v-1h-1v-1h-1v1h-1zM143 42v1h1v-1zM140 42h1v1h1v-1h1v-1h-1v-1h-1v1h-1z" style="fill:#000"/><path d="M139 42v1h-1v1h1v1h1v-1h1v-1h-1v-1z" style="fill:#000"/><path d="M136 42h1v1h1v-1h1v-1h-1v-1h-1v1h-1z" style="fill:#000"/><path d="M135 42v1h-1v1h1v1h1v-1h1v-1h-1v-1z" style="fill:#000"/><path d="M132 42h1v1h1v-1h1v-1h-1v-1h-1v1h-1z" style="fill:#000"/><path d="M131 42v1h-1v1h1v1h1v-1h1v-1h-1v-1z" style="fill:#000"/><path d="M128 42h1v1h1v-1h1v-1h-1v-1h-1v1h-1zM127 42v1h1v-1zM124 42h1v1h1v-1h1v-1h-1v-1h-1v1h-1z" style="fill:#000"/><path d="M123 42v1h-1v1h1v1h1v-1h1v-1h-1v-1z" style="fill:#000"/><path d="M120 42h1v1h1v-1h1v-1h-1v-1h-1v1h-1zM119 42v1h1v-1zM116 42h1v1h1v-1h1v-1h-1v-1h-1v1h-1z" style="fill:#000"/><path d="M115 42v1h-1v1h1v1h1v-1h1v-1h-1v-1z" style="fill:#000"/><path d="M112 42h1v1h1v-1h1v-1h-1v-1h-1v1h-1zM111 42v1h1v-1zM108 42h1v1h1v-1h1v-1h-1v-1h-1v1h-1z" style="fill:#000"/><path d="M107 42v1h-1v1h1v1h1v-1h1v-1h-1v-1z" style="fill:#000"/><path d="M104 42h1v1h1v-1h1v-1h-1v-1h-1v1h-1zM103 42v1h1v-1zM101 40v1h-1v1h1v1h1v-1h1v-1h-1v-1zM100 40h1v-1h-1zM99 40v1h1v-1zM98 40h1v-1h-1zM96 42h1v1h1v-1h1v-1h-1v-1h-1v1h-1zM95 42v1h1v-1zM92 42h1v1h1v-1h1v-1h-1v-1h-1v1h-1z" style="fill:#000"/><path d="M91 42v1h-1v1h1v1h1v-1h1v-1h-1v-1z" style="fill:#000"/><path d="M88 42h1v1h1v-1h1v-1h-1v-1h-1v1h-1zM87 42v1h1v-1zM85 40v1h-1v1h1v1h1v-1h1v-1h-1v-1zM84 40h1v-1h-1zM83 40v1h1v-1zM82 40h1v-1h-1zM80 42h1v1h1v-1h1v-1h-1v-1h-1v1h-1zM79 42v1h1v-1zM76 42h1v1h1v-1h1v-1h-1v-1h-1v1h-1z" style="fill:#000"/><path d="M75 42v1h-1v1h1v1h1v-1h1v-1h-1v-1z" style="fill:#000"/><path d="M72 42h1v1h1v-1h1v-1h-1v-1h-1v1h-1zM71 42v1h1v-1zM68 42h1v1h1v-1h1v-1h-1v-1h-1v1h-1z" style="fill:#000"/><path d="M67 42v1h-1v1h1v1h1v-1h1v-1h-1v-1z" style="fill:#000"/><path d="M64 42h1v1h1v-1h1v-1h-1v-1h-1v1h-1zM63 42v1h1v-1zM60 42h1v1h1v-1h1v-1h-1v-1h-1v1h-1z" style="fill:#000"/><path d="M59 42v1h-1v1h1v1h1v-1h1v-1h-1v-1z" style="fill:#000"/><path d="M56 42h1v1h1v-1h1v-1h-1v-1h-1v1h-1zM55 42v1h1v-1zM52 42h1v1h1v-1h1v-1h-1v-1h-1v1h-1z" style="fill:#000"/><path d="M51 42v1h-1v1h1v1h1v-1h1v-1h-1v-1z" style="fill:#000"/><path d="M48 42h1v1h1v-1h1v-1h-1v-1h-1v1h-1zM47 42v1h1v-1zM44 42h1v1h1v-1h1v-1h-1v-1h-1v1h-1z" style="fill:#000"/><path d="M43 42v1h-1v1h1v1h1v-1h1v-1h-1v-1z" style="fill:#000"/><path d="M40 42h1v1h1v-1h1v-1h-1v-1h-1v1h-1z" style="fill:#000"/><path d="M39 42v1h-1v1h1v1h1v-1h1v-1h-1v-1z" style="fill:#000"/><path d="M37 40v1h-1v1h1v1h1v-1h1v-1h-1v-1zM36 40h1v-1h-1zM35 40v1h1v-1zM34 40h1v-1h-1zM32 42h1v1h1v-1h1v-1h-1v-1h-1v1h-1zM31 42v1h1v-1zM28 42h1v1h1v-1h1v-1h-1v-1h-1v1h-1z" style="fill:#000"/><path d="M27 42v1h-1v1h1v1h1v-1h1v-1h-1v-1z" style="fill:#000"/><path d="M24 42h1v1h1v-1h1v-1h-1v-1h-1v1h-1zM23 42v1h1v-1zM21 40v1h-1v1h1v1h1v-1h1v-1h-1v-1zM20 40h1v-1h-1zM19 40v1h1v-1zM18 40h1v-1h-1zM16 42h1v1h1v-1h1v-1h-1v-1h-1v1h-1zM15 42v1h1v-1zM12 42h1v1h1v-1h1v-1h-1v-1h-1v1h-1z" style="fill:#000"/><path d="M11 42v1h-1v1h1v1h1v-1h1v-1h-1v-1z" style="fill:#000"/><path d="M8 42h1v1h1v-1h1v-1h-1v-1H9v1H8Z" style="fill:#000"/><path d="M7 42v1H6v1h1v1h1v-1h1v-1H8v-1z" style="fill:#000"/><path d="M4 42h1v1h1v-1h1v-1H6v-1H5v1H4Z" style="fill:#000"/><path d="M4 45v-1h1v-1H4v-1H3v1H2v1h1v1z" style="fill:#000"/><path d="M4 46h1v1h1v-1h1v-1H6v-1H5v1H4ZM3 47h1v-1H3ZM3 48v-1H2v1zM4 49v-1H3v1zM4 50h1v-1H4ZM3 51h1v-1H3ZM3 52v-1H2v1zM3 53h1v-1H3ZM3 54v-1H2v1zM4 55v-1H3v1zM5 56v-1H4v1zM5 57h1v-1H5ZM4 58h1v-1H4ZM3 59h1v-1H3ZM3 60v-1H2v1zM3 61h1v-1H3ZM3 62v-1H2v1zM4 63v-1H3v1zM5 63H4v1h1zM6 63v-1H5v1zM7 64v-1H6v1zM4 66h1v-1H4ZM4 67v-1H3v1zM5 67H4v1h1zM6 67v1h1v-1zM6 66H5v1h1zM7 65H6v1h1zM8 65v-1H7v1zM9 66v-1H8v1zM9 67H8v1h1zM10 67v-1H9v1zM11 67h-1v1h1zM12 67v-1h-1v1zM13 67h-1v1h1zM14 67v-1h-1v1zM15 68v-1h-1v1zM15 69h-1v1h1zM16 69v1h1v-1zM16 68h-1v1h1zM17 67h-1v1h1zM18 67v-1h-1v1zM19 67h-1v1h1zM20 67v-1h-1v1zM21 67h-1v1h1zM22 67v-1h-1v1zM23 68v-1h-1v1zM23 69h-1v1h1zM24 69v1h1v-1zM24 68h-1v1h1zM25 67h-1v1h1zM26 67v-1h-1v1zM27 67h-1v1h1zM28 67v-1h-1v1zM29 67h-1v1h1zM30 67v-1h-1v1zM31 68v-1h-1v1zM31 69h-1v1h1zM32 69v1h1v-1zM32 68h-1v1h1zM33 67h-1v1h1zM34 67v-1h-1v1zM35 67h-1v1h1zM36 67v-1h-1v1zM37 67h-1v1h1zM38 67v-1h-1v1zM39 68v-1h-1v1zM39 69h-1v1h1zM40 69v1h1v-1zM40 68h-1v1h1zM41 67h-1v1h1zM42 67v-1h-1v1zM43 67h-1v1h1zM44 67v-1h-1v1zM45 67h-1v1h1zM46 67v-1h-1v1zM47 68v-1h-1v1zM47 69h-1v1h1zM48 69v1h1v-1zM48 68h-1v1h1zM49 67h-1v1h1zM50 67v-1h-1v1zM51 67h-1v1h1zM52 67v-1h-1v1zM53 67h-1v1h1zM54 67v-1h-1v1zM55 68v-1h-1v1zM55 69h-1v1h1zM56 69v1h1v-1zM56 68h-1v1h1zM57 67h-1v1h1zM58 67v-1h-1v1zM59 67h-1v1h1zM60 67v-1h-1v1zM61 67h-1v1h1zM62 67v-1h-1v1zM63 68v-1h-1v1zM63 69h-1v1h1zM64 69v1h1v-1zM64 68h-1v1h1zM65 67h-1v1h1zM66 67v-1h-1v1zM67 67h-1v1h1zM68 67v-1h-1v1zM69 67h-1v1h1zM70 67v-1h-1v1zM71 68v-1h-1v1zM71 69h-1v1h1zM72 69v1h1v-1zM72 68h-1v1h1zM73 67h-1v1h1zM74 67v-1h-1v1zM75 67h-1v1h1zM76 67v-1h-1v1zM77 67h-1v1h1zM78 67v-1h-1v1zM79 68v-1h-1v1zM79 69h-1v1h1zM80 69v1h1v-1zM80 68h-1v1h1zM81 67h-1v1h1zM82 67v-1h-1v1zM83 67h-1v1h1zM84 67v-1h-1v1zM85 67h-1v1h1zM86 67v-1h-1v1zM87 68v-1h-1v1zM87 69h-1v1h1zM88 69v1h1v-1zM88 68h-1v1h1zM89 67h-1v1h1zM90 67v-1h-1v1zM91 67h-1v1h1zM92 67v-1h-1v1zM93 67h-1v1h1zM94 67v-1h-1v1zM95 68v-1h-1v1zM95 69h-1v1h1zM96 69v1h1v-1zM96 68h-1v1h1zM97 67h-1v1h1zM98 67v-1h-1v1zM99 67h-1v1h1zM100 67v-1h-1v1zM101 67h-1v1h1zM102 67v1h1v-1zM102 66h-1v1h1zM103 65h-1v1h1zM104 65v-1h-1v1zM105 66v-1h-1v1zM105 67h-1v1h1zM106 67v-1h-1v1zM107 67h-1v1h1zM108 67v-1h-1v1zM109 67h-1v1h1zM110 67v-1h-1v1zM111 68v-1h-1v1zM111 69h-1v1h1zM112 69v1h1v-1zM112 68h-1v1h1zM113 67h-1v1h1zM114 67v-1h-1v1zM115 67h-1v1h1zM116 67v-1h-1v1zM117 67h-1v1h1zM118 67v-1h-1v1zM119 68v-1h-1v1zM119 69h-1v1h1zM120 69v1h1v-1zM120 68h-1v1h1zM121 67h-1v1h1zM122 67v-1h-1v1zM123 67h-1v1h1zM124 67v-1h-1v1zM125 67h-1v1h1zM126 67v-1h-1v1zM127 68v-1h-1v1zM127 69h-1v1h1zM128 69v1h1v-1zM128 68h-1v1h1zM129 67h-1v1h1zM130 67v-1h-1v1zM131 67h-1v1h1zM132 67v-1h-1v1zM133 67h-1v1h1zM134 67v-1h-1v1zM135 68v-1h-1v1zM135 69h-1v1h1zM136 69v1h1v-1zM136 68h-1v1h1zM137 67h-1v1h1zM138 67v-1h-1v1zM139 67h-1v1h1zM140 67v-1h-1v1zM141 67h-1v1h1zM142 67v-1h-1v1zM143 68v-1h-1v1zM143 69h-1v1h1zM144 69v1h1v-1zM144 68h-1v1h1zM145 67h-1v1h1zM146 67v-1h-1v1zM147 67h-1v1h1zM148 67v-1h-1v1zM149 67h-1v1h1zM150 67v1h1v-1zM150 66h-1v1h1zM151 65h-1v1h1zM152 65v-1h-1v1zM153 66v-1h-1v1zM153 67h-1v1h1zM154 67v-1h-1v1zM155 67h-1v1h1zM156 67v-1h-1v1zM157 67h-1v1h1zM158 67v-1h-1v1zM159 68v-1h-1v1zM159 69h-1v1h1zM160 69v1h1v-1zM160 68h-1v1h1zM161 67h-1v1h1zM162 67v-1h-1v1zM163 67h-1v1h1zM164 67v-1h-1v1zM165 67h-1v1h1zM166 67v1h1v-1zM166 66h-1v1h1zM167 65h-1v1h1zM168 65v-1h-1v1zM169 66v-1h-1v1zM169 67h-1v1h1zM170 67v-1h-1v1zM171 67h-1v1h1zM172 67v-1h-1v1zM173 67h-1v1h1zM174 67v-1h-1v1zM175 68v-1h-1v1zM175 69h-1v1h1zM176 69v1h1v-1zM176 68h-1v1h1zM177 67h-1v1h1zM178 67v-1h-1v1zM179 67h-1v1h1zM180 67v-1h-1v1zM181 67h-1v1h1zM182 67v-1h-1v1zM183 68v-1h-1v1zM183 69h-1v1h1zM184 69v1h1v-1zM184 68h-1v1h1zM185 67h-1v1h1zM186 67v-1h-1v1zM187 67h-1v1h1zM188 67v-1h-1v1zM189 67h-1v1h1zM190 67v-1h-1v1zM191 68v-1h-1v1zM191 69h-1v1h1zM192 69v1h1v-1zM192 68h-1v1h1zM193 67h-1v1h1zM194 67v-1h-1v1zM195 67h-1v1h1zM196 67v1h1v-1zM196 66h-1v1h1zM196 65v1h1v-1zM196 64h-1v1h1zM197 63h-1v1h1zM197 62v1h1v-1zM196 61v1h1v-1zM196 60h-1v1h1zM197 59h-1v1h1zM197 58v1h1v-1zM197 57h-1v1h1zM197 56v1h1v-1zM197 55h-1v1h1zM197 54v1h1v-1zM197 53h-1v1h1zM197 52v1h1v-1zM197 51h-1v1h1zM197 50v1h1v-1zM197 49h-1v1h1zM197 48v1h1v-1zM196 47v1h1v-1zM195 46v1h1v-1zM195 45h-1v-1h-1v1h-1v1h1v1h1v-1h1z" style="fill:#000"/><path d="M195 42v1h-1v1h1v1h1v-1h1v-1h-1v-1z" style="fill:#000"/><path d="M195 41h-1v-1h-1v1h-1v1h1v1h1v-1h1z" style="fill:#000"/><path d="M195 38v1h-1v1h1v1h1v-1h1v-1h-1v-1z" style="fill:#000"/><path d="M192 38h1v1h1v-1h1v-1h-1v-1h-1v1h-1z" style="fill:#000"/><path d="M191 38v1h-1v1h1v1h1v-1h1v-1h-1v-1z" style="fill:#000"/><path d="M188 38h1v1h1v-1h1v-1h-1v-1h-1v1h-1z" style="fill:#000"/><path d="M187 38v1h-1v1h1v1h1v-1h1v-1h-1v-1z" style="fill:#000"/><path d="M184 38h1v1h1v-1h1v-1h-1v-1h-1v1h-1z" style="fill:#000"/><path d="M183 38v1h-1v1h1v1h1v-1h1v-1h-1v-1z" style="fill:#000"/><path d="M180 38h1v1h1v-1h1v-1h-1v-1h-1v1h-1z" style="fill:#000"/><path d="M179 38v1h-1v1h1v1h1v-1h1v-1h-1v-1z" style="fill:#000"/><path d="M176 38h1v1h1v-1h1v-1h-1v-1h-1v1h-1z" style="fill:#000"/><path d="M175 38v1h-1v1h1v1h1v-1h1v-1h-1v-1z" style="fill:#000"/><path d="M172 38h1v1h1v-1h1v-1h-1v-1h-1v1h-1z" style="fill:#000"/><path d="M171 38v1h-1v1h1v1h1v-1h1v-1h-1v-1z" style="fill:#000"/><path d="M168 38h1v1h1v-1h1v-1h-1v-1h-1v1h-1z" style="fill:#000"/><path d="M167 38v1h-1v1h1v1h1v-1h1v-1h-1v-1z" style="fill:#000"/><path d="M164 38h1v1h1v-1h1v-1h-1v-1h-1v1h-1z" style="fill:#000"/><path d="M163 38v1h-1v1h1v1h1v-1h1v-1h-1v-1z" style="fill:#000"/><path d="M160 38h1v1h1v-1h1v-1h-1v-1h-1v1h-1z" style="fill:#000"/><path d="M159 38v1h-1v1h1v1h1v-1h1v-1h-1v-1z" style="fill:#000"/><path d="M156 38h1v1h1v-1h1v-1h-1v-1h-1v1h-1z" style="fill:#000"/><path d="M155 38v1h-1v1h1v1h1v-1h1v-1h-1v-1z" style="fill:#000"/><path d="M152 38h1v1h1v-1h1v-1h-1v-1h-1v1h-1z" style="fill:#000"/><path d="M151 38v1h-1v1h1v1h1v-1h1v-1h-1v-1z" style="fill:#000"/><path d="M148 38h1v1h1v-1h1v-1h-1v-1h-1v1h-1z" style="fill:#000"/><path d="M147 38v1h-1v1h1v1h1v-1h1v-1h-1v-1z" style="fill:#000"/><path d="M144 38h1v1h1v-1h1v-1h-1v-1h-1v1h-1z" style="fill:#000"/><path d="M143 38v1h-1v1h1v1h1v-1h1v-1h-1v-1z" style="fill:#000"/><path d="M140 38h1v1h1v-1h1v-1h-1v-1h-1v1h-1z" style="fill:#000"/><path d="M139 38v1h-1v1h1v1h1v-1h1v-1h-1v-1z" style="fill:#000"/><path d="M136 38h1v1h1v-1h1v-1h-1v-1h-1v1h-1z" style="fill:#000"/><path d="M135 38v1h-1v1h1v1h1v-1h1v-1h-1v-1z" style="fill:#000"/><path d="M132 38h1v1h1v-1h1v-1h-1v-1h-1v1h-1z" style="fill:#000"/><path d="M131 38v1h-1v1h1v1h1v-1h1v-1h-1v-1z" style="fill:#000"/><path d="M128 38h1v1h1v-1h1v-1h-1v-1h-1v1h-1z" style="fill:#000"/><path d="M127 38v1h-1v1h1v1h1v-1h1v-1h-1v-1z" style="fill:#000"/><path d="M124 38h1v1h1v-1h1v-1h-1v-1h-1v1h-1z" style="fill:#000"/><path d="M123 38v1h-1v1h1v1h1v-1h1v-1h-1v-1z" style="fill:#000"/><path d="M120 38h1v1h1v-1h1v-1h-1v-1h-1v1h-1z" style="fill:#000"/><path d="M119 38v1h-1v1h1v1h1v-1h1v-1h-1v-1z" style="fill:#000"/><path d="M116 38h1v1h1v-1h1v-1h-1v-1h-1v1h-1z" style="fill:#000"/><path d="M115 38v1h-1v1h1v1h1v-1h1v-1h-1v-1z" style="fill:#000"/><path d="M112 38h1v1h1v-1h1v-1h-1v-1h-1v1h-1z" style="fill:#000"/><path d="M111 38v1h-1v1h1v1h1v-1h1v-1h-1v-1z" style="fill:#000"/><path d="M108 38h1v1h1v-1h1v-1h-1v-1h-1v1h-1z" style="fill:#000"/><path d="M107 38v1h-1v1h1v1h1v-1h1v-1h-1v-1z" style="fill:#000"/><path d="M104 38h1v1h1v-1h1v-1h-1v-1h-1v1h-1z" style="fill:#000"/><path d="M103 38v1h-1v1h1v1h1v-1h1v-1h-1v-1z" style="fill:#000"/><path d="M100 38h1v1h1v-1h1v-1h-1v-1h-1v1h-1zM99 38v1h1v-1zM96 38h1v1h1v-1h1v-1h-1v-1h-1v1h-1z" style="fill:#000"/><path d="M95 38v1h-1v1h1v1h1v-1h1v-1h-1v-1z" style="fill:#000"/><path d="M92 38h1v1h1v-1h1v-1h-1v-1h-1v1h-1z" style="fill:#000"/><path d="M91 38v1h-1v1h1v1h1v-1h1v-1h-1v-1z" style="fill:#000"/><path d="M88 38h1v1h1v-1h1v-1h-1v-1h-1v1h-1z" style="fill:#000"/><path d="M87 38v1h-1v1h1v1h1v-1h1v-1h-1v-1z" style="fill:#000"/><path d="M84 38h1v1h1v-1h1v-1h-1v-1h-1v1h-1zM83 38v1h1v-1zM80 38h1v1h1v-1h1v-1h-1v-1h-1v1h-1z" style="fill:#000"/><path d="M79 38v1h-1v1h1v1h1v-1h1v-1h-1v-1z" style="fill:#000"/><path d="M76 38h1v1h1v-1h1v-1h-1v-1h-1v1h-1z" style="fill:#000"/><path d="M75 38v1h-1v1h1v1h1v-1h1v-1h-1v-1z" style="fill:#000"/><path d="M72 38h1v1h1v-1h1v-1h-1v-1h-1v1h-1z" style="fill:#000"/><path d="M71 38v1h-1v1h1v1h1v-1h1v-1h-1v-1z" style="fill:#000"/><path d="M68 38h1v1h1v-1h1v-1h-1v-1h-1v1h-1z" style="fill:#000"/><path d="M67 38v1h-1v1h1v1h1v-1h1v-1h-1v-1z" style="fill:#000"/><path d="M64 38h1v1h1v-1h1v-1h-1v-1h-1v1h-1z" style="fill:#000"/><path d="M63 38v1h-1v1h1v1h1v-1h1v-1h-1v-1z" style="fill:#000"/><path d="M60 38h1v1h1v-1h1v-1h-1v-1h-1v1h-1z" style="fill:#000"/><path d="M59 38v1h-1v1h1v1h1v-1h1v-1h-1v-1z" style="fill:#000"/><path d="M56 38h1v1h1v-1h1v-1h-1v-1h-1v1h-1z" style="fill:#000"/><path d="M55 38v1h-1v1h1v1h1v-1h1v-1h-1v-1z" style="fill:#000"/><path d="M52 38h1v1h1v-1h1v-1h-1v-1h-1v1h-1z" style="fill:#000"/><path d="M51 38v1h-1v1h1v1h1v-1h1v-1h-1v-1z" style="fill:#000"/><path d="M48 38h1v1h1v-1h1v-1h-1v-1h-1v1h-1z" style="fill:#000"/><path d="M47 38v1h-1v1h1v1h1v-1h1v-1h-1v-1z" style="fill:#000"/><path d="M44 38h1v1h1v-1h1v-1h-1v-1h-1v1h-1z" style="fill:#000"/><path d="M43 38v1h-1v1h1v1h1v-1h1v-1h-1v-1z" style="fill:#000"/><path d="M40 38h1v1h1v-1h1v-1h-1v-1h-1v1h-1z" style="fill:#000"/><path d="M39 38v1h-1v1h1v1h1v-1h1v-1h-1v-1z" style="fill:#000"/><path d="M36 38h1v1h1v-1h1v-1h-1v-1h-1v1h-1zM35 38v1h1v-1zM32 38h1v1h1v-1h1v-1h-1v-1h-1v1h-1z" style="fill:#000"/><path d="M31 38v1h-1v1h1v1h1v-1h1v-1h-1v-1z" style="fill:#000"/><path d="M28 38h1v1h1v-1h1v-1h-1v-1h-1v1h-1z" style="fill:#000"/><path d="M27 38v1h-1v1h1v1h1v-1h1v-1h-1v-1z" style="fill:#000"/><path d="M24 38h1v1h1v-1h1v-1h-1v-1h-1v1h-1z" style="fill:#000"/><path d="M23 38v1h-1v1h1v1h1v-1h1v-1h-1v-1z" style="fill:#000"/><path d="M20 38h1v1h1v-1h1v-1h-1v-1h-1v1h-1zM19 38v1h1v-1zM16 38h1v1h1v-1h1v-1h-1v-1h-1v1h-1z" style="fill:#000"/><path d="M15 38v1h-1v1h1v1h1v-1h1v-1h-1v-1z" style="fill:#000"/><path d="M12 38h1v1h1v-1h1v-1h-1v-1h-1v1h-1z" style="fill:#000"/><path d="M11 38v1h-1v1h1v1h1v-1h1v-1h-1v-1z" style="fill:#000"/><path d="M8 38h1v1h1v-1h1v-1h-1v-1H9v1H8Z" style="fill:#000"/><path d="M7 38v1H6v1h1v1h1v-1h1v-1H8v-1z" style="fill:#000"/><path d="M4 38h1v1h1v-1h1v-1H6v-1H5v1H4Z" style="fill:#000"/><path d="M3 38v1H2v1h1v1h1v-1h1v-1H4v-1zM1 36v-1H0v1z" style="fill:#000"/><path d="M1 39h1v-1h1v-1H2v-1H1v1H0v1h1zM1 40v-1H0v1zM1 43h1v-1h1v-1H2v-1H1v1H0v1h1zM1 44v-1H0v1zM1 47h1v-1h1v-1H2v-1H1v1H0v1h1zM1 48v-1H0v1zM1 51h1v-1h1v-1H2v-1H1v1H0v1h1zM1 52v-1H0v1zM1 53h1v-1H1ZM1 54v-1H0v1zM1 55H0v1h1zM2 55v-1H1v1zM3 56v-1H2v1zM3 57h1v-1H3ZM2 58h1v-1H2ZM1 58v-1H0v1zM1 59h1v-1H1ZM1 60v-1H0v1zM1 61h1v-1H1ZM1 62v-1H0v1zM1 63H0v1h1zM2 63v-1H1v1zM3 64v-1H2v1zM3 65h1v-1H3ZM2 66h1v-1H2ZM1 66v-1H0v1zM1 67H0v1h1zM2 67v-1H1v1zM3 68v-1H2v1zM1 70v-1H0v1zM1 71H0v1h1zM2 71v1h1v-1zM2 70H1v1h1zM3 69H2v1h1zM4 69v-1H3v1zM5 70v-1H4v1zM5 71H4v1h1zM6 71v1h1v-1zM6 70H5v1h1zM7 69H6v1h1zM8 69v-1H7v1zM9 70v-1H8v1zM9 71H8v1h1zM10 71v1h1v-1zM10 70H9v1h1zM11 69h-1v1h1zM12 69v-1h-1v1zM13 70v-1h-1v1zM13 71h-1v1h1zM14 71v-1h-1v1zM15 72v-1h-1v1zM13 74v-1h-1v1zM13 75h-1v1h1zM14 75v1h1v-1zM14 74h-1v1h1zM15 73h-1v1h1zM17 75h-1v1h1zM18 75v1h1v-1zM18 74h1v-1h-1zM17 74v1h1v-1zM16 73v1h1v-1zM16 72h-1v1h1zM17 71h-1v1h1zM18 71v1h1v-1zM18 70h-1v1h1zM19 69h-1v1h1zM20 69v-1h-1v1zM21 70v-1h-1v1zM21 71h-1v1h1zM22 71v-1h-1v1zM23 72v-1h-1v1zM21 74v-1h-1v1zM21 75h-1v1h1zM22 75v1h1v-1zM22 74h-1v1h1zM23 73h-1v1h1zM25 75h-1v1h1zM26 75v1h1v-1zM26 74h1v-1h-1zM25 74v1h1v-1zM24 73v1h1v-1zM24 72h-1v1h1zM25 71h-1v1h1zM26 71v1h1v-1zM26 70h-1v1h1zM27 69h-1v1h1zM28 69v-1h-1v1zM29 70v-1h-1v1zM29 71h-1v1h1zM30 71v-1h-1v1zM31 72v-1h-1v1zM29 74v-1h-1v1zM29 75h-1v1h1zM30 75v1h1v-1zM30 74h-1v1h1zM31 73h-1v1h1zM33 75h-1v1h1zM34 75v1h1v-1zM34 74h1v-1h-1zM33 74v1h1v-1zM32 73v1h1v-1zM32 72h-1v1h1zM33 71h-1v1h1zM34 71v1h1v-1zM34 70h-1v1h1zM35 69h-1v1h1zM36 69v-1h-1v1zM37 70v-1h-1v1zM37 71h-1v1h1zM38 71v-1h-1v1zM39 72v-1h-1v1zM37 74v-1h-1v1zM37 75h-1v1h1zM38 75v1h1v-1zM38 74h-1v1h1zM39 73h-1v1h1zM41 75h-1v1h1zM42 75v1h1v-1zM42 74h1v-1h-1zM41 74v1h1v-1zM40 73v1h1v-1zM40 72h-1v1h1zM41 71h-1v1h1zM42 71v1h1v-1zM42 70h-1v1h1zM43 69h-1v1h1zM44 69v-1h-1v1zM45 70v-1h-1v1zM45 71h-1v1h1zM46 71v-1h-1v1zM47 72v-1h-1v1zM45 74v-1h-1v1zM45 75h-1v1h1zM46 75v1h1v-1zM46 74h-1v1h1zM47 73h-1v1h1zM49 75h-1v1h1zM50 75v1h1v-1zM50 74h1v-1h-1zM49 74v1h1v-1zM48 73v1h1v-1zM48 72h-1v1h1zM49 71h-1v1h1zM50 71v1h1v-1zM50 70h-1v1h1zM51 69h-1v1h1zM52 69v-1h-1v1zM53 70v-1h-1v1zM53 71h-1v1h1zM54 71v-1h-1v1zM55 72v-1h-1v1zM53 74v-1h-1v1zM53 75h-1v1h1zM54 75v1h1v-1zM54 74h-1v1h1zM55 73h-1v1h1zM57 75h-1v1h1zM58 75v1h1v-1zM58 74h1v-1h-1zM57 74v1h1v-1zM56 73v1h1v-1zM56 72h-1v1h1zM57 71h-1v1h1zM58 71v1h1v-1zM58 70h-1v1h1zM59 69h-1v1h1zM60 69v-1h-1v1zM61 70v-1h-1v1zM61 71h-1v1h1zM62 71v-1h-1v1zM63 72v-1h-1v1zM61 74v-1h-1v1zM61 75h-1v1h1zM62 75v1h1v-1zM62 74h-1v1h1zM63 73h-1v1h1zM65 75h-1v1h1zM66 75v1h1v-1zM66 74h1v-1h-1zM65 74v1h1v-1zM64 73v1h1v-1zM64 72h-1v1h1zM65 71h-1v1h1zM66 71v1h1v-1zM66 70h-1v1h1zM67 69h-1v1h1zM68 69v-1h-1v1zM69 70v-1h-1v1zM69 71h-1v1h1zM70 71v-1h-1v1zM71 72v-1h-1v1zM69 74v-1h-1v1zM69 75h-1v1h1zM70 75v1h1v-1zM70 74h-1v1h1zM71 73h-1v1h1zM73 75h-1v1h1zM74 75v1h1v-1zM74 74h1v-1h-1zM73 74v1h1v-1zM72 73v1h1v-1zM72 72h-1v1h1zM73 71h-1v1h1zM74 71v1h1v-1zM74 70h-1v1h1zM75 69h-1v1h1zM76 69v-1h-1v1zM77 70v-1h-1v1zM77 71h-1v1h1zM78 71v-1h-1v1zM79 72v-1h-1v1zM77 74v-1h-1v1zM77 75h-1v1h1zM78 75v1h1v-1zM78 74h-1v1h1zM79 73h-1v1h1zM81 75h-1v1h1zM82 75v1h1v-1zM82 74h1v-1h-1zM81 74v1h1v-1zM80 73v1h1v-1zM80 72h-1v1h1zM81 71h-1v1h1zM82 71v1h1v-1zM82 70h-1v1h1zM83 69h-1v1h1zM84 69v-1h-1v1zM85 70v-1h-1v1zM85 71h-1v1h1zM86 71v-1h-1v1zM87 72v-1h-1v1zM85 74v-1h-1v1zM85 75h-1v1h1zM86 75v1h1v-1zM86 74h-1v1h1zM87 73h-1v1h1zM89 75h-1v1h1zM90 75v1h1v-1zM90 74h1v-1h-1zM89 74v1h1v-1zM88 73v1h1v-1zM88 72h-1v1h1zM89 71h-1v1h1zM90 71v1h1v-1zM90 70h-1v1h1zM91 69h-1v1h1zM92 69v-1h-1v1zM93 70v-1h-1v1zM93 71h-1v1h1zM94 71v-1h-1v1zM95 72v-1h-1v1zM93 74v-1h-1v1zM93 75h-1v1h1zM94 75v1h1v-1zM94 74h-1v1h1zM95 73h-1v1h1zM97 75h-1v1h1zM98 75v1h1v-1zM98 74h1v-1h-1zM97 74v1h1v-1zM96 73v1h1v-1zM96 72h-1v1h1zM97 71h-1v1h1zM98 71v1h1v-1zM98 70h-1v1h1zM99 69h-1v1h1zM100 69v-1h-1v1zM101 70v-1h-1v1zM101 71h-1v1h1zM102 71v1h1v-1zM102 70h-1v1h1zM103 69h-1v1h1zM104 69v-1h-1v1zM105 70v-1h-1v1zM105 71h-1v1h1zM106 71v1h1v-1zM106 70h-1v1h1zM107 69h-1v1h1zM108 69v-1h-1v1zM109 70v-1h-1v1zM109 71h-1v1h1zM110 71v-1h-1v1zM111 72v-1h-1v1zM109 74v-1h-1v1zM109 75h-1v1h1zM110 75v1h1v-1zM110 74h-1v1h1zM111 73h-1v1h1zM113 75h-1v1h1zM114 75v1h1v-1zM114 74h1v-1h-1zM113 74v1h1v-1zM112 73v1h1v-1zM112 72h-1v1h1zM113 71h-1v1h1zM114 71v1h1v-1zM114 70h-1v1h1zM115 69h-1v1h1zM116 69v-1h-1v1zM117 70v-1h-1v1zM117 71h-1v1h1zM118 71v-1h-1v1zM119 72v-1h-1v1zM117 74v-1h-1v1zM117 75h-1v1h1zM118 75v1h1v-1zM118 74h-1v1h1zM119 73h-1v1h1zM121 75h-1v1h1zM122 75v1h1v-1zM122 74h1v-1h-1zM121 74v1h1v-1zM120 73v1h1v-1zM120 72h-1v1h1zM121 71h-1v1h1zM122 71v1h1v-1zM122 70h-1v1h1zM123 69h-1v1h1zM124 69v-1h-1v1zM125 70v-1h-1v1zM125 71h-1v1h1zM126 71v-1h-1v1zM127 72v-1h-1v1zM125 74v-1h-1v1zM125 75h-1v1h1zM126 75v1h1v-1zM126 74h-1v1h1zM127 73h-1v1h1zM129 75h-1v1h1zM130 75v1h1v-1zM130 74h1v-1h-1zM129 74v1h1v-1zM128 73v1h1v-1zM128 72h-1v1h1zM129 71h-1v1h1zM130 71v1h1v-1zM130 70h-1v1h1zM131 69h-1v1h1zM132 69v-1h-1v1zM133 70v-1h-1v1zM133 71h-1v1h1zM134 71v-1h-1v1zM135 72v-1h-1v1zM133 74v-1h-1v1zM133 75h-1v1h1zM134 75v1h1v-1zM134 74h-1v1h1zM135 73h-1v1h1zM137 75h-1v1h1zM138 75v1h1v-1zM138 74h1v-1h-1zM137 74v1h1v-1zM136 73v1h1v-1zM136 72h-1v1h1zM137 71h-1v1h1zM138 71v1h1v-1zM138 70h-1v1h1zM139 69h-1v1h1zM140 69v-1h-1v1zM141 70v-1h-1v1zM141 71h-1v1h1zM142 71v-1h-1v1zM143 72v-1h-1v1zM141 74v-1h-1v1zM141 75h-1v1h1zM142 75v1h1v-1zM142 74h-1v1h1zM143 73h-1v1h1zM145 75h-1v1h1zM146 75v1h1v-1zM146 74h1v-1h-1zM145 74v1h1v-1zM144 73v1h1v-1zM144 72h-1v1h1zM145 71h-1v1h1zM146 71v1h1v-1zM146 70h-1v1h1zM147 69h-1v1h1zM148 69v-1h-1v1zM149 70v-1h-1v1zM149 71h-1v1h1zM150 71v1h1v-1zM150 70h-1v1h1zM151 69h-1v1h1zM152 69v-1h-1v1zM153 70v-1h-1v1zM153 71h-1v1h1zM154 71v1h1v-1zM154 70h-1v1h1zM155 69h-1v1h1zM156 69v-1h-1v1zM157 70v-1h-1v1zM157 71h-1v1h1zM158 71v-1h-1v1zM159 72v-1h-1v1zM157 74v-1h-1v1zM157 75h-1v1h1zM158 75v1h1v-1zM158 74h-1v1h1zM159 73h-1v1h1zM161 75h-1v1h1zM162 75v1h1v-1zM162 74h1v-1h-1zM161 74v1h1v-1zM160 73v1h1v-1zM160 72h-1v1h1zM161 71h-1v1h1zM162 71v1h1v-1zM162 70h-1v1h1zM163 69h-1v1h1zM164 69v-1h-1v1zM165 70v-1h-1v1zM165 71h-1v1h1zM166 71v1h1v-1zM166 70h-1v1h1zM167 69h-1v1h1zM168 69v-1h-1v1zM169 70v-1h-1v1zM169 71h-1v1h1zM170 71v1h1v-1zM170 70h-1v1h1zM171 69h-1v1h1zM172 69v-1h-1v1zM173 70v-1h-1v1zM173 71h-1v1h1zM174 71v-1h-1v1zM175 72v-1h-1v1zM173 74v-1h-1v1zM173 75h-1v1h1zM174 75v1h1v-1zM174 74h-1v1h1zM175 73h-1v1h1zM177 75h-1v1h1zM178 75v1h1v-1zM178 74h1v-1h-1zM177 74v1h1v-1zM176 73v1h1v-1zM176 72h-1v1h1zM177 71h-1v1h1zM178 71v1h1v-1zM178 70h-1v1h1zM179 69h-1v1h1zM180 69v-1h-1v1zM181 70v-1h-1v1zM181 71h-1v1h1zM182 71v-1h-1v1zM183 72v-1h-1v1zM181 74v-1h-1v1zM181 75h-1v1h1zM182 75v1h1v-1zM182 74h-1v1h1zM183 73h-1v1h1zM185 75h-1v1h1zM186 75v1h1v-1zM186 74h1v-1h-1zM185 74v1h1v-1zM184 73v1h1v-1zM184 72h-1v1h1zM185 71h-1v1h1zM186 71v1h1v-1zM186 70h-1v1h1zM187 69h-1v1h1zM188 69v-1h-1v1zM189 70v-1h-1v1zM189 71h-1v1h1zM190 71v-1h-1v1zM191 72v-1h-1v1zM189 74v-1h-1v1zM189 75h-1v1h1zM190 75v1h1v-1zM190 74h-1v1h1zM191 73h-1v1h1zM193 75h-1v1h1zM194 75v1h1v-1zM194 74h1v-1h-1zM193 74v1h1v-1zM192 73v1h1v-1zM192 72h-1v1h1zM193 71h-1v1h1zM194 71v1h1v-1zM194 70h-1v1h1zM195 69h-1v1h1zM196 69v-1h-1v1zM197 70v-1h-1v1zM197 71h-1v1h1zM198 71v1h1v-1zM198 70h-1v1h1zM199 69h-1v1h1zM199 68v1h1v-1zM198 67v1h1v-1zM198 66h-1v1h1zM199 65h-1v1h1zM199 64v1h1v-1zM199 63h-1v1h1zM199 62v1h1v-1zM199 61h-1v1h1zM199 60v1h1v-1zM199 59h-1v1h1zM199 58v1h1v-1zM199 57h-1v1h1zM199 56v1h1v-1zM199 55h-1v1h1zM199 54v1h1v-1zM199 53h-1v1h1zM199 52v1h1v-1zM199 51h-1v1h1zM199 50v1h1v-1zM199 49h-1v1h1zM199 48v1h1v-1zM199 47h-1v1h1zM199 46v1h1v-1zM199 45h-1v-1h-1v1h-1v1h1v1h1v-1h1zM199 44v1h1v-1zM199 43h-1v1h1zM199 42v1h1v-1zM199 41h-1v-1h-1v1h-1v1h1v1h1v-1h1z" style="fill:#000"/><path d="M199 38v1h-1v1h1v1h1v-3z" style="fill:#000"/><path d="M199 37h-1v-1h-1v1h-1v1h1v1h1v-1h1z" style="fill:#000"/><path d="M200 0h-7v1h-1V0h-3v1h-1V0h-3v1h-1V0h-7v1h-1V0h-3v1h-1V0h-3v1h-1V0h-7v1h-1V0h-3v1h-1V0h-3v1h-1V0h-7v1h-1V0h-3v1h-1V0h-3v1h-1V0h-7v1h-1V0h-3v1h-1V0h-3v1h-1V0h-7v1h-1V0h-3v1h-1V0h-3v1h-1V0h-3v1h-1V0h-3v1h-1V0h-7v1h-1V0h-7v1h-1V0h-3v1h-1V0h-3v1h-1V0h-7v1h-1V0h-3v1h-1V0h-3v1h-1V0h-7v1h-1V0h-3v1h-1V0h-3v1h-1V0h-7v1h-1V0h-3v1h-1V0h-3v1h-1V0h-7v1h-1V0h-3v1h-1V0H9v1H8V0H1v1H0v3h1v1H0v3h1v1H0v3h1v1H0v3h1v1H0v3h1v1H0v1h1v1H0v1h1v1H0v1h1v1H0v1h1v1H0v1h1v1h1v-1h1v1H2v1h1v1H2v-1H1v1H0v1h1v1h1v-1h1v1H2v1h1v1h1v-1h1v-1H4v-1h1v1h1v-1h1v1H6v1h1v1h1v-1h1v-1H8v-1h1v1h1v-1h1v1h-1v1h1v1h1v-1h1v-1h-1v-1h1v1h1v-1h1v1h-1v1h1v1h1v-1h1v-1h-1v-1h1v1h1v-1h1v1h-1v1h1v1h1v-1h1v-1h-1v-1h1v1h1v-1h1v1h-1v1h1v1h1v-1h1v-1h-1v-1h1v1h1v-1h1v1h-1v1h1v1h1v-1h1v-1h-1v-1h1v1h1v-1h1v1h-1v1h1v1h1v-1h1v-1h-1v-1h1v1h1v-1h1v1h-1v1h1v1h1v-1h1v-1h-1v-1h1v1h1v-1h1v1h-1v1h1v1h1v-1h1v-1h-1v-1h1v1h1v-1h1v1h-1v1h1v1h1v-1h1v-1h-1v-1h1v1h1v-1h1v1h-1v1h1v1h1v-1h1v-1h-1v-1h1v1h1v-1h1v1h-1v1h1v1h1v-1h1v-1h-1v-1h1v1h1v-1h1v1h-1v1h1v1h1v-1h1v-1h-1v-1h1v1h1v-1h1v1h-1v1h1v1h1v-1h1v-1h-1v-1h1v1h1v-1h1v1h-1v1h1v1h1v-1h1v-1h-1v-1h1v1h1v-1h1v1h-1v1h1v1h1v-1h1v-1h-1v-1h1v1h1v-1h1v1h-1v1h1v1h1v-1h1v-1h-1v-1h1v1h1v-1h1v1h-1v1h1v1h1v-1h1v-1h-1v-1h1v1h1v-1h1v1h-1v1h1v1h1v-1h1v-1h-1v-1h1v1h1v-1h1v1h-1v1h1v1h1v-1h1v-1h-1v-1h1v1h1v-1h1v1h-1v1h1v1h1v-1h1v-1h-1v-1h1v1h1v-1h1v1h-1v1h1v1h1v-1h1v-1h-1v-1h1v1h1v-1h1v1h-1v1h1v1h1v-1h1v-1h-1v-1h1v1h1v-1h1v1h-1v1h1v1h1v-1h1v-1h-1v-1h1v1h1v-1h1v1h-1v1h1v1h1v-1h1v-1h-1v-1h1v1h1v-1h1v1h-1v1h1v1h1v-1h1v-1h-1v-1h1v1h1v-1h1v1h-1v1h1v1h1v-1h1v-1h-1v-1h1v1h1v-1h1v1h-1v1h1v1h1v-1h1v-1h-1v-1h1v1h1v-1h1v1h-1v1h1v1h1v-1h1v-1h-1v-1h1v1h1v-1h1v1h-1v1h1v1h1v-1h1v-1h-1v-1h1v1h1v-1h1v1h-1v1h1v1h1v-1h1v-1h-1v-1h1v1h1v-1h1v1h-1v1h1v1h1v-1h1v-1h-1v-1h1v1h1v-1h1v1h-1v1h1v1h1v-1h1v-1h-1v-1h1v1h1v-1h1v1h-1v1h1v1h1v-1h1v-1h-1v-1h1v1h1v-1h1v1h-1v1h1v1h1v-1h1v-1h-1v-1h1v1h1v-1h1v1h-1v1h1v1h1v-1h1v-1h-1v-1h1v1h1v-1h1v1h-1v1h1v1h1v-1h1v-1h-1v-1h1v1h1v-1h1v1h-1v1h1v1h1v-1h1v-1h-1v-1h1v1h1v-1h1v1h-1v1h1v1h1v-1h1v-1h-1v-1h1v1h1v-1h1v1h-1v1h1v1h1v-1h1v-1h-1v-1h1v1h1v-1h1v1h-1v1h1v1h1v-1h1v-1h-1v-1h1v1h1v-1h1v1h-1v1h1v1h1v-1h1v-1h-1v-1h1v1h1v-1h1v1h-1v1h1v1h1v-1h1v-1h-1v-1h1v1h1v-1h1v1h-1v1h1v1h1v-1h1v-1h-1v-1h1v1h1v-1h1v1h-1v1h1v1h1v-1h1v-1h-1v-1h1v1h1v-1h1v1h-1v1h1v1h1v-1h1v-1h-1v-1h1v1h1v-1h1v1h-1v1h1v1h1v-1h1v-1h-1v-1h1v1h1v-1h1v1h-1v1h1v1h1v-1h1v-1h-1v-1h1v1h1v-1h1v1h-1v1h1v1h1zM2 6h1v1H2Zm4 0h1v1H6Zm4 0h1v1h-1zm8 0h1v1h-1zm8 0h1v1h-1zm8 0h1v1h-1zm8 0h1v1h-1zm8 0h1v1h-1zm8 0h1v1h-1zm8 0h1v1h-1zm8 0h1v1h-1zm8 0h1v1h-1zm8 0h1v1h-1zm8 0h1v1h-1zm4 0h1v1h-1zm4 0h1v1h-1zm8 0h1v1h-1zm8 0h1v1h-1zm8 0h1v1h-1zm4 0h1v1h-1zm4 0h1v1h-1zm8 0h1v1h-1zm8 0h1v1h-1zm8 0h1v1h-1zm8 0h1v1h-1zm8 0h1v1h-1zm8 0h1v1h-1zm8 0h1v1h-1zm4 0h1v1h-1zM4 8h1v1H4Zm4 0h1v1H8Zm4 0h1v1h-1zm4 0h1v1h-1zm4 0h1v1h-1zm4 0h1v1h-1zm4 0h1v1h-1zm4 0h1v1h-1zm4 0h1v1h-1zm4 0h1v1h-1zm4 0h1v1h-1zm4 0h1v1h-1zm4 0h1v1h-1zm4 0h1v1h-1zm4 0h1v1h-1zm4 0h1v1h-1zm4 0h1v1h-1zm4 0h1v1h-1zm4 0h1v1h-1zm4 0h1v1h-1zm4 0h1v1h-1zm4 0h1v1h-1zm4 0h1v1h-1zm4 0h1v1h-1zm4 0h1v1h-1zm4 0h1v1h-1zm4 0h1v1h-1zm4 0h1v1h-1zm4 0h1v1h-1zm4 0h1v1h-1zm4 0h1v1h-1zm4 0h1v1h-1zm4 0h1v1h-1zm4 0h1v1h-1zm4 0h1v1h-1zm4 0h1v1h-1zm4 0h1v1h-1zm4 0h1v1h-1zm4 0h1v1h-1zm4 0h1v1h-1zm4 0h1v1h-1zm4 0h1v1h-1zm4 0h1v1h-1zm4 0h1v1h-1zm4 0h1v1h-1zm4 0h1v1h-1zm4 0h1v1h-1zm4 0h1v1h-1zm4 0h1v1h-1zM6 10h1v1H6Zm4 0h1v1h-1zm4 0h1v1h-1zm8 0h1v1h-1zm4 0h1v1h-1zm4 0h1v1h-1zm8 0h1v1h-1zm4 0h1v1h-1zm4 0h1v1h-1zm8 0h1v1h-1zm4 0h1v1h-1zm4 0h1v1h-1zm4 0h1v1h-1zm4 0h1v1h-1zm4 0h1v1h-1zm4 0h1v1h-1zm4 0h1v1h-1zm4 0h1v1h-1zm4 0h1v1h-1zm4 0h1v1h-1zm4 0h1v1h-1zm4 0h1v1h-1zm4 0h1v1h-1zm4 0h1v1h-1zm4 0h1v1h-1zm4 0h1v1h-1zm4 0h1v1h-1zm4 0h1v1h-1zm4 0h1v1h-1zm4 0h1v1h-1zm4 0h1v1h-1zm4 0h1v1h-1zm4 0h1v1h-1zm4 0h1v1h-1zm4 0h1v1h-1zm4 0h1v1h-1zm4 0h1v1h-1zm4 0h1v1h-1zm4 0h1v1h-1zm4 0h1v1h-1zm8 0h1v1h-1zm4 0h1v1h-1zm4 0h1v1h-1zm4 0h1v1h-1zm4 0h1v1h-1zM4 12h1v1H4Zm4 0h1v1H8Zm4 0h1v1h-1zm4 0h1v1h-1zm4 0h1v1h-1zm4 0h1v1h-1zm4 0h1v1h-1zm4 0h1v1h-1zm4 0h1v1h-1zm4 0h1v1h-1zm4 0h1v1h-1zm4 0h1v1h-1zm4 0h1v1h-1zm4 0h1v1h-1zm4 0h1v1h-1zm4 0h1v1h-1zm4 0h1v1h-1zm4 0h1v1h-1zm4 0h1v1h-1zm4 0h1v1h-1zm4 0h1v1h-1zm4 0h1v1h-1zm4 0h1v1h-1zm4 0h1v1h-1zm4 0h1v1h-1zm4 0h1v1h-1zm4 0h1v1h-1zm4 0h1v1h-1zm4 0h1v1h-1zm4 0h1v1h-1zm4 0h1v1h-1zm4 0h1v1h-1zm4 0h1v1h-1zm4 0h1v1h-1zm4 0h1v1h-1zm4 0h1v1h-1zm4 0h1v1h-1zm4 0h1v1h-1zm4 0h1v1h-1zm4 0h1v1h-1zm4 0h1v1h-1zm4 0h1v1h-1zm4 0h1v1h-1zm4 0h1v1h-1zm4 0h1v1h-1zm4 0h1v1h-1zm4 0h1v1h-1zm4 0h1v1h-1zm4 0h1v1h-1zM2 14h1v1H2Zm4 0h1v1H6Zm4 0h1v1h-1zm4 0h1v1h-1zm4 0h1v1h-1zm4 0h1v1h-1zm4 0h1v1h-1zm4 0h1v1h-1zm4 0h1v1h-1zm4 0h1v1h-1zm4 0h1v1h-1zm4 0h1v1h-1zm4 0h1v1h-1zm4 0h1v1h-1zm4 0h1v1h-1zm4 0h1v1h-1zm4 0h1v1h-1zm4 0h1v1h-1zm4 0h1v1h-1zm4 0h1v1h-1zm4 0h1v1h-1zm4 0h1v1h-1zm4 0h1v1h-1zm4 0h1v1h-1zm4 0h1v1h-1zm4 0h1v1h-1zm4 0h1v1h-1zm4 0h1v1h-1zm4 0h1v1h-1zm4 0h1v1h-1zm4 0h1v1h-1zm4 0h1v1h-1zm4 0h1v1h-1zm4 0h1v1h-1zm4 0h1v1h-1zm4 0h1v1h-1zm4 0h1v1h-1zm4 0h1v1h-1zm4 0h1v1h-1zm4 0h1v1h-1zm4 0h1v1h-1zm4 0h1v1h-1zm4 0h1v1h-1zm4 0h1v1h-1zm4 0h1v1h-1zm4 0h1v1h-1zm4 0h1v1h-1zm4 0h1v1h-1zm4 0h1v1h-1zm4 0h1v1h-1zM2 16h1v1H2Zm2 0h1v1H4Zm2 0h1v1H6Zm2 0h1v1H8Zm2 0h1v1h-1zm2 0h1v1h-1zm2 0h1v1h-1zm2 0h1v1h-1zm2 0h1v1h-1zm2 0h1v1h-1zm2 0h1v1h-1zm2 0h1v1h-1zm2 0h1v1h-1zm2 0h1v1h-1zm2 0h1v1h-1zm2 0h1v1h-1zm2 0h1v1h-1zm2 0h1v1h-1zm2 0h1v1h-1zm2 0h1v1h-1zm2 0h1v1h-1zm2 0h1v1h-1zm2 0h1v1h-1zm2 0h1v1h-1zm2 0h1v1h-1zm2 0h1v1h-1zm2 0h1v1h-1zm2 0h1v1h-1zm2 0h1v1h-1zm2 0h1v1h-1zm2 0h1v1h-1zm2 0h1v1h-1zm2 0h1v1h-1zm2 0h1v1h-1zm2 0h1v1h-1zm2 0h1v1h-1zm2 0h1v1h-1zm2 0h1v1h-1zm2 0h1v1h-1zm2 0h1v1h-1zm2 0h1v1h-1zm2 0h1v1h-1zm2 0h1v1h-1zm2 0h1v1h-1zm2 0h1v1h-1zm2 0h1v1h-1zm2 0h1v1h-1zm2 0h1v1h-1zm2 0h1v1h-1zm2 0h1v1h-1zm2 0h1v1h-1zm2 0h1v1h-1zm2 0h1v1h-1zm2 0h1v1h-1zm2 0h1v1h-1zm2 0h1v1h-1zm2 0h1v1h-1zm2 0h1v1h-1zm2 0h1v1h-1zm2 0h1v1h-1zm2 0h1v1h-1zm2 0h1v1h-1zm2 0h1v1h-1zm2 0h1v1h-1zm2 0h1v1h-1zm2 0h1v1h-1zm2 0h1v1h-1zm2 0h1v1h-1zm2 0h1v1h-1zm2 0h1v1h-1zm2 0h1v1h-1zm2 0h1v1h-1zm2 0h1v1h-1zm2 0h1v1h-1zm2 0h1v1h-1zm2 0h1v1h-1zm2 0h1v1h-1zm2 0h1v1h-1zm2 0h1v1h-1zm2 0h1v1h-1zm2 0h1v1h-1zm2 0h1v1h-1zm2 0h1v1h-1zm2 0h1v1h-1zm2 0h1v1h-1zm2 0h1v1h-1zm2 0h1v1h-1zm2 0h1v1h-1zm2 0h1v1h-1zm2 0h1v1h-1zm2 0h1v1h-1zm2 0h1v1h-1zm2 0h1v1h-1zm2 0h1v1h-1zm2 0h1v1h-1zm2 0h1v1h-1zm2 0h1v1h-1zm2 0h1v1h-1zm2 0h1v1h-1zM2 18h1v1H2Zm4 0h1v1H6Zm4 0h1v1h-1zm4 0h1v1h-1zm4 0h1v1h-1zm4 0h1v1h-1zm4 0h1v1h-1zm4 0h1v1h-1zm4 0h1v1h-1zm4 0h1v1h-1zm4 0h1v1h-1zm4 0h1v1h-1zm4 0h1v1h-1zm4 0h1v1h-1zm4 0h1v1h-1zm4 0h1v1h-1zm4 0h1v1h-1zm4 0h1v1h-1zm4 0h1v1h-1zm4 0h1v1h-1zm4 0h1v1h-1zm4 0h1v1h-1zm4 0h1v1h-1zm4 0h1v1h-1zm4 0h1v1h-1zm4 0h1v1h-1zm4 0h1v1h-1zm4 0h1v1h-1zm4 0h1v1h-1zm4 0h1v1h-1zm4 0h1v1h-1zm4 0h1v1h-1zm4 0h1v1h-1zm4 0h1v1h-1zm4 0h1v1h-1zm4 0h1v1h-1zm4 0h1v1h-1zm4 0h1v1h-1zm4 0h1v1h-1zm4 0h1v1h-1zm4 0h1v1h-1zm4 0h1v1h-1zm4 0h1v1h-1zm4 0h1v1h-1zm4 0h1v1h-1zm4 0h1v1h-1zm4 0h1v1h-1zm4 0h1v1h-1zm4 0h1v1h-1zm4 0h1v1h-1zM2 20h1v1H2Zm2 0h1v1H4Zm2 0h1v1H6Zm2 0h1v1H8Zm2 0h1v1h-1zm2 0h1v1h-1zm2 0h1v1h-1zm2 0h1v1h-1zm2 0h1v1h-1zm2 0h1v1h-1zm2 0h1v1h-1zm2 0h1v1h-1zm2 0h1v1h-1zm2 0h1v1h-1zm2 0h1v1h-1zm2 0h1v1h-1zm2 0h1v1h-1zm2 0h1v1h-1zm2 0h1v1h-1zm2 0h1v1h-1zm2 0h1v1h-1zm2 0h1v1h-1zm2 0h1v1h-1zm2 0h1v1h-1zm2 0h1v1h-1zm2 0h1v1h-1zm2 0h1v1h-1zm2 0h1v1h-1zm2 0h1v1h-1zm2 0h1v1h-1zm2 0h1v1h-1zm2 0h1v1h-1zm2 0h1v1h-1zm2 0h1v1h-1zm2 0h1v1h-1zm2 0h1v1h-1zm2 0h1v1h-1zm2 0h1v1h-1zm2 0h1v1h-1zm2 0h1v1h-1zm2 0h1v1h-1zm2 0h1v1h-1zm2 0h1v1h-1zm2 0h1v1h-1zm2 0h1v1h-1zm2 0h1v1h-1zm2 0h1v1h-1zm2 0h1v1h-1zm2 0h1v1h-1zm2 0h1v1h-1zm2 0h1v1h-1zm2 0h1v1h-1zm2 0h1v1h-1zm2 0h1v1h-1zm2 0h1v1h-1zm2 0h1v1h-1zm2 0h1v1h-1zm2 0h1v1h-1zm2 0h1v1h-1zm2 0h1v1h-1zm2 0h1v1h-1zm2 0h1v1h-1zm2 0h1v1h-1zm2 0h1v1h-1zm2 0h1v1h-1zm2 0h1v1h-1zm2 0h1v1h-1zm2 0h1v1h-1zm2 0h1v1h-1zm2 0h1v1h-1zm2 0h1v1h-1zm2 0h1v1h-1zm2 0h1v1h-1zm2 0h1v1h-1zm2 0h1v1h-1zm2 0h1v1h-1zm2 0h1v1h-1zm2 0h1v1h-1zm2 0h1v1h-1zm2 0h1v1h-1zm2 0h1v1h-1zm2 0h1v1h-1zm2 0h1v1h-1zm2 0h1v1h-1zm2 0h1v1h-1zm2 0h1v1h-1zm2 0h1v1h-1zm2 0h1v1h-1zm2 0h1v1h-1zm2 0h1v1h-1zm2 0h1v1h-1zm2 0h1v1h-1zm2 0h1v1h-1zm2 0h1v1h-1zm2 0h1v1h-1zm2 0h1v1h-1zm2 0h1v1h-1zm2 0h1v1h-1zm2 0h1v1h-1zM2 22h1v1H2Zm2 0h1v1H4Zm2 0h1v1H6Zm2 0h1v1H8Zm2 0h1v1h-1zm4 0h1v1h-1zm2 0h1v1h-1zm2 0h1v1h-1zm2 0h1v1h-1zm2 0h1v1h-1zm2 0h1v1h-1zm2 0h1v1h-1zm2 0h1v1h-1zm2 0h1v1h-1zm2 0h1v1h-1zm2 0h1v1h-1zm2 0h1v1h-1zm2 0h1v1h-1zm2 0h1v1h-1zm2 0h1v1h-1zm4 0h1v1h-1zm2 0h1v1h-1zm2 0h1v1h-1zm2 0h1v1h-1zm2 0h1v1h-1zm2 0h1v1h-1zm2 0h1v1h-1zm2 0h1v1h-1zm2 0h1v1h-1zm2 0h1v1h-1zm2 0h1v1h-1zm2 0h1v1h-1zm2 0h1v1h-1zm2 0h1v1h-1zm2 0h1v1h-1zm4 0h1v1h-1zm2 0h1v1h-1zm2 0h1v1h-1zm2 0h1v1h-1zm2 0h1v1h-1zm2 0h1v1h-1zm2 0h1v1h-1zm2 0h1v1h-1zm2 0h1v1h-1zm2 0h1v1h-1zm2 0h1v1h-1zm2 0h1v1h-1zm2 0h1v1h-1zm2 0h1v1h-1zm2 0h1v1h-1zm4 0h1v1h-1zm2 0h1v1h-1zm2 0h1v1h-1zm2 0h1v1h-1zm2 0h1v1h-1zm2 0h1v1h-1zm2 0h1v1h-1zm2 0h1v1h-1zm2 0h1v1h-1zm2 0h1v1h-1zm2 0h1v1h-1zm2 0h1v1h-1zm2 0h1v1h-1zm2 0h1v1h-1zm2 0h1v1h-1zm4 0h1v1h-1zm2 0h1v1h-1zm2 0h1v1h-1zm2 0h1v1h-1zm2 0h1v1h-1zm2 0h1v1h-1zm2 0h1v1h-1zm2 0h1v1h-1zm2 0h1v1h-1zm2 0h1v1h-1zm2 0h1v1h-1zm2 0h1v1h-1zm2 0h1v1h-1zm2 0h1v1h-1zm2 0h1v1h-1zm4 0h1v1h-1zm2 0h1v1h-1zm2 0h1v1h-1zm2 0h1v1h-1zm2 0h1v1h-1zm2 0h1v1h-1zm2 0h1v1h-1zm2 0h1v1h-1zm2 0h1v1h-1zm2 0h1v1h-1zm2 0h1v1h-1zm2 0h1v1h-1zm2 0h1v1h-1zM2 24h1v1H2Zm2 0h1v1H4Zm2 0h1v1H6Zm2 0h1v1H8Zm2 0h1v1h-1zm2 0h1v1h-1zm2 0h1v1h-1zm2 0h1v1h-1zm2 0h1v1h-1zm2 0h1v1h-1zm2 0h1v1h-1zm2 0h1v1h-1zm2 0h1v1h-1zm2 0h1v1h-1zm2 0h1v1h-1zm2 0h1v1h-1zm2 0h1v1h-1zm2 0h1v1h-1zm2 0h1v1h-1zm2 0h1v1h-1zm2 0h1v1h-1zm2 0h1v1h-1zm2 0h1v1h-1zm2 0h1v1h-1zm2 0h1v1h-1zm2 0h1v1h-1zm2 0h1v1h-1zm2 0h1v1h-1zm2 0h1v1h-1zm2 0h1v1h-1zm2 0h1v1h-1zm2 0h1v1h-1zm2 0h1v1h-1zm2 0h1v1h-1zm2 0h1v1h-1zm2 0h1v1h-1zm2 0h1v1h-1zm2 0h1v1h-1zm2 0h1v1h-1zm2 0h1v1h-1zm2 0h1v1h-1zm2 0h1v1h-1zm2 0h1v1h-1zm2 0h1v1h-1zm2 0h1v1h-1zm2 0h1v1h-1zm2 0h1v1h-1zm2 0h1v1h-1zm2 0h1v1h-1zm2 0h1v1h-1zm2 0h1v1h-1zm2 0h1v1h-1zm2 0h1v1h-1zm2 0h1v1h-1zm2 0h1v1h-1zm2 0h1v1h-1zm2 0h1v1h-1zm2 0h1v1h-1zm2 0h1v1h-1zm2 0h1v1h-1zm2 0h1v1h-1zm2 0h1v1h-1zm2 0h1v1h-1zm2 0h1v1h-1zm2 0h1v1h-1zm2 0h1v1h-1zm2 0h1v1h-1zm2 0h1v1h-1zm2 0h1v1h-1zm2 0h1v1h-1zm2 0h1v1h-1zm2 0h1v1h-1zm2 0h1v1h-1zm2 0h1v1h-1zm2 0h1v1h-1zm2 0h1v1h-1zm2 0h1v1h-1zm2 0h1v1h-1zm2 0h1v1h-1zm2 0h1v1h-1zm2 0h1v1h-1zm2 0h1v1h-1zm2 0h1v1h-1zm2 0h1v1h-1zm2 0h1v1h-1zm2 0h1v1h-1zm2 0h1v1h-1zm2 0h1v1h-1zm2 0h1v1h-1zm2 0h1v1h-1zm2 0h1v1h-1zm2 0h1v1h-1zm2 0h1v1h-1zm2 0h1v1h-1zm2 0h1v1h-1zm2 0h1v1h-1zm2 0h1v1h-1zm2 0h1v1h-1zm2 0h1v1h-1zM2 26h1v1H2Zm2 0h1v1H4Zm2 0h1v1H6Zm2 0h1v1H8Zm2 0h1v1h-1zm2 0h1v1h1v-1h1v1h-1v1h1v1h-1v-1h-1v1h-1v-1h1v-1h-1zm4 0h1v1h-1zm2 0h1v1h-1zm2 0h1v1h-1zm2 0h1v1h-1zm2 0h1v1h-1zm2 0h1v1h-1zm2 0h1v1h-1zm2 0h1v1h-1zm2 0h1v1h-1zm2 0h1v1h-1zm2 0h1v1h-1zm2 0h1v1h-1zm2 0h1v1h-1zm2 0h1v1h-1zm2 0h1v1h1v-1h1v1h-1v1h1v1h-1v-1h-1v1h-1v-1h1v-1h-1zm4 0h1v1h-1zm2 0h1v1h-1zm2 0h1v1h-1zm2 0h1v1h-1zm2 0h1v1h-1zm2 0h1v1h-1zm2 0h1v1h-1zm2 0h1v1h-1zm2 0h1v1h-1zm2 0h1v1h-1zm2 0h1v1h-1zm2 0h1v1h-1zm2 0h1v1h-1zm2 0h1v1h-1zm2 0h1v1h1v-1h1v1h-1v1h1v1h-1v-1h-1v1h-1v-1h1v-1h-1zm4 0h1v1h-1zm2 0h1v1h-1zm2 0h1v1h-1zm2 0h1v1h-1zm2 0h1v1h-1zm2 0h1v1h-1zm2 0h1v1h-1zm2 0h1v1h-1zm2 0h1v1h-1zm2 0h1v1h-1zm2 0h1v1h-1zm2 0h1v1h-1zm2 0h1v1h-1zm2 0h1v1h-1zm2 0h1v1h1v-1h1v1h-1v1h1v1h-1v-1h-1v1h-1v-1h1v-1h-1zm4 0h1v1h-1zm2 0h1v1h-1zm2 0h1v1h-1zm2 0h1v1h-1zm2 0h1v1h-1zm2 0h1v1h-1zm2 0h1v1h-1zm2 0h1v1h-1zm2 0h1v1h-1zm2 0h1v1h-1zm2 0h1v1h-1zm2 0h1v1h-1zm2 0h1v1h-1zm2 0h1v1h-1zm2 0h1v1h1v-1h1v1h-1v1h1v1h-1v-1h-1v1h-1v-1h1v-1h-1zm4 0h1v1h-1zm2 0h1v1h-1zm2 0h1v1h-1zm2 0h1v1h-1zm2 0h1v1h-1zm2 0h1v1h-1zm2 0h1v1h1v-1h1v1h-1v1h1v1h-1v-1h-1v1h-1v-1h1v-1h-1zm4 0h1v1h-1zm2 0h1v1h-1zm2 0h1v1h-1zm2 0h1v1h-1zm2 0h1v1h-1zm2 0h1v1h-1zm2 0h1v1h1v-1h1v1h-1v1h1v1h-1v-1h-1v1h-1v-1h1v-1h-1zm4 0h1v1h-1zm2 0h1v1h-1zm2 0h1v1h-1zm2 0h1v1h-1zm2 0h1v1h-1zm2 0h1v1h-1zm2 0h1v1h1v-1h1v1h-1v1h1v1h-1v-1h-1v1h-1v-1h1v-1h-1zm4 0h1v1h-1zm2 0h1v1h-1zm2 0h1v1h-1zm2 0h1v1h-1zM2 28h1v1H2Zm2 0h1v1H4Zm2 0h1v1H6Zm2 0h1v1H8Zm2 0h1v1h-1zm6 0h1v1h-1zm2 0h1v1h-1zm2 0h1v1h-1zm2 0h1v1h-1zm2 0h1v1h-1zm2 0h1v1h-1zm2 0h1v1h-1zm2 0h1v1h-1zm2 0h1v1h-1zm2 0h1v1h-1zm2 0h1v1h-1zm2 0h1v1h-1zm2 0h1v1h-1zm2 0h1v1h-1zm6 0h1v1h-1zm2 0h1v1h-1zm2 0h1v1h-1zm2 0h1v1h-1zm2 0h1v1h-1zm2 0h1v1h-1zm2 0h1v1h-1zm2 0h1v1h-1zm2 0h1v1h-1zm2 0h1v1h-1zm2 0h1v1h-1zm2 0h1v1h-1zm2 0h1v1h-1zm2 0h1v1h-1zm6 0h1v1h-1zm2 0h1v1h-1zm2 0h1v1h-1zm2 0h1v1h-1zm2 0h1v1h-1zm2 0h1v1h-1zm2 0h1v1h-1zm2 0h1v1h-1zm2 0h1v1h-1zm2 0h1v1h-1zm2 0h1v1h-1zm2 0h1v1h-1zm2 0h1v1h-1zm2 0h1v1h-1zm6 0h1v1h-1zm2 0h1v1h-1zm2 0h1v1h-1zm2 0h1v1h-1zm2 0h1v1h-1zm2 0h1v1h-1zm2 0h1v1h-1zm2 0h1v1h-1zm2 0h1v1h-1zm2 0h1v1h-1zm2 0h1v1h-1zm2 0h1v1h-1zm2 0h1v1h-1zm2 0h1v1h-1zm6 0h1v1h-1zm2 0h1v1h-1zm2 0h1v1h-1zm2 0h1v1h-1zm2 0h1v1h-1zm2 0h1v1h-1zm6 0h1v1h-1zm2 0h1v1h-1zm2 0h1v1h-1zm2 0h1v1h-1zm2 0h1v1h-1zm2 0h1v1h-1zm6 0h1v1h-1zm2 0h1v1h-1zm2 0h1v1h-1zm2 0h1v1h-1zm2 0h1v1h-1zm2 0h1v1h-1zm6 0h1v1h-1zm2 0h1v1h-1zm2 0h1v1h-1zm2 0h1v1h-1zM4 30h1v1h1v-1h1v1H6v1h1v1H6v-1H5v1H4v-1h1v-1H4Zm4 0h1v1h1v-1h1v1h-1v1h1v1h-1v-1H9v1H8v-1h1v-1H8Zm4 0h1v1h1v-1h1v1h-1v1h1v1h-1v-1h-1v1h-1v-1h1v-1h-1zm4 0h1v1h1v-1h1v1h-1v1h1v1h-1v-1h-1v1h-1v-1h1v-1h-1zm4 0h1v1h1v-1h1v1h-1v1h1v1h-1v-1h-1v1h-1v-1h1v-1h-1zm4 0h1v1h1v-1h1v1h-1v1h1v1h-1v-1h-1v1h-1v-1h1v-1h-1zm4 0h1v1h1v-1h1v1h-1v1h1v1h-1v-1h-1v1h-1v-1h1v-1h-1zm4 0h1v1h1v-1h1v1h-1v1h1v1h-1v-1h-1v1h-1v-1h1v-1h-1zm4 0h1v1h1v-1h1v1h-1v1h1v1h-1v-1h-1v1h-1v-1h1v-1h-1zm4 0h1v1h1v-1h1v1h-1v1h1v1h-1v-1h-1v1h-1v-1h1v-1h-1zm4 0h1v1h1v-1h1v1h-1v1h1v1h-1v-1h-1v1h-1v-1h1v-1h-1zm4 0h1v1h1v-1h1v1h-1v1h1v1h-1v-1h-1v1h-1v-1h1v-1h-1zm4 0h1v1h1v-1h1v1h-1v1h1v1h-1v-1h-1v1h-1v-1h1v-1h-1zm4 0h1v1h1v-1h1v1h-1v1h1v1h-1v-1h-1v1h-1v-1h1v-1h-1zm4 0h1v1h1v-1h1v1h-1v1h1v1h-1v-1h-1v1h-1v-1h1v-1h-1zm4 0h1v1h1v-1h1v1h-1v1h1v1h-1v-1h-1v1h-1v-1h1v-1h-1zm4 0h1v1h1v-1h1v1h-1v1h1v1h-1v-1h-1v1h-1v-1h1v-1h-1zm4 0h1v1h1v-1h1v1h-1v1h1v1h-1v-1h-1v1h-1v-1h1v-1h-1zm4 0h1v1h1v-1h1v1h-1v1h1v1h-1v-1h-1v1h-1v-1h1v-1h-1zm4 0h1v1h1v-1h1v1h-1v1h1v1h-1v-1h-1v1h-1v-1h1v-1h-1zm4 0h1v1h1v-1h1v1h-1v1h1v1h-1v-1h-1v1h-1v-1h1v-1h-1zm4 0h1v1h1v-1h1v1h-1v1h1v1h-1v-1h-1v1h-1v-1h1v-1h-1zm4 0h1v1h1v-1h1v1h-1v1h1v1h-1v-1h-1v1h-1v-1h1v-1h-1zm4 0h1v1h1v-1h1v1h-1v1h1v1h-1v-1h-1v1h-1v-1h1v-1h-1zm4 0h1v1h1v-1h1v1h-1v1h1v1h-1v-1h-1v1h-1v-1h1v-1h-1zm4 0h1v1h1v-1h1v1h-1v1h1v1h-1v-1h-1v1h-1v-1h1v-1h-1zm4 0h1v1h1v-1h1v1h-1v1h1v1h-1v-1h-1v1h-1v-1h1v-1h-1zm4 0h1v1h1v-1h1v1h-1v1h1v1h-1v-1h-1v1h-1v-1h1v-1h-1zm4 0h1v1h1v-1h1v1h-1v1h1v1h-1v-1h-1v1h-1v-1h1v-1h-1zm4 0h1v1h1v-1h1v1h-1v1h1v1h-1v-1h-1v1h-1v-1h1v-1h-1zm4 0h1v1h1v-1h1v1h-1v1h1v1h-1v-1h-1v1h-1v-1h1v-1h-1zm4 0h1v1h1v-1h1v1h-1v1h1v1h-1v-1h-1v1h-1v-1h1v-1h-1zm4 0h1v1h1v-1h1v1h-1v1h1v1h-1v-1h-1v1h-1v-1h1v-1h-1zm4 0h1v1h1v-1h1v1h-1v1h1v1h-1v-1h-1v1h-1v-1h1v-1h-1zm4 0h1v1h1v-1h1v1h-1v1h1v1h-1v-1h-1v1h-1v-1h1v-1h-1zm4 0h1v1h1v-1h1v1h-1v1h1v1h-1v-1h-1v1h-1v-1h1v-1h-1zm4 0h1v1h1v-1h1v1h-1v1h1v1h-1v-1h-1v1h-1v-1h1v-1h-1zm4 0h1v1h1v-1h1v1h-1v1h1v1h-1v-1h-1v1h-1v-1h1v-1h-1zm4 0h1v1h1v-1h1v1h-1v1h1v1h-1v-1h-1v1h-1v-1h1v-1h-1zm4 0h1v1h1v-1h1v1h-1v1h1v1h-1v-1h-1v1h-1v-1h1v-1h-1zm4 0h1v1h1v-1h1v1h-1v1h1v1h-1v-1h-1v1h-1v-1h1v-1h-1zm4 0h1v1h1v-1h1v1h-1v1h1v1h-1v-1h-1v1h-1v-1h1v-1h-1zm4 0h1v1h1v-1h1v1h-1v1h1v1h-1v-1h-1v1h-1v-1h1v-1h-1zm4 0h1v1h1v-1h1v1h-1v1h1v1h-1v-1h-1v1h-1v-1h1v-1h-1zm4 0h1v1h1v-1h1v1h-1v1h1v1h-1v-1h-1v1h-1v-1h1v-1h-1zm4 0h1v1h1v-1h1v1h-1v1h1v1h-1v-1h-1v1h-1v-1h1v-1h-1zm4 0h1v1h1v-1h1v1h-1v1h1v1h-1v-1h-1v1h-1v-1h1v-1h-1zm4 0h1v1h1v-1h1v1h-1v1h1v1h-1v-1h-1v1h-1v-1h1v-1h-1zm4 0h1v1h1v-1h1v1h-1v1h1v1h-1v-1h-1v1h-1v-1h1v-1h-1z" style="fill:#000"/></svg>