<svg xmlns="http://www.w3.org/2000/svg" width="880" height="229"><path fill="#262329" d="M0 0h880v229H0z"/><path fill="#a76868" d="M880 229c-36-13-72-25-107-43-36-17-71-40-91-71-20-32-26-74-31-115h229z"/><path fill="#f0db78" d="M880 115c-18-7-36-13-54-22s-35-20-45-36-13-36-16-57h115z"/><path fill="#a76868" d="M0 0c40 6 80 12 115 31 34 18 63 50 81 85s25 74 33 113H0z"/><path fill="#f0db78" d="M0 115c20 3 40 6 57 15s32 25 41 43c9 17 13 37 17 56H0z"/><path d="m29 36-8 2C13 42 2 64 2 82s9 33 9 34a83 83 0 0 0-6 46l-13 2c-3 1-5 2-5 5s3 5 5 5l15-3s0 0 0 0l3 8H7l-13 7c-3 2-4 4-4 6 1 3 4 4 7 3l13-7h4c5 11 13 21 22 28 20 18 47 21 77 21s57-5 76-21c10-7 17-17 23-29l4 1 14 7c2 1 5 0 6-3 1-2 0-4-3-6l-14-7-3-1 2-7s0 0 0 0l16 3c2 0 4-2 4-5s-1-4-4-5l-14-3a79 79 0 0 0-6-45c1-4 9-18 9-34 0-18-12-40-19-44s-32 0-45 8l-10 11a109 109 0 0 0-73 0c-3-4-7-9-11-11-9-6-26-10-36-10Z" style="fill:#f0db78;fill-opacity:1;fill-rule:evenodd;stroke:#000;stroke-width:4.94547;stroke-linecap:square;stroke-linejoin:round;stroke-miterlimit:4;stroke-dasharray:none;stroke-opacity:1" transform="translate(329 -20) scale(.98229)"/><path d="M-325-2427a237 237 0 0 0-224 166 237 237 0 0 0 218 167 237 237 0 0 0 232-167 237 237 0 0 0-226-166z" style="fill:#fff;fill-opacity:1;stroke:#000;stroke-width:15.1219;stroke-linecap:butt;stroke-linejoin:miter;stroke-miterlimit:4;stroke-dasharray:none;stroke-opacity:1" transform="translate(544 848) scale(.32125)"/><path d="M-447-2393a196 196 0 0 0 0 2 196 196 0 0 0-1 1 196 196 0 0 0-1 2 196 196 0 0 0 0 1 196 196 0 0 0-1 2 196 196 0 0 0 0 1 196 196 0 0 0-1 2 196 196 0 0 0 0 2 196 196 0 0 0-1 1 196 196 0 0 0 0 2 196 196 0 0 0-1 1 196 196 0 0 0 0 2 196 196 0 0 0 0 1 196 196 0 0 0-1 2 196 196 0 0 0 0 2 196 196 0 0 0-1 1 196 196 0 0 0 0 2 196 196 0 0 0 0 1 196 196 0 0 0-1 2 196 196 0 0 0 0 2 196 196 0 0 0 0 1 196 196 0 0 0-1 2 196 196 0 0 0 0 2 196 196 0 0 0 0 1 196 196 0 0 0 0 2 196 196 0 0 0-1 1 196 196 0 0 0 0 2 196 196 0 0 0 0 2 196 196 0 0 0 0 1 196 196 0 0 0 0 2 196 196 0 0 0-1 2 196 196 0 0 0 0 1 196 196 0 0 0 0 2 196 196 0 0 0 0 1 196 196 0 0 0 0 2 196 196 0 0 0 0 2 196 196 0 0 0 0 1 196 196 0 0 0 0 2 196 196 0 0 0 0 2 196 196 0 0 0-1 1 196 196 0 0 0 0 2 196 196 0 0 0 0 2 196 196 0 0 0 0 1 196 196 0 0 0 0 2 196 196 0 0 0 0 1 196 196 0 0 0 0 2 196 196 0 0 0 1 1 196 196 0 0 0 0 2 196 196 0 0 0 0 2 196 196 0 0 0 0 1 196 196 0 0 0 0 2 196 196 0 0 0 0 2 196 196 0 0 0 0 1 196 196 0 0 0 0 2 196 196 0 0 0 0 2 196 196 0 0 0 1 1 196 196 0 0 0 0 2 196 196 0 0 0 0 2 196 196 0 0 0 0 1 196 196 0 0 0 0 2 196 196 0 0 0 1 1 196 196 0 0 0 0 2 196 196 0 0 0 0 2 196 196 0 0 0 0 1 196 196 0 0 0 1 2 196 196 0 0 0 0 2 196 196 0 0 0 0 1 196 196 0 0 0 1 2 196 196 0 0 0 0 1 196 196 0 0 0 0 2 196 196 0 0 0 1 2 196 196 0 0 0 0 1 196 196 0 0 0 1 2 196 196 0 0 0 0 1 196 196 0 0 0 0 2 196 196 0 0 0 1 1 196 196 0 0 0 0 2 196 196 0 0 0 1 2 196 196 0 0 0 0 1 196 196 0 0 0 1 2 196 196 0 0 0 0 1 196 196 0 0 0 1 2 196 196 0 0 0 0 1 196 196 0 0 0 1 2 196 196 0 0 0 0 2 196 196 0 0 0 1 1 196 196 0 0 0 1 2 196 196 0 0 0 0 1 196 196 0 0 0 1 2 196 196 0 0 0 0 1 196 196 0 0 0 1 2 196 196 0 0 0 1 1 196 196 0 0 0 0 2 196 196 0 0 0 1 1 196 196 0 0 0 1 2 196 196 0 0 0 0 1 196 196 0 0 0 1 2 196 196 0 0 0 1 1 196 196 0 0 0 1 2 196 196 0 0 0 0 1 196 196 0 0 0 1 2 196 196 0 0 0 1 1 196 196 0 0 0 1 1 196 196 0 0 0 0 2 196 196 0 0 0 1 1 196 196 0 0 0 1 2 196 196 0 0 0 1 1 196 196 0 0 0 1 2 196 196 0 0 0 1 1 196 196 0 0 0 0 1 196 196 0 0 0 1 2 196 196 0 0 0 1 1 196 196 0 0 0 1 2 196 196 0 0 0 1 1 196 196 0 0 0 1 1 196 196 0 0 0 1 2 196 196 0 0 0 1 1 196 196 0 0 0 1 1 196 196 0 0 0 1 2 196 196 0 0 0 1 1 196 196 0 0 0 1 1 196 196 0 0 0 1 2 196 196 0 0 0 1 1 196 196 0 0 0 1 1 196 196 0 0 0 1 1 196 196 0 0 0 1 2 196 196 0 0 0 1 1 196 196 0 0 0 1 1 196 196 0 0 0 1 1 196 196 0 0 0 1 2 196 196 0 0 0 1 1 196 196 0 0 0 1 1 196 196 0 0 0 2 1 196 196 0 0 0 1 1 196 196 0 0 0 1 2 196 196 0 0 0 1 1 196 196 0 0 0 1 1 196 196 0 0 0 1 1 196 196 0 0 0 2 1 196 196 0 0 0 1 1 196 196 0 0 0 1 2 196 196 0 0 0 1 1 196 196 0 0 0 1 1 196 196 0 0 0 2 1 196 196 0 0 0 1 1 196 196 0 0 0 1 1 196 196 0 0 0 1 1 196 196 0 0 0 2 1 196 196 0 0 0 1 1 196 196 0 0 0 1 1 196 196 0 0 0 1 1 196 196 0 0 0 2 1 196 196 0 0 0 1 1 196 196 0 0 0 1 1 196 196 0 0 0 2 1 196 196 0 0 0 1 1 196 196 0 0 0 1 1 196 196 0 0 0 2 1 196 196 0 0 0 1 1 196 196 0 0 0 1 1 196 196 0 0 0 2 1 196 196 0 0 0 1 1 196 196 0 0 0 2 1 196 196 0 0 0 1 0 196 196 0 0 0 1 1 196 196 0 0 0 2 1 196 196 0 0 0 1 1 196 196 0 0 0 2 1 196 196 0 0 0 1 1 196 196 0 0 0 1 0 196 196 0 0 0 2 1 196 196 0 0 0 1 1 196 196 0 0 0 2 1 196 196 0 0 0 1 1 196 196 0 0 0 2 0 196 196 0 0 0 1 1 196 196 0 0 0 2 1 196 196 0 0 0 1 0 196 196 0 0 0 2 1 196 196 0 0 0 1 1 196 196 0 0 0 2 0 196 196 0 0 0 1 1 196 196 0 0 0 2 1 196 196 0 0 0 1 0 196 196 0 0 0 2 1 196 196 0 0 0 1 1 196 196 0 0 0 2 0 196 196 0 0 0 1 1 196 196 0 0 0 2 0 196 196 0 0 0 1 1 196 196 0 0 0 2 0 196 196 0 0 0 2 1 196 196 0 0 0 1 0 196 196 0 0 0 2 1 196 196 0 0 0 1 0 196 196 0 0 0 2 1 196 196 0 0 0 1 0 196 196 0 0 0 2 1 196 196 0 0 0 2 0 196 196 0 0 0 1 1 196 196 0 0 0 2 0 196 196 0 0 0 1 0 196 196 0 0 0 2 1 196 196 0 0 0 2 0 196 196 0 0 0 1 0 196 196 0 0 0 2 1 196 196 0 0 0 1 0 196 196 0 0 0 2 0 196 196 0 0 0 2 1 196 196 0 0 0 1 0 196 196 0 0 0 2 0 196 196 0 0 0 1 1 196 196 0 0 0 2 0 196 196 0 0 0 2 0 196 196 0 0 0 1 0 196 196 0 0 0 2 0 196 196 0 0 0 2 1 196 196 0 0 0 1 0 196 196 0 0 0 2 0 196 196 0 0 0 2 0 196 196 0 0 0 1 0 196 196 0 0 0 2 0 196 196 0 0 0 1 0 196 196 0 0 0 2 1 196 196 0 0 0 2 0 196 196 0 0 0 1 0 196 196 0 0 0 2 0 196 196 0 0 0 2 0 196 196 0 0 0 1 0 196 196 0 0 0 2 0 196 196 0 0 0 1 0 196 196 0 0 0 2 0 196 196 0 0 0 2 0 196 196 0 0 0 1 0 196 196 0 0 0 2 0 196 196 0 0 0 2 0 196 196 0 0 0 1-1 196 196 0 0 0 2 0 196 196 0 0 0 1 0 196 196 0 0 0 2 0 196 196 0 0 0 2 0 196 196 0 0 0 1 0 196 196 0 0 0 2 0 196 196 0 0 0 2-1 196 196 0 0 0 1 0 196 196 0 0 0 2 0 196 196 0 0 0 2 0 196 196 0 0 0 1 0 196 196 0 0 0 2-1 196 196 0 0 0 1 0 196 196 0 0 0 2 0 196 196 0 0 0 2 0 196 196 0 0 0 1-1 196 196 0 0 0 2 0 196 196 0 0 0 1 0 196 196 0 0 0 2-1 196 196 0 0 0 2 0 196 196 0 0 0 1-1 196 196 0 0 0 2 0 196 196 0 0 0 1 0 196 196 0 0 0 2-1 196 196 0 0 0 2 0 196 196 0 0 0 1-1 196 196 0 0 0 2 0 196 196 0 0 0 1-1 196 196 0 0 0 2 0 196 196 0 0 0 2 0 196 196 0 0 0 1-1 196 196 0 0 0 2-1 196 196 0 0 0 1 0 196 196 0 0 0 2-1 196 196 0 0 0 1 0 196 196 0 0 0 2-1 196 196 0 0 0 1 0 196 196 0 0 0 2-1 196 196 0 0 0 1-1 196 196 0 0 0 2 0 196 196 0 0 0 1-1 196 196 0 0 0 2 0 196 196 0 0 0 2-1 196 196 0 0 0 1-1 196 196 0 0 0 1 0 196 196 0 0 0 2-1 196 196 0 0 0 1-1 196 196 0 0 0 2-1 196 196 0 0 0 1 0 196 196 0 0 0 2-1 196 196 0 0 0 1-1 196 196 0 0 0 2-1 196 196 0 0 0 1 0 196 196 0 0 0 1-1c32-28 57-66 70-108a237 237 0 0 0-226-166c-43 0-85 12-122 34z" style="fill:#000;fill-opacity:1;stroke:none;stroke-width:15.1219;stroke-linecap:butt;stroke-linejoin:miter;stroke-miterlimit:4;stroke-dasharray:none;stroke-opacity:1" transform="translate(544 848) scale(.32125)"/></svg>