<?xml version="1.0" encoding="UTF-8" standalone="no"?>
<svg
   xmlns:dc="http://purl.org/dc/elements/1.1/"
   xmlns:cc="http://creativecommons.org/ns#"
   xmlns:rdf="http://www.w3.org/1999/02/22-rdf-syntax-ns#"
   xmlns:svg="http://www.w3.org/2000/svg"
   xmlns="http://www.w3.org/2000/svg"
   xmlns:sodipodi="http://sodipodi.sourceforge.net/DTD/sodipodi-0.dtd"
   xmlns:inkscape="http://www.inkscape.org/namespaces/inkscape"
   width="880"
   height="229"
   version="1.1"
   id="svg883"
   sodipodi:docname="website_banner.svg"
   inkscape:version="1.0.2 (e86c870879, 2021-01-15)">
  <metadata
     id="metadata889">
    <rdf:RDF>
      <cc:Work
         rdf:about="">
        <dc:format>image/svg+xml</dc:format>
        <dc:type
           rdf:resource="http://purl.org/dc/dcmitype/StillImage" />
        <dc:title></dc:title>
      </cc:Work>
    </rdf:RDF>
  </metadata>
  <defs
     id="defs887" />
  <sodipodi:namedview
     pagecolor="#ffffff"
     bordercolor="#666666"
     borderopacity="1"
     objecttolerance="10"
     gridtolerance="10"
     guidetolerance="10"
     inkscape:pageopacity="0"
     inkscape:pageshadow="2"
     inkscape:window-width="1920"
     inkscape:window-height="1011"
     id="namedview885"
     showgrid="false"
     inkscape:zoom="1.0957011"
     inkscape:cx="440"
     inkscape:cy="114.5"
     inkscape:window-x="0"
     inkscape:window-y="0"
     inkscape:window-maximized="1"
     inkscape:current-layer="svg883" />
  <path
     fill="#262329"
     d="M0 0h880v229H0z"
     id="path871" />
  <path
     fill="#a76868"
     d="M880 229c-36-13-72-25-107-43-36-17-71-40-91-71-20-32-26-74-31-115h229z"
     id="path873" />
  <path
     fill="#f0db78"
     d="M880 115c-18-7-36-13-54-22s-35-20-45-36-13-36-16-57h115z"
     id="path875" />
  <g
     id="g881">
    <path
       fill="#a76868"
       d="M0 0c40 6 80 12 115 31 34 18 63 50 81 85s25 74 33 113H0z"
       id="path877" />
    <path
       fill="#f0db78"
       d="M0 115c20 3 40 6 57 15s32 25 41 43c9 17 13 37 17 56H0z"
       id="path879" />
  </g>
  <g
     inkscape:label="Layer 1"
     id="layer1"
     transform="matrix(0.98229049,0,0,0.98229049,329.10848,-19.942842)">
    <path
       id="path1955-3-6"
       style="fill:#f0db78;fill-opacity:1;fill-rule:evenodd;stroke:#000000;stroke-width:4.94547;stroke-linecap:square;stroke-linejoin:round;stroke-miterlimit:4;stroke-dasharray:none;stroke-opacity:1"
       d="m 29.008536,36.304134 c -3.496366,0.02257 -6.349446,0.502886 -8.100735,1.525339 -7.615737,4.446508 -19.1032793,26.15275 -19.0594562,44.367957 0.041534,17.359707 8.7930742,32.63654 9.6240782,34.04902 -4.6498281,10.63205 -7.204977,21.83022 -7.204977,32.99508 0,4.04222 0.3525471,8.15675 1.0249375,12.28054 -5.35851992,0.48101 -13.0373755,2.44321 -13.0373755,2.44321 -3.197452,0.85226 -4.89151,2.1816 -4.89151,4.89151 0,2.7099 2.186578,4.73015 4.89151,4.8915 0,0 10.0466117,-2.56721 15.1758779,-2.54857 0.00981,4e-5 0.016352,0 0.026164,0 0.6929938,2.45393 1.4919479,4.89291 2.391957,7.30535 -0.8862735,0.18971 -1.7176044,0.3944 -2.4475536,0.61895 -4.9029558,1.50803 -13.7306964,6.94763 -13.7306964,6.94763 -2.7991195,1.76485 -4.0209339,3.53835 -3.2147857,6.12559 0.8061498,2.5872 3.4944034,3.86546 6.1250982,3.21481 0,0 8.8283947,-5.43959 13.7310236,-6.94766 1.007932,-0.31 2.205219,-0.58269 3.488189,-0.82718 5.510919,11.14111 13.142026,21.2562 22.199022,28.85922 20.275057,17.02048 46.690582,20.93427 76.608026,20.93427 29.91745,0 57.00243,-4.9751 76.60803,-20.93427 9.39515,-7.64782 17.06714,-17.8207 22.51592,-29.01953 1.61524,0.28204 3.11798,0.60858 4.34994,0.98749 4.90263,1.50807 13.73036,6.94766 13.73036,6.94766 2.6306,0.65065 5.3188,-0.62761 6.12491,-3.21481 0.80612,-2.58724 -0.41561,-4.36074 -3.21481,-6.12559 0,0 -8.82785,-5.4396 -13.73048,-6.94763 -0.98046,-0.30153 -2.14144,-0.56728 -3.38419,-0.80674 0.85194,-2.34852 1.60674,-4.72175 2.2618,-7.10926 0.16286,-0.004 0.32574,-0.009 0.48172,-0.009 5.1296,-0.0187 15.17599,2.54858 15.17599,2.54858 2.70509,-0.16137 4.8915,-2.18161 4.8915,-4.89151 0,-2.70992 -1.69399,-4.03925 -4.8915,-4.89152 0,0 -8.19536,-2.09097 -13.56107,-2.48091 0.64295,-4.11071 0.9821,-8.21248 0.9821,-12.24284 0,-11.32791 -2.62678,-22.69098 -7.40677,-33.46136 1.87361,-3.35028 9.31765,-17.660062 9.35559,-33.582732 0.0441,-18.215206 -11.44275,-39.921447 -19.0588,-44.367956 -7.00483,-4.089775 -31.638,0.496706 -44.55307,8.337543 -3.6033,2.187461 -7.4388,6.583049 -10.76118,11.096306 -11.24064,-3.905686 -23.32567,-6.098116 -35.91599,-6.098116 -12.729628,0 -24.943195,2.240473 -36.289128,6.227788 C 72.974235,52.833927 69.09916,48.375121 65.461515,46.166665 55.774972,40.286029 39.49763,36.235923 29.008862,36.303783 Z" />
    <g
       id="g2462-5-73"
       transform="matrix(0.32703814,0,0,0.32703814,218.94643,883.23505)">
      <path
         id="path3891-3-6"
         style="fill:#ffffff;fill-opacity:1;stroke:#000000;stroke-width:15.1219;stroke-linecap:butt;stroke-linejoin:miter;stroke-miterlimit:4;stroke-dasharray:none;stroke-opacity:1"
         d="m -324.57083,-2427.3836 c -48.70482,0.1021 -97.29437,15.7265 -136.85911,44.1489 -41.51061,29.8202 -72.8414,73.552 -87.72591,122.4481 14.21245,46.6951 43.38727,88.7104 82.1742,118.3415 38.78694,29.6311 86.99513,46.7321 135.78417,48.1664 51.08931,1.502 102.53396,-14.2305 144.0446,-44.0507 41.51052,-29.8204 72.84133,-73.552 87.725842,-122.4482 -14.212362,-46.695 -43.386852,-88.7107 -82.173872,-118.3417 -38.78704,-29.6311 -86.99515,-46.7317 -135.78419,-48.1661 -2.3948,-0.071 -4.7904,-0.1032 -7.18573,-0.097 z" />
      <path
         id="path2312-5-5"
         style="fill:#000000;fill-opacity:1;stroke:none;stroke-width:15.1219;stroke-linecap:butt;stroke-linejoin:miter;stroke-miterlimit:4;stroke-dasharray:none;stroke-opacity:1"
         d="m -446.9847,-2392.7634 a 195.54985,195.54985 0 0 0 -0.50798,1.3673 195.54985,195.54985 0 0 0 -0.56526,1.5468 195.54985,195.54985 0 0 0 -0.54618,1.5507 195.54985,195.54985 0 0 0 -0.53851,1.5544 195.54985,195.54985 0 0 0 -0.52324,1.5584 195.54985,195.54985 0 0 0 -0.50798,1.562 195.54985,195.54985 0 0 0 -0.49652,1.5698 195.54985,195.54985 0 0 0 -0.48504,1.5698 195.54985,195.54985 0 0 0 -0.46979,1.5772 195.54985,195.54985 0 0 0 -0.45831,1.5776 195.54985,195.54985 0 0 0 -0.44306,1.5849 195.54985,195.54985 0 0 0 -0.43158,1.5851 195.54985,195.54985 0 0 0 -0.4163,1.5926 195.54985,195.54985 0 0 0 -0.40485,1.5927 195.54985,195.54985 0 0 0 -0.38957,1.5965 195.54985,195.54985 0 0 0 -0.37812,1.6002 195.54985,195.54985 0 0 0 -0.36285,1.6042 195.54985,195.54985 0 0 0 -0.34754,1.6079 195.54985,195.54985 0 0 0 -0.3361,1.608 195.54985,195.54985 0 0 0 -0.32465,1.6156 195.54985,195.54985 0 0 0 -0.30936,1.6118 195.54985,195.54985 0 0 0 -0.29409,1.6193 195.54985,195.54985 0 0 0 -0.28265,1.6194 195.54985,195.54985 0 0 0 -0.26733,1.6232 195.54985,195.54985 0 0 0 -0.25589,1.6232 195.54985,195.54985 0 0 0 -0.24063,1.6271 195.54985,195.54985 0 0 0 -0.22916,1.6269 195.54985,195.54985 0 0 0 -0.21388,1.6309 195.54985,195.54985 0 0 0 -0.19862,1.6348 195.54985,195.54985 0 0 0 -0.18714,1.6307 195.54985,195.54985 0 0 0 -0.17188,1.6384 195.54985,195.54985 0 0 0 -0.16035,1.6349 195.54985,195.54985 0 0 0 -0.1451,1.6385 195.54985,195.54985 0 0 0 -0.12985,1.6385 195.54985,195.54985 0 0 0 -0.11829,1.6422 195.54985,195.54985 0 0 0 -0.10303,1.6386 195.54985,195.54985 0 0 0 -0.0878,1.6422 195.54985,195.54985 0 0 0 -0.0765,1.6424 195.54985,195.54985 0 0 0 -0.065,1.6461 195.54985,195.54985 0 0 0 -0.0457,1.6422 195.54985,195.54985 0 0 0 -0.0345,1.6424 195.54985,195.54985 0 0 0 -0.0228,1.6462 195.54985,195.54985 0 0 0 -0.008,1.6423 195.54985,195.54985 0 0 0 0.008,1.3176 195.54985,195.54985 0 0 0 0.0156,1.6424 195.54985,195.54985 0 0 0 0.0345,1.6461 195.54985,195.54985 0 0 0 0.0458,1.6422 195.54985,195.54985 0 0 0 0.0573,1.6424 195.54985,195.54985 0 0 0 0.0725,1.6462 195.54985,195.54985 0 0 0 0.0878,1.6423 195.54985,195.54985 0 0 0 0.10304,1.6384 195.54985,195.54985 0 0 0 0.11456,1.6423 195.54985,195.54985 0 0 0 0.12592,1.6385 195.54985,195.54985 0 0 0 0.14139,1.6385 195.54985,195.54985 0 0 0 0.15663,1.6348 195.54985,195.54985 0 0 0 0.17189,1.6384 195.54985,195.54985 0 0 0 0.18323,1.6347 195.54985,195.54985 0 0 0 0.19477,1.6309 195.54985,195.54985 0 0 0 0.2139,1.6309 195.54985,195.54985 0 0 0 0.22533,1.627 195.54985,195.54985 0 0 0 0.23681,1.627 195.54985,195.54985 0 0 0 0.25206,1.6269 195.54985,195.54985 0 0 0 0.26736,1.6233 195.54985,195.54985 0 0 0 0.27881,1.6195 195.54985,195.54985 0 0 0 0.29028,1.6194 195.54985,195.54985 0 0 0 0.30935,1.6154 195.54985,195.54985 0 0 0 0.31702,1.6119 195.54985,195.54985 0 0 0 0.33608,1.6118 195.54985,195.54985 0 0 0 0.34757,1.6041 195.54985,195.54985 0 0 0 0.35901,1.604 195.54985,195.54985 0 0 0 0.37431,1.6041 195.54985,195.54985 0 0 0 0.38957,1.5966 195.54985,195.54985 0 0 0 0.40103,1.5964 195.54985,195.54985 0 0 0 0.41248,1.5888 195.54985,195.54985 0 0 0 0.42776,1.5889 195.54985,195.54985 0 0 0 0.44306,1.5851 195.54985,195.54985 0 0 0 0.45449,1.5812 195.54985,195.54985 0 0 0 0.46596,1.5736 195.54985,195.54985 0 0 0 0.48124,1.5735 195.54985,195.54985 0 0 0 0.4927,1.5698 195.54985,195.54985 0 0 0 0.50796,1.562 195.54985,195.54985 0 0 0 0.52326,1.562 195.54985,195.54985 0 0 0 0.53087,1.5547 195.54985,195.54985 0 0 0 0.54617,1.5505 195.54985,195.54985 0 0 0 0.56145,1.5467 195.54985,195.54985 0 0 0 0.5729,1.5394 195.54985,195.54985 0 0 0 0.58436,1.5393 195.54985,195.54985 0 0 0 0.59964,1.5315 195.54985,195.54985 0 0 0 0.61108,1.5239 195.54985,195.54985 0 0 0 0.62255,1.524 195.54985,195.54985 0 0 0 0.63783,1.5162 195.54985,195.54985 0 0 0 0.64928,1.5085 195.54985,195.54985 0 0 0 0.66456,1.5049 195.54985,195.54985 0 0 0 0.67221,1.5009 195.54985,195.54985 0 0 0 0.68749,1.4934 195.54985,195.54985 0 0 0 0.70275,1.4858 195.54985,195.54985 0 0 0 0.71039,1.4819 195.54985,195.54985 0 0 0 0.72569,1.4781 195.54985,195.54985 0 0 0 0.73712,1.4703 195.54985,195.54985 0 0 0 0.74858,1.4629 195.54985,195.54985 0 0 0 0.76389,1.4551 195.54985,195.54985 0 0 0 0.77531,1.4514 195.54985,195.54985 0 0 0 0.78678,1.4438 195.54985,195.54985 0 0 0 0.79825,1.4398 195.54985,195.54985 0 0 0 0.80969,1.4286 195.54985,195.54985 0 0 0 0.82116,1.4245 195.54985,195.54985 0 0 0 0.83644,1.4169 195.54985,195.54985 0 0 0 0.84407,1.4094 195.54985,195.54985 0 0 0 0.85935,1.4016 195.54985,195.54985 0 0 0 0.8708,1.3978 195.54985,195.54985 0 0 0 0.88227,1.3865 195.54985,195.54985 0 0 0 0.89374,1.3826 195.54985,195.54985 0 0 0 0.90517,1.3711 195.54985,195.54985 0 0 0 0.91282,1.3673 195.54985,195.54985 0 0 0 0.9281,1.3559 195.54985,195.54985 0 0 0 0.93955,1.3481 195.54985,195.54985 0 0 0 0.95101,1.3446 195.54985,195.54985 0 0 0 0.96248,1.333 195.54985,195.54985 0 0 0 0.97392,1.3251 195.54985,195.54985 0 0 0 0.9854,1.3179 195.54985,195.54985 0 0 0 0.99302,1.31 195.54985,195.54985 0 0 0 1.00831,1.2985 195.54985,195.54985 0 0 0 1.01594,1.2909 195.54985,195.54985 0 0 0 1.02739,1.2872 195.54985,195.54985 0 0 0 1.03887,1.2719 195.54985,195.54985 0 0 0 1.05031,1.2678 195.54985,195.54985 0 0 0 1.05795,1.2567 195.54985,195.54985 0 0 0 1.06942,1.2489 195.54985,195.54985 0 0 0 1.08088,1.2375 195.54985,195.54985 0 0 0 1.09233,1.2298 195.54985,195.54985 0 0 0 1.1038,1.2221 195.54985,195.54985 0 0 0 1.11142,1.2108 195.54985,195.54985 0 0 0 1.11906,1.2032 195.54985,195.54985 0 0 0 1.13434,1.1914 195.54985,195.54985 0 0 0 1.14197,1.1841 195.54985,195.54985 0 0 0 1.14963,1.1725 195.54985,195.54985 0 0 0 1.16491,1.1649 195.54985,195.54985 0 0 0 1.1687,1.1536 195.54985,195.54985 0 0 0 1.18399,1.142 195.54985,195.54985 0 0 0 1.18781,1.1342 195.54985,195.54985 0 0 0 1.2031,1.1267 195.54985,195.54985 0 0 0 1.20691,1.1115 195.54985,195.54985 0 0 0 1.2222,1.1037 195.54985,195.54985 0 0 0 1.22599,1.0963 195.54985,195.54985 0 0 0 1.23747,1.0807 195.54985,195.54985 0 0 0 1.2451,1.0733 195.54985,195.54985 0 0 0 1.25656,1.0618 195.54985,195.54985 0 0 0 1.2642,1.0502 195.54985,195.54985 0 0 0 1.27183,1.0427 195.54985,195.54985 0 0 0 1.28329,1.0275 195.54985,195.54985 0 0 0 1.29094,1.0198 195.54985,195.54985 0 0 0 1.29858,1.0082 195.54985,195.54985 0 0 0 1.30622,0.997 195.54985,195.54985 0 0 0 1.31767,0.989 195.54985,195.54985 0 0 0 1.32148,0.974 195.54985,195.54985 0 0 0 1.33294,0.9625 195.54985,195.54985 0 0 0 1.3406,0.9547 195.54985,195.54985 0 0 0 1.34822,0.9397 195.54985,195.54985 0 0 0 1.35586,0.932 195.54985,195.54985 0 0 0 1.36351,0.9204 195.54985,195.54985 0 0 0 1.37114,0.9051 195.54985,195.54985 0 0 0 1.37879,0.8977 195.54985,195.54985 0 0 0 1.38641,0.8821 195.54985,195.54985 0 0 0 1.39404,0.8708 195.54985,195.54985 0 0 0 1.40171,0.8632 195.54985,195.54985 0 0 0 1.40932,0.8479 195.54985,195.54985 0 0 0 1.41699,0.8365 195.54985,195.54985 0 0 0 1.42077,0.8248 195.54985,195.54985 0 0 0 1.42844,0.8137 195.54985,195.54985 0 0 0 1.43608,0.8019 195.54985,195.54985 0 0 0 1.4437,0.7869 195.54985,195.54985 0 0 0 1.44752,0.7791 195.54985,195.54985 0 0 0 1.459,0.7638 195.54985,195.54985 0 0 0 1.46279,0.7525 195.54985,195.54985 0 0 0 1.46662,0.737 195.54985,195.54985 0 0 0 1.47428,0.7297 195.54985,195.54985 0 0 0 1.48189,0.714 195.54985,195.54985 0 0 0 1.48573,0.7029 195.54985,195.54985 0 0 0 1.49336,0.6912 195.54985,195.54985 0 0 0 1.49716,0.6761 195.54985,195.54985 0 0 0 1.50482,0.6647 195.54985,195.54985 0 0 0 1.50865,0.6529 195.54985,195.54985 0 0 0 1.51627,0.6379 195.54985,195.54985 0 0 0 1.52009,0.6302 195.54985,195.54985 0 0 0 1.52392,0.6111 195.54985,195.54985 0 0 0 1.53155,0.6034 195.54985,195.54985 0 0 0 1.53537,0.5884 195.54985,195.54985 0 0 0 1.5392,0.5726 195.54985,195.54985 0 0 0 1.54682,0.5614 195.54985,195.54985 0 0 0 1.55065,0.5502 195.54985,195.54985 0 0 0 1.55448,0.5386 195.54985,195.54985 0 0 0 1.55828,0.5232 195.54985,195.54985 0 0 0 1.56211,0.5078 195.54985,195.54985 0 0 0 1.56974,0.4966 195.54985,195.54985 0 0 0 1.56976,0.4851 195.54985,195.54985 0 0 0 1.57738,0.4697 195.54985,195.54985 0 0 0 1.57738,0.4583 195.54985,195.54985 0 0 0 1.58503,0.4432 195.54985,195.54985 0 0 0 1.58501,0.4316 195.54985,195.54985 0 0 0 1.59268,0.4162 195.54985,195.54985 0 0 0 1.59265,0.4049 195.54985,195.54985 0 0 0 1.59649,0.3896 195.54985,195.54985 0 0 0 1.60412,0.3743 195.54985,195.54985 0 0 0 1.6003,0.3666 195.54985,195.54985 0 0 0 1.60793,0.3474 195.54985,195.54985 0 0 0 1.61176,0.3362 195.54985,195.54985 0 0 0 1.61175,0.3246 195.54985,195.54985 0 0 0 1.61558,0.3094 195.54985,195.54985 0 0 0 1.61557,0.2941 195.54985,195.54985 0 0 0 1.61942,0.2825 195.54985,195.54985 0 0 0 1.62322,0.2676 195.54985,195.54985 0 0 0 1.62322,0.2558 195.54985,195.54985 0 0 0 1.62703,0.2406 195.54985,195.54985 0 0 0 1.63085,0.2293 195.54985,195.54985 0 0 0 1.62702,0.2137 195.54985,195.54985 0 0 0 1.63469,0.1986 195.54985,195.54985 0 0 0 1.63468,0.1879 195.54985,195.54985 0 0 0 1.63466,0.172 195.54985,195.54985 0 0 0 1.63468,0.1564 195.54985,195.54985 0 0 0 1.63849,0.1447 195.54985,195.54985 0 0 0 1.63849,0.1331 195.54985,195.54985 0 0 0 1.64233,0.1188 195.54985,195.54985 0 0 0 1.63849,0.1033 195.54985,195.54985 0 0 0 1.6423,0.088 195.54985,195.54985 0 0 0 1.64233,0.077 195.54985,195.54985 0 0 0 1.64612,0.06 195.54985,195.54985 0 0 0 1.64232,0.049 195.54985,195.54985 0 0 0 1.64232,0.034 195.54985,195.54985 0 0 0 1.64613,0.023 195.54985,195.54985 0 0 0 1.64231,0 195.54985,195.54985 0 0 0 1.31767,0 195.54985,195.54985 0 0 0 1.64612,-0.019 195.54985,195.54985 0 0 0 1.64233,-0.031 195.54985,195.54985 0 0 0 1.6423,-0.044 195.54985,195.54985 0 0 0 1.64614,-0.056 195.54985,195.54985 0 0 0 1.6423,-0.077 195.54985,195.54985 0 0 0 1.64233,-0.084 195.54985,195.54985 0 0 0 1.63849,-0.1032 195.54985,195.54985 0 0 0 1.64231,-0.1153 195.54985,195.54985 0 0 0 1.63849,-0.1252 195.54985,195.54985 0 0 0 1.63849,-0.1447 195.54985,195.54985 0 0 0 1.6385,-0.1526 195.54985,195.54985 0 0 0 1.63467,-0.1721 195.54985,195.54985 0 0 0 1.63469,-0.1837 195.54985,195.54985 0 0 0 1.63084,-0.1985 195.54985,195.54985 0 0 0 1.63087,-0.2103 195.54985,195.54985 0 0 0 1.63085,-0.2253 195.54985,195.54985 0 0 0 1.62703,-0.2368 195.54985,195.54985 0 0 0 1.62322,-0.252 195.54985,195.54985 0 0 0 1.62322,-0.2673 195.54985,195.54985 0 0 0 1.61939,-0.2789 195.54985,195.54985 0 0 0 1.6194,-0.2941 195.54985,195.54985 0 0 0 1.61558,-0.3055 195.54985,195.54985 0 0 0 1.61175,-0.3208 195.54985,195.54985 0 0 0 1.61177,-0.3322 195.54985,195.54985 0 0 0 1.60793,-0.3475 195.54985,195.54985 0 0 0 1.60414,-0.3591 195.54985,195.54985 0 0 0 1.60029,-0.3743 195.54985,195.54985 0 0 0 1.59648,-0.3897 195.54985,195.54985 0 0 0 1.59649,-0.4008 195.54985,195.54985 0 0 0 1.58883,-0.4126 195.54985,195.54985 0 0 0 1.58884,-0.4278 195.54985,195.54985 0 0 0 1.58503,-0.4431 195.54985,195.54985 0 0 0 1.58121,-0.4544 195.54985,195.54985 0 0 0 1.57356,-0.4661 195.54985,195.54985 0 0 0 1.57355,-0.4812 195.54985,195.54985 0 0 0 1.56976,-0.4965 195.54985,195.54985 0 0 0 1.56212,-0.5041 195.54985,195.54985 0 0 0 1.56208,-0.5233 195.54985,195.54985 0 0 0 1.55449,-0.5309 195.54985,195.54985 0 0 0 1.55063,-0.5498 195.54985,195.54985 0 0 0 1.54683,-0.5578 195.54985,195.54985 0 0 0 1.5392,-0.5727 195.54985,195.54985 0 0 0 1.53919,-0.5846 195.54985,195.54985 0 0 0 1.53155,-0.5995 195.54985,195.54985 0 0 0 1.52392,-0.6111 195.54985,195.54985 0 0 0 1.52392,-0.6264 195.54985,195.54985 0 0 0 1.51628,-0.6339 195.54985,195.54985 0 0 0 1.50862,-0.6494 195.54985,195.54985 0 0 0 1.50481,-0.6645 195.54985,195.54985 0 0 0 1.50101,-0.6761 195.54985,195.54985 0 0 0 1.49336,-0.6874 195.54985,195.54985 0 0 0 1.48572,-0.699 195.54985,195.54985 0 0 0 1.4819,-0.7104 195.54985,195.54985 0 0 0 1.47808,-0.7257 195.54985,195.54985 0 0 0 1.47044,-0.7371 195.54985,195.54985 0 0 0 1.46281,-0.7524 195.54985,195.54985 0 0 0 1.45517,-0.7602 195.54985,195.54985 0 0 0 1.45135,-0.7752 195.54985,195.54985 0 0 0 1.4437,-0.7867 195.54985,195.54985 0 0 0 0.35901,-0.1988 c 32.6434,-28.7435 57.31411,-66.5373 69.985488,-108.1634 -14.212378,-46.695 -43.385958,-88.7108 -82.172978,-118.342 -38.78704,-29.6311 -86.9959,-46.7312 -135.78493,-48.1657 -2.3948,-0.071 -4.78884,-0.102 -7.18416,-0.096 v 0 c -42.9339,0.09 -85.76167,12.2747 -122.41345,34.6223 z" />
    </g>
  </g>
</svg>
