<?xml version="1.0" standalone="no"?>
<!DOCTYPE svg PUBLIC "-//W3C//DTD SVG 20010904//EN"
 "http://www.w3.org/TR/2001/REC-SVG-20010904/DTD/svg10.dtd">
<svg version="1.0" xmlns="http://www.w3.org/2000/svg"
 width="1000.000000pt" height="1000.000000pt" viewBox="0 0 1000.000000 1000.000000"
 preserveAspectRatio="xMidYMid meet">
<metadata>
Created by potrace 1.14, written by Peter Selinger 2001-2017
</metadata>
<g transform="translate(0.000000,1000.000000) scale(0.100000,-0.100000)"
fill="#000000" stroke="none">
<path d="M3655 9815 c-5 -2 -91 -29 -190 -60 -168 -53 -342 -119 -478 -179
l-58 -26 40 -48 c105 -124 282 -234 550 -342 84 -33 156 -59 159 -56 3 3 -28
40 -69 81 -83 85 -94 103 -85 138 11 47 38 40 300 -75 485 -213 533 -229 795
-248 86 -6 212 -25 315 -46 272 -56 279 -57 673 -58 205 -1 373 0 373 0 0 1
-29 32 -65 69 -61 62 -267 323 -307 388 -32 50 -19 107 24 107 9 0 68 -22 130
-49 62 -27 172 -73 243 -101 122 -49 315 -140 343 -162 16 -14 15 -7 -10 65
-18 54 -22 90 -26 278 -5 244 -1 262 51 257 26 -3 36 -12 65 -63 129 -225 336
-465 746 -864 358 -349 409 -401 453 -469 l40 -63 7 73 c18 189 53 313 101
362 20 19 58 21 73 4 5 -7 22 -98 37 -203 33 -241 99 -586 130 -682 13 -40 41
-102 64 -136 75 -116 76 -121 76 -407 0 -218 3 -262 18 -303 13 -36 17 -78 17
-168 l0 -121 28 7 c15 4 218 47 452 96 733 155 894 190 899 194 8 8 -108 248
-195 406 -233 419 -502 778 -833 1110 -580 580 -1220 974 -2016 1240 l-160 54
-1350 2 c-742 1 -1354 0 -1360 -2z"/>
<path d="M6354 9678 c3 -13 10 -66 16 -118 29 -247 59 -379 114 -504 14 -33
25 -61 23 -63 -2 -2 -45 21 -94 52 -51 31 -169 87 -274 129 -258 104 -287 117
-373 175 -42 29 -83 54 -91 57 -55 22 51 -133 219 -317 104 -115 162 -164 271
-229 48 -29 60 -40 40 -35 -65 15 -352 21 -470 9 -126 -12 -407 -3 -515 16
-30 5 -181 26 -335 45 -356 45 -492 69 -634 112 -221 66 -393 142 -559 246
-35 22 -65 37 -68 35 -2 -3 2 -11 11 -18 8 -7 15 -18 15 -24 0 -14 164 -179
225 -227 22 -17 66 -47 98 -66 31 -20 56 -38 54 -39 -2 -2 -64 15 -138 37
-152 46 -416 148 -564 219 -125 60 -281 175 -376 279 -54 59 -78 78 -88 72
-19 -12 38 -81 146 -175 119 -105 202 -157 359 -226 76 -33 168 -74 204 -90
139 -62 254 -101 445 -149 224 -57 300 -67 201 -26 -70 29 -250 148 -355 234
-41 34 -72 61 -69 61 3 0 54 -23 113 -50 213 -100 476 -174 760 -215 542 -77
965 -108 1254 -92 97 5 183 4 256 -4 61 -6 139 -13 175 -15 l65 -3 -81 38
c-196 92 -279 157 -452 350 -153 169 -148 159 -54 112 46 -23 118 -55 160 -70
43 -16 104 -40 137 -53 33 -14 80 -32 105 -41 25 -9 104 -49 175 -88 109 -59
140 -82 192 -138 34 -38 84 -83 111 -100 50 -32 83 -43 47 -15 -158 119 -291
359 -324 584 -15 106 -22 190 -17 190 3 0 38 -51 79 -112 40 -62 100 -145 133
-184 90 -108 325 -355 459 -483 252 -241 484 -479 538 -552 31 -42 79 -119
106 -173 27 -53 52 -93 54 -89 3 5 -4 35 -14 68 -28 89 -21 303 15 478 l12 62
7 -105 c8 -124 58 -418 86 -510 12 -36 21 -77 21 -91 0 -14 27 -82 59 -151 33
-68 65 -146 72 -173 7 -30 13 -137 14 -260 1 -120 8 -249 16 -300 10 -61 12
-114 7 -165 -5 -41 -5 -113 -2 -160 6 -91 -9 -198 -67 -480 -52 -249 -91 -346
-246 -598 -108 -179 -262 -363 -405 -487 -207 -180 -238 -221 -238 -319 0 -31
6 -39 40 -62 34 -23 47 -26 88 -20 26 3 73 19 105 35 l58 30 -21 -30 c-31 -43
-23 -65 23 -62 103 6 246 133 322 284 26 52 44 81 40 64 -3 -16 -24 -66 -45
-109 -22 -44 -38 -81 -36 -83 8 -8 66 50 140 141 44 53 81 96 83 96 3 0 -9
-24 -25 -52 -16 -29 -49 -98 -73 -153 -100 -232 -278 -438 -472 -547 -32 -18
-73 -43 -91 -54 -77 -50 -280 -100 -297 -73 -4 6 -14 71 -23 143 -10 72 -29
196 -43 275 -32 174 -31 178 57 488 33 117 60 218 60 224 0 61 -81 -161 -145
-396 -24 -88 -59 -210 -78 -270 -19 -61 -40 -132 -47 -158 -11 -43 -26 -60
-134 -160 -138 -126 -396 -339 -531 -436 -49 -36 -151 -110 -225 -166 -207
-156 -197 -151 -355 -179 -200 -36 -285 -46 -376 -46 -75 0 -84 3 -158 43 -73
39 -87 53 -183 172 -236 294 -354 481 -545 867 -29 59 -53 111 -53 115 0 5
127 23 283 42 303 35 357 45 357 64 0 7 -14 37 -32 67 -77 136 -177 343 -202
416 -27 83 -46 197 -40 249 14 129 30 168 91 227 48 47 136 88 188 88 102 0
225 -51 300 -124 89 -88 137 -194 171 -377 20 -111 15 -316 -11 -443 -10 -46
-13 -82 -7 -88 5 -5 146 2 338 17 423 33 429 34 448 48 10 8 22 45 31 102 9
50 23 113 32 142 8 29 13 59 10 68 -8 19 -83 19 -244 2 -89 -10 -113 -10 -113
-1 0 7 9 49 19 94 33 135 35 201 12 345 -24 155 -48 231 -107 345 -51 98 -105
166 -178 219 -76 56 -117 74 -266 117 l-135 38 -220 1 c-211 0 -224 -1 -320
-28 -235 -66 -361 -165 -429 -338 -57 -144 -69 -220 -63 -389 3 -87 12 -177
20 -205 22 -79 84 -240 118 -306 17 -34 28 -63 25 -66 -7 -7 -141 -32 -173
-32 -20 -1 -27 14 -67 142 -46 145 -85 299 -106 417 -25 139 -72 328 -100 395
-16 39 -32 81 -35 95 -4 14 -26 79 -50 145 -24 66 -53 165 -66 219 -26 117
-27 110 58 339 81 218 104 251 285 398 53 44 131 111 172 149 42 39 78 70 81
70 3 0 -19 -29 -48 -65 -30 -36 -66 -87 -81 -115 -54 -99 -126 -345 -126 -430
0 -30 4 -28 108 77 148 150 195 179 494 307 110 46 176 85 225 132 24 23 53
80 53 103 0 22 -4 19 -29 -21 -16 -25 -44 -60 -63 -79 -40 -39 -191 -117 -356
-185 -127 -52 -231 -121 -336 -222 -40 -40 -66 -59 -62 -47 3 11 19 68 36 127
57 205 166 380 310 500 23 19 41 40 39 47 -6 16 -70 -20 -154 -87 -139 -112
-433 -371 -463 -410 -62 -78 -138 -273 -172 -437 l-16 -80 -28 84 c-65 198
-61 443 14 738 22 85 45 144 93 236 111 213 186 318 335 465 74 73 132 136
128 139 -8 9 -60 -35 -177 -149 -161 -157 -318 -405 -383 -603 -48 -147 -76
-295 -88 -462 -10 -146 -10 -171 6 -245 21 -98 56 -188 90 -233 15 -19 29 -58
36 -96 15 -83 74 -274 99 -323 12 -22 19 -42 16 -44 -14 -14 -306 102 -489
195 -312 159 -486 313 -665 587 -62 95 -173 321 -231 471 -23 61 -56 139 -72
175 l-29 65 28 -26 c196 -180 436 -385 483 -412 31 -19 31 -19 19 1 -7 11 -73
73 -146 138 -144 127 -179 172 -259 338 -125 255 -172 541 -160 981 6 258 15
353 58 597 21 123 20 154 -3 131 -22 -22 -68 -344 -80 -558 -23 -420 7 -789
82 -1001 33 -93 88 -209 121 -257 11 -16 19 -30 17 -31 -2 -2 -46 32 -98 75
-52 43 -100 79 -107 79 -14 0 -3 -34 42 -123 14 -26 44 -98 68 -160 24 -62 61
-148 84 -192 22 -44 52 -109 66 -144 57 -135 215 -358 338 -477 74 -72 246
-193 351 -245 31 -16 57 -34 57 -40 0 -8 -208 -959 -235 -1078 -5 -21 -7 -22
-23 -8 -18 17 -211 82 -330 113 l-74 18 -19 -24 c-31 -39 -136 -196 -141 -210
-3 -9 -14 -6 -38 9 -44 26 -71 26 -146 0 -53 -18 -65 -29 -118 -95 -33 -43
-64 -73 -71 -70 -7 2 -67 10 -134 17 -139 14 -132 16 -193 -74 -28 -41 -43
-55 -51 -49 -12 9 -65 24 -210 57 -141 31 -159 21 -222 -122 -67 -154 -122
-292 -161 -408 -18 -55 -39 -103 -46 -107 -7 -4 -159 -55 -336 -114 l-324
-106 -34 33 -34 33 -69 -23 c-105 -36 -99 -23 -67 -158 36 -146 113 -390 173
-545 44 -114 46 -116 72 -108 79 23 94 43 107 139 l6 48 162 47 c88 25 181 52
206 60 l46 14 59 -45 c78 -59 162 -101 315 -156 127 -46 403 -119 495 -131 28
-4 58 -9 68 -12 11 -4 17 0 17 10 0 28 14 17 35 -26 l20 -42 -41 -82 c-53
-107 -183 -435 -274 -694 -40 -113 -79 -212 -87 -220 -21 -22 -303 -20 -446 4
-60 9 -111 16 -113 13 -2 -2 49 -69 113 -150 76 -96 120 -143 127 -137 6 4 34
53 61 108 l50 99 82 8 c46 4 95 5 110 2 30 -6 63 7 63 25 0 40 279 773 356
934 24 51 44 97 44 102 0 5 -11 19 -25 32 -33 31 -32 40 8 40 25 0 67 23 178
98 134 90 152 100 248 125 57 15 176 50 265 77 88 26 180 53 203 59 40 11 42
14 63 77 21 63 23 117 6 157 -7 14 -3 17 25 17 28 0 43 10 91 60 l57 60 34
-62 c19 -35 74 -137 122 -228 48 -91 114 -215 146 -276 33 -61 59 -113 59
-116 0 -2 -39 1 -87 8 -49 7 -158 19 -243 28 -150 14 -156 14 -197 -5 -52 -25
-174 -152 -240 -250 -69 -101 -149 -244 -208 -368 -44 -94 -59 -114 -145 -200
-130 -129 -189 -195 -709 -796 -67 -76 -121 -142 -121 -145 0 -17 349 -316
510 -436 407 -303 942 -581 1415 -734 114 -37 448 -130 466 -130 3 0 14 20 23
45 10 24 37 64 61 88 96 94 215 121 317 73 100 -47 167 -145 168 -242 0 -35 5
-54 14 -57 7 -3 128 -11 268 -18 720 -35 1421 80 2083 343 198 78 576 265 745
368 645 393 1183 911 1595 1535 123 186 189 301 308 538 l99 199 -16 62 c-10
35 -26 77 -37 95 -21 35 -21 47 13 220 11 57 17 118 14 135 -5 23 -48 72 -174
196 -219 217 -337 314 -567 467 -104 70 -185 128 -180 129 6 2 246 40 535 84
845 130 805 123 807 145 1 11 7 110 13 220 13 242 -5 678 -36 876 -5 36 -6 37
-42 28 -20 -4 -100 -17 -177 -29 -178 -26 -362 -61 -590 -111 -99 -22 -286
-58 -415 -80 -404 -69 -412 -70 -406 -86 3 -8 2 -12 -2 -9 -5 3 -6 -44 -4
-105 4 -95 2 -109 -12 -109 -14 0 -16 -16 -16 -120 0 -100 3 -120 15 -120 11
0 15 -11 15 -40 0 -22 -4 -40 -10 -40 -5 0 -10 -18 -10 -40 0 -22 4 -40 9 -40
5 0 11 -41 13 -91 l3 -91 -27 4 c-15 3 -24 0 -21 -5 11 -19 -53 1 -197 61 -80
32 -174 66 -209 75 -35 9 -65 18 -67 20 -7 6 98 229 169 360 22 41 28 60 20
68 -16 16 -48 -3 -115 -69 -32 -31 -58 -54 -58 -52 0 3 11 47 25 98 28 104 32
169 12 197 -18 23 -19 21 -68 -120 -85 -248 -169 -373 -313 -464 -27 -17 -52
-29 -54 -26 -3 2 10 21 28 42 56 63 82 140 64 187 -6 17 -34 22 -34 7 0 -26
-86 -133 -133 -165 -44 -31 -60 -36 -107 -36 -71 0 -103 20 -94 58 15 63 56
112 173 206 215 173 404 414 557 710 92 179 182 440 203 590 6 44 13 82 16 84
2 2 32 10 67 17 35 7 126 26 203 43 261 57 326 70 343 67 9 -2 26 -4 37 -4 18
-1 20 -8 20 -75 0 -45 6 -84 15 -102 28 -56 116 -154 138 -154 6 0 12 -7 12
-15 0 -9 24 -26 58 -41 46 -21 72 -26 140 -26 45 0 97 6 114 13 25 10 33 10
36 1 3 -9 14 -6 39 9 30 19 40 21 64 12 16 -6 27 -7 23 -2 -5 9 22 14 59 11
10 -1 15 2 12 8 -3 5 0 7 9 4 8 -3 25 2 38 10 25 16 78 18 78 3 0 -4 9 -3 20
3 10 6 46 13 80 17 33 3 60 10 60 14 0 5 9 9 20 9 11 0 20 -4 20 -10 0 -12 37
-13 44 -1 17 27 -136 513 -232 742 -6 14 -101 -4 -737 -137 -401 -84 -738
-153 -747 -154 -16 0 -18 13 -18 145 0 81 -7 186 -15 239 -11 65 -14 151 -13
287 3 219 -3 251 -72 388 -34 69 -71 181 -114 347 -22 85 -53 304 -66 463 -14
168 -20 183 -50 105 -40 -107 -53 -177 -59 -324 l-6 -145 -36 55 c-53 80 -190
231 -315 345 -174 158 -597 589 -707 720 -107 128 -194 255 -255 372 -37 73
-57 93 -48 51z m2337 -2987 c-11 -7 -9 -10 9 -13 18 -2 24 -10 26 -33 4 -47
16 -89 28 -97 7 -5 5 -8 -4 -8 -9 0 -22 6 -29 13 -10 10 -11 9 -7 -3 5 -12 -9
-19 -61 -32 -66 -16 -91 -16 -64 1 8 5 31 12 52 15 21 3 41 11 45 17 7 12 -23
10 -111 -6 l-30 -5 28 11 c30 12 32 36 2 31 -10 -2 -14 1 -10 7 7 12 -9 15
-65 13 l-35 -2 40 13 c27 8 36 15 27 21 -7 4 -63 -4 -125 -18 -61 -14 -128
-27 -147 -28 -57 -5 -30 -23 30 -21 l55 1 -57 -15 c-65 -17 -80 -39 -20 -29
20 3 31 3 25 0 -7 -3 -13 -13 -13 -21 0 -11 7 -14 25 -11 18 4 25 1 25 -10 0
-11 8 -13 38 -9 108 18 108 18 87 8 -19 -10 -236 -62 -319 -77 l-39 -7 6 63
c4 35 7 77 7 94 l0 31 143 29 c78 15 151 29 162 31 11 2 58 12 105 23 82 20
123 27 165 30 15 1 17 0 6 -7z m-234 -97 c-3 -3 -12 -4 -19 -1 -8 3 -5 6 6 6
11 1 17 -2 13 -5z m-80 -20 c-3 -3 -12 -4 -19 -1 -8 3 -5 6 6 6 11 1 17 -2 13
-5z m28 -34 c-73 -24 -70 -24 -55 -5 7 9 15 14 17 11 2 -2 16 0 31 4 57 17 64
8 7 -10z m358 -37 c-7 -2 -19 -2 -25 0 -7 3 -2 5 12 5 14 0 19 -2 13 -5z
m-3509 -272 c178 -88 328 -310 411 -608 4 -14 2 -23 -4 -23 -6 0 -11 12 -11
26 0 14 -4 23 -9 20 -5 -4 -7 4 -3 16 3 14 2 19 -6 14 -8 -5 -12 4 -12 29 0
24 -4 34 -11 29 -7 -4 -10 -1 -7 7 3 8 -6 29 -19 47 -14 19 -26 44 -27 57 0
13 -6 21 -13 18 -12 -5 -17 14 -16 54 0 7 -2 12 -6 11 -18 -2 -22 4 -11 17 7
8 8 15 3 15 -6 0 -15 10 -22 23 -11 21 -11 20 -6 -8 4 -29 4 -29 -7 -6 -7 13
-35 46 -63 74 -38 38 -45 49 -28 45 21 -5 22 -4 11 15 -13 26 -55 67 -68 67
-5 0 -13 -7 -17 -15 -7 -12 -13 -11 -35 10 -15 14 -30 25 -34 25 -4 0 -15 6
-23 13 -9 8 -38 20 -64 27 -31 8 -44 16 -36 21 8 5 2 9 -17 12 -16 3 -3 3 30
2 40 -2 77 -13 120 -34z m-906 -108 c-44 -51 -137 -241 -144 -293 -1 -8 -9
-55 -18 -104 -20 -113 -20 -219 0 -293 9 -32 22 -88 30 -124 7 -36 22 -90 33
-120 27 -69 20 -74 -9 -7 -75 173 -108 346 -97 508 6 91 42 220 84 304 25 49
122 161 131 151 3 -3 -2 -13 -10 -22z m1332 -564 c0 -6 -4 -7 -10 -4 -5 3 -10
11 -10 16 0 6 5 7 10 4 6 -3 10 -11 10 -16z m-2910 -485 c167 -52 237 -92 245
-139 17 -108 44 -464 55 -725 8 -170 7 -243 -2 -299 -12 -69 -16 -78 -57 -115
-35 -33 -56 -43 -105 -53 -92 -18 -97 -17 -164 39 l-62 52 0 104 c0 97 -5 163
-31 387 -14 126 -53 312 -89 428 -27 85 -35 101 -62 115 -16 9 -39 24 -50 32
-20 16 -20 16 6 55 14 22 48 71 77 108 42 56 55 67 72 62 12 -4 87 -27 167
-51z m1253 -94 c3 -11 1 -18 -4 -14 -5 3 -9 12 -9 20 0 20 7 17 13 -6z m-1626
-90 c37 -22 73 -40 80 -40 18 0 28 -25 62 -165 44 -175 79 -439 105 -782 4
-41 1 -55 -15 -69 -10 -9 -36 -43 -56 -76 l-38 -60 -59 6 c-32 3 -76 11 -96
17 -34 10 -40 17 -49 55 -6 23 -11 66 -11 93 0 93 -90 508 -151 696 -16 50
-42 113 -58 142 l-29 52 54 68 c39 49 66 73 96 85 65 26 93 22 165 -22z m1591
-115 c-3 -3 -9 2 -12 12 -6 14 -5 15 5 6 7 -7 10 -15 7 -18z m-1962 -32 c36
-16 65 -73 108 -210 54 -174 132 -524 140 -630 3 -32 7 -92 11 -133 l5 -75
-55 -49 -56 -48 -94 17 c-51 10 -97 21 -102 24 -5 3 -16 33 -25 66 -61 238
-90 335 -180 607 -102 306 -102 307 -83 326 11 10 36 44 55 75 l34 57 106 -6
c58 -4 119 -13 136 -21z m-550 -55 l140 -23 16 -35 c9 -19 22 -55 28 -80 6
-25 44 -146 85 -270 76 -232 185 -610 185 -642 0 -17 -101 -94 -220 -167 l-55
-33 -112 58 c-62 32 -113 61 -113 65 0 3 15 10 33 16 23 7 31 14 29 28 -2 10
2 22 10 26 10 7 -15 63 -107 246 -66 130 -133 257 -148 281 -27 43 -42 48 -42
15 0 -10 -21 -22 -60 -34 -32 -10 -61 -17 -62 -15 -6 5 205 558 224 589 3 5
11 6 18 4 6 -3 75 -16 151 -29z m2560 -19 c19 -22 19 -22 -3 -10 -13 6 -23 16
-23 21 0 15 5 12 26 -11z m119 -29 c9 -17 13 -36 9 -42 -4 -6 -3 -8 3 -5 6 4
13 -1 15 -11 3 -10 0 -19 -6 -19 -6 0 -38 -3 -71 -6 -33 -3 -52 -3 -42 -1 13
4 17 16 17 50 0 28 -4 44 -12 45 -20 1 24 18 49 18 15 1 28 -9 38 -29z m2699
-63 c12 -117 92 -538 112 -591 3 -7 -41 -50 -98 -98 -57 -47 -177 -154 -268
-238 -91 -84 -206 -186 -257 -226 -134 -108 -206 -177 -298 -287 -88 -105
-109 -152 -150 -332 -18 -79 -79 -230 -105 -260 -39 -44 -152 -228 -172 -279
l-21 -55 -46 37 c-25 20 -84 72 -131 116 -93 87 -212 184 -261 213 -29 17 -30
20 -24 63 9 62 46 200 54 200 3 0 19 -40 35 -88 33 -101 74 -197 81 -190 3 2
-4 22 -14 44 -27 55 -91 242 -91 264 0 42 19 26 40 -33 51 -140 122 -318 126
-314 3 2 -16 60 -42 128 -112 300 -105 279 -86 279 13 0 23 -16 36 -57 44
-140 139 -393 148 -393 6 0 7 7 3 18 -9 19 -138 384 -149 420 -5 15 -3 22 6
22 14 0 92 -210 91 -245 0 -22 65 -214 79 -229 5 -6 8 -2 9 10 0 16 2 15 11
-6 l11 -25 7 30 c11 41 68 205 82 232 8 17 7 35 -4 77 l-16 54 67 124 c37 67
147 281 245 473 131 256 187 357 210 375 17 14 78 65 135 115 57 49 158 132
225 183 66 51 165 140 220 198 89 95 101 112 128 187 17 45 35 99 40 119 6 21
14 36 18 33 4 -2 10 -33 14 -68z m1719 -44 c4 -3 2 -12 -4 -20 -9 -10 -8 -13
1 -13 9 0 9 -4 3 -12 -6 -7 -13 -29 -16 -48 -3 -19 -8 -45 -11 -57 -3 -13 0
-23 6 -23 6 0 9 -2 6 -5 -9 -10 -38 7 -31 18 3 6 1 7 -6 3 -6 -4 -49 16 -99
47 -48 30 -98 61 -112 68 -23 12 -18 14 75 30 110 18 178 23 188 12z m-1057
-192 c-4 -5 -3 -11 1 -14 5 -2 1 -2 -7 0 -12 3 -12 2 -3 -8 15 -15 74 -38 131
-50 24 -5 60 -17 80 -28 21 -11 66 -25 102 -31 36 -7 84 -19 107 -26 23 -7 50
-11 60 -8 15 5 16 4 3 -5 -15 -11 -8 -12 108 -16 18 0 37 -7 42 -14 4 -8 36
-18 71 -23 34 -4 76 -15 92 -23 17 -8 50 -15 74 -15 23 0 43 -4 43 -9 0 -10
47 -25 67 -22 6 1 14 -3 18 -9 3 -5 16 -10 27 -10 11 0 27 -8 34 -17 11 -15
13 -15 14 -3 0 13 1 13 10 0 8 -12 12 -12 18 -2 16 25 38 -53 65 -231 5 -35
-5 -41 -179 -96 -72 -23 -139 -48 -150 -56 -10 -9 -44 -28 -74 -43 -95 -48
-72 -71 30 -29 72 29 82 36 76 53 -3 8 0 11 10 7 8 -3 13 -12 10 -20 -4 -8 -1
-11 5 -8 17 11 193 -67 181 -80 -4 -4 9 -5 28 -1 19 3 30 3 23 0 -7 -3 -9 -12
-6 -20 4 -10 -2 -14 -22 -14 -45 0 -240 -49 -342 -86 -112 -40 -367 -148 -463
-195 -36 -17 -83 -38 -105 -46 -56 -20 -160 -83 -257 -156 -92 -70 -150 -107
-166 -107 -6 0 -17 7 -25 15 -8 8 -25 16 -38 19 -54 10 -85 20 -97 33 -20 20
-34 17 -109 -25 -98 -55 -133 -68 -142 -53 -4 7 -12 11 -17 10 -5 -1 -36 5
-69 15 -33 9 -76 21 -95 26 -19 5 -62 16 -96 24 -69 18 -300 64 -356 71 -20 3
-49 10 -63 15 -15 6 -38 10 -53 10 -15 1 -38 7 -51 14 -25 14 -24 15 145 184
93 93 203 194 244 224 41 31 143 122 225 202 138 136 281 256 305 256 12 0 86
60 260 210 154 132 217 180 239 180 8 0 11 3 8 7 -4 3 1 12 11 19 20 16 25 17
18 5z m-3216 -315 c0 -2 -8 -10 -17 -17 -16 -13 -17 -12 -4 4 13 16 21 21 21
13z m-86 -111 c-4 -8 -1 -15 5 -15 6 0 11 -7 11 -15 0 -24 78 -102 108 -108
25 -5 71 2 152 25 19 5 49 10 65 12 17 1 36 6 44 10 16 10 59 -33 151 -154 77
-100 153 -170 220 -200 30 -14 57 -27 60 -31 8 -8 49 -8 116 3 54 8 67 7 100
-10 91 -47 105 -92 64 -201 -21 -57 -25 -62 -37 -45 -12 17 -13 17 -14 -2 0
-15 -2 -16 -7 -4 -7 16 -42 24 -42 9 0 -5 -6 -7 -12 -4 -33 10 -118 13 -118 3
0 -6 -13 -8 -36 -4 -22 5 -41 3 -50 -5 -8 -6 -27 -9 -44 -5 -51 10 -33 -11 33
-37 71 -28 196 -43 244 -28 l33 10 -15 -30 c-17 -32 -31 -40 -21 -11 5 15 4
15 -6 2 -7 -8 -24 -16 -38 -16 -120 -6 -462 -86 -591 -139 -35 -14 -68 -25
-75 -25 -8 0 -34 -10 -59 -22 l-46 -22 -102 34 c-56 18 -109 36 -117 39 -13 4
-13 2 -1 -12 12 -15 11 -17 -3 -17 -15 0 -45 -21 -90 -66 -12 -11 -28 -18 -36
-16 -13 5 -13 3 -1 -11 22 -27 7 -20 -52 26 -42 33 -127 119 -127 130 0 1 -5
29 -10 62 -27 163 55 440 188 637 28 41 64 105 81 141 28 62 67 127 76 127 3
0 2 -7 -1 -15z m-1375 -224 c40 3 47 0 58 -21 7 -14 12 -34 12 -45 -1 -33 -34
-118 -50 -126 -16 -9 -440 -128 -564 -158 -133 -33 -476 -101 -511 -101 -35 0
-38 7 -50 135 -6 58 -5 61 20 73 34 15 134 88 164 118 27 28 41 29 145 9 130
-25 135 -24 208 49 l64 64 60 -14 c33 -7 83 -14 111 -14 l52 0 47 75 48 75 70
-61 c66 -57 72 -60 116 -58z m3102 -63 c-38 -73 -137 -268 -220 -433 -84 -165
-158 -306 -165 -313 -24 -24 -29 31 -7 70 10 18 69 125 132 238 295 537 314
570 325 570 2 0 -27 -60 -65 -132z m-124 -149 c-68 -123 -152 -277 -187 -341
-34 -65 -66 -118 -70 -118 -5 0 -14 -16 -20 -35 -11 -34 -30 -39 -30 -8 0 22
378 694 403 716 11 10 22 16 24 13 2 -2 -52 -105 -120 -227z m-115 -105 c-82
-148 -159 -289 -171 -313 -17 -33 -25 -41 -34 -32 -9 9 -8 18 4 39 212 363
342 582 346 578 2 -2 -63 -125 -145 -272z m10 144 c-65 -106 -199 -341 -218
-381 -17 -36 -33 -35 -34 4 0 20 212 376 246 412 43 46 46 30 6 -35z m-4322
23 c0 -22 227 -141 268 -141 26 0 29 -3 24 -25 -2 -14 3 -43 12 -65 9 -22 16
-56 16 -75 0 -60 16 -59 440 30 14 3 -19 -23 -72 -59 l-97 -64 -113 -4 c-103
-4 -125 -2 -251 29 -75 19 -197 54 -270 79 -183 63 -430 182 -380 184 4 0 98
27 208 60 222 65 215 64 215 51z m4194 -140 c-37 -61 -68 -110 -70 -108 -3 2
18 43 45 90 61 106 83 139 87 134 2 -2 -26 -54 -62 -116z m3 67 c-13 -24 -39
-69 -57 -100 -34 -62 -52 -80 -24 -25 31 61 95 167 100 167 3 0 -5 -19 -19
-42z m128 2 c-9 -16 -18 -30 -21 -30 -2 0 2 14 11 30 9 17 18 30 21 30 2 0 -2
-13 -11 -30z m-255 12 c0 -5 -7 -17 -15 -28 -14 -18 -14 -17 -4 9 12 27 19 34
19 19z m-77 -52 c-5 -19 -23 -39 -23 -25 0 9 20 45 24 45 2 0 2 -9 -1 -20z
m304 -7 c-30 -55 -90 -153 -94 -153 -5 0 -7 -4 47 88 23 39 44 72 47 72 2 0 2
-3 0 -7z m-267 -20 c0 -5 -10 -19 -21 -33 l-20 -25 16 33 c15 30 25 41 25 25z
m0 -54 c-12 -23 -24 -39 -26 -36 -5 5 35 77 42 77 3 0 -5 -18 -16 -41z m48
-94 c-12 -24 -23 -43 -26 -41 -4 5 36 86 43 86 3 0 -5 -20 -17 -45z m15 -31
c-15 -30 -29 -50 -31 -44 -4 10 44 100 53 100 3 0 -7 -25 -22 -56z m92 6 c-9
-16 -18 -30 -21 -30 -2 0 2 14 11 30 9 17 18 30 21 30 2 0 -2 -13 -11 -30z
m-49 -87 c-31 -59 -46 -81 -46 -68 0 12 58 115 65 115 3 0 -6 -21 -19 -47z
m13 -408 c0 -15 -67 174 -73 210 -3 17 12 -22 34 -85 22 -63 40 -119 39 -125z
m-72 70 c57 -175 58 -212 0 -47 -51 144 -67 202 -59 202 4 0 30 -70 59 -155z
m-35 -30 c32 -93 57 -175 56 -183 -3 -12 -138 335 -138 353 0 4 5 5 12 3 6 -2
38 -80 70 -173z m-780 -1043 c100 -44 158 -131 158 -236 -1 -241 -293 -356
-451 -178 -56 63 -72 104 -72 182 -1 188 191 310 365 232z"/>
<path d="M5450 6033 c0 -6 8 -17 18 -24 16 -13 16 -13 2 6 -8 11 -16 22 -17
24 -2 2 -3 0 -3 -6z"/>
<path d="M4095 4651 c-3 -6 4 -9 15 -8 11 1 20 5 20 9 0 11 -28 10 -35 -1z"/>
<path d="M8094 3655 c-15 -11 -16 -14 -3 -15 8 0 24 7 35 15 15 11 16 14 3 15
-8 0 -24 -7 -35 -15z"/>
<path d="M8141 3639 c-18 -7 -21 -13 -13 -21 12 -12 72 7 72 23 0 11 -28 10
-59 -2z"/>
<path d="M8193 3610 c-25 -10 -31 -40 -8 -40 20 0 85 32 85 42 0 11 -49 9 -77
-2z"/>
<path d="M3965 3119 c-10 -15 3 -93 19 -114 8 -11 20 -16 30 -12 17 7 23 37 7
37 -5 0 -17 23 -26 50 -18 53 -20 56 -30 39z"/>
<path d="M4180 3088 c0 -30 12 -48 31 -48 26 0 24 12 -6 40 -20 19 -25 20 -25
8z"/>
<path d="M4100 3076 c0 -16 26 -46 40 -46 5 0 14 9 20 20 8 15 8 18 -3 14 -8
-3 -20 2 -27 11 -16 19 -30 19 -30 1z"/>
<path d="M4230 3083 c1 -18 18 -35 24 -24 4 6 4 16 1 21 -7 12 -25 13 -25 3z"/>
<path d="M4044 3048 c3 -13 6 -26 6 -30 0 -17 38 -6 43 12 3 13 0 20 -9 20 -8
0 -14 5 -14 10 0 6 -7 10 -16 10 -12 0 -15 -6 -10 -22z"/>
<path d="M4569 3051 c10 -6 10 -10 1 -13 -6 -2 0 -10 14 -18 21 -11 29 -11 39
-1 9 10 8 15 -7 27 -11 8 -29 14 -40 14 -16 0 -18 -2 -7 -9z"/>
<path d="M4440 3015 c-18 -22 -3 -53 30 -60 64 -14 95 26 45 59 -30 20 -59 21
-75 1z"/>
<path d="M4445 1351 c-11 -5 -23 -7 -27 -4 -5 2 -8 -2 -8 -10 0 -8 7 -18 16
-21 20 -8 54 2 54 15 0 5 7 9 16 9 8 0 12 5 9 10 -7 12 -32 12 -60 1z"/>
<path d="M4360 1341 c0 -11 58 -61 71 -61 16 0 10 9 -23 40 -34 30 -48 37 -48
21z"/>
<path d="M2725 9448 c-3 -7 -1 -50 3 -96 9 -95 2 -95 -23 1 -18 72 -24 80 -43
68 -10 -6 -3 -36 29 -122 23 -63 60 -179 84 -259 62 -209 81 -262 140 -387 58
-122 123 -226 179 -287 50 -55 45 -34 -15 59 -122 193 -226 441 -278 665 -16
66 -51 318 -51 363 0 12 -20 8 -25 -5z"/>
<path d="M2096 9069 c-292 -208 -721 -605 -938 -869 -411 -499 -706 -1030
-905 -1629 l-65 -195 1 -410 c2 -496 19 -1588 26 -1594 11 -11 18 10 20 55 l3
48 -8 -40 c-7 -38 -7 -36 -8 20 -1 55 0 58 13 41 8 -11 15 -36 16 -55 1 -20 5
-47 9 -61 8 -24 8 -24 9 -2 l1 22 380 0 c261 0 380 3 380 11 0 5 5 7 10 4 16
-10 12 -35 -5 -29 -8 4 -15 2 -15 -4 0 -5 6 -12 14 -15 9 -4 20 12 35 50 12
30 18 59 15 64 -3 5 2 17 11 26 9 9 14 24 12 34 -3 12 0 19 8 19 16 0 29 35
19 51 -4 8 -3 9 4 5 11 -6 14 0 11 20 0 4 3 10 8 13 5 3 26 40 47 81 21 41 41
78 45 83 15 16 53 15 143 -4 51 -11 99 -17 106 -14 7 2 11 1 8 -3 -3 -5 29
-17 71 -26 68 -16 77 -17 84 -3 5 8 27 38 49 66 46 58 43 57 196 40 l96 -10
68 65 c105 102 234 151 300 116 15 -8 29 5 95 95 75 103 86 111 135 106 22 -3
206 -59 269 -82 30 -11 56 -18 58 -16 2 3 10 31 18 63 39 159 207 860 207 864
1 21 -14 34 -104 90 -140 86 -232 156 -299 226 -85 89 -195 230 -249 320 -116
190 -370 791 -370 873 0 36 46 55 85 35 23 -12 26 -12 22 0 -24 61 -50 166
-62 243 -41 273 -45 887 -6 1123 11 69 23 133 27 143 3 9 5 17 3 17 -2 0 -48
-32 -103 -71z m-1006 -4545 c0 -8 -4 -13 -9 -10 -5 4 -12 0 -14 -6 -3 -7 -6
-3 -6 10 -1 13 5 22 14 22 8 0 15 -7 15 -16z m-36 -40 c3 -8 10 -12 16 -9 13
8 13 -5 0 -25 -8 -12 -10 -12 -11 5 l0 20 -10 -20 c-9 -19 -9 -18 -5 3 3 15
-1 22 -11 22 -8 0 -11 5 -8 10 9 15 22 12 29 -6z"/>
<path d="M9828 4423 c7 -3 16 -2 19 1 4 3 -2 6 -13 5 -11 0 -14 -3 -6 -6z"/>
<path d="M9408 4353 c12 -2 30 -2 40 0 9 3 -1 5 -23 4 -22 0 -30 -2 -17 -4z"/>
<path d="M213 4265 c0 -33 2 -45 4 -27 2 18 2 45 0 60 -2 15 -4 0 -4 -33z"/>
<path d="M963 4289 c0 -31 0 -31 14 -7 l14 23 -4 -22 c-3 -13 -1 -23 4 -23 12
0 11 31 -1 50 -9 13 -10 13 -10 0 0 -12 -2 -12 -8 -2 -6 8 -9 2 -9 -19z"/>
<path d="M232 4265 c0 -16 2 -22 5 -12 2 9 2 23 0 30 -3 6 -5 -1 -5 -18z"/>
<path d="M8970 4280 c-8 -5 -10 -10 -5 -10 6 0 17 5 25 10 8 5 11 10 5 10 -5
0 -17 -5 -25 -10z"/>
<path d="M965 4239 c-4 -5 -4 -13 -1 -16 3 -4 6 0 6 8 0 11 2 11 10 -1 6 -9
10 -10 10 -3 0 17 -17 25 -25 12z"/>
<path d="M8907 4189 c7 -7 15 -10 18 -7 3 3 -2 9 -12 12 -14 6 -15 5 -6 -5z"/>
<path d="M212 4140 c0 -14 2 -19 5 -12 2 6 2 18 0 25 -3 6 -5 1 -5 -13z"/>
<path d="M8985 4140 c-3 -5 -2 -10 4 -10 5 0 13 5 16 10 3 6 2 10 -4 10 -5 0
-13 -4 -16 -10z"/>
<path d="M788 4133 c7 -3 16 -2 19 1 4 3 -2 6 -13 5 -11 0 -14 -3 -6 -6z"/>
<path d="M770 4110 c-18 -12 -2 -12 25 0 13 6 15 9 5 9 -8 0 -22 -4 -30 -9z"/>
<path d="M9017 4109 c7 -7 15 -10 18 -7 3 3 -2 9 -12 12 -14 6 -15 5 -6 -5z"/>
<path d="M508 4063 c7 -3 16 -2 19 1 4 3 -2 6 -13 5 -11 0 -14 -3 -6 -6z"/>
<path d="M595 4050 c-13 -5 -14 -9 -5 -9 8 0 24 4 35 9 13 5 14 9 5 9 -8 0
-24 -4 -35 -9z"/>
<path d="M9100 4051 c0 -6 4 -13 10 -16 6 -3 7 1 4 9 -7 18 -14 21 -14 7z"/>
<path d="M530 4030 c-18 -12 -2 -12 25 0 13 6 15 9 5 9 -8 0 -22 -4 -30 -9z"/>
<path d="M333 3980 c14 -11 29 -20 33 -20 4 0 -3 9 -16 20 -13 11 -27 20 -33
20 -5 0 2 -9 16 -20z"/>
<path d="M9260 3916 c0 -2 8 -10 18 -17 15 -13 16 -12 3 4 -13 16 -21 21 -21
13z"/>
<path d="M9410 3836 c0 -2 7 -7 16 -10 8 -3 12 -2 9 4 -6 10 -25 14 -25 6z"/>
<path d="M9380 3806 c0 -2 8 -10 18 -17 15 -13 16 -12 3 4 -13 16 -21 21 -21
13z"/>
<path d="M9506 3737 c3 -10 9 -15 12 -12 3 3 0 11 -7 18 -10 9 -11 8 -5 -6z"/>
<path d="M9490 3686 c0 -2 8 -10 18 -17 15 -13 16 -12 3 4 -13 16 -21 21 -21
13z"/>
<path d="M3050 3641 c0 -6 4 -13 10 -16 6 -3 7 1 4 9 -7 18 -14 21 -14 7z"/>
<path d="M3010 3630 c-8 -5 -10 -10 -5 -10 6 0 17 5 25 10 8 5 11 10 5 10 -5
0 -17 -5 -25 -10z"/>
<path d="M2868 3393 c6 -2 18 -2 25 0 6 3 1 5 -13 5 -14 0 -19 -2 -12 -5z"/>
<path d="M2878 3373 c6 -2 18 -2 25 0 6 3 1 5 -13 5 -14 0 -19 -2 -12 -5z"/>
<path d="M9621 3344 c0 -11 3 -14 6 -6 3 7 2 16 -1 19 -3 4 -6 -2 -5 -13z"/>
<path d="M2668 3333 c7 -3 16 -2 19 1 4 3 -2 6 -13 5 -11 0 -14 -3 -6 -6z"/>
<path d="M2588 3313 c7 -3 16 -2 19 1 4 3 -2 6 -13 5 -11 0 -14 -3 -6 -6z"/>
<path d="M2508 3293 c7 -3 16 -2 19 1 4 3 -2 6 -13 5 -11 0 -14 -3 -6 -6z"/>
<path d="M2724 3180 c0 -13 4 -16 10 -10 7 7 7 13 0 20 -6 6 -10 3 -10 -10z"/>
<path d="M2190 3139 c-22 -18 -22 -19 -3 -10 12 6 25 16 28 21 9 15 3 12 -25
-11z"/>
<path d="M2114 3078 l-19 -23 25 20 c14 11 27 21 29 22 2 2 0 3 -6 3 -5 0 -18
-10 -29 -22z"/>
<path d="M2659 3033 c-13 -16 -12 -17 4 -4 16 13 21 21 13 21 -2 0 -10 -8 -17
-17z"/>
<path d="M2046 2903 c-6 -14 -5 -15 5 -6 7 7 10 15 7 18 -3 3 -9 -2 -12 -12z"/>
<path d="M930 2863 c0 -10 233 -166 325 -218 28 -16 51 -29 53 -30 1 -2 -3
-15 -10 -30 -12 -26 -15 -27 -63 -22 -27 4 -61 9 -75 13 -19 5 -22 4 -14 -5 6
-7 39 -18 73 -24 60 -11 61 -12 55 -39 -3 -15 0 -45 6 -65 33 -101 153 -150
237 -97 65 41 126 152 126 231 0 151 -172 214 -284 102 -21 -21 -41 -39 -44
-39 -3 0 -26 15 -52 34 -27 18 -102 64 -168 101 -66 38 -130 75 -142 83 -13 8
-23 10 -23 5z m610 -178 c63 -32 93 -114 66 -178 -34 -82 -96 -138 -154 -139
-62 -2 -91 13 -117 56 -82 140 69 331 205 261z"/>
<path d="M1362 2513 c-7 -12 -12 -30 -12 -40 1 -17 2 -17 17 2 14 17 15 18 9
2 -7 -21 18 -52 34 -42 5 3 10 1 10 -4 0 -14 43 -7 48 7 2 7 -8 17 -22 23 -14
7 -26 16 -26 20 0 4 -9 10 -19 14 -11 3 -21 14 -23 23 -3 14 -6 14 -16 -5z"/>
<path d="M1983 2833 c-3 -10 -8 -22 -11 -27 -3 -5 0 -6 5 -3 11 7 25 47 17 47
-3 0 -7 -8 -11 -17z"/>
<path d="M1891 2594 c0 -11 3 -14 6 -6 3 7 2 16 -1 19 -3 4 -6 -2 -5 -13z"/>
<path d="M2355 2490 c-15 -16 -33 -27 -38 -23 -6 4 -7 1 -2 -6 5 -9 17 -4 41
20 19 18 34 34 34 36 0 7 -8 1 -35 -27z"/>
<path d="M2250 2459 c0 -5 5 -7 10 -4 6 3 10 8 10 11 0 2 -4 4 -10 4 -5 0 -10
-5 -10 -11z"/>
<path d="M2289 2423 c-13 -16 -12 -17 4 -4 9 7 17 15 17 17 0 8 -8 3 -21 -13z"/>
<path d="M2249 2383 c-13 -16 -12 -17 4 -4 9 7 17 15 17 17 0 8 -8 3 -21 -13z"/>
<path d="M2126 2264 c-5 -14 -4 -15 9 -4 17 14 19 20 6 20 -5 0 -12 -7 -15
-16z"/>
<path d="M2050 2179 c0 -5 5 -7 10 -4 6 3 10 8 10 11 0 2 -4 4 -10 4 -5 0 -10
-5 -10 -11z"/>
<path d="M1956 2072 c-22 -27 -24 -32 -7 -17 20 17 47 55 39 55 -2 0 -16 -17
-32 -38z"/>
<path d="M1869 1973 l-24 -28 28 24 c25 23 32 31 24 31 -2 0 -14 -12 -28 -27z"/>
<path d="M1801 1898 c-14 -23 -14 -23 8 -4 22 20 25 26 13 26 -4 0 -13 -10
-21 -22z"/>
<path d="M1770 1899 c0 -5 5 -7 10 -4 6 3 10 8 10 11 0 2 -4 4 -10 4 -5 0 -10
-5 -10 -11z"/>
<path d="M1390 1875 c-7 -9 -11 -17 -9 -20 3 -2 10 5 17 15 14 24 10 26 -8 5z"/>
<path d="M1711 1796 l-24 -31 28 27 c16 15 27 29 24 31 -2 3 -15 -10 -28 -27z"/>
<path d="M1266 1692 c-3 -5 1 -9 9 -9 8 0 12 4 9 9 -3 4 -7 8 -9 8 -2 0 -6 -4
-9 -8z"/>
<path d="M1596 1681 c-4 -5 -2 -12 3 -15 5 -4 12 -2 15 3 4 5 2 12 -3 15 -5 4
-12 2 -15 -3z"/>
<path d="M1539 1593 c-13 -16 -12 -17 4 -4 9 7 17 15 17 17 0 8 -8 3 -21 -13z"/>
<path d="M1459 1503 c-13 -16 -12 -17 4 -4 9 7 17 15 17 17 0 8 -8 3 -21 -13z"/>
</g>
</svg>
