<svg xmlns="http://www.w3.org/2000/svg" width="16" height="16" fill="#fff" aria-label="Coil">
  <path fill="#fff" d="M14.96 13.04c0 1.46-3.46 2.96-5.84 2.96a8.1 8.1 0 01-7.08-4.08c-.67-1.17-1-2.5-1-3.84 0-1.54.46-3.08 1.33-4.41A8.1 8.1 0 016.71.46C7.29.25 8.33 0 9.5 0c3.3 0 5.37 2.3 5.37 4.3 0 1.37-1.12 3.33-3.87 3.33-1.25 0-1.7-.55-1.7-1.13 0-.83.74-1.75 1.32-1.75.25 0 .38.25.84.17.46-.09.66-.38.66-.71 0-.71-.83-1.63-2.58-1.63-.58 0-1.2.09-2 .34A5.1 5.1 0 004.67 5.2a5.3 5.3 0 00-.25 5.42 5.34 5.34 0 004.7 2.66c2.71 0 3.46-1.46 4-1.66.96-.42 1.84.74 1.84 1.41z"/>
</svg>
