<svg xmlns="http://www.w3.org/2000/svg" viewBox="0 0 2750 2750">
  <path d="M915.4 2309.2a395.5 395.5 0 01-395.1-395 395.6 395.6 0 01395-395.2H1049l-257.3-142.6A526.5 526.5 0 01520.4 916a489 489 0 01488.4-488.4H1826a395.5 395.5 0 01395 395.1 395.6 395.6 0 01-395 395.1h-133.5l257.3 142.6a526.5 526.5 0 01271.2 460.4 489 489 0 01-488.4 488.4zm0-623.8c-63.1 0-122 25.3-165.6 71.2a227 227 0 00-62.8 169.1c6 121.8 109.6 217.2 235.8 217.2h801c89.3 0 176.4-36.8 239-101a316.2 316.2 0 0091.8-229.5c-3-127.3-74-244.7-185.4-306.4l-415.3-230v332.4a77.2 77.2 0 01-77.1 77.1H915.4zm102-1091.4a336.1 336.1 0 00-239 101 316.2 316.2 0 00-91.6 229.5c3 127.3 74 244.7 185.4 306.4l415.3 230.1v-332.4a77.2 77.2 0 0177-77l461.5-.2c63 0 122-25.3 165.6-71.2a227 227 0 0062.8-169c-6-121.9-109.6-217.3-235.8-217.3h-801.1z" class="st0"/>
  <path d="M1826 453.6a369.5 369.5 0 01369 369.1 369.5 369.5 0 01-369 369.1h-234.1l345.3 191.3a500.5 500.5 0 01257.8 437.7c0 255-207.4 462.4-462.4 462.4H915.4a369.5 369.5 0 01-369.1-369 369.5 369.5 0 01369-369.2h234.2l-345.3-191.3A500.5 500.5 0 01546.4 916c0-255 207.4-462.4 462.4-462.4H1826m-512.5 1051.5v-376.6a51 51 0 0151-51l461.5-.2a255 255 0 00254.4-267.6c-6.8-136.8-124.8-241.9-261.8-241.9h-801.1C821 567.8 656.2 728.6 660.8 925a386.2 386.2 0 00198.8 328.5l453.9 251.7m-390.7 663.7h801c196.5 0 361.4-160.8 356.8-357a386.2 386.2 0 00-198.8-328.6l-454-251.5v376.6a51.1 51.1 0 01-51 51.1H915.4A255 255 0 00661 1927c6.8 136.8 124.8 241.8 261.8 241.8M1826 401.6h-817.3A515 515 0 00494.3 916a552.7 552.7 0 00284.6 483.1l169.4 94h-33a421.6 421.6 0 00-421 421 421.6 421.6 0 00421 421.1h817.4a515 515 0 00514.4-514.4 552.7 552.7 0 00-284.6-483l-169.4-94h32.9a421.6 421.6 0 00421-421 421.6 421.6 0 00-421-421.2zM1261.5 1417l-376.7-208.8a335.4 335.4 0 01-172-284.3A290.2 290.2 0 01797 713.1a310.1 310.1 0 01220.4-93.2h801c112.5 0 204.6 84.5 210 192.4 2.8 56-17 109.3-55.7 150a200.9 200.9 0 01-146.8 63l-461.4.1c-27.6 0-53.4 10.7-73 30.2a102.5 102.5 0 00-30 72.8zm-338.7 700c-112.4 0-204.5-84.6-210-192.5-2.7-56 17-109.3 55.8-149.9a200.9 200.9 0 01146.8-63h461.4c56.9 0 103-46.4 103-103.2V1320l376.8 208.7a335.4 335.4 0 01172 284.3 290.2 290.2 0 01-84.3 210.7 310.1 310.1 0 01-220.4 93.2z" class="st0"/>
</svg>
