<?xml version="1.0" encoding="UTF-8" standalone="no"?>
<svg
   width="24"
   height="24"
   version="1.1"
   id="svg14"
   sodipodi:docname="_archives.svg"
   inkscape:version="1.3.2 (091e20ef0f, 2023-11-25)"
   xmlns:inkscape="http://www.inkscape.org/namespaces/inkscape"
   xmlns:sodipodi="http://sodipodi.sourceforge.net/DTD/sodipodi-0.dtd"
   xmlns="http://www.w3.org/2000/svg"
   xmlns:svg="http://www.w3.org/2000/svg">
  <sodipodi:namedview
     id="namedview14"
     pagecolor="#505050"
     bordercolor="#eeeeee"
     borderopacity="1"
     inkscape:showpageshadow="0"
     inkscape:pageopacity="0"
     inkscape:pagecheckerboard="0"
     inkscape:deskcolor="#505050"
     inkscape:zoom="16.770833"
     inkscape:cx="17.440994"
     inkscape:cy="13.207453"
     inkscape:window-width="1920"
     inkscape:window-height="1011"
     inkscape:window-x="0"
     inkscape:window-y="0"
     inkscape:window-maximized="1"
     inkscape:current-layer="svg14" />
  <defs
     id="defs9">
    <linearGradient
       id="a"
       x1="8"
       x2="120"
       y1="124"
       y2="124"
       gradientTransform="matrix(.21429 0 0 .21429 -1.714 -3.429)"
       gradientUnits="userSpaceOnUse">
      <stop
         offset="0"
         stop-color="#e5a50a"
         id="stop1" />
      <stop
         offset=".036"
         stop-color="#f6d32d"
         id="stop2" />
      <stop
         offset=".071"
         stop-color="#e5a50a"
         id="stop3" />
      <stop
         offset=".929"
         stop-color="#e5a50a"
         id="stop4" />
      <stop
         offset=".964"
         stop-color="#f6d32d"
         id="stop5" />
      <stop
         offset="1"
         stop-color="#e5a50a"
         id="stop6" />
    </linearGradient>
    <linearGradient
       id="b"
       x1="46"
       x2="82"
       y1="71.4"
       y2="71.4"
       gradientTransform="matrix(.21429 0 0 .21429 -1.714 -3.429)"
       gradientUnits="userSpaceOnUse">
      <stop
         offset="0"
         stop-color="#1f8455"
         id="stop7" />
      <stop
         offset=".5"
         stop-color="#26a269"
         id="stop8" />
      <stop
         offset="1"
         stop-color="#1f8455"
         stop-opacity=".976"
         id="stop9" />
    </linearGradient>
    <linearGradient
       id="a-3"
       gradientTransform="matrix(0.211538,0,0,0.25,43.846146,53)"
       gradientUnits="userSpaceOnUse"
       x1="48"
       x2="464"
       y1="44"
       y2="44">
      <stop
         offset="0"
         stop-color="#986a44"
         id="stop1-6" />
      <stop
         offset="0.0454547"
         stop-color="#cdab8f"
         id="stop2-7" />
      <stop
         offset="0.0909092"
         stop-color="#b5835a"
         id="stop3-5" />
      <stop
         offset="0.909091"
         stop-color="#b5835a"
         id="stop4-3" />
      <stop
         offset="0.954546"
         stop-color="#cdab8f"
         id="stop5-5" />
      <stop
         offset="1"
         stop-color="#986a44"
         id="stop6-6" />
    </linearGradient>
    <linearGradient
       id="b-2"
       gradientUnits="userSpaceOnUse"
       x1="17.27986"
       x2="110.72014"
       y1="47.100357"
       y2="47.100357"
       gradientTransform="translate(34)">
      <stop
         offset="0"
         stop-color="#be915f"
         id="stop7-9" />
      <stop
         offset="0.0451508"
         stop-color="#cdab8f"
         id="stop8-1" />
      <stop
         offset="0.09"
         stop-color="#bd9573"
         id="stop9-2" />
      <stop
         offset="0.91"
         stop-color="#bd9573"
         id="stop10" />
      <stop
         offset="0.95"
         stop-color="#cdab8f"
         id="stop11" />
      <stop
         offset="1"
         stop-color="#be915f"
         id="stop12" />
    </linearGradient>
  </defs>
  <g
     id="g15"
     transform="matrix(0.24755228,0,0,0.24755228,-12.260123,-4.7160644)">
    <path
       d="m 62,22 h 72 c 4.41797,0 8,3.582031 8,8 v 78 c 0,4.41797 -3.58203,8 -8,8 H 62 c -4.417969,0 -8,-3.58203 -8,-8 V 30 c 0,-4.417969 3.582031,-8 8,-8 z m 0,0"
       fill="url(#a)"
       id="path12-7"
       style="fill:url(#a-3)" />
    <path
       d="m 59.773438,19.492188 h 76.453122 c 4.69141,0 8.49219,3.804687 8.49219,8.496093 v 38.226563 c 0,4.691406 -3.80078,8.492187 -8.49219,8.492187 H 59.773438 c -4.691407,0 -8.492188,-3.800781 -8.492188,-8.492187 V 27.988281 c 0,-4.691406 3.800781,-8.496093 8.492188,-8.496093 z m 0,0"
       fill="url(#b)"
       id="path13-0"
       style="fill:url(#b-2)" />
    <path
       d="m 59.773438,19.050781 h 76.453122 c 4.69141,0 8.49219,3.214844 8.49219,7.179688 V 58.53125 c 0,3.964844 -3.80078,7.179688 -8.49219,7.179688 H 59.773438 c -4.691407,0 -8.492188,-3.214844 -8.492188,-7.179688 V 26.230469 c 0,-3.964844 3.800781,-7.179688 8.492188,-7.179688 z m 0,0"
       fill="#cdab8f"
       id="path14-9" />
    <path
       d="m 108.56641,80.949219 c 0,1.890625 -1.53516,3.421875 -3.42188,3.421875 H 90.855469 c -1.886719,0 -3.421875,-1.53125 -3.421875,-3.421875 0,-1.890625 1.535156,-3.421875 3.421875,-3.421875 h 14.289061 c 1.88672,0 3.42188,1.53125 3.42188,3.421875 z m 0,0"
       id="path15" />
  </g>
</svg>
