<svg xmlns="http://www.w3.org/2000/svg" width="24" height="24" version="1.0"><path fill="#044ac3" d="M11.688 23.185c-.634-.048-1.088-.128-1.5-.263l-.132-.044v-.665l-.164-.085c-.487-.248-1.207-.73-1.483-.992l-.122-.113v.031c0 .047.118.373.177.49a.76.76 0 0 1 .055.123v.015h-.07l-.22-.118a4.856 4.856 0 0 1-.414-.247l-.191-.13-.192-.19a3.293 3.293 0 0 1-.257-.28l-.065-.092-.01.05c-.01.04-.018.173-.043.649l-.002.052-.044.007-.046.006-.013-.07c-.015-.084-.145-.364-.18-.385l-.022-.012.01-.022.013-.018-.198-.196-.198-.198-.179-.118-.177-.12-.2-.093-.198-.095-.274-.086c-.375-.12-.478-.16-.674-.265l-.168-.089-.169-.126-.17-.127-.202-.212-.203-.21-.128-.195a4.038 4.038 0 0 1-.6-1.62 7.494 7.494 0 0 1-.076-.867v-.14l-.04-.024-.042-.021-.249-.021a6.815 6.815 0 0 0-.396-.021h-.147l.39-.394c.214-.22.423-.432.46-.474l.072-.078.026-.301.025-.301-.015-.03-.017-.03-.033.064c-.057.112-.287.39-.474.573-.25.242-.525.459-.906.714l-.324.217-.042-.007-.042-.006-.009-.137a10.801 10.801 0 0 1-.008-.446v-.31l-.05-.09a1.148 1.148 0 0 0-.268-.308c-.032-.019-.14-.093-.242-.16l-.186-.124-.168-.078a7.623 7.623 0 0 0-.221-.101L0 14.21l.105-.047.369-.158c.145-.06.368-.155.495-.21l.446-.185.217-.089v-.055l-.088-.038a2.259 2.259 0 0 0-.242-.075c-.085-.02-.154-.043-.152-.051a.97.97 0 0 1 .152-.12c.084-.061.29-.23.463-.375l.31-.267v-.101l-.022-.013-.02-.013v-.183l.065-.145.065-.143.04-.156.04-.156v-.207l-.023-.046a.475.475 0 0 0-.061-.088l-.036-.042-.025-.2c-.015-.11-.06-.377-.1-.592l-.071-.394v-.17l.099-.018.101-.016h.821l.169.048.166.048.122.066.123.065.117.118c.066.065.131.143.148.177l.032.057.082-.013.082-.013.07.043.069.044.059.076c.031.04.067.073.08.073a.58.58 0 0 0 .137-.099l.113-.099v-.023a.56.56 0 0 0-.103-.132l-.103-.11-.158-.238c-.32-.48-.533-.91-.788-1.584-.103-.278-.282-.859-.32-1.046l-.025-.118-.067-.032a11.625 11.625 0 0 0-.373-.151c-.261-.106-.537-.228-.567-.255-.004-.005.08-.101.19-.213.11-.114.278-.3.373-.413l.172-.206V5.88c0-.025-.014-.151-.031-.282-.017-.13-.05-.457-.076-.726l-.042-.491-.013-.81-.012-.812.025-.495c.025-.497.074-1.196.097-1.362l.012-.09h.082l.628.593.63.596.113.04c.407.14 1.216.529 1.757.843.785.459 1.643 1.086 2.27 1.661l.18.165.11-.068c.654-.383 1.618-.722 2.484-.87l.305-.052.301-.026.3-.025.5.013.5.01.242.034c.556.08 1.101.223 1.611.428l.295.118.284.143c.156.078.333.17.39.206l.105.061.042-.038c.18-.164.914-.659 1.422-.956l.347-.204.474-.238a13.746 13.746 0 0 1 2.218-.897l.27-.085.225-.143c.648-.412.973-.615.991-.615h.024l.01.049c.023.103.097.699.129 1.025l.031.348.013.726.013.727-.026.421c-.027.478-.065.851-.13 1.268l-.042.286.13.133.133.133-.042.046a1.674 1.674 0 0 1-.19.158l-.15.112-.075.3c-.042.167-.124.454-.183.637l-.11.333-.137.328a7.744 7.744 0 0 1-1.112 1.91 2.77 2.77 0 0 1-.198.23l-.044.04v.076l.023.012.021.015.053-.048.053-.05h.225l.225-.003.015-.13.015-.133.059-.082c.033-.045.107-.12.164-.167l.101-.084.118-.042.118-.044.168-.024.169-.023.179.015c.099.006.255.027.347.044l.169.032.046.031.046.03.026.088.023.09-.015.148a3.473 3.473 0 0 1-.15.689l-.05.152-.055.078-.052.077-.002.108v.107l.065.116.065.116.034.143.034.141-.003.19v.19l-.02.111a1.65 1.65 0 0 1-.079.248l-.054.137.054.08.057.08.089.064c.111.08.385.217.558.28l.13.048-.023.028a.819.819 0 0 1-.177.09l-.153.065-.144.021c-.08.011-.191.028-.248.034l-.105.013-.07.07-.07.069v.196l.034.067c.021.038.108.16.196.276l.158.208.181.156.18.156.214.143.215.143.333.169c.183.093.41.2.505.238l.175.067-.01.017a.165.165 0 0 1-.068.032 4.9 4.9 0 0 0-.674.297l-.215.113-.082.097-.082.097-.065.129a7.414 7.414 0 0 0-.236.55c0 .006-.02.063-.044.128l-.043.116h-.11l-.081-.087c-.234-.246-.493-.657-.79-1.261a18.681 18.681 0 0 0-.21-.42c-.02-.025-.03.034-.049.253-.01.133-.032.306-.044.384l-.023.143.025.099c.013.055.053.16.088.236.137.29.163.35.177.406l.013.057h-.04a1.09 1.09 0 0 1-.207-.074 1.334 1.334 0 0 0-.193-.073h-.023l-.038.11a4.7 4.7 0 0 1-.348.753l-.128.225-.162.22c-.352.471-.803.899-1.308 1.24-.1.067-.2.143-.226.17a1.649 1.649 0 0 0-.206.41l-.038.104-.008.264-.009.263.04.147.057.196.015.046h-.133l-.059-.031-.059-.03-.12-.132-.118-.133-.057-.143-.054-.143-.03.01a3.353 3.353 0 0 0-.191.124c-.403.28-.898.559-1.142.636-.25.08-.577.283-.703.432-.03.036-.061.063-.074.063h-.023v-.059c0-.031.015-.113.031-.183l.034-.122-.019-.019-.019-.019-.678.274c-.373.152-.74.303-.813.337l-.137.063-.008.027a3.515 3.515 0 0 0-.023.358l-.015.331-.1.032a7.6 7.6 0 0 1-1.265.254l-.26.032-.414.008a9.92 9.92 0 0 1-.516 0z"/><path fill="#396baf" d="M11.688 23.185c-.634-.048-1.088-.128-1.5-.263l-.132-.044v-.665l-.164-.085c-.487-.248-1.207-.73-1.483-.992l-.122-.113v.031c0 .047.118.373.177.49a.76.76 0 0 1 .055.123v.015h-.07l-.22-.118a4.856 4.856 0 0 1-.414-.247l-.191-.13-.192-.19a3.293 3.293 0 0 1-.257-.28l-.065-.092-.01.05c-.01.04-.018.173-.043.649l-.002.052-.044.007-.046.006-.013-.07c-.015-.084-.145-.364-.18-.385l-.022-.012.01-.022.013-.018-.198-.196-.198-.198-.179-.118-.177-.12-.2-.093-.198-.095-.274-.086c-.375-.12-.478-.16-.674-.265l-.168-.089-.169-.126-.17-.127-.202-.212-.203-.21-.128-.195a4.038 4.038 0 0 1-.6-1.62 7.494 7.494 0 0 1-.076-.867v-.14l-.04-.024-.042-.021-.249-.021a6.815 6.815 0 0 0-.396-.021h-.147l.39-.394c.214-.22.423-.432.46-.474l.072-.078.026-.301.025-.301-.015-.03-.017-.03-.033.064c-.057.112-.287.39-.474.573-.25.242-.525.459-.906.714l-.324.217-.044-.007-.045-.006.005-.042a2.836 2.836 0 0 0-.015-.257l-.017-.215.01-.124.011-.124.1-.026c.222-.059.58-.225.867-.402.234-.145.554-.392.596-.459l.015-.025h-.089l.015.023.015.023-.072-.015c-.04-.008-.078-.025-.084-.035l-.013-.021-.164.12c-.297.22-1.093.705-1.156.705h-.028l-.055-.099a1.094 1.094 0 0 0-.139-.194l-.084-.094.341-.184c.188-.1.398-.214.468-.254l.126-.072-.004-.061a.342.342 0 0 0-.015-.086l-.01-.028-.217.118a8.369 8.369 0 0 0-.704.421l-.065.049H.775l-.166-.11a3.807 3.807 0 0 0-.556-.286L0 14.21l.105-.047.369-.158c.145-.06.368-.155.495-.21l.446-.185.217-.089v-.055l-.088-.038a2.259 2.259 0 0 0-.242-.075c-.085-.02-.154-.043-.152-.051a.97.97 0 0 1 .152-.12c.084-.061.29-.23.463-.375l.31-.267v-.101l-.022-.013-.02-.013v-.183l.065-.145.065-.143.04-.156.04-.156v-.207l-.023-.046a.475.475 0 0 0-.061-.088l-.036-.042-.025-.2c-.015-.11-.06-.377-.1-.592l-.071-.394v-.17l.099-.018.101-.016h.821l.169.048.166.048.122.066.123.065.117.118c.066.065.131.143.148.177l.032.057.082-.013.082-.013.07.043.069.044.059.076c.031.04.067.073.08.073a.58.58 0 0 0 .137-.099l.113-.099v-.023a.56.56 0 0 0-.103-.132l-.103-.11-.158-.238c-.32-.48-.533-.91-.788-1.584-.103-.278-.282-.859-.32-1.046l-.025-.118-.067-.032a11.625 11.625 0 0 0-.373-.151c-.261-.106-.537-.228-.567-.255-.004-.005.08-.101.19-.213.11-.114.278-.3.373-.413l.172-.206V5.88c0-.025-.014-.151-.031-.282-.017-.13-.05-.457-.076-.726l-.042-.491-.013-.81-.012-.812.025-.495c.025-.497.074-1.196.097-1.362l.012-.09h.082l.628.593.63.596.113.04c.407.14 1.216.529 1.757.843.785.459 1.643 1.086 2.27 1.661l.18.165.11-.068c.654-.383 1.618-.722 2.484-.87l.305-.052.301-.026.3-.025.5.013.5.01.242.034c.556.08 1.101.223 1.611.428l.295.118.284.143c.156.078.333.17.39.206l.105.061.042-.038c.18-.164.914-.659 1.422-.956l.347-.204.474-.238a13.746 13.746 0 0 1 2.218-.897l.27-.085.225-.143c.648-.412.973-.615.991-.615h.024l.01.049c.023.103.097.699.129 1.025l.031.348.013.726.013.727-.026.421c-.027.478-.065.851-.13 1.268l-.042.286.13.133.133.133-.042.046a1.674 1.674 0 0 1-.19.158l-.15.112-.075.3c-.042.167-.124.454-.183.637l-.11.333-.137.328a7.744 7.744 0 0 1-1.112 1.91 2.77 2.77 0 0 1-.198.23l-.044.04v.076l.023.012.021.015.053-.048.053-.05h.225l.225-.003.015-.13.015-.133.059-.082c.033-.045.107-.12.164-.167l.101-.084.118-.042.118-.044.168-.024.169-.023.179.015c.099.006.255.027.347.044l.169.032.046.031.046.03.026.088.023.09-.015.148a3.473 3.473 0 0 1-.15.689l-.05.152-.055.078-.052.077-.002.108v.107l.065.116.065.116.034.143.034.141-.003.19v.19l-.02.111a1.65 1.65 0 0 1-.079.248l-.054.137.054.08.057.08.089.064c.111.08.385.217.558.28l.13.048-.023.028a.819.819 0 0 1-.177.09l-.153.065-.144.021c-.08.011-.191.028-.248.034l-.105.013-.07.07-.07.069v.196l.034.067c.021.038.108.16.196.276l.158.208.181.156.18.156.214.143.215.143.333.169c.183.093.41.2.507.238l.175.07-.017.014a.429.429 0 0 1-.1.042c-.047.015-.199.08-.338.144a2.934 2.934 0 0 1-.305.124l-.053.008-.084-.1a64.905 64.905 0 0 0-1.112-1.24l-.16-.168-.002.028c0 .012.017.042.038.063a.228.228 0 0 1 .042.067c.023.101.556.78.968 1.23l.192.21-.095.106a.986.986 0 0 0-.126.164l-.032.06h-.054l-.156-.135c-.244-.211-.436-.417-.731-.786-.29-.366-.594-.798-.773-1.106l-.11-.187-.012.031-.013.034.07.207c.04.111.082.23.095.263l.023.057h.04l.151.206c.323.436.68.85 1.11 1.293l.28.287-.084.202a2.618 2.618 0 0 0-.13.339l-.043.116h-.11l-.081-.087c-.234-.246-.493-.657-.79-1.261a18.681 18.681 0 0 0-.21-.42c-.02-.025-.03.034-.049.253-.01.133-.032.306-.044.384l-.023.143.025.099c.013.055.053.16.088.236.137.29.163.35.177.406l.013.057h-.04a1.09 1.09 0 0 1-.207-.074 1.334 1.334 0 0 0-.193-.073h-.023l-.038.11a4.7 4.7 0 0 1-.348.753l-.128.225-.162.22c-.352.471-.803.899-1.308 1.24-.1.067-.2.143-.226.17a1.649 1.649 0 0 0-.206.41l-.038.104-.008.264-.009.263.04.147.057.196.015.046h-.133l-.059-.031-.059-.03-.12-.132-.118-.133-.057-.143-.054-.143-.03.01a3.353 3.353 0 0 0-.191.124c-.403.28-.898.559-1.142.636-.25.08-.577.283-.703.432-.03.036-.061.063-.074.063h-.023v-.059c0-.031.015-.113.031-.183l.034-.122-.019-.019-.019-.019-.678.274c-.373.152-.74.303-.813.337l-.137.063-.008.027a3.515 3.515 0 0 0-.023.358l-.015.331-.1.032a7.6 7.6 0 0 1-1.265.254l-.26.032-.414.008a9.92 9.92 0 0 1-.516 0zm8.393-6.189-.042-.213a8 8 0 0 1-.087-.535l-.042-.326-.01-.337a6.932 6.932 0 0 0-.021-.409l-.013-.071-.084.084-.085.086.003.238c.002.133.012.331.025.44.025.234.126.748.187.952l.044.142.062-.024c.035-.01.063-.023.063-.027zm.526-.564c-.073-.3-.215-.971-.28-1.331l-.048-.274-.04-.009-.038-.006.015.133c.006.073.054.343.107.6l.095.465.086.304c.048.166.095.32.107.34l.02.039.016-.01.017-.013zm-16.79-.188a6.24 6.24 0 0 0 .205-.375l.097-.2.076-.236.076-.236-.017-.037a.475.475 0 0 1-.02-.049.475.475 0 0 0-.022-.048l-.017-.038-.11.29c-.113.3-.218.544-.362.84l-.082.171.021.047c.01.023.026.044.032.044a.953.953 0 0 0 .122-.173zm-.264-.754c.347-.703.396-.809.396-.855a.588.588 0 0 0-.076-.151l-.078-.118-.152.44c-.227.663-.377 1.03-.49 1.198l-.074.11-.015.023.087-.002.086-.003z"/><path fill="#a28072" d="M11.688 23.185c-.634-.048-1.088-.128-1.5-.263l-.132-.044v-.665l-.164-.085c-.487-.248-1.207-.73-1.483-.992l-.122-.113v.031c0 .047.118.373.177.49a.76.76 0 0 1 .055.123v.015h-.07l-.22-.118a4.856 4.856 0 0 1-.414-.247l-.191-.13-.192-.19a3.293 3.293 0 0 1-.257-.28l-.065-.092-.01.05c-.01.04-.018.173-.043.649l-.002.052-.044.007-.046.006-.013-.07c-.015-.084-.145-.364-.18-.385l-.022-.012.01-.022.013-.018-.198-.196-.198-.198-.179-.118-.177-.12-.2-.093-.198-.095-.274-.086c-.375-.12-.478-.16-.674-.265l-.168-.089-.169-.126-.17-.127-.202-.212-.203-.21-.128-.195a4.038 4.038 0 0 1-.6-1.62 7.5 7.5 0 0 1-.076-.865v-.14l.135.01.137.012.32-.65c.351-.719.398-.818.398-.866v-.034l-.13-.196-.13-.195-.121.183a6.31 6.31 0 0 1-.289.385 3.366 3.366 0 0 0-.192.247l-.025.046H3.01l.017-.194c.009-.107.02-.257.021-.333l.005-.136.027-.07.027-.07-.046.013a4.912 4.912 0 0 1-.267.032l-.22.023-.014-.023-.015-.025-.164.12c-.297.22-1.093.705-1.156.705h-.028l-.055-.099a1.094 1.094 0 0 0-.139-.194l-.084-.094.173-.093c.385-.204.752-.409.762-.423l.009-.017-.063-.303-.064-.304-.067-.065-.067-.067-.074-.03a1.805 1.805 0 0 0-.225-.067c-.085-.021-.154-.045-.152-.053a.97.97 0 0 1 .152-.12c.084-.061.29-.23.463-.375l.31-.267v-.101l-.022-.013-.02-.013v-.183l.065-.145.065-.143.04-.156.04-.156v-.207l-.023-.046a.475.475 0 0 0-.061-.088l-.036-.042-.025-.2c-.015-.11-.06-.377-.1-.592l-.071-.394v-.17l.099-.018.101-.016h.821l.169.048.166.048.122.066.123.065.117.118c.066.065.131.143.148.177l.032.057.082-.013.082-.013.07.043.069.044.059.076c.031.04.067.073.08.073a.58.58 0 0 0 .137-.099l.113-.099v-.023a.56.56 0 0 0-.103-.132l-.103-.11-.158-.238c-.32-.48-.533-.91-.788-1.584-.103-.278-.282-.859-.32-1.046l-.025-.118-.067-.032a11.625 11.625 0 0 0-.373-.151c-.261-.106-.537-.228-.567-.255-.004-.005.08-.101.19-.213.11-.114.278-.3.373-.413l.172-.206V5.88c0-.025-.014-.151-.031-.282-.017-.13-.05-.457-.076-.726l-.042-.491-.013-.81-.012-.812.025-.495c.025-.497.074-1.196.097-1.362l.012-.09h.082l.628.593.63.596.113.04c.407.14 1.216.529 1.757.843.785.459 1.643 1.086 2.27 1.661l.18.165.11-.068c.654-.383 1.618-.722 2.484-.87l.305-.052.301-.026.3-.025.5.013.5.01.242.034c.556.08 1.101.223 1.611.428l.295.118.284.143c.156.078.333.17.39.206l.105.061.042-.038c.18-.164.914-.659 1.422-.956l.347-.204.474-.238a13.746 13.746 0 0 1 2.218-.897l.27-.085.225-.143c.648-.412.973-.615.991-.615h.024l.01.049c.023.103.097.699.129 1.025l.031.348.013.726.013.727-.026.421c-.027.478-.065.851-.13 1.268l-.042.286.13.133.133.133-.042.046a1.674 1.674 0 0 1-.19.158l-.15.112-.075.3c-.042.167-.124.454-.183.637l-.11.333-.137.328a7.744 7.744 0 0 1-1.112 1.91 2.77 2.77 0 0 1-.198.23l-.044.04v.076l.023.012.021.015.053-.048.053-.05h.225l.225-.003.015-.13.015-.133.059-.082c.033-.045.107-.12.164-.167l.101-.084.118-.042.118-.044.168-.024.169-.023.179.015c.099.006.255.027.347.044l.169.032.046.031.046.03.026.088.023.09-.015.148a3.473 3.473 0 0 1-.15.689l-.05.152-.055.078-.052.077-.002.108v.107l.065.116.065.116.034.143.034.141-.003.19v.19l-.02.111a1.65 1.65 0 0 1-.079.248l-.054.137.054.08.057.08.089.064c.111.08.385.217.558.28l.13.048-.023.028a.819.819 0 0 1-.177.09l-.153.065-.144.021c-.08.011-.191.028-.248.034l-.105.013-.07.07-.07.069v.196l.024.042.02.042-.033.175-.034.172.131.2c.242.365.577.786.962 1.207l.192.21-.095.106a.986.986 0 0 0-.126.164l-.032.06h-.054l-.156-.135c-.244-.211-.436-.417-.735-.792l-.278-.348-.238-.358-.238-.358-.108-.2a1.092 1.092 0 0 0-.107-.181c0 .027.11.366.198.61a4.5 4.5 0 0 1 .076.215c0 .005-.023.02-.05.034l-.051.028.111.256.112.255-.019.02-.019.018-.021.242c-.01.133-.032.304-.044.384l-.023.14h-.06v-.027c0-.014-.056-.198-.124-.406l-.126-.377-.059-.284-.057-.285-.082-.11a.841.841 0 0 0-.133-.142l-.048-.032h-.152l-.065.034-.065.033.015.129c.018.181.168.924.244 1.21.036.131.107.37.16.527l.097.289.027.023a.583.583 0 0 0 .148.049l.117.027-.014.044a4.61 4.61 0 0 1-1.13 1.803l-.237.238-.204.166c-.114.09-.291.221-.392.29a1.926 1.926 0 0 0-.23.174 1.649 1.649 0 0 0-.206.408l-.038.105-.008.264-.009.263.04.147.057.196.015.046h-.133l-.059-.031-.059-.03-.12-.132-.118-.133-.057-.143-.054-.143-.03.01a3.353 3.353 0 0 0-.191.124c-.403.28-.898.559-1.142.636-.25.08-.577.283-.703.432-.03.036-.061.063-.074.063h-.023v-.059c0-.031.015-.113.031-.183l.034-.122-.019-.019-.019-.019-.678.274c-.373.152-.74.303-.813.337l-.137.063-.008.027a3.515 3.515 0 0 0-.023.358l-.015.331-.1.032a7.6 7.6 0 0 1-1.265.254l-.26.032-.414.008a9.92 9.92 0 0 1-.516 0zm7.807-5.587.162-.246.127-.14.126-.136.08-.038.087-.042a2.644 2.644 0 0 0-.038-.213 9.334 9.334 0 0 1-.087-.535l-.042-.326-.013-.369a4.376 4.376 0 0 0-.025-.406l-.015-.038-.164.17-.166.171-.028-.01-.025-.01.009-.08c.006-.045.046-.466.092-.94l.082-.857.015-.028c.028-.046-.01-.004-.06.072l-.051.074-.076.284a10.67 10.67 0 0 0-.3 1.64l-.033.306-.013.642-.012.645.025.387c.015.215.032.413.038.44l.013.05.065-.11a12.4 12.4 0 0 1 .227-.357zm-15.157-.655c.097-.335.188-.785.243-1.2l.042-.327.025-.505.025-.508-.02-.48-.022-.48-.031-.017-.03-.019-.006.078c-.002.042-.02.226-.038.405l-.034.326-.05.284c-.03.156-.072.358-.095.449l-.044.162h-.06l-.025-.04-.025-.04-.11.286c-.111.3-.216.542-.362.843l-.084.175.162.257c.09.14.223.35.297.463l.133.208.017-.03c.008-.014.05-.144.092-.29z"/><path fill="#c6ac9e" d="M11.688 23.185c-.634-.048-1.088-.128-1.5-.263l-.132-.044v-.668l-.02-.012-.022-.013v-.215c0-.198-.023-.492-.055-.699l-.012-.084-.234-.158a7.91 7.91 0 0 1-.878-.687l-.234-.208-.19-.21a6.319 6.319 0 0 1-.34-.416l-.152-.206-.007.021-.008.021.06.133c.032.071.115.242.18.379.067.137.122.259.122.272v.02l-.13-.014a2.08 2.08 0 0 1-.26-.046l-.126-.03-.19-.09-.189-.091-.179-.133-.179-.132-.177-.182a3.528 3.528 0 0 1-.24-.27l-.063-.088-.015.009a.24.24 0 0 0-.03.09l-.012.083-.065.088-.064.09.125.34c.15.4.299.912.299 1.013v.033h-.057l-.173-.168-.172-.169-.175-.115-.173-.116-.2-.093-.198-.095-.274-.086c-.375-.12-.478-.16-.674-.265l-.168-.089-.169-.126-.17-.127-.202-.212-.203-.21-.128-.195a4.038 4.038 0 0 1-.6-1.62 7.5 7.5 0 0 1-.076-.865v-.14l.135.01.137.012.32-.65c.351-.719.398-.818.398-.866v-.034l-.13-.196-.13-.195-.121.183a6.31 6.31 0 0 1-.289.385 3.366 3.366 0 0 0-.192.247l-.025.046H3.01l.017-.194c.009-.107.02-.257.021-.333l.005-.136.027-.07.027-.07-.046.013a4.912 4.912 0 0 1-.267.032l-.22.023-.014-.023-.015-.025-.164.12c-.297.22-1.093.705-1.156.705h-.028l-.055-.099a1.094 1.094 0 0 0-.139-.194l-.084-.094.173-.093c.385-.204.752-.409.762-.423l.009-.017-.063-.303-.064-.304-.067-.065-.067-.067-.074-.03a1.805 1.805 0 0 0-.225-.067c-.085-.021-.154-.045-.152-.053a.97.97 0 0 1 .152-.12c.084-.061.29-.23.463-.375l.31-.267v-.101l-.022-.013-.02-.013v-.183l.065-.145.065-.143.04-.156.04-.156v-.207l-.023-.046a.475.475 0 0 0-.061-.088l-.036-.042-.025-.2c-.015-.11-.06-.377-.1-.592l-.071-.394v-.17l.099-.018.101-.016h.821l.169.048.166.048.122.066.123.065.117.118c.066.065.131.143.148.177l.032.057.082-.013.082-.013.07.043.069.044.059.076c.031.04.067.073.08.073a.58.58 0 0 0 .137-.099l.113-.099v-.023a.56.56 0 0 0-.103-.132l-.103-.11-.158-.238c-.32-.48-.533-.91-.788-1.584-.103-.278-.282-.859-.32-1.046l-.025-.118-.067-.032a11.625 11.625 0 0 0-.373-.151c-.261-.106-.537-.228-.567-.255-.004-.005.08-.101.19-.213.11-.114.278-.3.373-.413l.172-.206V5.88c0-.025-.014-.151-.031-.282-.017-.13-.05-.457-.076-.726l-.042-.491-.013-.81-.012-.812.025-.495c.025-.497.074-1.196.097-1.362l.012-.09h.082l.628.593.63.596.113.04c.407.14 1.216.529 1.757.843.785.459 1.643 1.086 2.27 1.661l.18.165.11-.068c.654-.383 1.618-.722 2.484-.87l.305-.052.301-.026.3-.025.5.013.5.01.242.034c.556.08 1.101.223 1.611.428l.295.118.284.143c.156.078.333.17.39.206l.105.061.042-.038c.18-.164.914-.659 1.422-.956l.347-.204.474-.238a13.746 13.746 0 0 1 2.218-.897l.27-.085.225-.143c.648-.412.973-.615.991-.615h.024l.01.049c.023.103.097.699.129 1.025l.031.348.013.726.012.727-.025.421c-.027.478-.065.851-.13 1.268l-.042.286.13.133.133.133-.042.046a1.674 1.674 0 0 1-.19.158l-.15.112-.075.3c-.042.167-.124.454-.183.637l-.11.333-.137.328a7.744 7.744 0 0 1-1.112 1.91 2.77 2.77 0 0 1-.198.23l-.044.04v.076l.023.012.021.015.053-.048.053-.05h.225l.225-.003.015-.13.015-.133.059-.082c.033-.045.107-.12.164-.167l.101-.084.118-.042.118-.044.168-.024.169-.023.179.015c.099.006.255.027.347.044l.169.032.046.031.046.03.026.088.023.09-.015.148a3.473 3.473 0 0 1-.15.689l-.05.152-.055.078-.052.077-.002.108v.107l.065.116.065.116.034.143.034.141-.003.19v.19l-.02.111a1.65 1.65 0 0 1-.079.248l-.054.137.054.08.057.08.089.064c.111.08.385.217.558.28l.13.048-.023.028a.819.819 0 0 1-.177.09l-.153.065-.144.021c-.08.011-.191.028-.248.034l-.105.013-.07.07-.07.069v.196l.024.042.02.042-.033.175-.034.172.131.2c.242.365.577.786.962 1.207l.192.21-.095.106a.986.986 0 0 0-.126.164l-.032.06h-.054l-.156-.135c-.244-.211-.436-.417-.735-.792l-.278-.348-.238-.358-.238-.358-.108-.2a1.092 1.092 0 0 0-.107-.181c0 .027.11.366.198.61a4.5 4.5 0 0 1 .076.215c0 .005-.023.02-.05.034l-.051.028.111.256.112.255-.019.02-.019.018-.021.242c-.01.133-.032.304-.044.384l-.023.14h-.06v-.027c0-.014-.056-.198-.124-.406l-.126-.377-.059-.284-.057-.285-.082-.11a.841.841 0 0 0-.133-.142l-.048-.032h-.152l-.065.034-.065.033.015.129c.018.181.168.924.244 1.21.036.131.107.37.16.527l.097.289.027.023a.583.583 0 0 0 .148.049l.117.027-.014.044a4.61 4.61 0 0 1-1.13 1.803l-.237.238-.204.166c-.114.09-.291.221-.392.29a1.926 1.926 0 0 0-.23.174 1.649 1.649 0 0 0-.206.408l-.038.105-.008.264-.009.263.04.147.057.196.015.046h-.133l-.057-.029c-.107-.057-.16-.156-.225-.434l-.032-.137v-.168l.002-.169.04-.116c.024-.063.04-.122.043-.13a.757.757 0 0 0-.169.101c-.09.063-.242.154-.335.2l-.168.084-.103.013-.104.01-.012-.018-.013-.02.05-.124a.467.467 0 0 0 .045-.13c-.013-.013-.388.255-.476.343l-.097.093h-.137l-.05-.05-.053-.054-.107.12c-.091.102-.234.302-.327.458l-.02.04-.037-.015-.033-.013-.045-.088-.044-.087-.031-.14-.03-.14-.002-.22-.002-.222-.01.027c-.005.013-.02.026-.032.026-.01 0-.122.07-.245.156-.292.202-.638.419-.98.617-.153.086-.279.16-.283.164-.004.004-.023.093-.046.196l-.038.191-.026.28-.023.28-.019.043-.019.042-.012.33-.015.331-.1.032a7.6 7.6 0 0 1-1.265.254l-.26.032-.414.008a9.92 9.92 0 0 1-.516 0zm7.807-5.587.162-.246.127-.14.126-.136.08-.038.087-.042a2.644 2.644 0 0 0-.038-.213 9.334 9.334 0 0 1-.087-.535l-.042-.326-.013-.369a4.376 4.376 0 0 0-.025-.406l-.015-.038-.164.17-.166.171-.028-.01-.025-.01.009-.08c.006-.045.046-.466.092-.94l.082-.857.015-.028c.028-.046-.01-.004-.06.072l-.051.074-.076.284a10.67 10.67 0 0 0-.3 1.64l-.033.306-.013.642-.012.645.025.387c.015.215.032.413.038.44l.013.05.065-.11a12.4 12.4 0 0 1 .227-.357zm-15.157-.655c.097-.335.188-.785.243-1.2l.042-.327.025-.505.025-.508-.02-.48-.022-.48-.031-.017-.03-.019-.006.078c-.002.042-.02.226-.038.405l-.034.326-.05.284c-.03.156-.072.358-.095.449l-.044.162h-.06l-.025-.04-.025-.04-.11.286c-.111.3-.216.542-.362.843l-.084.175.162.257c.09.14.223.35.297.463l.133.208.017-.03c.008-.014.05-.144.092-.29z"/><path fill="#fdfd5c" d="M20.08 17c0-.006-.018-.103-.041-.217a8 8 0 0 1-.087-.535l-.042-.326-.013-.369a4.376 4.376 0 0 0-.025-.406l-.015-.038-.164.17-.166.171-.028-.01-.025-.01.009-.08c.006-.045.046-.466.092-.94.045-.472.089-.868.095-.878.006-.013.008-.021.004-.021a.536.536 0 0 0-.07.094l-.058.095-.087.042-.086.042h-.046a.346.346 0 0 1-.22-.099l-.058-.057-.04-.109-.042-.11-.026-.187-.025-.185.01-.331.011-.33-.11-.165a8.73 8.73 0 0 1-.48-.817l-.115-.232-.045-.145-.044-.143v-.145l.053-.049c.03-.027.122-.084.204-.126l.154-.076.137-.034.137-.034.19.011.189.01.14.053.144.055.12.082c.067.046.15.114.183.15l.063.065.06-.057.06-.059h.226l.225-.002.015-.13.015-.133.059-.082c.033-.045.107-.12.164-.167l.101-.084.118-.042.118-.044.168-.024.169-.023.179.015c.099.006.255.027.347.044l.169.032.046.031.046.03.026.088.023.09-.015.148a3.473 3.473 0 0 1-.15.689l-.05.152-.055.078-.052.077-.002.108v.107l.065.116.065.116.034.143.034.141-.003.19v.19l-.02.111a1.65 1.65 0 0 1-.079.248l-.054.137.054.08.057.08.089.064c.111.08.385.217.558.28l.13.048-.023.028a.819.819 0 0 1-.177.09l-.153.065-.144.021c-.08.011-.191.028-.248.034l-.105.013-.07.07-.07.069v.196l.024.042.02.042-.033.175-.034.172.131.2c.242.365.577.786.962 1.207l.192.21-.095.106a.986.986 0 0 0-.126.164l-.032.06h-.054l-.156-.135c-.244-.211-.436-.417-.735-.792l-.278-.348-.238-.358-.238-.358-.108-.2a1.092 1.092 0 0 0-.107-.181c0 .027.11.366.2.613l.076.21-.036.026-.038.027h-.067c-.038 0-.118-.01-.177-.023l-.107-.023-.057-.076a1.643 1.643 0 0 0-.127-.145l-.07-.07h-.168l-.065.034-.065.033.015.129c.018.179.168.922.244 1.205.033.128.095.337.137.463.044.128.08.242.082.253.002.012.01.033.02.048l.018.027-.015.015-.015.015h-.49l-.057.019c-.034.008-.06.012-.06.006zm-16.687-.743-.148-.05-.014-.026-.015-.023.101-.192c.057-.105.221-.438.366-.741l.266-.548V14.6l-.13-.196-.131-.197H3.63c-.034 0-.186.018-.34.04-.153.023-.378.052-.498.065l-.22.023-.014-.023-.015-.025-.164.12c-.297.22-1.093.705-1.156.705h-.028l-.055-.099a1.094 1.094 0 0 0-.139-.194l-.084-.094.173-.093c.385-.204.752-.409.762-.423l.009-.017-.063-.303-.064-.304-.067-.065-.067-.067-.074-.03a1.805 1.805 0 0 0-.225-.067c-.085-.021-.154-.045-.152-.053a.97.97 0 0 1 .152-.12c.084-.061.29-.23.463-.375l.31-.267v-.101l-.022-.013-.02-.013v-.183l.065-.145.065-.143.04-.156.04-.156v-.207l-.023-.046a.475.475 0 0 0-.061-.088l-.036-.042-.025-.2c-.015-.11-.06-.377-.1-.592l-.071-.394v-.17l.101-.018.1-.016h.82l.169.048.166.048.122.066.123.065.117.118c.066.065.131.143.148.177l.032.057.082-.013.082-.013.07.043.069.044.059.076.059.073h.052l.156-.151.158-.15.154-.071.156-.072.168-.044.17-.042.235.006.233.008.146.072.143.07.059.094.06.097.016.095.014.093-.035.174-.034.175-.072.188c-.08.212-.282.619-.419.855l-.095.158-.065.206-.067.208-.114.232-.114.232-.097.122-.096.122-.036.013a.515.515 0 0 0-.09.054l-.058.04-.107-.006-.107-.008v.095c0 .275-.12 1.084-.215 1.438l-.042.162h-.06l-.025-.04-.025-.04-.107.286c-.101.264-.18.45-.367.853l-.065.142-.059-.003a.86.86 0 0 1-.202-.052z"/><path fill="#e9c1c7" d="M19.485 15.433c-.013-.023.168-1.874.185-1.901.006-.01.008-.021.004-.021a.536.536 0 0 0-.07.094l-.058.095-.087.042-.086.042h-.046a.346.346 0 0 1-.22-.099l-.058-.057-.04-.109-.042-.11-.026-.187-.025-.185.01-.331.011-.33-.11-.165a8.73 8.73 0 0 1-.48-.817l-.115-.232-.045-.145-.044-.143v-.145l.053-.049c.03-.027.122-.084.204-.126l.154-.076.137-.034.137-.034.19.011.189.01.14.053.144.055.12.082c.067.046.15.114.183.15l.063.065.06-.057.06-.059h.226l.225-.002.015-.13.015-.133.059-.082c.033-.045.107-.12.164-.167l.101-.084.118-.042.118-.044.168-.024.169-.023.179.015c.099.006.255.027.347.044l.169.032.046.031.046.03.026.088.023.09-.015.148a3.473 3.473 0 0 1-.15.689l-.05.152-.055.078-.052.077-.002.108v.107l.065.116.065.116.034.143.034.141-.003.19v.19l-.02.111a1.65 1.65 0 0 1-.079.248l-.054.137.054.08.057.08.089.064c.111.08.385.217.558.28l.13.048-.023.028a.819.819 0 0 1-.177.09l-.153.065-.144.021c-.08.011-.191.028-.248.034l-.105.013-.07.07-.07.069v.196l.024.042.023.044-.036.17-.034.173-.037.063-.036.064h-.066l-.385-.457-.385-.457-.02.01-.018.013.01.027c.007.017.017.084.026.152l.012.122.07.221c.038.122.105.316.147.432l.076.21-.036.026-.038.027h-.067c-.038 0-.118-.01-.177-.023l-.107-.023-.057-.076a1.643 1.643 0 0 0-.127-.145l-.07-.07h-.18l-.135.09-.133.09-.265.256c-.145.143-.27.259-.278.259a.029.029 0 0 1-.023-.015zM4.895 9.734a3.073 3.073 0 0 1-.27-.233 1.194 1.194 0 0 0-.09-.095c-.034-.03-.06-.061-.06-.072a.44.44 0 0 0-.067-.105 4.183 4.183 0 0 1-.181-.257l-.112-.168-.156-.316a5.824 5.824 0 0 1-.362-.891l-.057-.175-.084-.038a5.79 5.79 0 0 0-.255-.099A1.249 1.249 0 0 1 3 7.197a3.766 3.766 0 0 0-.41-.181c-.325-.13-.544-.23-.576-.257-.004-.005.08-.101.19-.213.11-.114.278-.3.373-.413l.172-.206v-.065l.186-.232.185-.232-.015-.118a21.66 21.66 0 0 1-.103-1.564l-.023-.64.01-.232C2.993 2.715 3 2.51 3 2.387l.002-.228h.053l.177.295c.096.16.187.303.204.318a.08.08 0 0 1 .03.053c0 .08.376.762.755 1.366.548.877 1.61 2.317 2.334 3.168l.133.158-.007.019-.006.02-.228.066-.23.065-.08.249-.08.248-.16.308-.157.307-.152.224a6.775 6.775 0 0 1-.499.66l-.07.079h-.046l-.044-.002zm14.253-.45a7.194 7.194 0 0 0-.718-.944l-.154-.168-.148-.12a2.34 2.34 0 0 0-.414-.276l-.024-.009.165-.172c.248-.266.471-.54.821-1.003l.316-.42.404-.612a37.373 37.373 0 0 0 1.719-2.866l.019-.023-.015-.013-.013-.014h.061l.032-.068.03-.065.037-.023.038-.023.028.037.027.036.034.26c.019.14.046.366.06.498l.026.243v.631l.002.632-.027.232c-.015.128-.046.362-.07.522l-.046.293.236.236c.128.128.234.244.234.255 0 .01.059.08.13.151l.13.133-.052.055c-.027.03-.11.097-.183.15l-.13.094-.024.04-.02.042-.31.148c-.171.08-.342.164-.382.183l-.071.036-.072.168c-.316.746-.828 1.571-1.236 1.997l-.116.12h-.076z"/><path fill="#e9dde5" d="M19.485 15.433c-.013-.023.168-1.874.185-1.901.006-.01.008-.021.004-.021a.536.536 0 0 0-.07.094l-.058.095-.087.042-.086.042h-.046a.346.346 0 0 1-.22-.099l-.058-.057-.04-.109-.042-.11-.026-.187-.025-.185.01-.331.011-.33-.11-.165a8.73 8.73 0 0 1-.48-.817l-.115-.232-.045-.145-.044-.143v-.145l.053-.049c.03-.027.122-.084.204-.126l.154-.076.137-.034.137-.034.19.011.189.01.14.053.144.055.12.082c.067.046.15.114.183.15l.063.065.06-.057.06-.059h.226l.225-.002.015-.13.015-.133.059-.082c.033-.045.107-.12.164-.167l.101-.084.118-.042.118-.044.168-.024.169-.023.179.015c.099.006.255.027.347.044l.169.032.046.031.046.03.026.088.023.09-.015.148a3.473 3.473 0 0 1-.15.689l-.05.152-.055.078-.052.077-.002.108v.107l.065.116.065.116.034.143.034.141-.003.19v.19l-.02.111a1.65 1.65 0 0 1-.079.248l-.054.137.054.08.057.08.089.064c.111.08.385.217.558.28l.13.048-.023.028a.819.819 0 0 1-.177.09l-.153.065-.144.021c-.08.011-.191.028-.248.034l-.105.013-.07.07-.07.069v.196l.024.042.023.044-.036.17-.034.173-.037.063-.036.064h-.066l-.385-.457-.385-.457-.02.01-.018.013.01.033c.007.022.017.085.023.142.022.18.034.252.057.28l.021.025h-.03l.022.027c.01.013.036.074.053.13.016.06.065.2.107.317l.078.21-.036.026-.038.027h-.067c-.038 0-.118-.01-.177-.023l-.107-.023-.057-.076a1.643 1.643 0 0 0-.127-.145l-.07-.07h-.18l-.135.09-.133.09-.265.256c-.145.143-.27.259-.278.259a.029.029 0 0 1-.023-.015zM4.909 9.683a5.289 5.289 0 0 1-.101-.227l-.061-.147-.082-.305c-.076-.274-.242-1.053-.228-1.064.106-.065.304-.221.38-.299l.098-.101.076-.126.076-.127.042-.139.042-.14-.006-.091-.006-.093-.064.004c-.033.002-.4.007-.81.007l-.748.002-.505-.021c-.742-.034-1-.049-1-.062 0-.006.088-.1.195-.212.108-.112.274-.295.369-.409l.172-.206v-.065l.238-.297.384-.485.143-.187-.055-.192a4.379 4.379 0 0 1-.09-.383l-.036-.19-.009-.415-.01-.412.025-.215c.013-.118.03-.228.036-.244l.01-.03h.06l.115.23c.482.962 1.44 2.381 2.519 3.731l.339.424-.03.03-.029.029-.219.05-.221.049-.004.103c-.002.057-.017.297-.03.535-.015.238-.027.47-.027.516l-.002.084-.114.19a7.805 7.805 0 0 1-.577.81l-.133.158-.042.007-.042.006zm14.475-.03-.009-.091c-.008-.122-.124-.57-.223-.864l-.084-.252-.116-.243c-.22-.457-.474-.796-.714-.95l-.063-.04h.052V7.19a.89.89 0 0 1 .123-.172c.07-.085.24-.308.383-.5l.259-.347.404-.61c.55-.828 1.2-1.907 1.592-2.637l.093-.175h.07l.012.036.015.035v.908l-.032.263c-.042.352-.105.67-.193.973a2.55 2.55 0 0 0-.072.289v.036l.09.126c.104.141.458.53.687.756.082.08.15.156.15.166 0 .013.059.083.132.156l.13.133-.104.097a.676.676 0 0 1-.148.112 3.587 3.587 0 0 1-.337.054l-.295.04h-1.179l-.179-.038a1.924 1.924 0 0 1-.27-.078l-.09-.04.044.062c.07.096.204.395.276.612l.065.198-.002.14c-.004.191-.076.819-.13 1.113l-.045.24-.052.171c-.03.093-.072.209-.095.26l-.042.088h-.05a.198.198 0 0 1-.053-.005z"/><path fill="#f8eae3" d="M11.867 22.16c-.242-.09-.591-.247-.947-.423a9.284 9.284 0 0 1-2.096-1.403l-.232-.209-.193-.216a4.423 4.423 0 0 1-.554-.744 2.826 2.826 0 0 1-.329-.695l-.07-.21.022-.022.02-.02.068.04c.038.023.14.077.224.122l.158.08.19.063c.104.034.252.076.325.092l.135.032.021-.013.02-.01-.095-.1a4.263 4.263 0 0 1-.479-.614l-.162-.244-.126-.25c-.326-.645-.527-1.345-.62-2.179l-.024-.22v-.97l.023-.168.023-.17.27-.272.269-.274.156-.21c.084-.116.219-.314.299-.443l.147-.231.21-.422c.115-.231.245-.511.29-.621l.08-.2.044-.006.044-.007.038.101c.084.234.23.56.358.807l.137.261.153.234c.085.126.224.322.31.432l.154.2.286.292.284.291.253.204c.396.318.834.594 1.21.763l.176.078.107-.064c.731-.431 1.475-1.19 2.31-2.358.272-.38.61-.904.8-1.243l.094-.164h.023c.038 0 .059.038.145.274.265.722.74 1.562 1.253 2.217l.192.249.04.204c.02.112.055.337.074.5l.035.294v.864l-.033.273a6.725 6.725 0 0 1-.089.516l-.052.243-.097.288-.095.289-.13.27a4.362 4.362 0 0 1-.746 1.105l-.137.143.015.015.012.012.143-.025a3.25 3.25 0 0 0 .546-.173l.067-.027.013.013.015.012-.169.257-.17.255-.118.23c-.063.126-.15.313-.188.414l-.071.186-.038.179-.036.179-.059.057c-.034.03-.162.126-.286.212-.679.47-1.578.982-2.723 1.548l-.538.266-.22.006-.222.006zm7.618-6.727c-.013-.023.168-1.874.185-1.901l.013-.021h-.04l-.013.048-.01.046-.066.068-.065.067-.074.023-.073.026-.074-.015-.072-.013-.074-.063-.071-.063-.042-.114-.042-.112-.026-.187-.025-.185.01-.331.011-.33-.11-.165a8.73 8.73 0 0 1-.48-.817l-.115-.232-.045-.145-.044-.143v-.145l.053-.049c.03-.027.122-.084.204-.126l.154-.076.137-.034.137-.034.19.011.189.01.14.053.144.055.12.082c.067.046.15.114.183.15l.063.065.06-.057.06-.059h.226l.225-.002.015-.13.015-.133.059-.082c.033-.045.107-.12.164-.167l.101-.084.118-.042.118-.044.168-.024.169-.023.179.015c.099.006.255.027.347.044l.169.032.046.031.046.03.026.088.023.09-.015.148a3.473 3.473 0 0 1-.15.689l-.05.152-.055.078-.052.077-.002.108v.107l.065.116.065.116.034.143.034.141-.003.19v.19l-.02.111a1.65 1.65 0 0 1-.079.248l-.054.137.054.08.057.08.089.064c.111.08.385.217.558.28l.13.048-.023.028a.819.819 0 0 1-.177.09l-.153.065-.144.021c-.08.011-.191.028-.248.034l-.105.013-.07.07-.07.069v.191l.022.055.02.055-.033.162-.034.162-.035.063-.036.064h-.066l-.387-.46-.385-.457-.015.015-.017.017.017.074a.507.507 0 0 1 .01.116.611.611 0 0 0 .017.153l.023.11h.043l-.013.015-.015.012.02.023c.01.013.033.072.05.129.016.059.065.2.107.316l.078.21-.036.026-.038.027h-.067c-.038 0-.118-.01-.177-.023l-.107-.023-.057-.076a1.643 1.643 0 0 0-.127-.145l-.07-.07h-.18l-.135.09-.133.09-.265.256c-.145.143-.27.259-.278.259a.029.029 0 0 1-.023-.015zm-15.256-.347a5.695 5.695 0 0 1-.13-.217c-.14-.242-.138-.238-.285-.468l-.126-.195h-.055c-.03 0-.22.023-.421.05a28.23 28.23 0 0 1-.51.065l-.143.015v-.025c0-.015.036-.07.08-.124.13-.156.417-.672.4-.72l-.006-.018-.203.177c-.111.097-.345.31-.515.472L2 14.395l-.042-.004-.04-.006-.028-.095a9.554 9.554 0 0 1-.092-.4l-.064-.306-.067-.065-.067-.067-.074-.03a1.805 1.805 0 0 0-.225-.067c-.085-.021-.154-.045-.152-.053a.97.97 0 0 1 .152-.12c.084-.061.29-.23.46-.375l.312-.267v-.101l-.02-.013-.022-.013v-.183l.066-.145.065-.143.04-.156.04-.156v-.207l-.023-.046a.475.475 0 0 0-.061-.088l-.036-.042-.025-.2c-.015-.11-.06-.377-.1-.592l-.071-.394v-.17l.101-.018.1-.016h.82l.169.048.166.048.122.066.123.065.117.118c.066.065.131.143.148.177l.032.057.082-.013.082-.013.07.043.069.044.059.076.059.073h.052l.156-.151.158-.15.154-.071.156-.072.168-.044.17-.042.235.006.233.008.146.072.143.07.059.094.06.097.016.095.014.093-.035.174-.034.175-.072.188c-.08.212-.282.619-.419.855l-.095.158-.065.206-.067.208-.114.232-.114.232-.097.122-.096.122-.036.013a.515.515 0 0 0-.09.054l-.058.04-.107-.006-.107-.008v.095c0 .275-.12 1.084-.215 1.438l-.042.162h-.028c-.015 0-.036-.013-.046-.025zm.667-5.434a.74.74 0 0 1-.05-.132.146.146 0 0 0-.03-.05l-.027-.03.01-.049.013-.05H4.77v-.064h-.038v-.153l-.027-.015-.025-.017v-.141l-.03-.03-.032-.029.011-.038.01-.04h-.042l.01-.042.011-.04-.02-.006-.02-.007-.002-.09V8.54h-.048l.032-.02.031-.022-.027-.017-.028-.019-.002-.065-.002-.067h-.046l.031-.021.032-.021h-.048l-.011-.042-.01-.043h.031l-.01-.052-.009-.053h-.034l-.008-.067-.01-.068.023-.025a.553.553 0 0 1 .092-.059l.066-.034.168-.158c.095-.086.164-.158.156-.158-.006 0 .002-.016.019-.035a.72.72 0 0 0 .08-.133.478.478 0 0 1 .067-.107c.01-.007.02-.02.02-.028-.003-.006-.003-.015 0-.017 0-.004.006-.033.01-.067a.479.479 0 0 1 .027-.095l.015-.033v-.127l-.002-.126-.948-.007a34.505 34.505 0 0 1-1.706-.037 6.544 6.544 0 0 0-.366-.009l-.114.002.177-.185c.097-.101.255-.278.352-.392l.172-.206v-.065l.207-.253c.111-.14.223-.278.246-.31a.597.597 0 0 1 .084-.092c.024-.021.042-.047.042-.057 0-.01.024-.038.051-.061l.05-.045H3.41l-.02-.002.04-.03c.024-.016.036-.03.028-.03-.008 0 .002-.02.021-.04l.034-.043.002-.063.002-.065h-.015c-.006 0-.019-.04-.027-.089l-.015-.088-.03-.03-.029-.027L3.4 4.48a.71.71 0 0 1 .002-.097l.004-.04-.03-.017-.026-.019h.054l-.023-.042-.023-.042h.015c.006 0 .002-.013-.01-.03l-.026-.031.013-.095.014-.097h-.046v-.735l.023-.014.023-.015-.027-.017-.03-.019h.043l.002-.122c0-.065.006-.145.014-.177l.015-.059h.063l.116.23c.474.945 1.439 2.38 2.475 3.675.162.204.288.37.28.37-.01.002.012.026.046.055l.063.05-.063-.002-.063-.004-.126.034c-.07.017-.167.038-.215.046l-.09.015-.013.021a1.155 1.155 0 0 0-.024.236c-.008.25-.025.541-.037.718-.007.07-.013.162-.017.206l-.005.078h.053v.106l-.099.164a7.57 7.57 0 0 1-.56.783l-.133.158-.042.007-.044.006zm14.553-.059v-.02h.086l-.012.02c-.007.013-.028.021-.045.021h-.03zm-.044-.067a.552.552 0 0 1-.01-.07c-.018-.126-.022-.149-.039-.174l-.014-.026.012-.019.01-.02-.018-.011-.02-.013-.016-.09a2.576 2.576 0 0 1-.021-.11.357.357 0 0 0-.028-.082l-.025-.061.013-.01.01-.011-.023-.03-.023-.027h.03l-.026-.032-.025-.031h.03l-.026-.032-.025-.031h.03l-.024-.028-.023-.03.015-.012.012-.015h-.044l-.015-.063a.272.272 0 0 1-.01-.076c.002-.008-.004-.02-.015-.027a.88.88 0 0 1-.086-.168 4.291 4.291 0 0 0-.15-.295 7.58 7.58 0 0 1-.12-.213.43.43 0 0 0-.071-.099l-.032-.025.017-.002c.01 0-.013-.026-.048-.055-.036-.032-.062-.061-.055-.065.006-.007-.061-.074-.146-.15l-.155-.139.046-.078c.025-.042.192-.271.37-.507l.325-.428.404-.61c.552-.83 1.2-1.909 1.592-2.637l.093-.175h.07l.012.036.015.035-.004.24-.002.24-.032.011-.032.013.03.017.027.017.002.223.003.22h-.032l.01.043.011.042-.025.21-.026.211h-.037l.008.053.01.053h-.04l.009.052.01.053h-.037l.002.099.002.099-.023.008-.021.007.01.04.01.042h-.042l.011.042.01.042h-.044l.01.032.013.031h-.05l.01.03.013.031-.019.007-.019.006-.01.074a1.87 1.87 0 0 1-.026.132l-.012.057h.048l-.012.021-.013.021h.019c.008 0 .04.03.065.066l.049.065-.028.019-.03.019h.077l-.011.019-.013.019.06.035c.03.021.077.057.105.08l.046.045-.025.014-.026.017.064.026c.084.037.086.04.05.06l-.031.022h.077l.24.236.24.233v.023c0 .013.06.083.133.156l.13.133-.09.084-.09.087-.049-.013-.05-.013-.207.032c-.115.015-.231.03-.26.032-.03 0-.11.006-.18.01-.099.008-.73.015-1.101.01-.082 0-.362-.063-.482-.107l-.112-.042v-.021c0-.01-.009-.019-.017-.019h-.017l-.004.053-.004.05.074.122.073.123.087.219c.046.12.088.238.09.263a.509.509 0 0 0 .032.103.378.378 0 0 1 .023.078c0 .008.013.021.03.027l.029.013-.009.164a7.66 7.66 0 0 0-.008.234v.067h-.04l.01.095.011.095h-.048l.01.044.013.044-.013.03-.01.03h-.07l.032.02.031.02v.065l.002.063h-.035l.01.063.009.063h-.036l.002.101v.103l-.038.135-.038.135-.019.013-.021.014.015.024.015.023h-.047l.006.036.007.035-.053.015-.052.015.027.002.025.002v.063h-.063a.286.286 0 0 1-.065-.004z"/></svg>