<svg xmlns="http://www.w3.org/2000/svg" width="24" height="24"><g transform="matrix(.024 0 0 .024 0 -2.545)"><path fill="#f0db78" fill-rule="evenodd" d="M.04 500a500 493.97 0 0 0-.04 6.03A500 493.97 0 0 0 500 1000a500 493.97 0 0 0 500-493.97 500 493.97 0 0 0-.04-6.03Z" paint-order="stroke markers fill"/><path fill="none" stroke="#000" stroke-width="25" d="M499.54 224.57c-80.52.17-160.85 26-226.26 72.99-68.63 49.3-120.43 121.6-145.04 202.43 23.5 77.2 71.73 146.66 135.86 195.65 64.12 48.99 143.82 77.26 224.48 79.63 84.47 2.48 169.52-23.53 238.14-72.83 68.63-49.3 120.43-121.6 145.04-202.43-23.5-77.2-71.73-146.66-135.86-195.65-64.12-48.99-143.82-77.26-224.48-79.63-3.96-.12-7.92-.17-11.88-.16z"/><circle cx="500" cy="500" r="114.72" fill-rule="evenodd" paint-order="stroke markers fill"/></g></svg>