<svg xmlns="http://www.w3.org/2000/svg" width="24" height="24"><defs><linearGradient id="a" x1="8" x2="120" y1="124" y2="124" gradientTransform="matrix(.21429 0 0 .21429 -1.714 -3.429)" gradientUnits="userSpaceOnUse"><stop offset="0" stop-color="#e5a50a"/><stop offset=".036" stop-color="#f6d32d"/><stop offset=".071" stop-color="#e5a50a"/><stop offset=".929" stop-color="#e5a50a"/><stop offset=".964" stop-color="#f6d32d"/><stop offset="1" stop-color="#e5a50a"/></linearGradient><linearGradient id="b" x1="46" x2="82" y1="71.4" y2="71.4" gradientTransform="matrix(.21429 0 0 .21429 -1.714 -3.429)" gradientUnits="userSpaceOnUse"><stop offset="0" stop-color="#1f8455"/><stop offset=".5" stop-color="#26a269"/><stop offset="1" stop-color="#1f8455" stop-opacity=".976"/></linearGradient></defs><path fill="url(#a)" d="M1.714 5.143h20.572A1.714 1.714 0 0 1 24 6.857v12.857a1.714 1.714 0 0 1-1.714 1.715H1.714A1.714 1.714 0 0 1 0 19.714V6.857a1.714 1.714 0 0 1 1.714-1.714Zm0 0" style="fill:url(#a);stroke-width:.214286"/><path fill="#f6d32d" d="M1.714 2.571h20.572A1.714 1.714 0 0 1 24 4.286v12A1.714 1.714 0 0 1 22.286 18H1.714A1.714 1.714 0 0 1 0 16.286v-12A1.714 1.714 0 0 1 1.714 2.57Zm0 0" style="stroke-width:.214286"/><path fill="#c38d09" d="M4.016 8.84c.84 0 1.395-.668 1.395-1.897 0-1.234-.554-1.868-1.395-1.868-.84 0-1.394.634-1.394 1.868 0 1.23.555 1.897 1.394 1.897zm0-.651c-.36 0-.645-.303-.645-1.246 0-.942.285-1.217.645-1.217.36 0 .646.275.646 1.217 0 .943-.286 1.246-.646 1.246zm0-.823c.24 0 .429-.171.429-.434a.416.416 0 0 0-.429-.435.416.416 0 0 0-.428.435c0 .262.189.434.428.434zm3.46 1.406h.846c.069-1.418.212-2.097 1.132-3.114v-.514H6.728v.708H8.55c-.76.954-1.005 1.708-1.073 2.92Zm3.3 0h2.727v-.709h-.864a6.46 6.46 0 0 0-.657.046c.703-.617 1.331-1.269 1.331-1.88 0-.697-.52-1.154-1.28-1.154-.56 0-.92.194-1.297.577l.452.45c.206-.193.44-.37.732-.37.376 0 .594.194.594.548 0 .52-.697 1.138-1.738 2.012zm5.7.068c.389 0 .823-.131 1.166-.417l-.337-.531c-.206.143-.452.268-.749.268-.468 0-.793-.314-.793-.806 0-.491.336-.805.822-.805.211 0 .411.069.628.223l.39-.52c-.24-.223-.618-.383-1.064-.383-.874 0-1.64.543-1.64 1.485 0 .944.686 1.486 1.578 1.486zm2.443-.068h2.726v-.709h-.863a6.46 6.46 0 0 0-.657.046c.703-.617 1.331-1.269 1.331-1.88 0-.697-.52-1.154-1.28-1.154-.56 0-.92.194-1.297.577l.452.45c.206-.193.44-.37.732-.37.376 0 .594.194.594.548 0 .52-.697 1.138-1.738 2.012zm-15.4 6.657h.84v-2.177h.977v-.657H4.36v-.08c0-.343.172-.497.532-.497.217 0 .417.04.594.108l.16-.617a2.715 2.715 0 0 0-.857-.154c-.886 0-1.269.514-1.269 1.166v.074l-.748.034v.623h.748Zm4.134.068c.366 0 .72-.17 1.006-.388h.023l.063.32h.686v-1.623c0-.868-.486-1.28-1.28-1.28-.486 0-.937.16-1.326.383l.297.548c.32-.16.589-.263.863-.263.383 0 .577.155.606.412-1.343.08-1.869.4-1.869 1.034 0 .48.36.857.931.857zm.269-.651c-.24 0-.394-.085-.394-.269 0-.245.228-.422 1.063-.468v.468c-.2.155-.417.269-.67.269zm4.14.651c.75 0 1.423-.462 1.423-1.268 0-.772-.577-1.126-1.246-1.126a1.22 1.22 0 0 0-.48.087l.064-.681h1.496V11.8h-2.222l-.098 1.834.371.24c.247-.137.372-.183.612-.183.383 0 .663.194.663.56 0 .371-.292.565-.703.565-.343 0-.617-.16-.857-.36l-.377.532c.297.286.725.508 1.354.508zm4.072 0c.748 0 1.422-.462 1.422-1.268 0-.772-.576-1.126-1.245-1.126a1.22 1.22 0 0 0-.48.087l.063-.681h1.497V11.8h-2.223l-.098 1.834.372.24c.246-.137.372-.183.612-.183.382 0 .663.194.663.56 0 .371-.292.565-.703.565-.343 0-.617-.16-.858-.36l-.377.532c.297.286.726.508 1.355.508zm4.168 0c.84 0 1.394-.668 1.394-1.896 0-1.235-.554-1.869-1.394-1.869-.84 0-1.394.634-1.394 1.869 0 1.228.554 1.896 1.394 1.896zm0-.651c-.36 0-.646-.303-.646-1.245 0-.943.286-1.218.646-1.218.36 0 .646.275.646 1.218 0 .942-.286 1.245-.646 1.245zm0-.823c.24 0 .428-.171.428-.434a.415.415 0 0 0-.428-.434c-.24 0-.429.17-.429.434 0 .263.19.434.429.434zm0 0" style="stroke-width:.214286"/><path fill="url(#b)" d="M15.857 10.714a3.857 3.857 0 1 1-7.714 0 3.857 3.857 0 0 1 7.714 0zm0 0" style="fill:url(#b);stroke-width:.214286"/><path fill="#2ec27e" d="M15.857 9.857a3.857 3.857 0 1 1-7.714 0 3.857 3.857 0 0 1 7.714 0zm0 0" style="stroke-width:.214286"/><path fill="#fff" d="m14.701 7.105-3.13 3.129-1.26-1.26-.908.91 2.168 2.168 3.892-3.892a3.861 3.861 0 0 0-.762-1.055Zm0 0" style="stroke-width:.214286"/></svg>
