<svg xmlns="http://www.w3.org/2000/svg" width="24" height="24"><path d="M0 12V0h24v24H0Zm23.414.012V.586H.563v22.851h22.851zm-8.918 10.23c-1.502-.153-2.515-.917-2.95-2.226-.316-.948-.325-2.212-.022-3.117.26-.778.75-1.434 1.378-1.842.95-.617 2.283-.782 3.583-.444.33.086.776.266.947.382.023.016-.021.164-.191.64-.122.34-.232.648-.246.682l-.024.064-.195-.09c-.852-.397-1.902-.464-2.565-.165-.582.262-.987.846-1.112 1.604-.04.242-.04.976 0 1.208.072.422.226.84.387 1.054.202.267.516.509.806.62.248.094.457.132.814.146a4.21 4.21 0 0 0 1.866-.351l.133-.06.158.461.236.678.077.217-.141.072c-.36.181-.913.347-1.404.422a8.863 8.863 0 0 1-1.535.044zm4.043-2.823v-2.706l.193-.062c.905-.288 1.818-.411 2.514-.34.322.033.719.1.893.153l.12.036-.131.654c-.073.36-.138.661-.146.668a2.1 2.1 0 0 1-.351-.06c-.314-.07-.368-.075-.76-.074a3.472 3.472 0 0 0-.562.034l-.141.032-.006 2.185-.006 2.186h-1.617z" style="stroke-width:.024"/></svg>