<svg xmlns="http://www.w3.org/2000/svg" width="24" height="24" style="isolation:isolate"><defs><clipPath id="a"><path d="M0 0h450v450H0Z"/></clipPath></defs><g clip-path="url(#a)" transform="matrix(.05676 0 0 .05676 -.772 -.772)"><path fill="#995f1a" d="m124.33 154.53 55.37 35.24 100.67-20.14s15.1-21.5 15.1-25.16v-20.14c0-5.58-44.75-30.2-50.34-30.2h-120.8a10.03 10.03 0 0 0-10.06 10.07v40.27c0 5.58 4.48 10.06 10.06 10.06z"/><path fill="#995f1a" d="M335.73 164.6c20.14 0 50.34 70.47 50.34 70.47H23.67v-30.2s0-20.1 20.13-20.1 271.8-20.17 291.93-20.17zm0 211.4H114.27C86.86 376 13.6 331.96 13.6 285.4c0-26.78 23.52-50.33 50.33-50.33h322.14c26.81 0 50.33 23.55 50.33 50.33 0 46.56-73.21 90.6-100.67 90.6zm-40.26-251.67H406.2v20.14H295.47ZM94.13 114.27h20.14v20.13H94.13Z"/><path fill="#995f1a" d="m406.2 114.27-20.13 10.06v20.18l20.13 10.02h30.2v-40.26zm20.13 30.2H406.2v-20.14h20.13zM225 94.13V84.07c0-5.59-4.48-10.07-10.07-10.07h-70.46a10.03 10.03 0 0 0-10.07 10.07v10.06z"/><path fill="#56300d" d="M386.07 255.2H63.93c-16.99 0-30.2 16.24-30.2 30.2 0 33.77 63.98 70.47 80.54 70.47h221.46c16.56 0 80.54-36.7 80.54-70.47 0-13.96-13.22-30.2-30.2-30.2z"/><path fill="#c68632" d="M396.13 290.43a25.19 25.19 0 0 1-25.16 25.17 25.19 25.19 0 0 1-25.17-25.17 25.19 25.19 0 0 1 25.17-25.16 25.19 25.19 0 0 1 25.16 25.16zm-291.93 0a25.17 25.17 0 1 1-50.33 0 25.17 25.17 0 0 1 50.33 0zm50.33 35.24a20.13 20.13 0 1 1-40.26 0 20.13 20.13 0 0 1 40.26 0zm60.4 0a20.13 20.13 0 1 1-40.26 0 20.13 20.13 0 0 1 40.26 0zm120.8 0a20.13 20.13 0 1 1-40.26 0 20.13 20.13 0 0 1 40.26 0zm-60.4 0a20.13 20.13 0 1 1-40.26 0 20.13 20.13 0 0 1 40.26 0zm60.4-161.07c-5.78 0-312.06 50.33-312.06 50.33v20.14h362.4s-30.2-70.47-50.34-70.47zm-90.6-70.47h-120.8a10.03 10.03 0 0 0-10.06 10.07v40.27c0 5.58 4.48 10.06 10.06 10.06l11.48 6.89-11.43-6.89h50.29l19.82 19.82c31.85-2.36 63.42-4.72 88.7-6.53 5.9-7.7 12.28-19.7 12.28-23.35v-20.14c0-5.58-44.75-30.2-50.34-30.2z"/><path fill="#fff3e0" d="m311.74 197.36 13.93 2.01-10.07 9.82 2.36 13.85-12.43-6.54-12.42 6.54 2.36-13.84-10.07-9.84 13.92-2.01 6.21-12.62z"/></g></svg>