<svg xmlns="http://www.w3.org/2000/svg" xmlns:inkscape="http://www.inkscape.org/namespaces/inkscape" xmlns:sodipodi="http://sodipodi.sourceforge.net/DTD/sodipodi-0.dtd" xmlns:xlink="http://www.w3.org/1999/xlink" xml:space="preserve" viewBox="0 0 1200 800"><defs><clipPath id="b"><path d="M0-200v400h200v-400zm-200 0v400h100v-400z"/></clipPath><clipPath id="g"><path d="M-200-200h400V50h-400z"/></clipPath><clipPath id="h"><path d="m0 0-200-150v300Z"/></clipPath><clipPath id="i"><path d="m0 0-200-200v400Z"/></clipPath><clipPath id="d"><path d="m0 0-50-200h-150v350Z"/></clipPath><clipPath id="e"><path d="M0 0v-200h-200v400Z"/></clipPath></defs><sodipodi:namedview inkscape:deskcolor="#505050" inkscape:pagecheckerboard="0" inkscape:pageopacity="0" inkscape:showpageshadow="0" bordercolor="#eeeeee" borderopacity="1" pagecolor="#505050"/><inkscape:clipboard fill="#000" fill-opacity="1" stroke-dasharray="none" stroke-dashoffset="0" stroke-linecap="butt" stroke-linejoin="miter" stroke-miterlimit="4" stroke-opacity="1" stroke-width="3.8" geom-max="1200,800.00002" geom-min="-1.2180118e-07,-4.2676554e-08" max="1200,800.00002" min="-1.2180118e-07,-4.2676554e-08" opacity="1" stop-color="#000" stop-opacity="1" style="font-variation-settings:normal;-inkscape-stroke:none" vector-effect="none"><circle id="c" cx="0" cy="0" r="145.7" fill="none" stroke="#fff" stroke-width="17.3"/><g id="f" transform="translate(154.8 115.5) scale(.26458333)"><use xlink:href="#a" clip-path="url(#b)"/><use xlink:href="#c"/></g><circle id="a" cx="0" cy="0" r="145.7" fill="none" stroke="#013ba6" stroke-width="39"/><g id="j" transform="rotate(120 5.5 102.4) scale(.26458334)"><use xlink:href="#a" clip-path="url(#d)"/><use xlink:href="#c" clip-path="url(#e)"/></g></inkscape:clipboard><g transform="translate(160.8 -36.4) scale(3.7795276)"><path fill="#013ba6" d="M-42.5 9.6H275v211.7H-42.5z"/><g transform="translate(154.8 115.5) scale(.26458333)"><use xlink:href="#a" clip-path="url(#b)"/><use xlink:href="#c"/></g><use xlink:href="#f" transform="rotate(-60 116.2 115.5)"/><use xlink:href="#f" transform="rotate(60 116.2 115.5)"/><use xlink:href="#f" transform="rotate(120 116.2 115.5)"/><use xlink:href="#f" transform="rotate(180 116.2 115.5)"/><use xlink:href="#f" transform="rotate(-120 116.2 115.5)"/><g transform="translate(116.2 115.5) scale(.26458333)"><use xlink:href="#a" clip-path="url(#g)"/><use xlink:href="#c"/></g><g transform="translate(154.8 115.5) scale(.26458333)"><use xlink:href="#a" clip-path="url(#h)"/><use xlink:href="#c" clip-path="url(#i)"/></g><g transform="rotate(120 5.5 102.4) scale(.26458334)"><use xlink:href="#a" clip-path="url(#d)"/><use xlink:href="#c" clip-path="url(#e)"/></g><use xlink:href="#j" transform="matrix(-1 0 0 1 232.4 0)"/></g></svg>