<svg xmlns="http://www.w3.org/2000/svg" xmlns:xlink="http://www.w3.org/1999/xlink" xml:space="preserve" width="24" height="24"><defs><linearGradient id="a"><stop offset="0" stop-color="#8ff0a4"/><stop offset="1" stop-color="#3584e4"/></linearGradient><linearGradient xlink:href="#a" id="b" x1="27.53" x2="165.67" y1="103.2" y2="103.2" gradientTransform="matrix(.17373 0 0 .17407 -4.782 -5.963)" gradientUnits="userSpaceOnUse"/></defs><path fill="url(#b)" d="M8.82 0a.134.134 0 0 0-.092.042L.042 8.727c-.035.035-.053.07-.035.123l3.197 11.87c0 .035.034.07.086.088l11.866 3.185c.035.018.087 0 .121-.035l8.687-8.685c.035-.035.052-.07.017-.123L20.802 3.28c0-.035-.035-.07-.087-.088L8.85.007A.068.068 0 0 0 8.82 0zm3.151 5.482h6.536l-6.536 6.55h4.902v4.91l-4.902-4.91v9.276l-9.26-9.277h9.26z" style="fill:url(#b)"/></svg>
