<svg width="0" height="0" class="hidden">
    <symbol id="tonight_show_jimmy" viewBox="0 0 79.1 79.1" xmlns="http://www.w3.org/2000/svg">
        <path d="M39.5 0A39.4 39.4 0 0 0 12 11.3h4.9v2.3h-2.6v8.7h-2.4v-8.7h-2a39.5 39.5 0 0 0 56.4 55.2l-4-7v7h-2.5v-11h2.6l4 6.8v-6.8h2.3v8.5A39.5 39.5 0 0 0 39.6 0ZM17.7 11.3H20v4.3h3.7v-4.3H26v11h-2.4v-4.4H20v4.4h-2.3zm9.8 0h7.2v2.3H30v2h3.6v2.3H30v2h4.8v2.4h-7.2zM22 22.8A5.6 5.6 0 0 1 22 34a5.6 5.6 0 0 1 0-11.2zm25.8 0c2.1 0 4 1 5 2.7l-2 1.3a3 3 0 0 0-3-1.7c-1.9 0-3.3 1.5-3.3 3.3 0 1.9 1.4 3.3 3.4 3.3 1.5 0 2.4-.7 2.9-1.9h-2.9v-2.2h5.5v1c0 3-2.3 5.4-5.5 5.4a5.6 5.6 0 0 1-5.8-5.6c0-3.2 2.4-5.6 5.7-5.6zm-38.6.1h7.6v2.3h-2.6v8.7h-2.4v-8.7H9.2Zm19.3 0H31l3.9 6.7V23h2.4v11h-2.5l-4-7v7h-2.4zm10.3 0h2.4v11h-2.4zm15.5 0h2.4v4.3h3.7V23h2.4v11h-2.4v-4.4h-3.7V34h-2.4zm9.3 0h7.6v2.3h-2.6v8.7h-2.4v-8.7h-2.6zM22 25.1a3.3 3.3 0 0 0-3.3 3.3c0 1.8 1.5 3.3 3.3 3.3 1.8 0 3.3-1.5 3.3-3.3 0-1.8-1.5-3.3-3.3-3.3zm-8.3 9.3c1.9 0 2.8.7 3.8 1.7l-1.8 1.5c-.4-.6-1.3-1-2-1-.8 0-1.3.3-1.3 1 0 .6.8.9 2 1.2 1.2.5 3.2 1.2 3.2 3.5 0 .9-.3 1.7-1 2.3a4 4 0 0 1-2.8 1c-1.8 0-3.3-.6-4.5-2l2-1.6c.5.8 1.6 1.5 2.4 1.5 1 0 1.5-.6 1.5-1.2 0-.7-1-1.1-2-1.4-1.5-.5-3.3-1-3.3-3.3 0-1.8 1.6-3.2 3.8-3.2zm19.6 0a5.6 5.6 0 0 1 0 11.3 5.6 5.6 0 0 1 0-11.3zm-14.9.2h2.4v4.3h3.7v-4.3h2.4v11h-2.4v-4.4h-3.7v4.3h-2.4zm20.2 0h2.6l1.7 7.2 2-7.2H47l2 7.1 1.6-7.1h2.5l-3 11h-2.4L46 38.2 44 45.5h-2.3Zm-5.3 2.1a3.3 3.3 0 0 0-3.2 3.3c0 1.9 1.5 3.3 3.2 3.3 1.8 0 3.3-1.4 3.3-3.3 0-1.8-1.5-3.3-3.3-3.3zm-21.1 9.5c.5 0 .7.1 1 .4l-.5.4a.6.6 0 0 0-.5-.3c-.3 0-.4.1-.4.3 0 .2.2.3.6.4.4.2.9.3.9 1 0 .4-.4.9-1.1.9-.6 0-1-.2-1.2-.6l.5-.4c.2.3.4.4.7.4.3 0 .4-.2.4-.4s-.3-.3-.6-.4c-.4-.1-.8-.3-.8-.9 0-.5.4-.8 1-.8zm16.7 0c.6 0 1 .3 1.4.7l-.5.3a1 1 0 0 0-1-.5 1 1 0 0 0-1 1c0 .6.5 1 1.1 1 .4 0 .8-.2.9-.6h-.9v-.6h1.5v.3c0 .8-.6 1.5-1.5 1.5-1 0-1.6-.7-1.6-1.6 0-.9.7-1.5 1.6-1.5zm-15.6 0h2.1v.5h-.8v2.5h-.5v-2.5h-.8zm2.8 0h.6l1.1 3h-.6l-.2-.5H16l-.2.5H15zm2 0h1c.6 0 1 .4 1 1 0 .4-.1.7-.5.8l.7 1.2h-.7l-.6-1h-.3v1H18zm2.6 0h1c.6 0 1 .4 1 1 0 .4-.1.7-.5.8l.7 1.2h-.7l-.6-1h-.3v1h-.6zm2.6 0h.6v3h-.6zm1.2 0h.6l1.2 2v-2h.6v3h-.7l-1.1-2v2h-.6zm7.2 0h2.4v7.5c0 2.3-1.3 3.6-3.7 3.6a4 4 0 0 1-3.8-2.4l2-1.1c.4.9 1 1.3 1.8 1.3s1.3-.5 1.3-1.4zm3.9 0h2.3v11h-2.3zm3.8 0h2.3l3 4.3 3-4.3H50v11h-2.3v-7l-3 4-3-4v7h-2.3zm12 0h2.4l3 4.3 3-4.3h2.3v11h-2.3v-7l-3 4-3-4v7h-2.3zm11.3 0h2.6l2.1 3.5 2.2-3.5H72L68.6 52v5h-2.4v-5zm-44 .5v1h.3c.4 0 .6-.3.6-.5 0-.3-.2-.5-.6-.5zm2.6 0v1h.3c.4 0 .6-.3.6-.5 0-.3-.2-.5-.6-.5zm-4.9.3-.4 1.2h.8zm36.9 10.7a5.6 5.6 0 0 1 0 11.3 5.6 5.6 0 0 1 0-11.3zm-34.6.1h7.2v2.3H21v2h3.7v2.3H21v4.4h-2.3zm9.8 0h2.3l4.1 11h-2.4l-.7-2h-4.3l-.7 2h-2.5zm7 0H38v8.7h3.6v2.3h-6zm6.6 0h2.4v8.7H48v2.3h-6zM53.3 60a3.3 3.3 0 0 0-3.3 3.3c0 1.8 1.5 3.3 3.3 3.3 1.8 0 3.2-1.5 3.2-3.3 0-1.8-1.4-3.3-3.2-3.3zm-23.7 1-1.3 3.6H31z" fill="currentColor" />
    </symbol>
    <symbol id="bitdefender" xmlns="http://www.w3.org/2000/svg" viewBox="0 0 189.8 27.9">
        <path fill="currentColor" d="M76.8 9.5a8.7 8.7 0 0 0-9 9.2c0 5.5 4 9.2 9.8 9.2a12.1 12.1 0 0 0 4.7-.9l2.4-4.1-.3-.2a14 14 0 0 1-6.4 1.7c-3 0-5.6-1.6-5.9-4.2h13.3V19c0-6-3.7-9.5-8.5-9.5M72 17a4.3 4.3 0 0 1 4.5-4.1c2.7 0 4.4 1.6 4.4 4.1zm95.2-7.4a8.7 8.7 0 0 0-9 9.2c0 5.5 4 9.2 9.8 9.2a12 12 0 0 0 4.6-.9l2.5-4.1-.3-.2a14.1 14.1 0 0 1-6.4 1.7c-3 0-5.6-1.5-6-4.2h13.3c.6-6.8-3-10.7-8.5-10.7m-4.7 7.5a4.3 4.3 0 0 1 4.5-4.2c2.7 0 4.3 1.6 4.4 4.2zm-56.1-7.5a8.7 8.7 0 0 0-9.1 9.2c0 5.5 4 9.2 9.8 9.2a12.1 12.1 0 0 0 4.7-.9l2.5-4.1-.4-.2a14 14 0 0 1-6.4 1.7c-3 0-5.6-1.5-5.9-4.2H115c.6-6.8-3-10.7-8.5-10.7m-4.8 7.5a4.3 4.3 0 0 1 4.5-4.2c2.8 0 4.4 1.6 4.5 4.2zm-85.2-3.1v-.1A5.7 5.7 0 0 0 21 8.2c0-4.7-4-6.5-7.9-6.5H0V2l1.3 1.1C3 4.5 3.1 4.7 3.1 5.9v21.5h9.3c4.8 0 9.7-1.7 9.7-7.3a6.1 6.1 0 0 0-5.6-6.2M7.7 5.6h3.7c2.6 0 3.4.4 4.2 1.1a3 3 0 0 1 .8 2.2 2.9 2.9 0 0 1-.9 2.2c-.7.7-1.8 1-3.7 1H7.7zm4.2 17.9H7.7v-7.4H12c3.7 0 5.4 1 5.4 3.6 0 3.4-3.3 3.8-5.6 3.8M30.7 4.1A2.8 2.8 0 1 1 28 1.4 2.7 2.7 0 0 1 30.7 4m-7.3 6h6.7v17.4h-4.4V13.7c0-1.4 0-1.7-1.6-2.9l-.7-.5zM58 1l1.4.8c1.3.8 1.4 1.2 1.4 2.3v8a7.2 7.2 0 0 0-6-2.6c-5 0-8.4 4-8.4 9.2s3.2 9.1 8.6 9.1a6.7 6.7 0 0 0 6-3l.5 2.6h3.7V.6H58zM56 24a5.2 5.2 0 1 1 5.1-5.3 5 5 0 0 1-5.1 5.2m92.4-23 .7.4c2 1.4 2.3 1.7 2.3 4v6.9h-.1a7.2 7.2 0 0 0-6-2.7c-4.9 0-8.3 4-8.3 9.2s3.2 9.2 8.6 9.2a6.7 6.7 0 0 0 6-3l.5 2.6h3.7V.6h-7.4zm-2 23a5.2 5.2 0 1 1 5.1-5.2 5 5 0 0 1-5 5.2m43.4-14.1V14a8.7 8.7 0 0 0-2.1-.3A4.4 4.4 0 0 0 183 18v9.3h-4.4V14.5c0-2.2 0-2.5-1.8-3.6l-1.1-.7V10h7.3v2.7a5.5 5.5 0 0 1 5.2-3.2 5.7 5.7 0 0 1 1.6.3M93 9.9h4v3.7h-4v13.8h-4.3V15.1c0-1.4-.3-1.8-2-3.1l-2.3-1.8v-.3h4.3V6.7c0-4.7 3-7.7 9.7-6.4l1 3.7-.2.2c-3.5-1.4-6.2-.5-6.2 2.5zm41.3 6.5v11H130v-9.7c0-1.9-.5-4.2-3.5-4.2-2.9 0-4 2-4 4.4v9.5H118V14.5c0-2.2 0-2.5-1.9-3.6l-1-.7V10h7.1v2.6a6.7 6.7 0 0 1 5.6-3c4.1 0 6.5 2.8 6.5 6.8m-89.3 7.5.1.1-2.2 3.5c-3.5 1-7.5 0-7.5-5.8v-7c0-1.2-.2-1.1-2.6-3.1l-1.6-1.4V10h4.2l1.6-5H40v5h4.6v3.7H40v7.9c0 3.1 2.1 3.2 5.2 2.3" />
    </symbol>
    <symbol id="forbes" xmlns="http://www.w3.org/2000/svg" viewBox="0 0 198.1 49.7">
        <path d="M112.3 16.2c0-5.8.1-11.2.4-16.2L97.4 2.9v1.4l1.5.2c1.1.1 1.8.5 2.2 1.1.4.7.7 1.7.9 3.2.2 2.9.4 9.5.3 19.9 0 10.3-.1 16.8-.3 19.3 5.5 1.2 9.8 1.7 13 1.7 6 0 10.7-1.7 14.1-5.2 3.4-3.4 5.2-8.2 5.2-14.1 0-4.7-1.3-8.6-3.9-11.7a12.3 12.3 0 0 0-9.8-4.6c-2.6 0-5.3.7-8.3 2.1zm.3 30.8c-.2-3.2-.4-12.8-.4-28.5.9-.3 2.1-.5 3.6-.5 2.4 0 4.3 1.2 5.7 3.7 1.4 2.5 2.1 5.5 2.1 9.3 0 4.7-.8 8.5-2.4 11.7-1.6 3.1-3.6 4.7-6.1 4.7l-2.5-.4zM40 1H0v2l2.1.2c1.6.3 2.7.9 3.4 1.8.7 1 1.1 2.6 1.2 4.8a190 190 0 0 1 0 30.2c-.2 2.2-.6 3.8-1.2 4.8-.7 1-1.8 1.6-3.4 1.8l-2.1.3v2h25.8v-2l-2.7-.2a4.9 4.9 0 0 1-3.4-1.8c-.7-1-1.1-2.6-1.2-4.8-.3-4-.5-8.6-.5-13.7l5.4.1c2.9.1 4.9 2.3 5.9 6.7h2V16.9h-2c-1 4.3-2.9 6.5-5.9 6.6l-5.4.1c0-9 .2-15.4.5-19.3h7.9c5.6 0 9.4 3.6 11.6 10.8l2.4-.7zm-4.7 30.8c0 5.2 1.5 9.5 4.4 12.9 2.9 3.4 7.2 5 12.6 5 5.4 0 9.8-1.7 13-5.2A18 18 0 0 0 70 31.6c0-5.2-1.5-9.5-4.4-12.9-2.9-3.4-7.2-5-12.6-5-5.4 0-9.8 1.7-13 5.2a18 18 0 0 0-4.7 12.9zm22.3-11.4c1.2 2.9 1.7 6.7 1.7 11.3 0 10.6-2.2 15.8-6.5 15.8-2.2 0-3.9-1.5-5.1-4.5A31 31 0 0 1 46 31.7C46 21.2 48.2 16 52.5 16c2.2-.1 3.9 1.4 5.1 4.4zm84.5 24.3a17 17 0 0 0 12.5 5c3.1 0 5.8-.6 8.2-1.9a15 15 0 0 0 5.6-4.5l-1-1.2a12 12 0 0 1-7.6 2.5c-4 0-7.1-1.3-9.2-4a14.8 14.8 0 0 1-3-10.5H169c0-4.8-1.2-8.7-3.7-11.8a13 13 0 0 0-10.5-4.5c-5.6 0-9.9 1.8-13 5.3a18.7 18.7 0 0 0-4.6 12.9c0 5.2 1.6 9.4 4.9 12.7zm7.4-25.1c1.1-2.4 2.5-3.6 4.4-3.6 3 0 4.5 3.8 4.5 11.5l-10.6.2c.1-3 .6-5.7 1.7-8.1zm46.4-4a25 25 0 0 0-10.2-1.9 15 15 0 0 0-10 3.2 9.8 9.8 0 0 0-3.8 7.8c0 2.7.8 4.8 2.3 6.3a19 19 0 0 0 7 3.9c2.8 1 4.8 2 5.8 2.9 1 1 1.6 2.1 1.6 3.6 0 1.4-.5 2.7-1.6 3.7-1 1.1-2.4 1.6-4.2 1.6-4.4 0-7.7-3.2-10-9.6l-1.7.5.4 10c3.6 1.4 7.6 2.1 12 2.1 4.6 0 8.1-1 10.7-3.1 2.6-2 3.9-4.9 3.9-8.5 0-2.4-.6-4.4-1.9-5.9a16.4 16.4 0 0 0-6.4-4 25 25 0 0 1-6.8-3.3 4.6 4.6 0 0 1-1.8-3.7c0-1.5.4-2.7 1.3-3.7s2-1.4 3.4-1.4c4 0 6.9 2.9 8.7 8.6l1.7-.5zm-96.2-.9a9 9 0 0 0-9.9 1.1 13.5 13.5 0 0 0-4.4 5.9l.1-8-15.2 3v1.4l1.5.1c1.9.2 3 1.7 3.2 4.4.6 6.2.6 12.8 0 19.8-.2 2.7-1.3 4.1-3.2 4.4l-1.5.2v1.9h21.2V47l-2.7-.2c-1.9-.2-3-1.7-3.2-4.4-.6-5.8-.7-12-.2-18.4.6-1 1.9-1.6 3.9-1.8 2-.2 4.3.4 6.7 1.8z" fill="currentColor" />
    </symbol>
    <symbol id="dailydot" xmlns="http://www.w3.org/2000/svg" viewBox="0 0 189.2 36.8">
        <path fill="currentColor" d="M65.2 0c-.4 0-.7.1-1 .4-.2.2-.3.5-.3.8v11.4l-1.6-2A8.6 8.6 0 0 0 52 9.8a9.5 9.5 0 0 0-3.3 3.8c-.9 1.6-1.3 3.4-1.3 5.4a10.8 10.8 0 0 0 4.6 9 8.4 8.4 0 0 0 12-2.8v2.7c0 .3 0 .6.2.8.3.2.6.4 1 .4l.8-.5c.2-.1.3-.4.3-.7V1.2c0-.3 0-.6-.3-.8-.3-.3-.5-.4-.9-.4zm36.6 0a1 1 0 0 0-.8.4 1 1 0 0 0-.4.8v26.6c0 .2.1.5.4.7.2.3.5.5.8.5.3 0 .6-.3.8-.5.3-.1.4-.4.4-.7V1c0-.3 0-.6-.3-.8-.3-.3-.6-.4-.9-.4zm50.4 0c-.4 0-.7.1-.9.4-.2.2-.3.5-.3.8v11.4l-1.6-2a8.6 8.6 0 0 0-10.4-.8 9.5 9.5 0 0 0-3.3 3.8c-.8 1.6-1.2 3.4-1.2 5.4 0 2 .4 3.7 1.2 5.3.8 1.6 2 2.9 3.3 3.8a8.4 8.4 0 0 0 12-3V28c0 .3 0 .6.3.8.2.2.5.4 1 .4.2 0 .5-.3.7-.5.3-.1.4-.4.4-.7V1.2a1 1 0 0 0-.4-.8 1 1 0 0 0-.8-.4zM4.2 1.2a4 4 0 0 0-4.2 4V30a4 4 0 0 0 4 4h22a9.8 9.7 0 0 1-1-4.6 9.8 9.8 0 0 1 11.2-9.6V5.4a4 4 0 0 0-4-4h-7.5a15 15 0 0 1-4 21.6 13.3 13.3 0 0 1-6.9 2l-8.3-.3.2-23.4H4zm7.2.2L11.2 19H14a8.2 8.2 0 0 0 5.8-2.5 8.8 8.8 0 0 0 2.5-6.2A9 9 0 0 0 20 4a8.4 8.4 0 0 0-2.6-2c-1-.4-2-.7-3.2-.7zm83.1 1.3a2 2 0 0 0-1.2.4c-.3.2-.5.6-.5 1v.4c0 .5.2 1 .4 1.1.3.3.7.4 1.3.4.5 0 1 0 1.2-.4.3-.2.4-.6.4-1v-.4c0-.5 0-.9-.4-1-.3-.4-.7-.5-1.2-.5zm88.4.8a1 1 0 0 0-.8.4 1 1 0 0 0-.4.8V9H179a1 1 0 0 0-.8.4 1 1 0 0 0-.4.7c0 .5.1.7.4.9.2.3.5.4.8.4h2.8v13.2c0 1 .2 2 .5 2.6.4.7.8 1 1.3 1.4l1.4.3h1.1c.6 0 1 0 1.5-.2.4-.4.6-.7.6-1 0-.3 0-.6-.2-.7a.8.8 0 0 0-.6-.3h-.6c-.2.2-.4.2-.6.2-.3 0-.6 0-1-.2-.2 0-.5-.3-.7-.7a4 4 0 0 1-.3-1.7v-13h4a1 1 0 0 0 1-1c0-.4 0-.7-.3-.9a1 1 0 0 0-.8-.4h-3.8V4.7c0-.3 0-.6-.3-.8-.2-.3-.5-.4-.9-.4zm-104 5c-1.7 0-3.2.4-4.6 1.3a9.4 9.4 0 0 0-3.3 3.7c-.9 1.6-1.3 3.4-1.3 5.5 0 2 .4 3.7 1.2 5.3a9.4 9.4 0 0 0 3.3 3.8 8.5 8.5 0 0 0 8 .7 8.8 8.8 0 0 0 4-3.5v2.6c0 .3.1.6.3.8.3.2.6.4 1 .4l.8-.4c.2-.2.3-.5.3-.8V10.3c0-.5 0-.7-.3-1-.3-.2-.5-.3-.9-.3a1.2 1.2 0 0 0-1.2 1.3v2.4l-1.5-2A8.3 8.3 0 0 0 79 8.5zm88 0a10 10 0 0 0-8.7 5 10 10 0 0 0-1.4 5.5c0 2 .4 3.8 1.3 5.4a9.8 9.8 0 0 0 8.7 5 9.7 9.7 0 0 0 8.6-5c1-1.6 1.3-3.4 1.3-5.4 0-2-.4-3.8-1.3-5.3a9.6 9.6 0 0 0-8.6-5zm-72.4.1c-.4 0-.6.1-.9.4-.2.2-.3.5-.3.8v18c0 .4.1.7.3.9.2.2.5.4 1 .4.2 0 .5-.3.7-.5.2-.1.4-.4.4-.7v-18c0-.4-.2-.7-.4-.9a1 1 0 0 0-.8-.4zm14.1 0a1.2 1.2 0 0 0-1.2 1.2v12c0 1.6.3 2.9.8 4a6 6 0 0 0 2.3 2.7c1 .6 2.3 1 4 1a8.2 8.2 0 0 0 6.7-3.7v1.4c0 1.5-.3 2.9-1 4a5 5 0 0 1-2.4 2.6 7.7 7.7 0 0 1-6.6.4l-2-.9a1 1 0 0 0-.8 0c-.3 0-.5.4-.6.8v.8c.2.3.4.5.8.7.6.4 1.3.7 2.3 1 1 .2 2 .3 3.1.3a11 11 0 0 0 5-1.1 8.4 8.4 0 0 0 3.3-3.3 11 11 0 0 0 1.2-5.4V9.8c0-.3 0-.6-.3-.8-.2-.3-.5-.4-.9-.4a1 1 0 0 0-.8.4c-.2.2-.3.5-.3.8v11.6c0 1-.3 2-1 2.9a7 7 0 0 1-2.3 2.1c-1 .6-2 .9-3 .9-1.9 0-3.2-.6-4-1.6-.8-1-1.2-2.3-1.2-4.2V9.8c0-.3 0-.6-.3-.8-.3-.3-.5-.4-.9-.4zM57 10.8c1.4 0 2.7.3 3.7 1a8.3 8.3 0 0 1 3.5 7.1c0 1.7-.3 3-1 4.3a7.4 7.4 0 0 1-2.5 3c-1 .6-2.3 1-3.7 1-1.3 0-2.6-.4-3.7-1-1-.8-1.9-1.8-2.5-3a9.3 9.3 0 0 1 0-8.4 7.2 7.2 0 0 1 2.5-3c1.1-.7 2.4-1 3.7-1zm22.3 0c1.4 0 2.7.3 3.7 1a7 7 0 0 1 2.6 3 9.6 9.6 0 0 1 0 8.4 7.3 7.3 0 0 1-2.6 3c-1 .6-2.3 1-3.7 1-1.4 0-2.6-.4-3.7-1-1-.8-2-1.8-2.5-3a10 10 0 0 1-1-4.3c0-1.5.4-3 1-4.2a6.7 6.7 0 0 1 6.2-4zm64.8 0c1.4 0 2.6.3 3.7 1a8 8 0 0 1 2.5 3c.7 1.1 1 2.5 1 4.1 0 1.7-.3 3-1 4.3a7.4 7.4 0 0 1-2.5 3c-1 .6-2.3 1-3.7 1-1.4 0-2.6-.4-3.7-1-1-.8-2-1.8-2.5-3-.7-1.3-1-2.7-1-4.3 0-1.5.3-3 1-4.1a7.2 7.2 0 0 1 2.5-3c1.1-.7 2.3-1 3.7-1zm22.8 0a7.2 7.2 0 0 1 6.6 4 9 9 0 0 1 1 4.1c0 1.7-.4 3-1 4.4a7.6 7.6 0 0 1-2.7 2.8c-1.2.7-2.5 1-4 1a7 7 0 0 1-3.8-1 8.7 8.7 0 0 1-3.7-7c0-1.7.3-3 1-4.4a7.2 7.2 0 0 1 6.6-4zm-132 12.6A6 6 0 0 0 31.1 34a6 6 0 0 0 9.6-4.7 6 6 0 0 0-6-6z" />
    </symbol>
    <symbol id="verge" xmlns="http://www.w3.org/2000/svg" viewBox="0 0 512 114.7">
        <path fill="currentColor" d="m384.3 29.3-.5 15c-17.6-1.2-22.6 3.4-22.6 18.1v2H346V30.1h15v9.7c4.6-8 10.8-11.6 23.2-10.6zM25.2 90.6h15V32.3h-15v58.3zm74.7-61.2c-10.6 0-17 4.7-20.4 10V7H0v14.1h65.4v43.1h14.4c0-12.3 7.1-21 15.9-21 7.5 0 11 3.6 11 17v30.3h15V54.9c0-17.1-8.7-25.5-21.8-25.5zM159.3 79c-9.2 0-15.1-5.5-16.1-14.7H129c1.4 16.1 12 27.5 30.2 27.5 14 0 22-6.4 26.1-15.9l-12.8-5.6c-1.9 5.7-5.4 8.7-13.2 8.7zm-.6-49.3a32 32 0 0 0-15.5 3.6l7.2 10.2c2.7-1.4 5.6-2 8.8-2 8.4 0 12.7 5.5 13.3 12.8H158v10h28.7c.2-1.5.3-2.9.3-4.4.1-21.9-14.4-30.2-28.3-30.2zM308 79c-9.2 0-15.1-5.5-16.1-14.7h-14.2c1.4 16.1 12 27.5 30.2 27.5 14 0 22-6.4 26.1-15.9l-12.8-5.6c-2 5.7-5.5 8.7-13.2 8.7zm-.5-49.3a32 32 0 0 0-15.5 3.6l7.2 10.2c2.7-1.4 5.6-2 8.8-2 8.4 0 12.7 5.5 13.3 12.8H307v10h28.7c.2-1.5.3-2.9.3-4.4.1-21.9-14.4-30.2-28.3-30.2zM484.4 79c-9.1 0-15-5.5-16-14.7H454c1.5 16.1 12 27.5 30.2 27.5 14.1 0 22-6.4 26.2-15.9l-12.8-5.6c-2 5.7-5.5 8.7-13.3 8.7zm-.8-49.3a32 32 0 0 0-15.5 3.6l7.3 10.2c2.7-1.4 5.6-2 8.7-2 8.5 0 12.8 5.5 13.4 12.8H483v10h28.8c.2-1.5.3-2.9.3-4.4.1-21.9-14.4-30.2-28.4-30.2zM194.8 0l27.1 64.3h16.5l-20.7-51.1h26.8V0L194.8 0Zm80.5.1-31.1 78.7-4.7 11.8h15.8L292.7 0h-17.4Zm138.7 89c6.4 0 11.8-1.7 15.5-4.9l-6-9.5c-2 .8-4 1.1-6.2 1.1-8.2 0-13-5-14.6-11.5H388c2 14 12.1 24.9 26.1 24.9zm18.6-50.5c-3.4-5.4-10.3-9.3-20-9.3-9.5-.1-18.2 5-22.8 13.3l12.5 8c2.3-4.8 6.9-8 13.8-8 9.9 0 16.5 7.7 16.5 16.7 0 1.7-.2 3.4-.7 5h15.8v-34h-15zM418 102.8c-9.7 0-13.4-4.7-14-10.2h-14.4c.3 10.5 7.3 22.1 28.7 22.1 14.5 0 24-7.2 27.9-18l-13.6-4.8c-1.9 7-7.1 11-14.6 11z" />
    </symbol>
    <symbol id="mic" xmlns="http://www.w3.org/2000/svg" viewBox="0 0 214 262">
        <path fill="currentColor" d="M0 257.7.4 4.3h29L47.9 138l18-133.6H95v253.4H66.5l7.6-160-17.3 160H38.3L21 97.7l7.6 160H0zm104.2 0V4.3H136v253.4h-32zm39-38v-182c0-20.6 16-37.7 35.2-37.7C198 0 214 17 214 37.7v84h-30.7V38c0-6.8-1.5-9.7-4.8-9.7-2.9 0-4.3 3-4.3 9.7v186.7c0 6.6 1 9 4.3 9s4.8-2.4 4.8-9v-88.6h30.7v83.5c0 30-14.2 42.4-35.5 42.4-21 0-35.1-12.3-35.1-42.4z" />
    </symbol>
    <symbol id="mashable" xmlns="http://www.w3.org/2000/svg" viewBox="0 0 27.1 25.8">
        <path d="M8.5 0 0 7.1v18.7l8.5-7.2V0zm3.4 3.9v10.8h2.7V9.2l2.2 3.9.4.7h1.2l.5-1 2-3.6v5.5h2.8V3.9H21l-3.2 5.5L14.6 4h-2.7zm-1.8 14.7-8.5 7.2h1.6l8.5-7.2h-1.6zm3 0-8.4 7.2h1.6l8.5-7.2h-1.6zm3.1 0-8.4 7.2h1.6l8.5-7.2h-1.7zm3.1 0-8.5 7.2h1.6l8.5-7.2h-1.6zm3.1 0L14 25.8h1.6l8.5-7.2h-1.6zm3 0L17 25.8h1.6l8.5-7.2h-1.6z" fill="currentColor" />
    </symbol>
    <symbol xmlns="http://www.w3.org/2000/svg" id="boingboing" version="1.1" viewBox="0 0 284.2 43.6">
        <path fill="currentColor" d="M0 0v43.6h27.8V7.9h-16V.2H0zm31.7 0v43.7h27.8V0H31.7zm31.7 0V12h12V0h-12zm15.9 0v43.6H91V11.9h4v31.8H107V0H79.3zM111 0v43.6h27.8V15.8h-12v16h-4v-20h16V.2H111zm34.4 0v43.6h27.8V7.9h-15.9V.2h-11.9zm31.7 0v43.7H205V0H177zm31.7 0V12h12V0h-12zm15.9 0v43.6h11.9V11.9h4v31.8h11.8V0h-27.7zm31.7 0v43.6h27.8V15.8h-11.9v16h-4v-20h15.9V.2h-27.8zM43.6 12h4v19.8h-4V12zm145.4 0h4v19.8h-4V12zm-125.6 4v27.7h12V15.9h-12zm145.4 0v27.7h12V15.9h-12zm-197 4h4v11.8h-4V19.8zm145.5 0h4v11.8h-4V19.8z" />
    </symbol>
    <symbol xmlns="http://www.w3.org/2000/svg" id="gizmodo" viewBox="0 0 912.3 130.9">
        <path fill="currentColor" d="M162.2 0c-3.7 0-6.8 1.3-9.1 3.9-2.4 2.6-3.6 6.5-3.6 11.6v99.8c0 5.2 1.2 9 3.6 11.7 2.4 2.6 5.4 4 9.1 4 3.9 0 7-1.4 9.4-4 2.4-2.6 3.6-6.5 3.6-11.7V15.5c0-5.2-1.2-9-3.6-11.7a12.2 12.2 0 0 0-9.4-3.8zm532.9 0h-32.8c-5.7 0-9.7 1.3-12.2 3.9-2.5 2.5-3.8 6.7-3.8 12.4v98.3c0 5.8 1.3 9.9 3.8 12.4 2.5 2.6 6.5 3.9 12.2 3.9H697a65.4 65.4 0 0 0 63.4-65.4A65.2 65.2 0 0 0 697 0l-1.9-.1zM65.9 0C40.4 0 0 18.1 0 66.7 0 82.2 6.1 98 16.9 110a63.7 63.7 0 0 0 48 21 74 74 0 0 0 50.2-17.6c2.4-2.3 3.7-5.5 3.7-8.9v-37c0-7-5.5-12.5-12.2-12.5H75.3C68.6 55 63 60.5 63 67.4c0 6.8 5.6 12.4 12.3 12.4h19v18.5a54 54 0 0 1-28.9 7.2c-24.3 0-37.5-21-37.5-38.8 0-31.3 22-41.8 38-41.8 17.2 0 30.2 8.4 30.6 8.6a12.2 12.2 0 0 0 17-3.4 12.6 12.6 0 0 0-3.4-17.3A85.2 85.2 0 0 0 65.9 0zm487.3 0a65.5 65.5 0 1 0 .2 131 65.5 65.5 0 0 0-.2-131zM847 0a65.5 65.5 0 1 0 .1 131A65.5 65.5 0 0 0 847 0zM350 0a11.6 11.6 0 0 0-11.7 11.6v106.9c0 6.4 5 11.6 11.4 11.6 6.2 0 11.3-5.2 11.3-11.6V49.8l28 42.6v.1h.1l.1.2.6.8.2.3.5.5.5.5.3.3.7.5.2.1.8.5.2.2.6.3a11.1 11.1 0 0 0 3.6 1h2.2c1.3-.2 2.5-.5 3.6-1l.6-.3.2-.2.8-.4.2-.2.7-.5.4-.3.4-.5.5-.5.3-.3.5-.8.1-.1.1-.2 28-42.6v68.7c0 6.4 5.1 11.6 11.4 11.6 6.2 0 11.3-5.2 11.3-11.6V11.7c0-5.1-3.2-9.6-8-11.1s-10 .4-12.7 4.6l-39.5 60.1-39.4-60C357 2 353.7.1 350 0zM217.5 1.5c-6.3 0-11.3 4.1-11.3 10.8 0 6.7 5 12.1 11.3 12.1h57.3l-69.3 80.5c-4 4.7-3.6 10.7-1.8 15 1.9 4.3 6.8 7.1 11.3 7.1h84.8c6.3 0 10.8-5.4 10.8-12.1 0-6.7-4.5-12.1-10.8-12.1h-59.5l67-78.2c4.2-5.2 4.3-14 .6-18-4-4.4-8.6-5-13-5h-77.4zm454.8 25.2h17.2c3.7 0 7 0 10.2.2A39 39 0 0 1 734 65.4v.1a38.7 38.7 0 0 1-34.3 38.6c-3.1.2-6.5.2-10.2.2h-17.2V26.6zm-119 0a39 39 0 1 1-.1 78 39 39 0 0 1 0-78zm293.6 0a39 39 0 1 1-.1 78 39 39 0 0 1 0-78z" />
    </symbol>
    <symbol xmlns="http://www.w3.org/2000/svg" id="metro" viewBox="0 0 247.7 60.8">
        <path fill="currentColor" d="M218 0a28.5 28.5 0 0 0-21 8.9 30.9 30.9 0 0 0-6.4 33.2 30.9 30.9 0 0 0 16 16.3 28.5 28.5 0 0 0 22.8 0 29.7 29.7 0 0 0 16-16.3 30 30 0 0 0 0-23.4 31 31 0 0 0-16-16.4A28.5 28.5 0 0 0 218 0zM8.3 1.4 0 59.4h15.4l3.4-23.9h.2l11.5 24.2 11.6-24.2h.2l3.4 23.8H61L53 1.4h-12L30.5 24 20.3 1.4h-12zm58 0v58h31.4l4-15.3H81.3v-6h11.8V22.6H81.4v-6h18.2L97.3 1.4h-31zm37.2 0-1.6 14.7h11.8v43.2H129V16.1h11.8L139 1.4h-35.6zm41.5 0v58h15.1v-24h.2l10.2 24h17l-11-25.2c5.2-3.4 7.8-8.2 7.8-14.2s-1.7-10.6-5.2-13.8a20.3 20.3 0 0 0-14.2-4.8H145zm15.1 13c3 0 5.2.5 6.8 1.6 1.5 1.1 2.3 3 2.3 5.5s-.8 4.3-2.3 5.4a11.4 11.4 0 0 1-6.8 1.7V14.3zm58 1.2a14.6 14.6 0 0 1 13.2 9.2 14.8 14.8 0 0 1-3.2 16 14.6 14.6 0 0 1-4.6 3.2A13.8 13.8 0 0 1 208 41a15.1 15.1 0 0 1 4.6-24.2c1.7-.7 3.6-1.1 5.5-1.1z" />
    </symbol>
    <symbol xmlns="http://www.w3.org/2000/svg" xml:space="preserve" id="linuxformat" viewBox="0 0 600 274">
        <path fill="currentColor" d="M0 0v274l558.8-.8c10.9 0 21.4-5.2 29.1-14.4A54 54 0 0 0 600 224V0H0zm16.7 18.5h47.4V157h55.6l-8.8 38.1H16.7V18.5zm106.5 0h47.3V195h-47.3V18.5zm55.5 0h38.8l48.7 79.8V18.5h45.9v176.6h-38.3l-49-81.2v81.2h-46.1V18.5zm141.5 0H367v121.4c0 10.4 5.7 20.1 18 20.1s17-9.7 17-20.1V18.5h23.1l24.4 42.3v72.5c0 18.9-3.8 31.9-13.5 44-13 15.6-31.3 21.3-50.9 21.3-20.4 0-37.4-5.2-51.4-21.5-9.5-11.1-13.5-25.3-13.5-43.8V18.5zm113.8 0h49.9l24.6 50.9 25.1-50.9h49.2l-49.7 85.9 49.7 90.5h-49.2l-25.1-52.8-24.6 52.8H434l49.9-90.6-34.5-59.4v.2L434 18.5zm-53 185.9c12 0 24.4 7.6 24.4 25.8 0 18.2-12.5 25.8-24.4 25.8-12 0-24.4-7.5-24.4-25.8 0-18.2 12.4-25.8 24.4-25.8zm140.3.9h12.5l17.6 49.8h-13.5l-3-9.3h-15.6l-3.2 9.3h-12.2l17.4-49.8zm-114 .1h19.4c12.7 0 20.5 4.3 20.5 16.2 0 7.8-3.3 12.3-9.8 14.5l10.5 19h-14.2l-9.6-17.2h-3.7v17.2h-13.1v-49.7zm-83.5.1h34.3v11.1h-20.9v9.9h14.6V237h-14.6v18.1h-13.4v-49.6zm126.2 0h17.8l8.7 33.7h.1l7.9-33.7h18.2v49.6h-13v-30.7h-.1c-.8 5.1-1.6 8.3-2.7 12.1l-5.2 18.6h-11.8l-5.1-18.6c-1.1-4.1-1.7-6.3-2.8-12.8h-.1v31.4H450v-49.6zm90.6 0h42v11.1h-14.3v38.5h-13.4v-38.5h-14.3v-11.1zM381 215.6c-7 0-11 5.6-11 14.7s4 15 11 15 11-5.9 10.9-15c0-9.1-3.9-14.7-10.9-14.7zm39.4.7v11.3h5.8c5.5 0 7.9-1.5 7.9-5.7 0-4.1-2.4-5.6-7.9-5.6h-5.8zm106.9 6.3-4.8 13.7h9.5l-4.6-13.7h-.1z" />
    </symbol>
</svg>