<svg xmlns="http://www.w3.org/2000/svg" width="24" height="24"><path d="M20.544 3.575a8.027 8.027 0 0 0-.43.082 7.253 7.253 0 0 0-.435.11 6.683 6.683 0 0 0-.618.213 6.157 6.157 0 0 0-.578.268 5.996 5.996 0 0 0-.715.445 6.321 6.321 0 0 0-.5.402 7.004 7.004 0 0 0-.319.3 7.698 7.698 0 0 0-.308.326 8.616 8.616 0 0 0-.298.352 9.797 9.797 0 0 0-.29.38 11.285 11.285 0 0 0-.283.407 13.161 13.161 0 0 0-.276.434 17.62 17.62 0 0 0-.407.702 21.073 21.073 0 0 0-.266.502 24.416 24.416 0 0 0-.529 1.09 37.48 37.48 0 0 0-.53 1.205c-.088.21-.178.426-.267.646a100.45 100.45 0 0 0-.55 1.38 163.286 163.286 0 0 0-.573 1.498 17.663 17.663 0 0 1-.304.752 16.036 16.036 0 0 1-.322.699 14.628 14.628 0 0 1-.338.646 13.42 13.42 0 0 1-.354.597 12.383 12.383 0 0 1-.365.548 11.51 11.51 0 0 1-.377.503 10.782 10.782 0 0 1-.58.673 9.912 9.912 0 0 1-.596.58 9.276 9.276 0 0 1-.603.495 8.84 8.84 0 0 1-.806.538 8.497 8.497 0 0 1-.99.498 8.335 8.335 0 0 1-2.135.584l-.017.002A12 12 0 0 0 12 24a12 12 0 0 0 12-12 12 12 0 0 0-3.456-8.425Z"/><path fill="#9c59d1" d="M1.456 6.283A12 12 0 0 0 0 12a12 12 0 0 0 4.585 9.432l.017-.002a8.275 8.275 0 0 0 1.56-.365 8.328 8.328 0 0 0 1.565-.717 8.547 8.547 0 0 0 .806-.538 8.977 8.977 0 0 0 .603-.495 9.473 9.473 0 0 0 .595-.58 10.174 10.174 0 0 0 .581-.673 11.138 11.138 0 0 0 .377-.503 11.925 11.925 0 0 0 .365-.548 12.885 12.885 0 0 0 .354-.597l.088-.163a10.185 10.185 0 0 1-.663-.026 10.185 10.185 0 0 1-.794-.094 10.185 10.185 0 0 1-.784-.156 10.185 10.185 0 0 1-.77-.217 10.185 10.185 0 0 1-.75-.277 10.185 10.185 0 0 1-.727-.335 10.185 10.185 0 0 1-.697-.39 10.185 10.185 0 0 1-.665-.445 10.185 10.185 0 0 1-.628-.495 10.185 10.185 0 0 1-.587-.543 10.185 10.185 0 0 1-.543-.587 10.185 10.185 0 0 1-.495-.628 10.185 10.185 0 0 1-.444-.665 10.185 10.185 0 0 1-.391-.698 10.185 10.185 0 0 1-.335-.726 10.185 10.185 0 0 1-.277-.75 10.185 10.185 0 0 1-.217-.77 10.185 10.185 0 0 1-.156-.784 10.185 10.185 0 0 1-.094-.794 10.185 10.185 0 0 1-.023-.588Z"/><path fill="#fff" d="M5.93 1.655a12 12 0 0 0-4.474 4.628 10.185 10.185 0 0 0 .023.588 10.185 10.185 0 0 0 .094.794 10.185 10.185 0 0 0 .156.784 10.185 10.185 0 0 0 .217.77 10.185 10.185 0 0 0 .277.75 10.185 10.185 0 0 0 .335.727 10.185 10.185 0 0 0 .39.697 10.185 10.185 0 0 0 .445.665 10.185 10.185 0 0 0 .495.628 10.185 10.185 0 0 0 .543.587 10.185 10.185 0 0 0 .587.543 10.185 10.185 0 0 0 .628.495 10.185 10.185 0 0 0 .665.445 10.185 10.185 0 0 0 .698.39 10.185 10.185 0 0 0 .726.335 10.185 10.185 0 0 0 .75.277 10.185 10.185 0 0 0 .77.217 10.185 10.185 0 0 0 .784.156 10.185 10.185 0 0 0 .794.094 10.185 10.185 0 0 0 .663.026l.083-.154a14.635 14.635 0 0 0 .33-.672 16.035 16.035 0 0 0 .314-.725 17.645 17.645 0 0 0 .149-.383 167.665 167.665 0 0 1 .85-2.203 91.364 91.364 0 0 1 .54-1.32l.159-.367a9.546 9.546 0 0 1-1.18-.257 9.546 9.546 0 0 1-1.277-.476 9.546 9.546 0 0 1-1.196-.653 9.546 9.546 0 0 1-1.09-.816 9.546 9.546 0 0 1-.963-.963 9.546 9.546 0 0 1-.816-1.09 9.546 9.546 0 0 1-.653-1.196A9.546 9.546 0 0 1 6.27 3.7a9.546 9.546 0 0 1-.29-1.331 9.546 9.546 0 0 1-.05-.714Z"/><path fill="#fff430" d="M5.93 1.655a9.546 9.546 0 0 0 .05.714 9.546 9.546 0 0 0 .29 1.33 9.546 9.546 0 0 0 .476 1.277 9.546 9.546 0 0 0 .653 1.195 9.546 9.546 0 0 0 .816 1.091 9.546 9.546 0 0 0 .963.963 9.546 9.546 0 0 0 1.09.816 9.546 9.546 0 0 0 1.196.653 9.546 9.546 0 0 0 1.276.476 9.546 9.546 0 0 0 1.18.257l.108-.25a36.507 36.507 0 0 1 .528-1.147c.088-.182.177-.359.265-.531a21.07 21.07 0 0 1 .267-.503 17.622 17.622 0 0 1 .406-.702 14.267 14.267 0 0 1 .276-.434 12.174 12.174 0 0 1 .283-.406 10.485 10.485 0 0 1 .29-.38 9.183 9.183 0 0 1 .298-.353 8.126 8.126 0 0 1 .308-.326 7.323 7.323 0 0 1 .319-.3 6.735 6.735 0 0 1 .5-.402 6.18 6.18 0 0 1 .531-.343 5.997 5.997 0 0 1 .762-.37 6.29 6.29 0 0 1 .618-.212 6.94 6.94 0 0 1 .435-.11 7.614 7.614 0 0 1 .43-.083A12 12 0 0 0 12 0a12 12 0 0 0-6.07 1.655Z"/></svg>