<svg xmlns="http://www.w3.org/2000/svg" xml:space="preserve" width="24" height="24"><path fill="#11fff6" fill-opacity=".45" d="m1.095 12.595 2.171 8.061c0 .017.009.035.024.05a.159.159 0 0 0 .063.037l11.032 2.961h1.035l8.458-8.455a.116.116 0 0 0 .034-.054c.005-.02 0-.042-.017-.068l-.737-2.753c-.698.007-1.418-.026-1.96-.154-1.492-.352-2.726-2.173-4.345-2.173-1.618 0-2.726 2.173-4.345 2.173-1.619 0-2.727-2.173-4.345-2.173-1.619 0-2.727 2.173-4.345 2.173-.887 0-1.807.197-2.723.375z"/><path fill="none" stroke="#11fff6" stroke-width=".17256000000000002" d="m23.878 15.248-8.624 8.622c-.035.034-.087.052-.121.034l-11.78-3.161c-.052-.017-.087-.052-.087-.087L.093 8.873c-.017-.052 0-.087.034-.121L8.751.13c.035-.034.087-.052.12-.034l11.782 3.161c.051.018.086.052.086.087l3.156 11.783c.035.052.018.087-.017.121z"/><path fill="#11fff6" d="M3.702 10.25c-1.057 0-1.951.773-2.86 1.41l2.424 8.996c0 .035.035.07.087.087l11.78 3.162c.035.017.086 0 .12-.035l8.625-8.622c.035-.034.052-.069.017-.12l-1.152-4.303c-.523-.328-1.066-.575-1.66-.575-1.62 0-2.727 2.173-4.346 2.173-1.618 0-2.726-2.173-4.345-2.173-1.619 0-2.726 2.173-4.345 2.173-1.62 0-2.727-2.173-4.345-2.173z"/></svg>