<svg xmlns="http://www.w3.org/2000/svg" width="24" height="24"><path fill="#21cef5" d="M21.742 4.388c-1.719.016-2.631 2.548-4.298 3.028-2.466.792-3.625-2.15-7.713-1.412-2.848.763-2.518 3.84-5.439 4.94-1.6.602-3.175.106-3.224.355-.08.382 2.92 2.11 5.493 1.208 1.699-.593 2.324-2.025 4.762-2.619 1.084-.267 1.475-.106 1.635.097.273.353-.009.996-.106 1.211-.85 1.945-4.21 3-7.157 4.383-3.603 1.693-5.754 3.942-5.694 4.03.058.093 2.897-2.423 7.309-3.777 1.411-.436 5.554-.605 8.548-2.456 1.2-.743 2.64-1.72 3.902-3.494 1.23-1.726 2.203-4.128 3.577-4.082.315.01.61.144.656.049.104-.2-1.017-1.417-2.168-1.46l-.083-.001z" class="blue" style="stroke-width:.0240001"/></svg>