<svg xmlns="http://www.w3.org/2000/svg" viewBox="0 0 128 128"><linearGradient id="a" x1="8" x2="120" y1="124" y2="124" gradientUnits="userSpaceOnUse"><stop offset="0" stop-color="#e5a50a"/><stop offset=".036" stop-color="#f6d32d"/><stop offset=".071" stop-color="#e5a50a"/><stop offset=".929" stop-color="#e5a50a"/><stop offset=".964" stop-color="#f6d32d"/><stop offset="1" stop-color="#e5a50a"/></linearGradient><linearGradient id="b" x1="92.28" x2="96.954" y1="238.859" y2="238.859" gradientTransform="matrix(.788276 0 0 1 20.033 -176)" gradientUnits="userSpaceOnUse"><stop offset="0" stop-color="#5a5a5a"/><stop offset=".5" stop-color="#bab9a3"/><stop offset="1" stop-color="#68676b"/></linearGradient><linearGradient id="c" x1="91.851" x2="97.384" y1="90.999" y2="90.999" gradientUnits="userSpaceOnUse"><stop offset="0" stop-color="#5e5c64"/><stop offset=".5" stop-color="#7c7a7d"/><stop offset="1" stop-color="#3d3846" stop-opacity=".98"/></linearGradient><linearGradient id="d" x1="94.617" x2="94.617" y1="31.412" y2="46.072" gradientUnits="userSpaceOnUse"><stop offset="0" stop-color="#979692"/><stop offset="1" stop-color="#c4c3c0"/></linearGradient><linearGradient id="e" x1="12" x2="87.159" y1="66.044" y2="66.044" gradientUnits="userSpaceOnUse"><stop offset="0" stop-color="#00000f"/><stop offset=".1" stop-color="#707070"/><stop offset=".2" stop-color="#121212"/><stop offset=".8" stop-color="#121212"/><stop offset=".9" stop-color="#707070"/><stop offset="1"/></linearGradient><linearGradient id="f" x1="169.708" x2="248.62" y1="128.791" y2="128.791" gradientTransform="scale(.952445) rotate(46.733 201.145 -83.504)" gradientUnits="userSpaceOnUse"><stop offset="0" stop-opacity="0"/><stop offset=".5" stop-color="#fff" stop-opacity=".361"/><stop offset="1" stop-opacity="0"/></linearGradient><g><path fill="url(#a)" d="M16 40h96a8 8 0 0 1 8 8v60a8 8 0 0 1-8 8H16a8 8 0 0 1-8-8V48a8 8 0 0 1 8-8zm0 0" style="fill:url(#a)" transform="translate(-9.143 -16) scale(1.1428571)"/><path fill="#f6d32d" d="M9.143 11.429h109.714c5.05 0 9.143 4.727 9.143 10.558v73.92c0 5.834-4.094 10.562-9.143 10.562H9.143C4.093 106.469 0 101.74 0 95.906v-73.92c0-5.83 4.094-10.557 9.143-10.557Zm0 0"/><path fill="url(#b)" d="M94.262 27.805h.71c.821 0 1.489.664 1.489 1.484v67.137c0 .824-.668 1.488-1.488 1.488h-.711c-.82 0-1.489-.664-1.489-1.488V29.289c0-.82.668-1.484 1.489-1.484zm0 0" style="fill:url(#b)" transform="translate(-9.143 -16) scale(1.1428571)"/><path fill="#939390" d="M107.366 29.25c0 4.63-3.75 8.38-8.375 8.38a8.376 8.376 0 0 1-8.375-8.38 8.375 8.375 0 0 1 16.75 0zm0 0"/><path fill="url(#c)" d="M92.93 86.14h3.375a1.08 1.08 0 0 1 1.078 1.079v7.558c0 .598-.485 1.078-1.078 1.078H92.93c-.594 0-1.078-.48-1.078-1.078V87.22a1.08 1.08 0 0 1 1.078-1.078zm0 0" style="fill:url(#c)" transform="translate(-9.143 -16) scale(1.1428571)"/><path fill="url(#d)" d="M101.945 38.742a7.329 7.329 0 1 1-14.657 0 7.329 7.329 0 0 1 14.657 0zm0 0" style="fill:url(#d)" transform="translate(-9.143 -16) scale(1.1428571)"/><path fill="url(#e)" d="M87.16 66.043c0 20.754-16.824 37.582-37.582 37.582C28.824 103.625 12 86.797 12 66.043s16.824-37.578 37.578-37.578c20.758 0 37.582 16.824 37.582 37.578zm0 0" style="fill:url(#e)" transform="translate(-9.143 -16) scale(1.1428571)"/><path d="M76.955 89.12c-17.272 16.255-44.45 15.434-60.71-1.839C-.012 70.01.814 42.831 18.086 26.571c17.268-16.254 44.45-15.433 60.71 1.84 16.254 17.272 15.433 44.45-1.84 60.71Zm0 0"/><path fill="url(#f)" d="M75.336 91.98c-15.113 14.223-38.895 13.504-53.121-1.609C7.988 75.258 8.71 51.477 23.825 37.25c15.109-14.223 38.894-13.504 53.12 1.61 14.223 15.113 13.504 38.894-1.61 53.12Zm0 0" style="fill:url(#f)" transform="translate(-9.143 -16) scale(1.1428571)"/><path fill="#1a5fb4" d="M60.723 58.933c0 7.295-5.91 13.205-13.205 13.205-7.29 0-13.205-5.91-13.205-13.205 0-7.29 5.915-13.205 13.205-13.205 7.295 0 13.205 5.915 13.205 13.205zm0 0"/><path fill="#c0bfbc" d="M48.937 58.933a1.42 1.42 0 1 1-2.838-.001 1.42 1.42 0 0 1 2.838.001zm0 0"/><path d="M45.754 14.933a42.963 42.963 0 0 0-27.67 11.638C.814 42.831-.012 70.01 16.247 87.281c16.258 17.273 43.437 18.094 60.71 1.84 17.272-16.26 18.093-43.438 1.839-60.71a42.963 42.963 0 0 0-33.04-13.478Zm.085 2.094a40.85 40.85 0 0 1 31.429 12.817c15.464 16.428 14.683 42.285-1.746 57.75-16.433 15.464-42.285 14.683-57.75-1.746C2.304 69.42 3.09 43.563 19.518 28.098a40.836 40.836 0 0 1 26.321-11.071zm0 0"/><path d="M47.518 44.433c-8.005.004-14.496 6.496-14.496 14.5 0 8.009 6.491 14.5 14.496 14.5 8.009 0 14.5-6.491 14.5-14.5 0-8.004-6.491-14.495-14.5-14.5zm0 1.3c7.295 0 13.205 5.91 13.205 13.2 0 7.295-5.91 13.205-13.205 13.205-7.29 0-13.201-5.91-13.201-13.205 0-7.29 5.91-13.2 13.2-13.2zm0 0"/></g></svg>