<svg xmlns="http://www.w3.org/2000/svg" width="24" height="24"><!--! Font Awesome Pro 6.2.1 by @fontawesome - https://fontawesome.com License - https://fontawesome.com/license (Commercial License) Copyright 2022 Fonticons, Inc.--><path fill="currentColor" d="M12 1.935A10.06 10.06 0 0 1 22.065 12 10.06 10.06 0 0 1 12 22.065 10.06 10.06 0 0 1 1.935 12 10.06 10.06 0 0 1 12 1.935M12 0C5.373 0 0 5.373 0 12s5.373 12 12 12 12-5.373 12-12S18.627 0 12 0Zm0 2.71a9.29 9.29 0 1 0 0 18.58 9.29 9.29 0 0 0 0-18.58zm0 2.129a1.742 1.742 0 1 1 0 3.484 1.742 1.742 0 0 1 0-3.484zm5.697 4.743c-1.39.328-2.686.617-3.974.765.04 4.888.595 5.954 1.211 7.53a.87.87 0 1 1-1.622.633c-.422-1.079-.827-1.966-1.078-3.8h-.468c-.25 1.831-.655 2.72-1.077 3.8a.87.87 0 1 1-1.623-.633c.615-1.575 1.17-2.64 1.211-7.53-1.288-.148-2.585-.437-3.974-.765a.774.774 0 1 1 .356-1.507c4.678 1.104 6.013 1.102 10.682 0a.774.774 0 1 1 .356 1.507z" style="stroke-width:.0483871"/></svg>