<svg xmlns="http://www.w3.org/2000/svg" viewBox="0 0 24 24"><!--! Font Awesome Pro 6.2.1 by @fontawesome - https://fontawesome.com License - https://fontawesome.com/license (Commercial License) Copyright 2022 Fonticons, Inc.--><path fill="currentColor" d="M2.667 2.667A2.67 2.67 0 0 0 0 5.333v13.334a2.67 2.67 0 0 0 2.667 2.666h18.666A2.67 2.67 0 0 0 24 18.667V5.333a2.67 2.67 0 0 0-2.667-2.666zM6 13.333h2.667A3.332 3.332 0 0 1 12 16.667c0 .366-.3.666-.667.666h-8a.669.669 0 0 1-.666-.666A3.332 3.332 0 0 1 6 13.333Zm4-4A2.67 2.67 0 0 1 7.333 12a2.67 2.67 0 0 1-2.666-2.667 2.67 2.67 0 0 1 2.666-2.666A2.67 2.67 0 0 1 10 9.333ZM15.333 8h5.334c.366 0 .666.3.666.667 0 .366-.3.666-.666.666h-5.334a.669.669 0 0 1-.666-.666c0-.367.3-.667.666-.667zm0 2.667h5.334c.366 0 .666.3.666.666 0 .367-.3.667-.666.667h-5.334a.669.669 0 0 1-.666-.667c0-.366.3-.666.666-.666zm0 2.666h5.334c.366 0 .666.3.666.667 0 .367-.3.667-.666.667h-5.334a.669.669 0 0 1-.666-.667c0-.367.3-.667.666-.667z" style="stroke-width:.0416667"/></svg>
