<svg xmlns="http://www.w3.org/2000/svg" viewBox="0 0 24 24"><!--! Font Awesome Pro 6.2.1 by @fontawesome - https://fontawesome.com License - https://fontawesome.com/license (Commercial License) Copyright 2022 Fonticons, Inc.--><path fill="currentColor" d="M11.146.257a1.546 1.546 0 0 1 1.707 0l.834.548c.281.183.61.272.942.253l.998-.06c.619-.038 1.2.3 1.477.852l.45.896c.15.3.393.539.689.689l.904.454c.554.277.891.858.853 1.477l-.06.998c-.02.333.07.666.253.942l.553.834c.342.516.342 1.191 0 1.707l-.553.839c-.183.28-.272.609-.253.942l.06.998c.038.619-.3 1.2-.853 1.477l-.895.45c-.3.15-.539.393-.689.689l-.455.904c-.276.553-.857.89-1.476.853l-.998-.06a1.555 1.555 0 0 0-.942.252l-.835.554a1.546 1.546 0 0 1-1.706 0l-.839-.554a1.564 1.564 0 0 0-.942-.253L8.372 17c-.62.038-1.2-.3-1.477-.853l-.45-.895c-.15-.3-.394-.54-.689-.69l-.905-.454a1.548 1.548 0 0 1-.853-1.476l.061-.999a1.555 1.555 0 0 0-.253-.942l-.548-.839a1.546 1.546 0 0 1 0-1.706l.548-.834c.183-.281.272-.61.253-.942L4 5.37c-.038-.618.3-1.2.852-1.476l.896-.45c.3-.155.543-.398.693-.698l.45-.896c.277-.553.858-.89 1.477-.853l.998.061c.333.019.666-.07.942-.253zm4.603 8.741A3.749 3.749 0 0 0 12 5.248a3.749 3.749 0 0 0-3.75 3.75 3.749 3.749 0 0 0 3.75 3.75 3.749 3.749 0 0 0 3.75-3.75zM3.061 20.707l2.02-4.805c.01.005.014.01.019.02l.45.894a3.057 3.057 0 0 0 2.906 1.678l.998-.06c.01 0 .024 0 .033.009l.834.553c.24.155.493.277.755.36l-1.762 4.187a.741.741 0 0 1-.624.454.745.745 0 0 1-.693-.337l-1.51-2.311-2.63.389a.746.746 0 0 1-.802-1.031Zm11.624 2.83-1.762-4.18c.262-.084.515-.202.754-.361l.835-.553c.01-.005.019-.01.033-.01l.998.061a3.057 3.057 0 0 0 2.906-1.678l.45-.895a.037.037 0 0 1 .019-.019l2.025 4.805a.759.759 0 0 1-.099.75.74.74 0 0 1-.703.281l-2.63-.39-1.509 2.307a.75.75 0 0 1-1.317-.117z" style="stroke-width:.0468719"/></svg>
