<svg xmlns="http://www.w3.org/2000/svg" viewBox="0 0 24 24"><!--! Font Awesome Pro 6.2.1 by @fontawesome - https://fontawesome.com License - https://fontawesome.com/license (Commercial License) Copyright 2022 Fonticons, Inc.--><path fill="currentColor" d="M0 3.429c0-.949.766-1.715 1.714-1.715h20.572c.948 0 1.714.766 1.714 1.715 0 .948-.766 1.714-1.714 1.714H1.714A1.712 1.712 0 0 1 0 3.429ZM0 12c0-.948.766-1.714 1.714-1.714h20.572c.948 0 1.714.766 1.714 1.714s-.766 1.714-1.714 1.714H1.714A1.712 1.712 0 0 1 0 12Zm24 8.571c0 .949-.766 1.715-1.714 1.715H1.714A1.712 1.712 0 0 1 0 20.57c0-.948.766-1.714 1.714-1.714h20.572c.948 0 1.714.766 1.714 1.714Z" style="stroke-width:.0535714"/></svg>
