<svg xmlns="http://www.w3.org/2000/svg" viewBox="0 0 24 24"><!--! Font Awesome Pro 6.3.0 by @fontawesome - https://fontawesome.com License - https://fontawesome.com/license (Commercial License) Copyright 2023 Fonticons, Inc.--><path fill="currentColor" d="M7.22 1.34a.28.28 0 0 0-.2.08 6.98 6.98 0 0 0-1.33 7.96 6.93 6.93 0 0 0-5.67 4.3.27.27 0 0 0 .01.2c.1.16.31.19.45.07 2.2-2.02 6.1-2.4 8.06.9 1.95 3.28-.34 6.37-3.23 7.2-.18.06-.27.25-.18.4.04.07.1.12.19.13A7.03 7.03 0 0 0 12 19.94a7.03 7.03 0 0 0 6.68 2.63.26.26 0 0 0 .18-.12c.1-.16 0-.35-.17-.4-2.9-.84-5.2-3.93-3.23-7.22 1.96-3.3 5.87-2.9 8.06-.9.13.13.35.1.44-.05a.24.24 0 0 0 .02-.22 6.7 6.7 0 0 0-3-3.44 7 7 0 0 0-2.67-.85 7 7 0 0 0-1.33-7.95.32.32 0 0 0-.2-.08c-.2 0-.35.22-.28.42 1.07 2.94-.44 6.9-4.5 6.9-4.07 0-5.57-3.96-4.51-6.9.07-.2-.06-.42-.27-.42zM10 12.67a2 2 0 1 1 4 0 2 2 0 1 1-4 0zm-2.43 6.07c.26-.5.4-1.05.36-1.66a6.04 6.04 0 0 1-1.73-2.84 3.44 3.44 0 0 0-2.8-.4 8.67 8.67 0 0 0 3.46 5.8c.28-.27.52-.58.7-.91zM12 4a8.6 8.6 0 0 0-3.38.7c.08.34.2.67.37.97.29.5.7.96 1.26 1.26a6.07 6.07 0 0 1 3.51 0c.56-.3.97-.75 1.25-1.26.17-.3.3-.63.38-.98a8.61 8.61 0 0 0-3.39-.7zm5.78 10.25a6 6 0 0 1-1.71 2.83c-.06.6.09 1.17.36 1.66.17.33.41.64.7.92a8.66 8.66 0 0 0 3.45-5.81 4.27 4.27 0 0 0-1.13-.12c-.57.03-1.14.19-1.67.52z"/></svg>