<svg xmlns="http://www.w3.org/2000/svg" viewBox="0 0 24 24"><!--! Font Awesome Pro 6.2.1 by @fontawesome - https://fontawesome.com License - https://fontawesome.com/license (Commercial License) Copyright 2022 Fonticons, Inc.--><path fill="currentColor" d="M6 0a4.501 4.501 0 0 0-4.5 4.5v15C1.5 21.984 3.516 24 6 24h15c.83 0 1.5-.67 1.5-1.5S21.83 21 21 21v-3c.83 0 1.5-.67 1.5-1.5v-15C22.5.67 21.83 0 21 0h-1.5zm0 18h12v3H6c-.83 0-1.5-.67-1.5-1.5S5.17 18 6 18ZM7.5 6.75c0-.412.338-.75.75-.75h9c.413 0 .75.338.75.75s-.337.75-.75.75h-9a.752.752 0 0 1-.75-.75ZM8.25 9h9c.413 0 .75.338.75.75s-.338.75-.75.75h-9a.752.752 0 0 1-.75-.75c0-.412.338-.75.75-.75Z" style="stroke-width:.046875"/></svg>
