<svg xmlns="http://www.w3.org/2000/svg" viewBox="0 0 24 24"><!--! Font Awesome Pro 6.2.1 by @fontawesome - https://fontawesome.com License - https://fontawesome.com/license (Commercial License) Copyright 2022 Fonticons, Inc.--><path fill="currentColor" d="M8.625 3h6.75c.206 0 .375.169.375.375V5.25h-7.5V3.375c0-.206.169-.375.375-.375ZM6 3.375V5.25H3c-1.655 0-3 1.345-3 3v4.5h24v-4.5c0-1.655-1.345-3-3-3h-3V3.375A2.627 2.627 0 0 0 15.375.75h-6.75A2.627 2.627 0 0 0 6 3.375ZM24 14.25h-9v1.5c0 .83-.67 1.5-1.5 1.5h-3c-.83 0-1.5-.67-1.5-1.5v-1.5H0v6c0 1.655 1.345 3 3 3h18c1.655 0 3-1.345 3-3z" style="stroke-width:.046875"/></svg>
