<svg xmlns="http://www.w3.org/2000/svg" viewBox="0 0 24 24"><!--! Font Awesome Pro 6.2.1 by @fontawesome - https://fontawesome.com License - https://fontawesome.com/license (Commercial License) Copyright 2022 Fonticons, Inc.--><path fill="currentColor" d="M12 0a4.5 4.5 0 0 1 4.498 4.498v.17a1.33 1.33 0 0 1-1.33 1.33H8.832a1.33 1.33 0 0 1-1.33-1.33v-.17A4.5 4.5 0 0 1 12 0ZM1.944 4.939a1.502 1.502 0 0 1 2.123 0l2.999 2.999c.033.033.06.066.089.098a4.86 4.86 0 0 1 2.226-.534h5.243c.801 0 1.556.192 2.226.534.028-.032.056-.065.089-.098l2.999-3a1.502 1.502 0 0 1 2.123 2.124l-3 2.999c-.032.032-.065.06-.098.089.29.562.474 1.185.52 1.85h3.013c.83 0 1.5.67 1.5 1.5s-.67 1.5-1.5 1.5h-2.999a7.45 7.45 0 0 1-.721 3.214c.103.061.197.136.281.225l2.999 2.999a1.502 1.502 0 0 1-2.123 2.123l-2.957-2.957a7.46 7.46 0 0 1-4.23 1.856V11.246a.752.752 0 0 0-.75-.75.752.752 0 0 0-.75.75v11.209a7.46 7.46 0 0 1-4.232-1.856l-2.952 2.952A1.502 1.502 0 0 1 1.94 21.43l3-3c.088-.088.182-.159.28-.224a7.478 7.478 0 0 1-.716-3.21h-3c-.829 0-1.499-.67-1.499-1.5 0-.829.67-1.5 1.5-1.5h3.013c.051-.66.234-1.288.52-1.85-.033-.028-.066-.056-.099-.09L1.94 7.058a1.502 1.502 0 0 1 0-2.123z" style="stroke-width:.046859"/></svg>
