<svg xmlns="http://www.w3.org/2000/svg" viewBox="0 0 24 24"><!--! Font Awesome Pro 6.3.0 by @fontawesome - https://fontawesome.com License - https://fontawesome.com/license (Commercial License) Copyright 2023 Fonticons, Inc.--><path fill="currentColor" d="M5.25 4.88a1.12 1.12 0 1 1 0-2.25 1.12 1.12 0 1 1 0 2.25zm1.52 2.3a3.75 3.75 0 1 0-3.02 0v9.63a3.74 3.74 0 1 0 3 0v-4.06a7.46 7.46 0 0 0 4.5 1.5h4.06a3.74 3.74 0 1 0 0-3h-4.06a4.5 4.5 0 0 1-4.48-4.07Zm-1.52 14.2a1.12 1.12 0 1 1 0-2.25 1.12 1.12 0 1 1 0 2.25zm14.63-8.63a1.12 1.12 0 1 1-2.25 0 1.12 1.12 0 1 1 2.25 0z"/></svg>