<svg xmlns="http://www.w3.org/2000/svg" viewBox="0 0 24 24"><!--! Font Awesome Pro 6.3.0 by @fontawesome - https://fontawesome.com License - https://fontawesome.com/license (Commercial License) Copyright 2023 Fonticons, Inc.--><path fill="currentColor" d="M14.33.1c.4.18.67.58.67 1.03V3h.75a6 6 0 0 1 6 6v7.81a3.74 3.74 0 1 1-3 0V9a3 3 0 0 0-3-3H15v1.88a1.12 1.12 0 0 1-1.88.83L9.38 5.33a1.13 1.13 0 0 1 0-1.67L13.12.3c.33-.3.81-.37 1.21-.2zM4.87 3.75a1.12 1.12 0 1 0-2.25 0 1.12 1.12 0 1 0 2.25 0zm.38 3.44v9.62a3.74 3.74 0 1 1-3 0V7.2a3.74 3.74 0 1 1 3 0Zm-.38 13.06a1.12 1.12 0 1 0-2.25 0 1.12 1.12 0 1 0 2.25 0zm15.38 1.13a1.12 1.12 0 1 0 0-2.25 1.12 1.12 0 1 0 0 2.25z"/></svg>