<svg xmlns="http://www.w3.org/2000/svg" viewBox="0 0 24 24"><!--! Font Awesome Pro 6.2.1 by @fontawesome - https://fontawesome.com License - https://fontawesome.com/license (Commercial License) Copyright 2022 Fonticons, Inc.--><path fill="currentColor" d="M24 11.25C24 16.636 18.628 21 12 21c-1.738 0-3.388-.3-4.879-.84-.557.408-1.467.966-2.545 1.435-1.125.487-2.48.904-3.825.904a.75.75 0 0 1-.534-1.28l.014-.013c.014-.014.033-.033.061-.066.052-.056.131-.145.23-.267.192-.234.45-.581.712-1.013.469-.778.914-1.8 1.003-2.948C.831 15.32.001 13.364.001 11.25c0-5.386 5.372-9.75 12-9.75C18.628 1.5 24 5.865 24 11.25Z" style="stroke-width:.0468723"/></svg>
