<svg xmlns="http://www.w3.org/2000/svg" viewBox="0 0 24 24"><!--! Font Awesome Pro 6.3.0 by @fontawesome - https://fontawesome.com License - https://fontawesome.com/license (Commercial License) Copyright 2023 Fonticons, Inc.--><path fill="currentColor" d="M17.2 2.35a3.32 3.32 0 0 0-3.33 3.31v1.1L.47 17.08A1.21 1.21 0 0 0 1.94 19l2.81-2.17h5.02l1.76 4.27a.9.9 0 0 0 1.67-.69l-1.47-3.58h1.66l1.76 4.27a.9.9 0 0 0 1.67-.68l-1.58-3.85a7.25 7.25 0 0 0 5.27-6.97V6.87l3.03-.76a.6.6 0 0 0 .44-.73 2.41 2.41 0 0 0-2.34-1.83h-1.89a3.32 3.32 0 0 0-2.56-1.2Zm0 2.41a.9.9 0 1 1 0 1.8.9.9 0 1 1 0-1.8z"/></svg>