<svg xmlns="http://www.w3.org/2000/svg" width="24" height="24"><path fill="currentColor" d="M13.122 11.26h-2.479V9.031h2.479zm0-7.661h-2.479v2.276h2.479zm2.932 5.43h-2.478v2.227h2.478zm-5.86-2.704h-2.48v2.253h2.48Zm2.928 0h-2.479v2.253h2.479zm10.38 3.75c-.54-.364-1.786-.495-2.742-.315-.124-.9-.626-1.684-1.54-2.39l-.526-.348-.349.525c-.69 1.043-.877 2.76-.138 3.892-.327.177-.968.417-1.815.402H.092c-.327 1.905.217 4.38 1.65 6.078 1.39 1.646 3.476 2.482 6.202 2.482 5.902 0 10.27-2.718 12.314-7.657.802.015 2.535.004 3.423-1.695.057-.093.248-.495.319-.64ZM4.335 9.028H1.862v2.228H4.34V9.028Zm2.929 0H4.786v2.228h2.479zm2.928 0H7.715v2.228h2.478ZM7.265 6.325H4.786v2.253h2.479z" style="stroke-width:.0374974"/></svg>