<svg xmlns="http://www.w3.org/2000/svg" viewBox="0 0 24 24"><!--! Font Awesome Pro 6.2.1 by @fontawesome - https://fontawesome.com License - https://fontawesome.com/license (Commercial License) Copyright 2022 Fonticons, Inc.--><path fill="currentColor" d="M15.314 18.923a9.809 9.809 0 0 1-6.628 0c-.014-.004-.024-.009-.038-.014A9.776 9.776 0 0 1 4.964 16.5 9.71 9.71 0 0 1 2.25 9.75 9.749 9.749 0 0 1 12 0a9.749 9.749 0 0 1 9.75 9.75 9.71 9.71 0 0 1-2.714 6.75c-.047.047-.094.098-.14.145a9.787 9.787 0 0 1-3.577 2.278zM12 4.308a.942.942 0 0 0-.942.942v.281c-.263.057-.511.136-.745.24-.704.318-1.308.909-1.458 1.766-.085.479-.038.938.16 1.36.196.412.5.703.81.914.544.37 1.26.586 1.81.75l.102.033c.652.197 1.097.347 1.374.548a.53.53 0 0 1 .178.188c.014.037.042.122.01.314-.029.164-.118.3-.376.412-.285.122-.75.183-1.35.09-.28-.048-.782-.216-1.228-.371-.103-.033-.201-.07-.3-.098a.938.938 0 1 0-.59 1.78l.206.071c.37.127.952.324 1.397.427v.295a.942.942 0 0 0 1.884 0v-.258c.253-.047.492-.117.722-.215.736-.314 1.331-.924 1.481-1.814.085-.488.047-.952-.14-1.379a2.351 2.351 0 0 0-.793-.96c-.571-.413-1.326-.643-1.893-.816l-.038-.01c-.665-.201-1.115-.342-1.401-.534-.122-.084-.16-.14-.17-.164-.008-.014-.032-.075-.004-.234.014-.09.09-.244.385-.38.3-.136.768-.211 1.34-.122.202.033.84.155 1.017.202a.94.94 0 0 0 1.149-.666.937.937 0 0 0-.666-1.148c-.206-.057-.675-.15-.984-.207V5.25a.942.942 0 0 0-.942-.942zM2.25 16.5H3a11.341 11.341 0 0 0 3.384 3H3V21h18v-1.5h-3.384a11.285 11.285 0 0 0 3.384-3h.75A2.25 2.25 0 0 1 24 18.75v3A2.25 2.25 0 0 1 21.75 24H2.25A2.25 2.25 0 0 1 0 21.75v-3a2.25 2.25 0 0 1 2.25-2.25Z" style="stroke-width:.046875"/></svg>
