<svg xmlns="http://www.w3.org/2000/svg" width="24" height="24"><!--! Font Awesome Pro 6.2.1 by @fontawesome - https://fontawesome.com License - https://fontawesome.com/license (Commercial License) Copyright 2022 Fonticons, Inc.--><path fill="currentColor" d="M12.483 2.264 10.898 3.45a.997.997 0 0 0-.398.802v.426a.576.576 0 0 0 .895.478l1.96-1.308a.594.594 0 0 1 .318-.098h.047a.532.532 0 0 1 .375.905l-.933.933a2.486 2.486 0 0 1-.97.6L10.95 6.6a.656.656 0 0 0-.45.628.68.68 0 0 1-.192.469l-.84.839c-.3.3-.463.703-.463 1.125v.202c0 .768.637 1.392 1.401 1.392.516 0 .994-.29 1.224-.75l.187-.38a.674.674 0 0 1 .6-.37c.211 0 .408.098.535.267l.764 1.017c.098.136.257.211.426.211a.53.53 0 0 0 .474-.769l-.052-.108a.604.604 0 0 1 .352-.843l.993-.333a.867.867 0 0 0 .596-.825.87.87 0 0 1 .872-.872h1.373c.412 0 .75.338.75.75s-.337.75-.75.75h-.97c-.338 0-.666.136-.905.375l-.22.22a.532.532 0 0 0 .375.905h.53c.28 0 .553.113.75.31l.304.304a.455.455 0 0 1 0 .638l-.352.351a.94.94 0 0 0-.262.647c0 .24.094.469.267.642l.858.858c.478.478 1.13.75 1.81.75h.346a9.776 9.776 0 0 0 .469-3c0-5.222-4.106-9.488-9.267-9.736Zm8.062 14.433a1.058 1.058 0 0 0-.61-.192c-.28 0-.552-.113-.75-.31l-.622-.633A1.908 1.908 0 0 0 17.207 15c-.455 0-.9-.164-1.247-.46l-1.242-1.068a3.011 3.011 0 0 0-1.95-.722h-.985c-.59 0-1.171.173-1.664.502l-1.284.857A3.006 3.006 0 0 0 7.5 16.608v.15c0 .797.314 1.56.877 2.123l.75.75c.398.399.937.624 1.5.624h.998c.623 0 1.125.501 1.125 1.125 0 .117.019.234.052.342a9.742 9.742 0 0 0 7.743-5.025zM24 12c0 6.628-5.372 12-12 12S0 18.628 0 12 5.372 0 12 0s12 5.372 12 12ZM8.78 4.72a.753.753 0 0 0-1.06 0l-1.5 1.5a.753.753 0 0 0 0 1.06c.29.29.77.29 1.06 0l1.5-1.5a.753.753 0 0 0 0-1.06z" style="stroke-width:.046875"/></svg>