<svg xmlns="http://www.w3.org/2000/svg" viewBox="0 0 24 24"><!--! Font Awesome Pro 6.2.1 by @fontawesome - https://fontawesome.com License - https://fontawesome.com/license (Commercial License) Copyright 2022 Fonticons, Inc.--><path fill="currentColor" d="M12 3c-4.969 0-9 4.031-9 9s4.031 9 9 9c.83 0 1.5.67 1.5 1.5S12.83 24 12 24C5.372 24 0 18.628 0 12S5.372 0 12 0s12 5.372 12 12v1.5a4.501 4.501 0 0 1-7.931 2.91A6 6 0 1 1 12 6c1.308 0 2.517.417 3.502 1.13A1.498 1.498 0 0 1 18 8.25v5.25c0 .83.67 1.5 1.5 1.5s1.5-.67 1.5-1.5V12c0-4.969-4.031-9-9-9Zm3 9c0-1.655-1.345-3-3-3s-3 1.345-3 3 1.345 3 3 3 3-1.345 3-3z" style="stroke-width:.046875"/></svg>
