<svg xmlns="http://www.w3.org/2000/svg" width="24" height="24"><!--! Font Awesome Pro 6.2.1 by @fontawesome - https://fontawesome.com License - https://fontawesome.com/license (Commercial License) Copyright 2022 Fonticons, Inc.--><path fill="currentColor" d="M11.998 2.667c-3.366 0-6.062 1.534-8.024 3.359C2.024 7.834.72 10 .104 11.488c-.138.329-.138.695 0 1.024.616 1.488 1.92 3.654 3.87 5.462 1.962 1.825 4.658 3.359 8.024 3.359 3.366 0 6.062-1.534 8.024-3.359 1.95-1.812 3.254-3.974 3.875-5.462.137-.329.137-.695 0-1.024-.62-1.488-1.925-3.654-3.875-5.462-1.962-1.825-4.658-3.359-8.024-3.359Zm6 9.333c0 3.312-2.688 6-6 6s-6-2.688-6-6 2.688-6 6-6 6 2.688 6 6zm-6-2.666A2.669 2.669 0 0 1 9.33 12c-.479 0-.929-.125-1.316-.35-.008.117-.017.23-.017.35a4 4 0 0 0 8 0 4 4 0 0 0-4.35-3.983c.22.387.35.837.35 1.317z" style="stroke-width:.0416631"/></svg>