<svg xmlns="http://www.w3.org/2000/svg" width="24" height="24"><path fill="currentColor" d="M8.823 7.287Zm-2.8-1.4c.008 0 .004 0 0 0zm16.753 2.162c-.506-1.216-1.53-2.527-2.333-2.943.654 1.282 1.033 2.569 1.177 3.528l.003.02c-1.315-3.278-3.545-4.6-5.366-7.477a14.481 14.481 0 0 1-.273-.445 2.92 2.92 0 0 1-.129-.24 2.14 2.14 0 0 1-.173-.46.03.03 0 0 0-.026-.03.043.043 0 0 0-.022 0l-.006.003-.009.005.005-.007c-2.585 1.514-3.657 4.165-3.933 5.853a6.197 6.197 0 0 0-2.304.588.298.298 0 0 0-.147.37.292.292 0 0 0 .371.18l.025-.01a5.618 5.618 0 0 1 2.008-.525l.067-.004c.096-.006.191-.01.286-.01a5.845 5.845 0 0 1 1.671.229l.096.03a5.341 5.341 0 0 1 .46.164c.053.021.105.042.156.065q.12.054.238.112c.036.017.071.035.107.054q.115.06.226.125.072.042.143.086a5.954 5.954 0 0 1 2.034 2.104c-.62-.437-1.733-.868-2.804-.681 4.182 2.09 3.06 9.291-2.736 9.02a5.169 5.169 0 0 1-1.513-.293 6.65 6.65 0 0 1-.341-.14 3.375 3.375 0 0 1-.197-.095c-1.422-.73-2.595-2.117-2.741-3.801 0 0 .536-2 3.843-2 .357 0 1.379-.997 1.398-1.287-.004-.096-2.028-.9-2.817-1.677-.422-.416-.622-.616-.8-.766a3.317 3.317 0 0 0-.3-.227 5.39 5.39 0 0 1-.033-2.843c-1.195.544-2.124 1.404-2.799 2.163h-.005c-.461-.584-.43-2.51-.402-2.912-.006-.025-.345.176-.389.206a8.511 8.511 0 0 0-1.136.974A10.202 10.202 0 0 0 2.27 6.357 9.813 9.813 0 0 0 .71 9.88c-.003.013-.111.487-.19 1.072l-.038.274a7.818 7.818 0 0 0-.069.667c0 .011 0 .023-.002.034-.009.13-.016.258-.023.387v.06C.388 18.793 5.594 24 12.016 24c5.75 0 10.526-4.175 11.461-9.66.02-.148.035-.298.053-.448.231-1.994-.026-4.09-.754-5.842z" style="stroke-width:.0476711"/></svg>