<svg xmlns="http://www.w3.org/2000/svg" xmlns:xlink="http://www.w3.org/1999/xlink" width="24" height="24" viewBox="0 0 24 24"><path fill="currentColor" d="m12 2.604l-.43.283L0 10.459v6.752l6.393 4.184L12 17.725l5.607 3.671L24 17.211v-6.752L12 2.604zm0 .828l5.434 3.556l-2.717 1.778L12 10.545l-2.717-1.78l-2.717-1.777L12 3.432zM6.39 7.104l5.434 3.556l-5.408 3.54l-5.434-3.557l5.409-3.54zm11.22 0l5.431 3.554l-5.434 3.557l-5.433-3.555l5.435-3.556zM.925 10.867l5.379 3.52a.123.08 0 0 0 .027.013v5.647l-5.406-3.54v-5.64zm11.213.115l5.408 3.54v5.664l-5.408-3.54v-5.664z"/></svg>