<svg xmlns="http://www.w3.org/2000/svg" width="24" height="24"><!--! Font Awesome Pro 6.2.1 by @fontawesome - https://fontawesome.com License - https://fontawesome.com/license (Commercial License) Copyright 2022 Fonticons, Inc.--><path fill="currentColor" d="M15.33 2.668a3.333 3.333 0 0 1 3.32 3.02l3.567 1.096a2.525 2.525 0 0 1 .504 4.608l-6.024 3.42 3.854 3.854h2.112c.737 0 1.333.595 1.333 1.333 0 .737-.596 1.333-1.333 1.333h-2.666a1.33 1.33 0 0 1-.942-.392l-4.603-4.6a4.33 4.33 0 0 0-1.058-4.402 4.329 4.329 0 0 0-6.12-.005L4.208 14.85a.665.665 0 1 0 .916.967L8.2 12.891l.004-.004.004-.004a2.997 2.997 0 0 1 4.24 0 3.002 3.002 0 0 1 .376 3.787 3.19 3.19 0 0 1-.375.454l-1.542 1.541h3.758c.738 0 1.333.596 1.333 1.334 0 .737-.595 1.333-1.333 1.333H2.666A2.669 2.669 0 0 1 0 18.666C0 11.733 5.29 6.039 12.052 5.397a3.336 3.336 0 0 1 3.279-2.729Zm0 4.333c.555 0 1-.446 1-1s-.445-1-1-1c-.553 0-1 .446-1 1s.447 1 1 1z" style="stroke-width:.0416594"/></svg>