<svg xmlns="http://www.w3.org/2000/svg" width="24" height="24"><path fill="currentColor" d="M8.027 19.142c0 .097-.11.174-.251.174-.16.014-.271-.063-.271-.174 0-.097.111-.174.251-.174.146-.015.271.062.271.174zm-1.504-.218c-.034.097.062.208.208.237.125.048.27 0 .3-.097.029-.096-.063-.208-.208-.251-.126-.034-.267.014-.3.111zm2.138-.082c-.14.034-.237.126-.222.237.014.097.14.16.285.126.14-.034.237-.126.223-.223-.015-.092-.145-.155-.286-.14zM11.845.3C5.134.3 0 5.395 0 12.106c0 5.366 3.377 9.958 8.202 11.574.619.112.837-.27.837-.585 0-.3-.015-1.955-.015-2.971 0 0-3.387.726-4.098-1.442 0 0-.552-1.408-1.345-1.77 0 0-1.108-.76.077-.746 0 0 1.205.097 1.868 1.248 1.06 1.868 2.835 1.331 3.527 1.012.112-.775.426-1.312.774-1.631-2.704-.3-5.433-.692-5.433-5.347 0-1.33.367-1.998 1.141-2.85-.125-.314-.537-1.611.126-3.285C6.673 4.998 9 6.619 9 6.619a11.368 11.368 0 0 1 3.039-.411c1.03 0 2.07.14 3.038.411 0 0 2.328-1.626 3.34-1.306.662 1.679.25 2.97.125 3.285.774.857 1.248 1.524 1.248 2.85 0 4.67-2.85 5.042-5.555 5.347.446.382.823 1.108.823 2.245 0 1.63-.014 3.649-.014 4.045 0 .315.222.697.837.586C20.719 22.064 24 17.472 24 12.106 24 5.395 18.556.3 11.845.3ZM4.703 16.989c-.063.048-.048.16.034.251.078.078.189.111.252.049.063-.049.048-.16-.034-.252-.078-.078-.189-.111-.252-.048Zm-.522-.392c-.034.062.014.14.11.188.078.049.175.034.209-.034.034-.062-.015-.14-.111-.188-.097-.03-.174-.015-.208.034zm1.567 1.722c-.077.063-.048.208.063.3.112.111.252.126.315.049.063-.063.034-.208-.063-.3-.107-.112-.252-.126-.315-.049zm-.551-.711c-.078.048-.078.174 0 .285.077.112.208.16.27.112.078-.063.078-.19 0-.3-.067-.112-.193-.16-.27-.097Z" style="stroke-width:.0483871"/></svg>