<svg xmlns="http://www.w3.org/2000/svg" viewBox="0 0 24 24" width="24" height="24"><path fill="currentColor" d="M19.704 0c-4.992 0-5.904 7.116-3.12 7.116 2.808 0 8.112-7.116 3.12-7.116M12 .876c-.096 0-.18 0-.264.012-2.808.36-1.824 5.256-.336 5.34 1.464.096 3.048-5.352.6-5.352M7.116 2.808a1.25 1.25 0 0 0-.48.108c-2.256.936-.348 4.776.924 4.524 1.164-.24 1.308-4.68-.444-4.632m-3.6 3.012c-.192-.012-.408.06-.624.216-1.812 1.248.6 4.26 1.668 3.792.924-.408.336-3.96-1.044-4.008m10.032 2.304c-3.828.036-8.712 1.98-9.564 5.784C3.036 18.132 7.872 24 12.912 24c2.484 0 5.34-2.244 5.88-5.076.408-2.16-4.812-1.296-4.62.132.228 1.716-1.26 2.544-2.712 1.464-4.632-3.528 7.656-5.28 6.84-10.092-.264-1.56-2.292-2.316-4.752-2.304z" style="stroke-width:1.2"/></svg>
