<svg xmlns="http://www.w3.org/2000/svg" width="24" height="24"><path fill="currentColor" d="M18.072 13.801c-2.232 0-4.104 1.596-4.584 3.72-1.14-.492-2.184-.36-2.976-.012-.492-2.136-2.364-3.708-4.584-3.708-2.604 0-4.728 2.148-4.728 4.8 0 2.652 2.124 4.8 4.728 4.8 2.472 0 4.488-1.944 4.68-4.416.408-.288 1.476-.828 2.784.024.216 2.46 2.208 4.392 4.68 4.392 2.604 0 4.728-2.148 4.728-4.8 0-2.652-2.124-4.8-4.728-4.8M5.928 22.033c-1.872 0-3.372-1.536-3.372-3.432s1.512-3.432 3.372-3.432c1.872 0 3.372 1.536 3.372 3.432s-1.5 3.432-3.372 3.432m12.144 0c-1.872 0-3.372-1.536-3.372-3.432s1.5-3.432 3.372-3.432c1.872 0 3.384 1.536 3.384 3.432s-1.524 3.432-3.384 3.432M24 10.801H0v1.8h24v-1.8m-7.764-9.444a1.29 1.29 0 0 0-1.572-.696L12 1.55 9.324.661 9.264.65a1.29 1.29 0 0 0-1.548.768L4.8 9.001h14.4l-2.928-7.584Z" style="stroke-width:1.2"/></svg>