<svg xmlns="http://www.w3.org/2000/svg" width="24" height="24"><!--! Font Awesome Pro 6.2.1 by @fontawesome - https://fontawesome.com License - https://fontawesome.com/license (Commercial License) Copyright 2022 Fonticons, Inc.--><path fill="currentColor" d="M12.75 4.502a8.25 8.25 0 0 0-7.86 5.742 11.555 11.555 0 0 1 5.235-1.242h4.125c.412 0 .75.337.75.75 0 .412-.338.75-.75.75h-4.125a10.065 10.065 0 0 0-5.61 1.692A10.122 10.122 0 0 0 0 20.627v.75c0 .623.502 1.125 1.125 1.125S2.25 22 2.25 21.377v-.75a7.85 7.85 0 0 1 2.522-5.775 8.251 8.251 0 0 0 7.978 6.15h.047C18.989 20.969 24 14.866 24 7.342c0-1.996-.352-3.895-.99-5.606-.12-.323-.594-.31-.758-.005a5.24 5.24 0 0 1-4.627 2.77z" style="stroke-width:.046875"/></svg>