<svg xmlns="http://www.w3.org/2000/svg" viewBox="0 0 24 24"><!--! Font Awesome Pro 6.3.0 by @fontawesome - https://fontawesome.com License - https://fontawesome.com/license (Commercial License) Copyright 2023 Fonticons, Inc.--><path fill="currentColor" d="M24 3.43A3.43 3.43 0 0 0 19.55.16c-1.2.37-2.57.8-3.8.48C11.72-.4 7.37 1.23 4.3 4.3 1.23 7.37-.39 11.72.64 15.75c.3 1.23-.11 2.6-.48 3.8a3.43 3.43 0 0 0 4.3 4.3c1.2-.38 2.57-.8 3.8-.49 4.02 1.03 8.37-.59 11.44-3.66 3.07-3.07 4.7-7.42 3.66-11.44-.3-1.23.11-2.6.48-3.8.1-.33.16-.67.16-1.03ZM11.38 5.1a9.52 9.52 0 0 0-6.27 6.27.86.86 0 0 1-1.65-.48 11.23 11.23 0 0 1 7.44-7.44.86.86 0 0 1 .48 1.65Z"/></svg>