<svg xmlns="http://www.w3.org/2000/svg" viewBox="0 0 24 24"><!--! Font Awesome Pro 6.2.1 by @fontawesome - https://fontawesome.com License - https://fontawesome.com/license (Commercial License) Copyright 2022 Fonticons, Inc.--><path fill="currentColor" d="M8.25 6.75V9h7.5V6.75A3.749 3.749 0 0 0 12 3a3.749 3.749 0 0 0-3.75 3.75ZM5.25 9V6.75A6.752 6.752 0 0 1 12 0a6.752 6.752 0 0 1 6.75 6.75V9h.75c1.655 0 3 1.345 3 3v9c0 1.655-1.345 3-3 3h-15c-1.655 0-3-1.345-3-3v-9c0-1.655 1.345-3 3-3z" style="stroke-width:.046875"/></svg>
