<svg xmlns="http://www.w3.org/2000/svg" width="24" height="24"><path fill="currentColor" d="M23.194 7.88c0-5.207-3.413-6.733-3.413-6.733C16.433-.39 7.54-.374 4.222 1.147c0 0-3.413 1.526-3.413 6.733 0 6.197-.353 13.894 5.658 15.485 2.17.573 4.035.696 5.535.61 2.721-.15 4.248-.97 4.248-.97l-.09-1.976s-1.946.611-4.131.541c-2.165-.075-4.446-.235-4.801-2.892a5.492 5.492 0 0 1-.048-.744c4.586 1.119 8.497.487 9.574.358 3.006-.358 5.624-2.212 5.958-3.904.525-2.668.482-6.508.482-6.508zm-4.024 6.706h-2.498V8.469c0-2.662-3.428-2.764-3.428.37v3.347h-2.481V8.838c0-3.133-3.428-3.032-3.428-.37v6.117H4.832c0-6.54-.279-7.922.986-9.373 1.387-1.548 4.275-1.65 5.561.327l.622 1.044.621-1.044c1.291-1.988 4.184-1.864 5.561-.327 1.27 1.462.986 2.839.986 9.373z" style="stroke-width:.0535629"/></svg>