<svg xmlns="http://www.w3.org/2000/svg" width="24" height="24" viewBox="0 0 24 24"><path fill="currentColor" d="M7.984 15.31c.142-.003.855-.052.96-.082-.09-.097-1.635-.037-2.55-1.86-.162-.322-.282-.66-.24-1.035.108-.956 1.233-1.125 1.95-.693 1.35.81 2.374 3.423 4.264 3.656 1.387.169 3.172-.638 4.057-1.703-.022-.003-.03-.007-.037-.003l-.042.01c-1.249.455-3.536.365-5.051-.554-1.41-.855-1.991-2.201-1.943-2.798.068-.798.86-.87 1.347-.735.54.147.915.66 1.458 1.028a2.53 2.53 0 0 0 1.924.386c.559-.101 1.29-.461 1.369-.544-.041-.003-.068-.003-.094-.007-.232-.023-.465-.03-.694-.064-4.17-.619-4.833-6.135-9.468-6.491-1.662-.128-3.728.304-5.112 1.312-.03.023-.056.045-.082.068.004.007.004.011.007.019.03 0 .06-.004.09-.008.237-.037.47-.03.702.011.892.162 1.788.867 2.096 2.87.199 1.285-.026 1.904.3 3.228.712 2.891 3.412 4.035 4.789 3.99zM2.824 4.834c-.034-.037-.034-.045-.049-.075a8.871 8.871 0 0 1 1.373-.18c-.042.552-.833.8-1.324.255zm7.383 13.144c-1.605.045-3.45-1.001-4.63-2.302-.173-.188-.63-.758-.698-.878l.015-.015c.247.154.963.698 2.055 1.013.907.262 1.804.236 2.685-.124.851-.349 1.537-.019 1.616.109-.694.142-.754.165-.9.296-.191.165-.172.439.263.645.982.465 2.362-.105 3.644.952.09.075.304.293.38.402-.005.007-.012.01-.016.018-.18-.056-.615-.28-1.507-.348-.927-.075-1.737.198-2.907.232zm6.555-9.45c.615-.195 1.55-.502 2.494-.124.604.244.983.702 1.204 1.298.131.352.191.739.191 1.076-.007 0-.015 0-.022.004a.26.26 0 0 1-.019-.049c-.188-.825-1.121-1.642-2.535-1.121-1.883.697-4.89.364-6.634-1.8-.026-.034-.09-.064-.049-.12.004-.008.08.022.113.049a5.527 5.527 0 0 0 2.261.982c1.144.229 2.048.109 2.996-.195zm3.852 4.406c-1.215.008-1.268 1.88-3.885 2.415-.683.14-1.452.173-1.684.158v-.015c.105-.056.551-.098 1.114-.623.296-.273.573-.566.855-.858.731-.758 1.552-1.583 3.071-1.463.866.068 1.099.308 1.354.476.011.008.015.02.026.034-.019 0-.026.004-.034 0-.262-.101-.536-.124-.817-.124zm-.462-.903c-.003.007-.003.015-.007.022-1.084-.165-1.8-.296-2.569.15-.637.371-1.177.769-2.325.915-1.016.128-1.691.09-2.479-.3-.01-.007-.022-.015-.037-.022 0-.008.004-.012.004-.02.934.143 1.365.192 2.081-.217.836-.483 1.504-.997 2.674-1.162 1.11-.154 1.924.094 2.659.634zm-10.08-5.982c-.022-.022-.04-.045-.078-.086.285 0 1.114-.045 2.002.315.739.3 1.208.788 1.883 1.234.416.274.877.349 1.365.304.161-.015.319-.045.48-.064.015-.004.034 0 .056.011-.022.015-.045.034-.067.045-.304.15-.627.236-.96.266-.98.098-1.887-.138-2.753-.577a7.204 7.204 0 0 1-1.927-1.448zM24 14.988c-.131.117-.851.435-1.601.2-.462-.147-.732-.56-1.185-.905-.375-.285-.784-.296-1.054-.315.022-.03.034-.045.045-.052.555-.345 1.144-.458 1.774-.244.469.158.72.506 1.14.908.405.39.787.37.866.393.004-.003.008 0 .015.015zm-7.969 5.138c.083.045.06.056.057.075-.694-.053-1.272-.285-1.756-.833-.817-.926-1.563-1.046-1.822-1.113.019-.008.03-.015.041-.015.491.003.979.026 1.459.146.949.24 1.313.952 1.56 1.324.12.18.274.31.461.416z" style="stroke-width:.0375"/></svg>
