<svg xmlns="http://www.w3.org/2000/svg" width="24" height="24"><!--! Font Awesome Pro 6.2.1 by @fontawesome - https://fontawesome.com License - https://fontawesome.com/license (Commercial License) Copyright 2022 Fonticons, Inc.--><path fill="currentColor" d="M8.187 2.303a4.49 4.49 0 0 1 7.62 0l1.81 2.891 1.265-.73a1.12 1.12 0 0 1 1.247.079c.36.277.52.745.403 1.186l-1.097 4.096c-.16.6-.778.956-1.378.796l-4.096-1.096a1.124 1.124 0 0 1-.271-2.058l1.33-.768-1.757-2.807a1.492 1.492 0 0 0-2.53 0l-.82 1.312a1.498 1.498 0 0 1-2.044.492 1.501 1.501 0 0 1-.502-2.08Zm11.942 9.692a1.498 1.498 0 0 1 2.043.492l1.144 1.832c.44.708.675 1.519.684 2.353a4.493 4.493 0 0 1-4.49 4.518l-4.513-.005v1.5a1.126 1.126 0 0 1-1.921.797l-3-3a1.12 1.12 0 0 1 0-1.589l3-3a1.126 1.126 0 0 1 1.921.798v1.5h4.509a1.493 1.493 0 0 0 1.265-2.283l-1.144-1.833a1.497 1.497 0 0 1 .502-2.08ZM3.042 10.542l-1.355-.783a1.124 1.124 0 0 1-.553-1.12c.061-.45.385-.82.825-.937l4.096-1.097c.6-.16 1.219.197 1.378.797l1.097 4.091c.117.44-.043.905-.403 1.186-.361.281-.853.31-1.247.08l-1.242-.718-2.414 3.862a1.493 1.493 0 0 0 1.265 2.282H6c.83 0 1.5.67 1.5 1.5s-.67 1.5-1.5 1.5h-1.51a4.49 4.49 0 0 1-3.805-6.87Z" style="stroke-width:.0468656"/></svg>