<svg xmlns="http://www.w3.org/2000/svg" viewBox="0 0 24 24"><!--! Font Awesome Pro 6.2.1 by @fontawesome - https://fontawesome.com License - https://fontawesome.com/license (Commercial License) Copyright 2022 Fonticons, Inc.--><path fill="currentColor" d="M24 3c0 5.325-3.966 9.727-9.103 10.406a11.96 11.96 0 0 0-3.061-6.53A10.495 10.495 0 0 1 21 1.5h1.5c.83 0 1.5.67 1.5 1.5ZM0 6c0-.83.67-1.5 1.5-1.5H3c5.798 0 10.5 4.702 10.5 10.5v6c0 .83-.67 1.5-1.5 1.5s-1.5-.67-1.5-1.5v-4.5C4.702 16.5 0 11.798 0 6Z" style="stroke-width:.046875"/></svg>
