<svg xmlns="http://www.w3.org/2000/svg" width="24" height="24" viewBox="0 0 24 24"><path fill="currentColor" d="m9.12.35.27 1.09a10.85 10.85 0 0 0-3.02 1.25l-.57-.97A11.96 11.96 0 0 1 9.12.35zm5.76 0-.27 1.09a10.85 10.85 0 0 1 3.02 1.25l.58-.97A11.96 11.96 0 0 0 14.88.35zM1.72 5.8A11.96 11.96 0 0 0 .35 9.12l1.1.27a10.85 10.85 0 0 1 1.24-3.02zm-.6 6.2a10.86 10.86 0 0 1 .13-1.63L.13 10.2a12.04 12.04 0 0 0 0 3.6l1.12-.17A10.86 10.86 0 0 1 1.12 12zM18.2 22.27l-.57-.96a10.85 10.85 0 0 1-3.02 1.25l.27 1.09a11.96 11.96 0 0 0 3.32-1.38zM22.88 12a10.86 10.86 0 0 1-.13 1.63l1.12.17a12.04 12.04 0 0 0 0-3.6l-1.12.17a10.86 10.86 0 0 1 .13 1.63zm.77 2.88-1.1-.27a10.85 10.85 0 0 1-1.24 3.02l.97.58a11.96 11.96 0 0 0 1.37-3.33zm-10.02 7.87a10.95 10.95 0 0 1-3.26 0l-.17 1.12a12.04 12.04 0 0 0 3.6 0zm7.12-4.3a10.91 10.91 0 0 1-2.3 2.3l.67.91a12.02 12.02 0 0 0 2.54-2.54zm-2.3-15.2a10.91 10.91 0 0 1 2.3 2.3l.91-.68a12.02 12.02 0 0 0-2.54-2.53zm-15.2 2.3a10.91 10.91 0 0 1 2.3-2.3l-.68-.91a12.02 12.02 0 0 0-2.53 2.53zm19.02.25-.96.57a10.85 10.85 0 0 1 1.25 3.02l1.09-.27a11.96 11.96 0 0 0-1.37-3.32zm-11.9-4.55a10.95 10.95 0 0 1 3.26 0L13.8.13a12.04 12.04 0 0 0-3.6 0zm-6.55 20.7-2.32.55.54-2.32-1.1-.26-.54 2.32a1.13 1.13 0 0 0 1.36 1.36l2.32-.54zm-2.64-3.03 1.1.25.37-1.6a10.83 10.83 0 0 1-1.2-2.96l-1.1.27a11.91 11.91 0 0 0 1.1 2.85zm5.25 2.43-1.6.38.25 1.1 1.18-.28a11.91 11.91 0 0 0 2.85 1.1l.27-1.09a10.83 10.83 0 0 1-2.94-1.21zM12 2.25a9.75 9.75 0 0 0-8.25 14.94l-.94 4 4-.94a9.75 9.75 0 1 0 5.19-18z"/></svg>