<svg xmlns="http://www.w3.org/2000/svg" viewBox="0 0 24 24"><path fill="currentColor" d="M9.75 24a1.16 1.16 0 0 1-1.1-.75L6.8 18.39a.75.75 0 0 0-.43-.43L1.5 16.1a1.17 1.17 0 0 1 0-2.18l4.86-1.87a.75.75 0 0 0 .43-.43l1.87-4.86a1.17 1.17 0 0 1 2.18 0l1.87 4.86a.75.75 0 0 0 .43.43l4.83 1.85a1.2 1.2 0 0 1 .78 1.13A1.16 1.16 0 0 1 18 16.1l-4.86 1.87a.75.75 0 0 0-.43.43l-1.87 4.86a1.16 1.16 0 0 1-1.09.75Zm3.13-11.95Zm-8.75-3.8a.69.69 0 0 1-.65-.44L2.7 5.75a.34.34 0 0 0-.2-.2L.45 4.78a.69.69 0 0 1 0-1.29L2.5 2.7a.34.34 0 0 0 .2-.2L3.47.47A.7.7 0 0 1 4.04 0a.69.69 0 0 1 .73.43l.79 2.06a.34.34 0 0 0 .2.2l2.05.78a.69.69 0 0 1 0 1.29l-2.06.79a.34.34 0 0 0-.2.2L4.78 7.8a.69.69 0 0 1-.64.44ZM18.75 12a.75.75 0 0 1-.7-.48l-1.07-2.78a.38.38 0 0 0-.22-.22l-2.78-1.07a.75.75 0 0 1 0-1.4l2.78-1.07a.38.38 0 0 0 .22-.22L18.04 2a.77.77 0 0 1 .62-.5.75.75 0 0 1 .79.48l1.07 2.78a.38.38 0 0 0 .22.22l2.78 1.07a.75.75 0 0 1 0 1.4l-2.78 1.07a.38.38 0 0 0-.22.22l-1.07 2.78a.75.75 0 0 1-.7.48z"/></svg>