<svg xmlns="http://www.w3.org/2000/svg" width="24" height="24"><path fill="currentColor" d="M24 12c0 6.629-5.38 12-12.02 12A12.012 12.012 0 0 1 .417 15.271l4.607 1.902a3.4 3.4 0 0 0 6.73-.827l4.089-2.914a4.536 4.536 0 0 0 4.635-4.524 4.535 4.535 0 0 0-9.068 0v.058l-2.864 4.147a3.388 3.388 0 0 0-2.105.585L0 11.038C.494 4.857 5.666 0 11.98 0 18.62 0 24 5.371 24 12ZM7.534 18.208l-1.476-.61a2.554 2.554 0 0 0 1.316 1.249 2.557 2.557 0 0 0 3.339-1.374 2.523 2.523 0 0 0 .005-1.95 2.544 2.544 0 0 0-1.38-1.384 2.534 2.534 0 0 0-1.882-.03l1.525.63a1.871 1.871 0 0 1 1.01 2.453 1.88 1.88 0 0 1-2.457 1.016zm8.41-6.285a3.022 3.022 0 0 1-3.02-3.015 3.022 3.022 0 0 1 3.02-3.014 3.022 3.022 0 0 1 3.019 3.014 3.02 3.02 0 0 1-3.02 3.015zm.004-.755a2.265 2.265 0 1 0 0-4.529 2.268 2.268 0 0 0-2.269 2.264 2.275 2.275 0 0 0 2.27 2.265z" style="stroke-width:.0483871"/></svg>