<svg xmlns="http://www.w3.org/2000/svg" viewBox="0 0 24 24"><!--! Font Awesome Pro 6.2.1 by @fontawesome - https://fontawesome.com License - https://fontawesome.com/license (Commercial License) Copyright 2022 Fonticons, Inc.--><path fill="currentColor" d="M23.29 4.099a2.403 2.403 0 0 0 0-3.396 2.403 2.403 0 0 0-3.396 0L12 8.604 4.099.71a2.403 2.403 0 0 0-3.396 0 2.403 2.403 0 0 0 0 3.396L8.604 12 .71 19.901a2.403 2.403 0 0 0 3.396 3.396L12 15.396l7.901 7.894a2.403 2.403 0 0 0 3.396 0 2.403 2.403 0 0 0 0-3.396L15.396 12z" style="stroke-width:.0749649"/></svg>
