<svg xmlns="http://www.w3.org/2000/svg" viewBox="0 0 24 24"><!--! Font Awesome Pro 6.2.1 by @fontawesome - https://fontawesome.com License - https://fontawesome.com/license (Commercial License) Copyright 2022 Fonticons, Inc.--><path fill="currentColor" d="M11.372.277 4.406 7.94a1.08 1.08 0 0 0 .802 1.81h1.167l-3.44 3.44a1.058 1.058 0 0 0 .75 1.81H5.25l-3.497 4.194A1.1 1.1 0 0 0 2.601 21H10.5v1.5c0 .83.67 1.5 1.5 1.5s1.5-.67 1.5-1.5V21h7.898a1.1 1.1 0 0 0 .849-1.805L18.75 15h1.566a1.058 1.058 0 0 0 .75-1.81l-3.441-3.44h1.167a1.083 1.083 0 0 0 .802-1.81L12.628.278A.841.841 0 0 0 12 0a.841.841 0 0 0-.628.277Z" style="stroke-width:.046875"/></svg>
