<svg xmlns="http://www.w3.org/2000/svg" viewBox="0 0 24 24"><path fill="currentColor" d="M6.55 24v-1.64q-2.05 0-3.48-1.43-1.43-1.43-1.43-3.48H0q0 2.73 1.9 4.64Q3.83 24 6.56 24ZM24 6.55q0-2.73-1.9-4.64Q20.17 0 17.44 0v1.64q2.05 0 3.48 1.43 1.43 1.43 1.43 3.48Zm-2.62 14.83q1.31-1.3 1.97-2.97.65-1.66.65-3.4 0-1.73-.65-3.4-.66-1.66-1.97-2.96l-5.02-5.02q-.38-.38-.96-.41-.6-.03-1 .38-.38.38-.38.97 0 .58.38.97l4.45 4.44q-1.1.87-1.34 2.33-.25 1.46.95 2.69l-.76.76q-1.12-1.03-1.27-2.75-.15-1.72.92-3L9.03 1.69q-.41-.4-.97-.4t-.97.4q-.38.38-.4.94-.04.56.4 1l5.97 5.97-.73.76L4.8 2.84q-.38-.39-.97-.39-.58 0-.97.39-.38.38-.38.96 0 .6.38.97l7.53 7.53-.79.76-6.35-6.35q-.41-.41-.97-.41t-.97.4q-.38.4-.38.98t.38.97l7.14 7.11-.76.8-4.83-4.83q-.43-.44-1-.41-.55.03-.93.4-.38.39-.41.95-.03.56.4 1l7.73 7.71q1.3 1.31 2.97 1.97 1.66.65 3.4.65 1.73 0 3.39-.65 1.66-.66 2.97-1.97z"/></svg>