<svg xmlns="http://www.w3.org/2000/svg" viewBox="0 0 1000 1000"><path d="M661 963.3a486.7 486.7 0 0 0-103.2-21c-19.9-2.1-77.8-3-99.6-1.5a489.5 489.5 0 0 0-121 21.8l-14.6 4.6-13.4-5.4a518.4 518.4 0 0 1-116.8-68l-11-8.5-1.7-9C167.8 810.2 128 724.5 78.3 657.9a517.7 517.7 0 0 0-65.6-72.2l-6.8-6-2-15.5c-5.6-44.8-5.2-95.1 1.4-138.6l1.3-8.9 6-5c9.7-8.3 40.4-39.6 49.3-50.3a691.8 691.8 0 0 0 40.4-54.6c38-58 68.5-128 79-181.4 1.2-6.3 3-12.2 3.8-13.2A509.4 509.4 0 0 1 309.7 38l13.9-5.8 13.7 4.5c96 31.5 229.8 31.5 325.8 0l13.6-4.4 10 4a508.7 508.7 0 0 1 130.8 77.1c.3.3 1.6 5.3 2.8 11.1 7.7 39 22 78.7 43.7 122.2C896.6 312.2 939 370 983 409l11.2 10 1.7 11.7c3.6 26.4 4.2 35.1 4.1 70.5a381 381 0 0 1-2.3 53.7c-3.3 27.6-3.1 27-8.8 31.8-69.6 59-135.2 164.3-162.6 261-2 7.5-4.8 18.5-6 24.6-1.1 6-2.5 12-3 13.1-2 4.6-42.2 33-67.1 47.5-22.6 13-71 35.4-75.4 34.9-.7-.1-7-2.1-13.8-4.5zm-297.5-38.8c14.9-2.7 26.1-6.5 40.6-13.6a134.2 134.2 0 0 0 40.6-29.8 145.5 145.5 0 0 0 38.2-71.6c2-8.9 2.3-13 2.3-29.9 0-21.5-1-28.8-6.7-46a147 147 0 0 0-111.1-99c-12-2.5-45.8-2.5-58 0a156.7 156.7 0 0 0-54 22.7c-10.8 7.1-27.4 23-35.7 34.1a148 148 0 0 0-5.4 167.8c25 38.2 64.1 62 110.6 67 7.4.8 30-.2 38.6-1.7zm-47.5-3.2a144.6 144.6 0 0 1-119-114c-3-14.7-3-41.9 0-56.4 6.3-28.8 19-52.3 39.7-73a142.8 142.8 0 0 1 76.3-40.1c12.4-2.5 38.6-2.5 51 0 61 12 105.6 57.3 116.4 118.3 2.3 13.2 2 36.2-.6 49.6a143.5 143.5 0 0 1-110.3 113.8c-13.6 3.2-39.7 4-53.5 1.8zm43-18.6c3.9-.6 11.7-2.6 17.5-4.5a125.8 125.8 0 0 0 84.9-95c2.5-11.3 2.4-37 0-48.4A125.4 125.4 0 0 0 213.2 779 125.4 125.4 0 0 0 359 902.6zm329.4 21.7a147.8 147.8 0 0 0 104.7-213 148 148 0 0 0-142.9-79 147 147 0 0 0-130.8 110c-7 25.8-6 57.4 2.5 83.3a154.9 154.9 0 0 0 51.9 71.7 158 158 0 0 0 71.8 28.5c9.6 1.2 32.2.4 42.8-1.5zm-42.4-2.2c-8-1-23.9-4.7-32-7.5a146.2 146.2 0 0 1-81.7-73.4c-9.5-20-13.8-39.1-13.8-61.7 0-23 4.2-41.7 13.7-61.7 20.4-42.6 57-70.8 104.3-80.2 12.3-2.4 38.5-2.4 51 0 30.3 6 55.2 19.1 76.2 40.2a141.7 141.7 0 0 1 39.7 73c3.2 14.6 3.2 41.8 0 56.5A145 145 0 0 1 691.6 920c-8.8 2-37 3.3-45.6 2.2zm28-18.4a125.5 125.5 0 0 0 107.6-87 125 125 0 0 0-149.3-159 125.4 125.4 0 0 0-88.3 79.7 106 106 0 0 0-6.7 41.6c0 11.5.5 18.3 1.8 24.1A126.2 126.2 0 0 0 649 903.7a86.6 86.6 0 0 0 25 0zM206 643.5c30.3-6.5 53.1-18.8 75-40.6 23.1-23.1 36.1-48.1 41.6-80.2A146.2 146.2 0 0 0 281.3 395a150.3 150.3 0 0 0-76-40.8c-12.3-2.6-45-2.5-57.2 0A149.3 149.3 0 0 0 31.2 474.7c-2.2 12.3-2.2 37 .1 49.6a148.7 148.7 0 0 0 126.9 121.2c10.5 1.4 37.2.4 47.8-1.9zm-47.8-1.8A145 145 0 0 1 37.7 535.3c-7.2-27.4-5.9-57.6 3.4-84a144.4 144.4 0 0 1 207.5-77 162 162 0 0 1 47.6 44.2A143.4 143.4 0 0 1 199.8 641c-8.4 1.4-32.7 1.8-41.6.8zm42.7-19.9a125.2 125.2 0 0 0 86.7-64.4c19-36 19.6-76.7 1.8-113a124.7 124.7 0 0 0-87.3-68c-11.4-2.5-32.5-3-44.4-1-53.6 8.8-95 49.5-104.2 102.4-2 11.1-2 31.7 0 43a125 125 0 0 0 67.1 89.8c14 7 27.6 11 44.6 13.1 6.5.9 27.8-.3 35.7-1.9zm644 23c46.8-6.9 88.6-36.7 109.8-78.2A146.4 146.4 0 0 0 930 397.2a148.3 148.3 0 0 0-75.7-42.5c-9-2-13.2-2.3-30.5-2.3-22.4 0-29.3 1-47.6 7.1a147.5 147.5 0 0 0-97.4 109.7c-2 9-2.3 13.1-2.3 30 0 21.2 1 28.3 6.7 45.4a149 149 0 0 0 101.7 96.7c19 5 41 6.4 60 3.5zm-44.7-3.8a148 148 0 0 1-61-25.5 182 182 0 0 1-35-36.1 143.4 143.4 0 0 1-.5-160c7.7-11.7 28-32 39.4-39.6a143.7 143.7 0 0 1 183.4 19.1 143.8 143.8 0 0 1-72.2 240.6c-11 2.6-42.8 3.5-54 1.5zm46.8-19.1c51-9.8 91.1-50.4 100-101.1 1.9-11.3 2-31.9 0-43a124.8 124.8 0 0 0-127.7-103.6c-33.5 1.3-60.6 13.1-84.2 36.7a121.3 121.3 0 0 0-34.7 64.2 154.5 154.5 0 0 0 0 48 126 126 0 0 0 108.1 100.2c9.6 1.2 28.3.5 38.5-1.4zM370 364a149.3 149.3 0 0 0 106.4-88.5 145.8 145.8 0 0 0-33.7-161.4A146.7 146.7 0 0 0 367 74.8a200.5 200.5 0 0 0-54.8 0 155.7 155.7 0 0 0-55 22.8 180.1 180.1 0 0 0-39.2 39 147.4 147.4 0 0 0-.6 165.3 178.8 178.8 0 0 0 39.8 39.8 155 155 0 0 0 58.2 23.3c13.9 2.5 41 2 54.6-.9zm-42.6-1.2a142 142 0 0 1-89.1-42 142.2 142.2 0 0 1-39.7-73.2c-2.6-12-2.6-43 0-55 8.9-41.9 33-76 68.2-96.7 41.8-24.6 94-26.5 137.1-5 15 7.6 25.4 15 37.8 27.5 20 20 32.3 42 38.7 69.1 3.4 14.7 4.2 38.2 1.9 53.6A144.5 144.5 0 0 1 327.4 363zm39.1-21a124.2 124.2 0 0 0 62.2-34 124.8 124.8 0 0 0-94.7-213 122.8 122.8 0 0 0-82.7 36.6c-24 24-36.4 54.1-36.4 88.2 0 34 12.4 64.1 36.4 88.2 19 19 42.8 31.2 69.6 35.5 12 1.9 34 1.2 45.6-1.4zm323.3 22.2a155.2 155.2 0 0 0 57.1-24.9 174 174 0 0 0 36.2-37.3c11-16.6 18.7-35.4 22.8-55.7 2.4-12.3 2.4-39.3 0-52.4a147.4 147.4 0 0 0-38.6-75.5 143.8 143.8 0 0 0-112.2-45.6c-22.5 1-41 5.6-60.7 15.4-15 7.4-27.6 16.7-39.9 29.3a146.5 146.5 0 0 0-39.4 75.8 189.2 189.2 0 0 0 0 52.5 148.5 148.5 0 0 0 122.4 119.7c12.6 2 39.8 1.4 52.3-1.3zm-42-1.3a155 155 0 0 1-59.7-18.8 143.5 143.5 0 0 1-69.6-100.8c-2.5-15.2-2-40 1.1-53.7a141 141 0 0 1 39.2-71c20.6-20.7 44-33.4 73.4-39.8 6.5-1.4 12.9-1.8 29.3-1.7 19.7 0 21.8.2 32 2.7 56 14.2 96.6 56.3 108.3 112.4 2.7 12.8 2.7 43.4 0 55.6a144.5 144.5 0 0 1-154 115.1zm31.1-19.5c26.2-3.8 50.5-15.9 69.2-34.4a121.3 121.3 0 0 0 37.4-88.7c.1-34.5-12.2-64.5-36.3-88.7A123.7 123.7 0 0 0 642 96c-26.8 4-51 16.2-70.2 35.5a121 121 0 0 0-36.4 88.7c.1 46.8 25.1 88.2 66.5 110 23.7 12.6 50.1 17 77 13.1z" fill="#fff"/></svg>